G75*
%MOIN*%
%OFA0B0*%
%FSLAX25Y25*%
%IPPOS*%
%LPD*%
%AMOC8*
5,1,8,0,0,1.08239X$1,22.5*
%
%ADD10OC8,0.06400*%
%ADD11C,0.01600*%
%ADD12C,0.00800*%
%ADD13C,0.04000*%
D10*
X0021000Y0046000D03*
X0021000Y0056000D03*
X0021000Y0066000D03*
X0021000Y0076000D03*
X0031000Y0076000D03*
X0031000Y0066000D03*
X0031000Y0056000D03*
X0031000Y0046000D03*
X0046000Y0026000D03*
X0046000Y0016000D03*
X0056000Y0016000D03*
X0056000Y0026000D03*
X0066000Y0026000D03*
X0066000Y0016000D03*
X0076000Y0016000D03*
X0076000Y0026000D03*
X0086000Y0026000D03*
X0086000Y0016000D03*
X0096000Y0016000D03*
X0096000Y0026000D03*
X0111000Y0046000D03*
X0111000Y0056000D03*
X0111000Y0066000D03*
X0111000Y0076000D03*
X0121000Y0076000D03*
X0121000Y0066000D03*
X0121000Y0056000D03*
X0121000Y0046000D03*
X0151000Y0046000D03*
X0151000Y0056000D03*
X0151000Y0066000D03*
X0151000Y0076000D03*
X0161000Y0076000D03*
X0161000Y0066000D03*
X0161000Y0056000D03*
X0161000Y0046000D03*
X0161000Y0101000D03*
X0161000Y0111000D03*
X0161000Y0121000D03*
X0161000Y0131000D03*
X0151000Y0131000D03*
X0151000Y0121000D03*
X0151000Y0111000D03*
X0151000Y0101000D03*
X0121000Y0111000D03*
X0121000Y0121000D03*
X0121000Y0131000D03*
X0121000Y0141000D03*
X0111000Y0141000D03*
X0111000Y0131000D03*
X0111000Y0121000D03*
X0111000Y0111000D03*
X0111000Y0176000D03*
X0111000Y0186000D03*
X0111000Y0196000D03*
X0111000Y0206000D03*
X0121000Y0206000D03*
X0121000Y0196000D03*
X0121000Y0186000D03*
X0121000Y0176000D03*
X0121000Y0241000D03*
X0121000Y0251000D03*
X0121000Y0261000D03*
X0121000Y0271000D03*
X0111000Y0271000D03*
X0111000Y0261000D03*
X0111000Y0251000D03*
X0111000Y0241000D03*
X0031000Y0241000D03*
X0031000Y0251000D03*
X0031000Y0261000D03*
X0031000Y0271000D03*
X0021000Y0271000D03*
X0021000Y0261000D03*
X0021000Y0251000D03*
X0021000Y0241000D03*
X0021000Y0206000D03*
X0021000Y0196000D03*
X0021000Y0186000D03*
X0021000Y0176000D03*
X0031000Y0176000D03*
X0031000Y0186000D03*
X0031000Y0196000D03*
X0031000Y0206000D03*
X0031000Y0141000D03*
X0031000Y0131000D03*
X0031000Y0121000D03*
X0031000Y0111000D03*
X0021000Y0111000D03*
X0021000Y0121000D03*
X0021000Y0131000D03*
X0021000Y0141000D03*
D11*
X0013621Y0023379D02*
X0041833Y0023379D01*
X0041200Y0024012D02*
X0044012Y0021200D01*
X0047988Y0021200D01*
X0050800Y0024012D01*
X0050800Y0027988D01*
X0047988Y0030800D01*
X0044012Y0030800D01*
X0041200Y0027988D01*
X0041200Y0024012D01*
X0041200Y0024978D02*
X0012022Y0024978D01*
X0010424Y0026576D02*
X0041200Y0026576D01*
X0041386Y0028175D02*
X0008825Y0028175D01*
X0007227Y0029773D02*
X0042985Y0029773D01*
X0043431Y0021781D02*
X0015219Y0021781D01*
X0016818Y0020182D02*
X0043394Y0020182D01*
X0044012Y0020800D02*
X0041200Y0017988D01*
X0041200Y0014012D01*
X0044012Y0011200D01*
X0047988Y0011200D01*
X0050800Y0014012D01*
X0050800Y0017988D01*
X0047988Y0020800D01*
X0044012Y0020800D01*
X0041795Y0018584D02*
X0018416Y0018584D01*
X0020015Y0016985D02*
X0041200Y0016985D01*
X0041200Y0015387D02*
X0021613Y0015387D01*
X0023212Y0013788D02*
X0041424Y0013788D01*
X0043022Y0012190D02*
X0024810Y0012190D01*
X0026409Y0010591D02*
X0064013Y0010591D01*
X0064012Y0011200D02*
X0064622Y0011200D01*
X0059422Y0006000D01*
X0031000Y0006000D01*
X0006000Y0031000D01*
X0006000Y0276000D01*
X0016000Y0286000D01*
X0036922Y0286000D01*
X0059291Y0263630D01*
X0059275Y0263591D01*
X0059275Y0262159D01*
X0059823Y0260836D01*
X0060836Y0259823D01*
X0061012Y0259750D01*
X0060836Y0259677D01*
X0059823Y0258664D01*
X0059275Y0257341D01*
X0059275Y0255909D01*
X0059823Y0254586D01*
X0060836Y0253573D01*
X0060875Y0253557D01*
X0060875Y0206203D01*
X0059547Y0204875D01*
X0058375Y0203703D01*
X0058375Y0194547D01*
X0059291Y0193630D01*
X0059275Y0193591D01*
X0059275Y0192159D01*
X0059823Y0190836D01*
X0060836Y0189823D01*
X0062159Y0189275D01*
X0063591Y0189275D01*
X0064914Y0189823D01*
X0065927Y0190836D01*
X0066475Y0192159D01*
X0066475Y0193591D01*
X0065927Y0194914D01*
X0064914Y0195927D01*
X0063591Y0196475D01*
X0062375Y0196475D01*
X0062375Y0198453D01*
X0063409Y0198025D01*
X0064841Y0198025D01*
X0066164Y0198573D01*
X0067177Y0199586D01*
X0067725Y0200909D01*
X0067725Y0202341D01*
X0067709Y0202380D01*
X0077745Y0212416D01*
X0077784Y0212400D01*
X0079216Y0212400D01*
X0080539Y0212948D01*
X0081552Y0213961D01*
X0082100Y0215284D01*
X0082100Y0216716D01*
X0081552Y0218039D01*
X0080539Y0219052D01*
X0079216Y0219600D01*
X0077784Y0219600D01*
X0076461Y0219052D01*
X0075448Y0218039D01*
X0074900Y0216716D01*
X0074900Y0215284D01*
X0074916Y0215245D01*
X0064880Y0205209D01*
X0064875Y0205211D01*
X0064875Y0253557D01*
X0064914Y0253573D01*
X0065927Y0254586D01*
X0066475Y0255909D01*
X0066475Y0257341D01*
X0065927Y0258664D01*
X0064914Y0259677D01*
X0064738Y0259750D01*
X0064914Y0259823D01*
X0065927Y0260836D01*
X0066475Y0262159D01*
X0066475Y0263591D01*
X0065927Y0264914D01*
X0064914Y0265927D01*
X0063591Y0266475D01*
X0062159Y0266475D01*
X0062120Y0266459D01*
X0042578Y0286000D01*
X0066000Y0286000D01*
X0071000Y0291000D01*
X0071000Y0299161D01*
X0136000Y0299161D01*
X0136000Y0036000D01*
X0101000Y0006000D01*
X0065078Y0006000D01*
X0071828Y0012750D01*
X0072145Y0013067D01*
X0074012Y0011200D01*
X0077988Y0011200D01*
X0080800Y0014012D01*
X0080800Y0017988D01*
X0077988Y0020800D01*
X0074012Y0020800D01*
X0073000Y0019788D01*
X0073000Y0020172D01*
X0074028Y0021200D01*
X0077988Y0021200D01*
X0080800Y0024012D01*
X0080800Y0027988D01*
X0077988Y0030800D01*
X0074012Y0030800D01*
X0071200Y0027988D01*
X0071200Y0024028D01*
X0069000Y0021828D01*
X0069000Y0019788D01*
X0067988Y0020800D01*
X0064012Y0020800D01*
X0061200Y0017988D01*
X0061200Y0014012D01*
X0064012Y0011200D01*
X0063022Y0012190D02*
X0058978Y0012190D01*
X0057988Y0011200D02*
X0060800Y0014012D01*
X0060800Y0017988D01*
X0057988Y0020800D01*
X0054012Y0020800D01*
X0051200Y0017988D01*
X0051200Y0014012D01*
X0054012Y0011200D01*
X0057988Y0011200D01*
X0060576Y0013788D02*
X0061424Y0013788D01*
X0061200Y0015387D02*
X0060800Y0015387D01*
X0060800Y0016985D02*
X0061200Y0016985D01*
X0061795Y0018584D02*
X0060205Y0018584D01*
X0058606Y0020182D02*
X0063394Y0020182D01*
X0064012Y0021200D02*
X0067988Y0021200D01*
X0070800Y0024012D01*
X0070800Y0027988D01*
X0067988Y0030800D01*
X0064012Y0030800D01*
X0061200Y0027988D01*
X0061200Y0024012D01*
X0064012Y0021200D01*
X0063431Y0021781D02*
X0058569Y0021781D01*
X0057988Y0021200D02*
X0060800Y0024012D01*
X0060800Y0027972D01*
X0063703Y0030875D01*
X0069328Y0030875D01*
X0070500Y0032047D01*
X0073000Y0034547D01*
X0073000Y0038672D01*
X0082442Y0029230D01*
X0081200Y0027988D01*
X0081200Y0024012D01*
X0084012Y0021200D01*
X0087988Y0021200D01*
X0090800Y0024012D01*
X0090800Y0027988D01*
X0087988Y0030800D01*
X0086528Y0030800D01*
X0053085Y0064244D01*
X0053427Y0064586D01*
X0053975Y0065909D01*
X0053975Y0067341D01*
X0053427Y0068664D01*
X0052414Y0069677D01*
X0052375Y0069693D01*
X0052375Y0128557D01*
X0052414Y0128573D01*
X0053427Y0129586D01*
X0053975Y0130909D01*
X0053975Y0132341D01*
X0053427Y0133664D01*
X0052414Y0134677D01*
X0052375Y0134693D01*
X0052375Y0193557D01*
X0052414Y0193573D01*
X0053427Y0194586D01*
X0053975Y0195909D01*
X0053975Y0197341D01*
X0053427Y0198664D01*
X0052414Y0199677D01*
X0052375Y0199693D01*
X0052375Y0258557D01*
X0052414Y0258573D01*
X0053427Y0259586D01*
X0053975Y0260909D01*
X0053975Y0262341D01*
X0053427Y0263664D01*
X0052654Y0264437D01*
X0053427Y0265211D01*
X0053975Y0266534D01*
X0053975Y0267966D01*
X0053427Y0269289D01*
X0052414Y0270302D01*
X0051091Y0270850D01*
X0049659Y0270850D01*
X0048336Y0270302D01*
X0047323Y0269289D01*
X0046775Y0267966D01*
X0046775Y0266534D01*
X0046791Y0266495D01*
X0045797Y0265500D01*
X0044625Y0264328D01*
X0044625Y0205318D01*
X0044586Y0205302D01*
X0043573Y0204289D01*
X0043025Y0202966D01*
X0043025Y0201534D01*
X0043573Y0200211D01*
X0044586Y0199198D01*
X0044625Y0199182D01*
X0044625Y0140318D01*
X0044586Y0140302D01*
X0043573Y0139289D01*
X0043025Y0137966D01*
X0043025Y0136534D01*
X0043573Y0135211D01*
X0044586Y0134198D01*
X0044625Y0134182D01*
X0044625Y0075318D01*
X0044586Y0075302D01*
X0043573Y0074289D01*
X0043025Y0072966D01*
X0043025Y0071534D01*
X0043573Y0070211D01*
X0044586Y0069198D01*
X0044625Y0069182D01*
X0044625Y0056422D01*
X0063666Y0037380D01*
X0063650Y0037341D01*
X0063650Y0035909D01*
X0064078Y0034875D01*
X0062047Y0034875D01*
X0057972Y0030800D01*
X0054012Y0030800D01*
X0051200Y0027988D01*
X0051200Y0024012D01*
X0054012Y0021200D01*
X0057988Y0021200D01*
X0060167Y0023379D02*
X0061833Y0023379D01*
X0061200Y0024978D02*
X0060800Y0024978D01*
X0060800Y0026576D02*
X0061200Y0026576D01*
X0061386Y0028175D02*
X0061003Y0028175D01*
X0062602Y0029773D02*
X0062985Y0029773D01*
X0060142Y0032970D02*
X0006000Y0032970D01*
X0006000Y0031372D02*
X0058543Y0031372D01*
X0061740Y0034569D02*
X0006000Y0034569D01*
X0006000Y0036167D02*
X0063650Y0036167D01*
X0063281Y0037766D02*
X0006000Y0037766D01*
X0006000Y0039364D02*
X0061682Y0039364D01*
X0060084Y0040963D02*
X0006000Y0040963D01*
X0006000Y0042561D02*
X0017650Y0042561D01*
X0019012Y0041200D02*
X0016200Y0044012D01*
X0016200Y0047988D01*
X0019012Y0050800D01*
X0022988Y0050800D01*
X0025800Y0047988D01*
X0025800Y0044012D01*
X0022988Y0041200D01*
X0019012Y0041200D01*
X0016200Y0044160D02*
X0006000Y0044160D01*
X0006000Y0045758D02*
X0016200Y0045758D01*
X0016200Y0047357D02*
X0006000Y0047357D01*
X0006000Y0048955D02*
X0017167Y0048955D01*
X0018766Y0050554D02*
X0006000Y0050554D01*
X0006000Y0052152D02*
X0018059Y0052152D01*
X0019012Y0051200D02*
X0022988Y0051200D01*
X0025800Y0054012D01*
X0025800Y0057988D01*
X0022988Y0060800D01*
X0019012Y0060800D01*
X0016200Y0057988D01*
X0016200Y0054012D01*
X0019012Y0051200D01*
X0016461Y0053751D02*
X0006000Y0053751D01*
X0006000Y0055349D02*
X0016200Y0055349D01*
X0016200Y0056948D02*
X0006000Y0056948D01*
X0006000Y0058546D02*
X0016758Y0058546D01*
X0018357Y0060145D02*
X0006000Y0060145D01*
X0006000Y0061743D02*
X0018468Y0061743D01*
X0019012Y0061200D02*
X0016200Y0064012D01*
X0016200Y0067988D01*
X0019012Y0070800D01*
X0022988Y0070800D01*
X0025800Y0067988D01*
X0025800Y0064012D01*
X0022988Y0061200D01*
X0019012Y0061200D01*
X0016870Y0063342D02*
X0006000Y0063342D01*
X0006000Y0064940D02*
X0016200Y0064940D01*
X0016200Y0066539D02*
X0006000Y0066539D01*
X0006000Y0068137D02*
X0016349Y0068137D01*
X0017948Y0069736D02*
X0006000Y0069736D01*
X0006000Y0071334D02*
X0018877Y0071334D01*
X0019012Y0071200D02*
X0022988Y0071200D01*
X0025800Y0074012D01*
X0025800Y0077988D01*
X0022988Y0080800D01*
X0019012Y0080800D01*
X0016200Y0077988D01*
X0016200Y0074012D01*
X0019012Y0071200D01*
X0017279Y0072933D02*
X0006000Y0072933D01*
X0006000Y0074532D02*
X0016200Y0074532D01*
X0016200Y0076130D02*
X0006000Y0076130D01*
X0006000Y0077729D02*
X0016200Y0077729D01*
X0017539Y0079327D02*
X0006000Y0079327D01*
X0006000Y0080926D02*
X0044625Y0080926D01*
X0044625Y0082524D02*
X0006000Y0082524D01*
X0006000Y0084123D02*
X0044625Y0084123D01*
X0044625Y0085721D02*
X0006000Y0085721D01*
X0006000Y0087320D02*
X0044625Y0087320D01*
X0044625Y0088918D02*
X0006000Y0088918D01*
X0006000Y0090517D02*
X0044625Y0090517D01*
X0044625Y0092115D02*
X0006000Y0092115D01*
X0006000Y0093714D02*
X0044625Y0093714D01*
X0044625Y0095312D02*
X0006000Y0095312D01*
X0006000Y0096911D02*
X0044625Y0096911D01*
X0044625Y0098509D02*
X0006000Y0098509D01*
X0006000Y0100108D02*
X0044625Y0100108D01*
X0044625Y0101706D02*
X0006000Y0101706D01*
X0006000Y0103305D02*
X0044625Y0103305D01*
X0044625Y0104903D02*
X0006000Y0104903D01*
X0006000Y0106502D02*
X0018710Y0106502D01*
X0019012Y0106200D02*
X0016200Y0109012D01*
X0016200Y0112988D01*
X0019012Y0115800D01*
X0022988Y0115800D01*
X0025800Y0112988D01*
X0025800Y0109012D01*
X0022988Y0106200D01*
X0019012Y0106200D01*
X0017112Y0108100D02*
X0006000Y0108100D01*
X0006000Y0109699D02*
X0016200Y0109699D01*
X0016200Y0111297D02*
X0006000Y0111297D01*
X0006000Y0112896D02*
X0016200Y0112896D01*
X0017706Y0114494D02*
X0006000Y0114494D01*
X0006000Y0116093D02*
X0044625Y0116093D01*
X0044625Y0117691D02*
X0034480Y0117691D01*
X0035800Y0119012D02*
X0032988Y0116200D01*
X0029012Y0116200D01*
X0026200Y0119012D01*
X0026200Y0122988D01*
X0029012Y0125800D01*
X0032988Y0125800D01*
X0035800Y0122988D01*
X0035800Y0119012D01*
X0035800Y0119290D02*
X0044625Y0119290D01*
X0044625Y0120888D02*
X0035800Y0120888D01*
X0035800Y0122487D02*
X0044625Y0122487D01*
X0044625Y0124085D02*
X0034703Y0124085D01*
X0033104Y0125684D02*
X0044625Y0125684D01*
X0044625Y0127282D02*
X0034071Y0127282D01*
X0032988Y0126200D02*
X0035800Y0129012D01*
X0035800Y0132988D01*
X0032988Y0135800D01*
X0029012Y0135800D01*
X0026200Y0132988D01*
X0026200Y0129012D01*
X0029012Y0126200D01*
X0032988Y0126200D01*
X0035669Y0128881D02*
X0044625Y0128881D01*
X0044625Y0130479D02*
X0035800Y0130479D01*
X0035800Y0132078D02*
X0044625Y0132078D01*
X0044625Y0133676D02*
X0035112Y0133676D01*
X0033513Y0135275D02*
X0043546Y0135275D01*
X0043025Y0136873D02*
X0033662Y0136873D01*
X0032988Y0136200D02*
X0035800Y0139012D01*
X0035800Y0142988D01*
X0032988Y0145800D01*
X0029012Y0145800D01*
X0026200Y0142988D01*
X0026200Y0139012D01*
X0029012Y0136200D01*
X0032988Y0136200D01*
X0035260Y0138472D02*
X0043235Y0138472D01*
X0044354Y0140070D02*
X0035800Y0140070D01*
X0035800Y0141669D02*
X0044625Y0141669D01*
X0044625Y0143268D02*
X0035521Y0143268D01*
X0033922Y0144866D02*
X0044625Y0144866D01*
X0044625Y0146465D02*
X0006000Y0146465D01*
X0006000Y0148063D02*
X0044625Y0148063D01*
X0044625Y0149662D02*
X0006000Y0149662D01*
X0006000Y0151260D02*
X0044625Y0151260D01*
X0044625Y0152859D02*
X0006000Y0152859D01*
X0006000Y0154457D02*
X0044625Y0154457D01*
X0044625Y0156056D02*
X0006000Y0156056D01*
X0006000Y0157654D02*
X0044625Y0157654D01*
X0044625Y0159253D02*
X0006000Y0159253D01*
X0006000Y0160851D02*
X0044625Y0160851D01*
X0044625Y0162450D02*
X0006000Y0162450D01*
X0006000Y0164048D02*
X0044625Y0164048D01*
X0044625Y0165647D02*
X0006000Y0165647D01*
X0006000Y0167245D02*
X0044625Y0167245D01*
X0044625Y0168844D02*
X0006000Y0168844D01*
X0006000Y0170442D02*
X0044625Y0170442D01*
X0044625Y0172041D02*
X0033829Y0172041D01*
X0032988Y0171200D02*
X0035800Y0174012D01*
X0035800Y0177988D01*
X0032988Y0180800D01*
X0029012Y0180800D01*
X0026200Y0177988D01*
X0026200Y0174012D01*
X0029012Y0171200D01*
X0032988Y0171200D01*
X0035427Y0173639D02*
X0044625Y0173639D01*
X0044625Y0175238D02*
X0035800Y0175238D01*
X0035800Y0176836D02*
X0044625Y0176836D01*
X0044625Y0178435D02*
X0035353Y0178435D01*
X0033755Y0180033D02*
X0044625Y0180033D01*
X0044625Y0181632D02*
X0033420Y0181632D01*
X0032988Y0181200D02*
X0035800Y0184012D01*
X0035800Y0187988D01*
X0032988Y0190800D01*
X0029012Y0190800D01*
X0026200Y0187988D01*
X0026200Y0184012D01*
X0029012Y0181200D01*
X0032988Y0181200D01*
X0035019Y0183230D02*
X0044625Y0183230D01*
X0044625Y0184829D02*
X0035800Y0184829D01*
X0035800Y0186427D02*
X0044625Y0186427D01*
X0044625Y0188026D02*
X0035762Y0188026D01*
X0034164Y0189624D02*
X0044625Y0189624D01*
X0044625Y0191223D02*
X0033011Y0191223D01*
X0032988Y0191200D02*
X0035800Y0194012D01*
X0035800Y0197988D01*
X0032988Y0200800D01*
X0029012Y0200800D01*
X0026200Y0197988D01*
X0026200Y0194012D01*
X0029012Y0191200D01*
X0032988Y0191200D01*
X0034610Y0192821D02*
X0044625Y0192821D01*
X0044625Y0194420D02*
X0035800Y0194420D01*
X0035800Y0196018D02*
X0044625Y0196018D01*
X0044625Y0197617D02*
X0035800Y0197617D01*
X0034573Y0199215D02*
X0044568Y0199215D01*
X0043323Y0200814D02*
X0006000Y0200814D01*
X0006000Y0202412D02*
X0017799Y0202412D01*
X0019012Y0201200D02*
X0016200Y0204012D01*
X0016200Y0207988D01*
X0019012Y0210800D01*
X0022988Y0210800D01*
X0025800Y0207988D01*
X0025800Y0204012D01*
X0022988Y0201200D01*
X0019012Y0201200D01*
X0019012Y0200800D02*
X0016200Y0197988D01*
X0016200Y0194012D01*
X0019012Y0191200D01*
X0022988Y0191200D01*
X0025800Y0194012D01*
X0025800Y0197988D01*
X0022988Y0200800D01*
X0019012Y0200800D01*
X0017427Y0199215D02*
X0006000Y0199215D01*
X0006000Y0197617D02*
X0016200Y0197617D01*
X0016200Y0196018D02*
X0006000Y0196018D01*
X0006000Y0194420D02*
X0016200Y0194420D01*
X0017390Y0192821D02*
X0006000Y0192821D01*
X0006000Y0191223D02*
X0018989Y0191223D01*
X0019012Y0190800D02*
X0016200Y0187988D01*
X0016200Y0184012D01*
X0019012Y0181200D01*
X0022988Y0181200D01*
X0025800Y0184012D01*
X0025800Y0187988D01*
X0022988Y0190800D01*
X0019012Y0190800D01*
X0017836Y0189624D02*
X0006000Y0189624D01*
X0006000Y0188026D02*
X0016238Y0188026D01*
X0016200Y0186427D02*
X0006000Y0186427D01*
X0006000Y0184829D02*
X0016200Y0184829D01*
X0016981Y0183230D02*
X0006000Y0183230D01*
X0006000Y0181632D02*
X0018580Y0181632D01*
X0019012Y0180800D02*
X0016200Y0177988D01*
X0016200Y0174012D01*
X0019012Y0171200D01*
X0022988Y0171200D01*
X0025800Y0174012D01*
X0025800Y0177988D01*
X0022988Y0180800D01*
X0019012Y0180800D01*
X0018245Y0180033D02*
X0006000Y0180033D01*
X0006000Y0178435D02*
X0016647Y0178435D01*
X0016200Y0176836D02*
X0006000Y0176836D01*
X0006000Y0175238D02*
X0016200Y0175238D01*
X0016573Y0173639D02*
X0006000Y0173639D01*
X0006000Y0172041D02*
X0018171Y0172041D01*
X0023829Y0172041D02*
X0028171Y0172041D01*
X0026573Y0173639D02*
X0025427Y0173639D01*
X0025800Y0175238D02*
X0026200Y0175238D01*
X0026200Y0176836D02*
X0025800Y0176836D01*
X0025353Y0178435D02*
X0026647Y0178435D01*
X0028245Y0180033D02*
X0023755Y0180033D01*
X0023420Y0181632D02*
X0028580Y0181632D01*
X0026981Y0183230D02*
X0025019Y0183230D01*
X0025800Y0184829D02*
X0026200Y0184829D01*
X0026200Y0186427D02*
X0025800Y0186427D01*
X0025762Y0188026D02*
X0026238Y0188026D01*
X0027836Y0189624D02*
X0024164Y0189624D01*
X0023011Y0191223D02*
X0028989Y0191223D01*
X0027390Y0192821D02*
X0024610Y0192821D01*
X0025800Y0194420D02*
X0026200Y0194420D01*
X0026200Y0196018D02*
X0025800Y0196018D01*
X0025800Y0197617D02*
X0026200Y0197617D01*
X0027427Y0199215D02*
X0024573Y0199215D01*
X0024201Y0202412D02*
X0027799Y0202412D01*
X0029012Y0201200D02*
X0032988Y0201200D01*
X0035800Y0204012D01*
X0035800Y0207988D01*
X0032988Y0210800D01*
X0029012Y0210800D01*
X0026200Y0207988D01*
X0026200Y0204012D01*
X0029012Y0201200D01*
X0026201Y0204011D02*
X0025799Y0204011D01*
X0025800Y0205609D02*
X0026200Y0205609D01*
X0026200Y0207208D02*
X0025800Y0207208D01*
X0024982Y0208806D02*
X0027018Y0208806D01*
X0028617Y0210405D02*
X0023383Y0210405D01*
X0018617Y0210405D02*
X0006000Y0210405D01*
X0006000Y0212003D02*
X0044625Y0212003D01*
X0044625Y0210405D02*
X0033383Y0210405D01*
X0034982Y0208806D02*
X0044625Y0208806D01*
X0044625Y0207208D02*
X0035800Y0207208D01*
X0035800Y0205609D02*
X0044625Y0205609D01*
X0043458Y0204011D02*
X0035799Y0204011D01*
X0034201Y0202412D02*
X0043025Y0202412D01*
X0044625Y0213602D02*
X0006000Y0213602D01*
X0006000Y0215201D02*
X0044625Y0215201D01*
X0044625Y0216799D02*
X0006000Y0216799D01*
X0006000Y0218398D02*
X0044625Y0218398D01*
X0044625Y0219996D02*
X0006000Y0219996D01*
X0006000Y0221595D02*
X0044625Y0221595D01*
X0044625Y0223193D02*
X0006000Y0223193D01*
X0006000Y0224792D02*
X0044625Y0224792D01*
X0044625Y0226390D02*
X0006000Y0226390D01*
X0006000Y0227989D02*
X0044625Y0227989D01*
X0044625Y0229587D02*
X0006000Y0229587D01*
X0006000Y0231186D02*
X0044625Y0231186D01*
X0044625Y0232784D02*
X0006000Y0232784D01*
X0006000Y0234383D02*
X0044625Y0234383D01*
X0044625Y0235981D02*
X0006000Y0235981D01*
X0006000Y0237580D02*
X0017632Y0237580D01*
X0019012Y0236200D02*
X0016200Y0239012D01*
X0016200Y0242988D01*
X0019012Y0245800D01*
X0022988Y0245800D01*
X0025800Y0242988D01*
X0025800Y0239012D01*
X0022988Y0236200D01*
X0019012Y0236200D01*
X0016200Y0239178D02*
X0006000Y0239178D01*
X0006000Y0240777D02*
X0016200Y0240777D01*
X0016200Y0242375D02*
X0006000Y0242375D01*
X0006000Y0243974D02*
X0017186Y0243974D01*
X0018784Y0245572D02*
X0006000Y0245572D01*
X0006000Y0247171D02*
X0018041Y0247171D01*
X0019012Y0246200D02*
X0022988Y0246200D01*
X0025800Y0249012D01*
X0025800Y0252988D01*
X0022988Y0255800D01*
X0019012Y0255800D01*
X0016200Y0252988D01*
X0016200Y0249012D01*
X0019012Y0246200D01*
X0016443Y0248769D02*
X0006000Y0248769D01*
X0006000Y0250368D02*
X0016200Y0250368D01*
X0016200Y0251966D02*
X0006000Y0251966D01*
X0006000Y0253565D02*
X0016777Y0253565D01*
X0018375Y0255163D02*
X0006000Y0255163D01*
X0006000Y0256762D02*
X0018450Y0256762D01*
X0019012Y0256200D02*
X0016200Y0259012D01*
X0016200Y0262988D01*
X0019012Y0265800D01*
X0022988Y0265800D01*
X0025800Y0262988D01*
X0025800Y0259012D01*
X0022988Y0256200D01*
X0019012Y0256200D01*
X0016851Y0258360D02*
X0006000Y0258360D01*
X0006000Y0259959D02*
X0016200Y0259959D01*
X0016200Y0261557D02*
X0006000Y0261557D01*
X0006000Y0263156D02*
X0016368Y0263156D01*
X0017966Y0264754D02*
X0006000Y0264754D01*
X0006000Y0266353D02*
X0018859Y0266353D01*
X0019012Y0266200D02*
X0022988Y0266200D01*
X0025800Y0269012D01*
X0025800Y0272988D01*
X0022988Y0275800D01*
X0019012Y0275800D01*
X0016200Y0272988D01*
X0016200Y0269012D01*
X0019012Y0266200D01*
X0017260Y0267951D02*
X0006000Y0267951D01*
X0006000Y0269550D02*
X0016200Y0269550D01*
X0016200Y0271148D02*
X0006000Y0271148D01*
X0006000Y0272747D02*
X0016200Y0272747D01*
X0017557Y0274345D02*
X0006000Y0274345D01*
X0006000Y0275944D02*
X0046978Y0275944D01*
X0048576Y0274345D02*
X0034443Y0274345D01*
X0035800Y0272988D02*
X0032988Y0275800D01*
X0029012Y0275800D01*
X0026200Y0272988D01*
X0026200Y0269012D01*
X0029012Y0266200D01*
X0032988Y0266200D01*
X0035800Y0269012D01*
X0035800Y0272988D01*
X0035800Y0272747D02*
X0050175Y0272747D01*
X0051773Y0271148D02*
X0035800Y0271148D01*
X0035800Y0269550D02*
X0047584Y0269550D01*
X0046775Y0267951D02*
X0034740Y0267951D01*
X0033141Y0266353D02*
X0046649Y0266353D01*
X0045051Y0264754D02*
X0034034Y0264754D01*
X0032988Y0265800D02*
X0029012Y0265800D01*
X0026200Y0262988D01*
X0026200Y0259012D01*
X0029012Y0256200D01*
X0032988Y0256200D01*
X0035800Y0259012D01*
X0035800Y0262988D01*
X0032988Y0265800D01*
X0035632Y0263156D02*
X0044625Y0263156D01*
X0044625Y0261557D02*
X0035800Y0261557D01*
X0035800Y0259959D02*
X0044625Y0259959D01*
X0044625Y0258360D02*
X0035149Y0258360D01*
X0033550Y0256762D02*
X0044625Y0256762D01*
X0044625Y0255163D02*
X0033625Y0255163D01*
X0032988Y0255800D02*
X0029012Y0255800D01*
X0026200Y0252988D01*
X0026200Y0249012D01*
X0029012Y0246200D01*
X0032988Y0246200D01*
X0035800Y0249012D01*
X0035800Y0252988D01*
X0032988Y0255800D01*
X0035223Y0253565D02*
X0044625Y0253565D01*
X0044625Y0251966D02*
X0035800Y0251966D01*
X0035800Y0250368D02*
X0044625Y0250368D01*
X0044625Y0248769D02*
X0035557Y0248769D01*
X0033959Y0247171D02*
X0044625Y0247171D01*
X0044625Y0245572D02*
X0033216Y0245572D01*
X0032988Y0245800D02*
X0029012Y0245800D01*
X0026200Y0242988D01*
X0026200Y0239012D01*
X0029012Y0236200D01*
X0032988Y0236200D01*
X0035800Y0239012D01*
X0035800Y0242988D01*
X0032988Y0245800D01*
X0034814Y0243974D02*
X0044625Y0243974D01*
X0044625Y0242375D02*
X0035800Y0242375D01*
X0035800Y0240777D02*
X0044625Y0240777D01*
X0044625Y0239178D02*
X0035800Y0239178D01*
X0034368Y0237580D02*
X0044625Y0237580D01*
X0052375Y0237580D02*
X0060875Y0237580D01*
X0060875Y0239178D02*
X0052375Y0239178D01*
X0052375Y0240777D02*
X0060875Y0240777D01*
X0060875Y0242375D02*
X0052375Y0242375D01*
X0052375Y0243974D02*
X0060875Y0243974D01*
X0060875Y0245572D02*
X0052375Y0245572D01*
X0052375Y0247171D02*
X0060875Y0247171D01*
X0060875Y0248769D02*
X0052375Y0248769D01*
X0052375Y0250368D02*
X0060875Y0250368D01*
X0060875Y0251966D02*
X0052375Y0251966D01*
X0052375Y0253565D02*
X0060856Y0253565D01*
X0059584Y0255163D02*
X0052375Y0255163D01*
X0052375Y0256762D02*
X0059275Y0256762D01*
X0059697Y0258360D02*
X0052375Y0258360D01*
X0053581Y0259959D02*
X0060700Y0259959D01*
X0059524Y0261557D02*
X0053975Y0261557D01*
X0053637Y0263156D02*
X0059275Y0263156D01*
X0058167Y0264754D02*
X0052971Y0264754D01*
X0053900Y0266353D02*
X0056569Y0266353D01*
X0054970Y0267951D02*
X0053975Y0267951D01*
X0053372Y0269550D02*
X0053166Y0269550D01*
X0055831Y0272747D02*
X0106200Y0272747D01*
X0106200Y0272988D02*
X0106200Y0269012D01*
X0109012Y0266200D01*
X0112988Y0266200D01*
X0115800Y0269012D01*
X0115800Y0272988D01*
X0112988Y0275800D01*
X0109012Y0275800D01*
X0106200Y0272988D01*
X0106200Y0271148D02*
X0057430Y0271148D01*
X0059029Y0269550D02*
X0106200Y0269550D01*
X0107260Y0267951D02*
X0060627Y0267951D01*
X0063886Y0266353D02*
X0088762Y0266353D01*
X0088573Y0266164D02*
X0088025Y0264841D01*
X0088025Y0263409D01*
X0088573Y0262086D01*
X0089586Y0261073D01*
X0089625Y0261057D01*
X0089625Y0202193D01*
X0089586Y0202177D01*
X0088573Y0201164D01*
X0088025Y0199841D01*
X0088025Y0198409D01*
X0088573Y0197086D01*
X0089586Y0196073D01*
X0089625Y0196057D01*
X0089625Y0140943D01*
X0089586Y0140927D01*
X0088573Y0139914D01*
X0088025Y0138591D01*
X0088025Y0137159D01*
X0088041Y0137120D01*
X0077125Y0126203D01*
X0077125Y0072818D01*
X0077086Y0072802D01*
X0076073Y0071789D01*
X0075525Y0070466D01*
X0075525Y0069034D01*
X0076073Y0067711D01*
X0077086Y0066698D01*
X0078409Y0066150D01*
X0079841Y0066150D01*
X0081164Y0066698D01*
X0082177Y0067711D01*
X0082725Y0069034D01*
X0082725Y0070466D01*
X0082177Y0071789D01*
X0081164Y0072802D01*
X0081125Y0072818D01*
X0081125Y0124547D01*
X0088901Y0132323D01*
X0088650Y0131716D01*
X0088650Y0130284D01*
X0089198Y0128961D01*
X0090211Y0127948D01*
X0090250Y0127932D01*
X0090250Y0069068D01*
X0090211Y0069052D01*
X0089198Y0068039D01*
X0088650Y0066716D01*
X0088650Y0065284D01*
X0089198Y0063961D01*
X0090211Y0062948D01*
X0090250Y0062932D01*
X0090250Y0042078D01*
X0068625Y0063703D01*
X0068625Y0069182D01*
X0068664Y0069198D01*
X0069677Y0070211D01*
X0070225Y0071534D01*
X0070225Y0072966D01*
X0069677Y0074289D01*
X0068664Y0075302D01*
X0067341Y0075850D01*
X0065909Y0075850D01*
X0064875Y0075422D01*
X0064875Y0123557D01*
X0064914Y0123573D01*
X0065927Y0124586D01*
X0066475Y0125909D01*
X0066475Y0127341D01*
X0065927Y0128664D01*
X0064914Y0129677D01*
X0063591Y0130225D01*
X0062375Y0130225D01*
X0062375Y0133453D01*
X0063409Y0133025D01*
X0064841Y0133025D01*
X0066164Y0133573D01*
X0067177Y0134586D01*
X0067725Y0135909D01*
X0067725Y0137341D01*
X0067177Y0138664D01*
X0066164Y0139677D01*
X0066125Y0139693D01*
X0066125Y0176422D01*
X0078370Y0188666D01*
X0078409Y0188650D01*
X0079841Y0188650D01*
X0081164Y0189198D01*
X0082177Y0190211D01*
X0082725Y0191534D01*
X0082725Y0192966D01*
X0082177Y0194289D01*
X0081164Y0195302D01*
X0079841Y0195850D01*
X0078409Y0195850D01*
X0077086Y0195302D01*
X0076073Y0194289D01*
X0075525Y0192966D01*
X0075525Y0191534D01*
X0075541Y0191495D01*
X0062125Y0178078D01*
X0062125Y0150422D01*
X0061091Y0150850D01*
X0059659Y0150850D01*
X0058336Y0150302D01*
X0057323Y0149289D01*
X0056775Y0147966D01*
X0056775Y0146534D01*
X0057323Y0145211D01*
X0058336Y0144198D01*
X0058375Y0144182D01*
X0058375Y0128297D01*
X0059291Y0127380D01*
X0059275Y0127341D01*
X0059275Y0125909D01*
X0059823Y0124586D01*
X0060836Y0123573D01*
X0060875Y0123557D01*
X0060875Y0065943D01*
X0060836Y0065927D01*
X0059823Y0064914D01*
X0059275Y0063591D01*
X0059275Y0062159D01*
X0059823Y0060836D01*
X0060836Y0059823D01*
X0062159Y0059275D01*
X0063591Y0059275D01*
X0064914Y0059823D01*
X0065881Y0060790D01*
X0094000Y0032672D01*
X0094000Y0030788D01*
X0091200Y0027988D01*
X0091200Y0024012D01*
X0094012Y0021200D01*
X0097988Y0021200D01*
X0100800Y0024012D01*
X0100800Y0027988D01*
X0098000Y0030788D01*
X0098000Y0031172D01*
X0100875Y0028297D01*
X0100875Y0023703D01*
X0097972Y0020800D01*
X0094012Y0020800D01*
X0091200Y0017988D01*
X0091200Y0014012D01*
X0094012Y0011200D01*
X0097988Y0011200D01*
X0100800Y0014012D01*
X0100800Y0017972D01*
X0103703Y0020875D01*
X0103703Y0020875D01*
X0104875Y0022047D01*
X0104875Y0029953D01*
X0103703Y0031125D01*
X0094250Y0040578D01*
X0094250Y0062932D01*
X0094289Y0062948D01*
X0095302Y0063961D01*
X0095850Y0065284D01*
X0095850Y0066716D01*
X0095302Y0068039D01*
X0094289Y0069052D01*
X0094250Y0069068D01*
X0094250Y0127932D01*
X0094289Y0127948D01*
X0095302Y0128961D01*
X0095850Y0130284D01*
X0095850Y0131716D01*
X0095302Y0133039D01*
X0094289Y0134052D01*
X0093046Y0134567D01*
X0093664Y0134823D01*
X0094677Y0135836D01*
X0095225Y0137159D01*
X0095225Y0138591D01*
X0094677Y0139914D01*
X0093664Y0140927D01*
X0093625Y0140943D01*
X0093625Y0196057D01*
X0093664Y0196073D01*
X0094677Y0197086D01*
X0095225Y0198409D01*
X0095225Y0199841D01*
X0094677Y0201164D01*
X0093664Y0202177D01*
X0093625Y0202193D01*
X0093625Y0261057D01*
X0093664Y0261073D01*
X0094677Y0262086D01*
X0095225Y0263409D01*
X0095225Y0264841D01*
X0094677Y0266164D01*
X0093664Y0267177D01*
X0092341Y0267725D01*
X0090909Y0267725D01*
X0089586Y0267177D01*
X0088573Y0266164D01*
X0088025Y0264754D02*
X0065993Y0264754D01*
X0066475Y0263156D02*
X0088130Y0263156D01*
X0089101Y0261557D02*
X0066226Y0261557D01*
X0065050Y0259959D02*
X0089625Y0259959D01*
X0089625Y0258360D02*
X0066053Y0258360D01*
X0066475Y0256762D02*
X0089625Y0256762D01*
X0089625Y0255163D02*
X0066166Y0255163D01*
X0064894Y0253565D02*
X0089625Y0253565D01*
X0089625Y0251966D02*
X0064875Y0251966D01*
X0064875Y0250368D02*
X0089625Y0250368D01*
X0089625Y0248769D02*
X0064875Y0248769D01*
X0064875Y0247171D02*
X0089625Y0247171D01*
X0089625Y0245572D02*
X0064875Y0245572D01*
X0064875Y0243974D02*
X0089625Y0243974D01*
X0089625Y0242375D02*
X0064875Y0242375D01*
X0064875Y0240777D02*
X0089625Y0240777D01*
X0089625Y0239178D02*
X0064875Y0239178D01*
X0064875Y0237580D02*
X0089625Y0237580D01*
X0089625Y0235981D02*
X0064875Y0235981D01*
X0064875Y0234383D02*
X0089625Y0234383D01*
X0089625Y0232784D02*
X0064875Y0232784D01*
X0064875Y0231186D02*
X0089625Y0231186D01*
X0089625Y0229587D02*
X0064875Y0229587D01*
X0064875Y0227989D02*
X0089625Y0227989D01*
X0089625Y0226390D02*
X0064875Y0226390D01*
X0064875Y0224792D02*
X0089625Y0224792D01*
X0089625Y0223193D02*
X0064875Y0223193D01*
X0064875Y0221595D02*
X0089625Y0221595D01*
X0089625Y0219996D02*
X0064875Y0219996D01*
X0064875Y0218398D02*
X0075806Y0218398D01*
X0074934Y0216799D02*
X0064875Y0216799D01*
X0064875Y0215201D02*
X0074872Y0215201D01*
X0073274Y0213602D02*
X0064875Y0213602D01*
X0064875Y0212003D02*
X0071675Y0212003D01*
X0070077Y0210405D02*
X0064875Y0210405D01*
X0064875Y0208806D02*
X0068478Y0208806D01*
X0066880Y0207208D02*
X0064875Y0207208D01*
X0064875Y0205609D02*
X0065281Y0205609D01*
X0067741Y0202412D02*
X0089625Y0202412D01*
X0089625Y0204011D02*
X0069339Y0204011D01*
X0070938Y0205609D02*
X0089625Y0205609D01*
X0089625Y0207208D02*
X0072536Y0207208D01*
X0074135Y0208806D02*
X0089625Y0208806D01*
X0089625Y0210405D02*
X0075733Y0210405D01*
X0077332Y0212003D02*
X0089625Y0212003D01*
X0089625Y0213602D02*
X0081193Y0213602D01*
X0082065Y0215201D02*
X0089625Y0215201D01*
X0089625Y0216799D02*
X0082066Y0216799D01*
X0081194Y0218398D02*
X0089625Y0218398D01*
X0093625Y0218398D02*
X0136000Y0218398D01*
X0136000Y0219996D02*
X0093625Y0219996D01*
X0093625Y0221595D02*
X0136000Y0221595D01*
X0136000Y0223193D02*
X0093625Y0223193D01*
X0093625Y0224792D02*
X0136000Y0224792D01*
X0136000Y0226390D02*
X0093625Y0226390D01*
X0093625Y0227989D02*
X0136000Y0227989D01*
X0136000Y0229587D02*
X0093625Y0229587D01*
X0093625Y0231186D02*
X0136000Y0231186D01*
X0136000Y0232784D02*
X0093625Y0232784D01*
X0093625Y0234383D02*
X0136000Y0234383D01*
X0136000Y0235981D02*
X0093625Y0235981D01*
X0093625Y0237580D02*
X0107632Y0237580D01*
X0109012Y0236200D02*
X0112988Y0236200D01*
X0115800Y0239012D01*
X0115800Y0242988D01*
X0112988Y0245800D01*
X0109012Y0245800D01*
X0106200Y0242988D01*
X0106200Y0239012D01*
X0109012Y0236200D01*
X0106200Y0239178D02*
X0093625Y0239178D01*
X0093625Y0240777D02*
X0106200Y0240777D01*
X0106200Y0242375D02*
X0093625Y0242375D01*
X0093625Y0243974D02*
X0107186Y0243974D01*
X0108784Y0245572D02*
X0093625Y0245572D01*
X0093625Y0247171D02*
X0108041Y0247171D01*
X0109012Y0246200D02*
X0112988Y0246200D01*
X0115800Y0249012D01*
X0115800Y0252988D01*
X0112988Y0255800D01*
X0109012Y0255800D01*
X0106200Y0252988D01*
X0106200Y0249012D01*
X0109012Y0246200D01*
X0106443Y0248769D02*
X0093625Y0248769D01*
X0093625Y0250368D02*
X0106200Y0250368D01*
X0106200Y0251966D02*
X0093625Y0251966D01*
X0093625Y0253565D02*
X0106777Y0253565D01*
X0108375Y0255163D02*
X0093625Y0255163D01*
X0093625Y0256762D02*
X0108450Y0256762D01*
X0109012Y0256200D02*
X0112988Y0256200D01*
X0115800Y0259012D01*
X0115800Y0262988D01*
X0112988Y0265800D01*
X0109012Y0265800D01*
X0106200Y0262988D01*
X0106200Y0259012D01*
X0109012Y0256200D01*
X0106851Y0258360D02*
X0093625Y0258360D01*
X0093625Y0259959D02*
X0106200Y0259959D01*
X0106200Y0261557D02*
X0094149Y0261557D01*
X0095120Y0263156D02*
X0106368Y0263156D01*
X0107966Y0264754D02*
X0095225Y0264754D01*
X0094488Y0266353D02*
X0108859Y0266353D01*
X0113141Y0266353D02*
X0118859Y0266353D01*
X0119012Y0266200D02*
X0122988Y0266200D01*
X0125800Y0269012D01*
X0125800Y0272988D01*
X0122988Y0275800D01*
X0119012Y0275800D01*
X0116200Y0272988D01*
X0116200Y0269012D01*
X0119012Y0266200D01*
X0119012Y0265800D02*
X0116200Y0262988D01*
X0116200Y0259012D01*
X0119012Y0256200D01*
X0122988Y0256200D01*
X0125800Y0259012D01*
X0125800Y0262988D01*
X0122988Y0265800D01*
X0119012Y0265800D01*
X0117966Y0264754D02*
X0114034Y0264754D01*
X0115632Y0263156D02*
X0116368Y0263156D01*
X0116200Y0261557D02*
X0115800Y0261557D01*
X0115800Y0259959D02*
X0116200Y0259959D01*
X0116851Y0258360D02*
X0115149Y0258360D01*
X0113550Y0256762D02*
X0118450Y0256762D01*
X0119012Y0255800D02*
X0116200Y0252988D01*
X0116200Y0249012D01*
X0119012Y0246200D01*
X0122988Y0246200D01*
X0125800Y0249012D01*
X0125800Y0252988D01*
X0122988Y0255800D01*
X0119012Y0255800D01*
X0118375Y0255163D02*
X0113625Y0255163D01*
X0115223Y0253565D02*
X0116777Y0253565D01*
X0116200Y0251966D02*
X0115800Y0251966D01*
X0115800Y0250368D02*
X0116200Y0250368D01*
X0116443Y0248769D02*
X0115557Y0248769D01*
X0113959Y0247171D02*
X0118041Y0247171D01*
X0119012Y0245800D02*
X0116200Y0242988D01*
X0116200Y0239012D01*
X0119012Y0236200D01*
X0122988Y0236200D01*
X0125800Y0239012D01*
X0125800Y0242988D01*
X0122988Y0245800D01*
X0119012Y0245800D01*
X0118784Y0245572D02*
X0113216Y0245572D01*
X0114814Y0243974D02*
X0117186Y0243974D01*
X0116200Y0242375D02*
X0115800Y0242375D01*
X0115800Y0240777D02*
X0116200Y0240777D01*
X0116200Y0239178D02*
X0115800Y0239178D01*
X0114368Y0237580D02*
X0117632Y0237580D01*
X0124368Y0237580D02*
X0136000Y0237580D01*
X0136000Y0239178D02*
X0125800Y0239178D01*
X0125800Y0240777D02*
X0136000Y0240777D01*
X0136000Y0242375D02*
X0125800Y0242375D01*
X0124814Y0243974D02*
X0136000Y0243974D01*
X0136000Y0245572D02*
X0123216Y0245572D01*
X0123959Y0247171D02*
X0136000Y0247171D01*
X0136000Y0248769D02*
X0125557Y0248769D01*
X0125800Y0250368D02*
X0136000Y0250368D01*
X0136000Y0251966D02*
X0125800Y0251966D01*
X0125223Y0253565D02*
X0136000Y0253565D01*
X0136000Y0255163D02*
X0123625Y0255163D01*
X0123550Y0256762D02*
X0136000Y0256762D01*
X0136000Y0258360D02*
X0125149Y0258360D01*
X0125800Y0259959D02*
X0136000Y0259959D01*
X0136000Y0261557D02*
X0125800Y0261557D01*
X0125632Y0263156D02*
X0136000Y0263156D01*
X0136000Y0264754D02*
X0124034Y0264754D01*
X0123141Y0266353D02*
X0136000Y0266353D01*
X0136000Y0267951D02*
X0124740Y0267951D01*
X0125800Y0269550D02*
X0136000Y0269550D01*
X0136000Y0271148D02*
X0125800Y0271148D01*
X0125800Y0272747D02*
X0136000Y0272747D01*
X0136000Y0274345D02*
X0124443Y0274345D01*
X0117557Y0274345D02*
X0114443Y0274345D01*
X0115800Y0272747D02*
X0116200Y0272747D01*
X0116200Y0271148D02*
X0115800Y0271148D01*
X0115800Y0269550D02*
X0116200Y0269550D01*
X0117260Y0267951D02*
X0114740Y0267951D01*
X0107557Y0274345D02*
X0054233Y0274345D01*
X0052634Y0275944D02*
X0136000Y0275944D01*
X0136000Y0277542D02*
X0051036Y0277542D01*
X0049437Y0279141D02*
X0136000Y0279141D01*
X0136000Y0280739D02*
X0047839Y0280739D01*
X0046240Y0282338D02*
X0136000Y0282338D01*
X0136000Y0283937D02*
X0044642Y0283937D01*
X0043043Y0285535D02*
X0136000Y0285535D01*
X0136000Y0287134D02*
X0067134Y0287134D01*
X0068732Y0288732D02*
X0136000Y0288732D01*
X0136000Y0290331D02*
X0070331Y0290331D01*
X0071000Y0291929D02*
X0136000Y0291929D01*
X0136000Y0293528D02*
X0071000Y0293528D01*
X0071000Y0295126D02*
X0136000Y0295126D01*
X0136000Y0296725D02*
X0071000Y0296725D01*
X0071000Y0298323D02*
X0136000Y0298323D01*
X0136000Y0216799D02*
X0093625Y0216799D01*
X0093625Y0215201D02*
X0136000Y0215201D01*
X0136000Y0213602D02*
X0093625Y0213602D01*
X0093625Y0212003D02*
X0136000Y0212003D01*
X0136000Y0210405D02*
X0123383Y0210405D01*
X0122988Y0210800D02*
X0119012Y0210800D01*
X0116200Y0207988D01*
X0116200Y0204012D01*
X0119012Y0201200D01*
X0122988Y0201200D01*
X0125800Y0204012D01*
X0125800Y0207988D01*
X0122988Y0210800D01*
X0124982Y0208806D02*
X0136000Y0208806D01*
X0136000Y0207208D02*
X0125800Y0207208D01*
X0125800Y0205609D02*
X0136000Y0205609D01*
X0136000Y0204011D02*
X0125799Y0204011D01*
X0124201Y0202412D02*
X0136000Y0202412D01*
X0136000Y0200814D02*
X0094822Y0200814D01*
X0095225Y0199215D02*
X0107427Y0199215D01*
X0106200Y0197988D02*
X0106200Y0194012D01*
X0109012Y0191200D01*
X0112988Y0191200D01*
X0115800Y0194012D01*
X0115800Y0197988D01*
X0112988Y0200800D01*
X0109012Y0200800D01*
X0106200Y0197988D01*
X0106200Y0197617D02*
X0094897Y0197617D01*
X0093625Y0196018D02*
X0106200Y0196018D01*
X0106200Y0194420D02*
X0093625Y0194420D01*
X0093625Y0192821D02*
X0107390Y0192821D01*
X0108989Y0191223D02*
X0093625Y0191223D01*
X0093625Y0189624D02*
X0107836Y0189624D01*
X0109012Y0190800D02*
X0106200Y0187988D01*
X0106200Y0184012D01*
X0109012Y0181200D01*
X0112988Y0181200D01*
X0115800Y0184012D01*
X0115800Y0187988D01*
X0112988Y0190800D01*
X0109012Y0190800D01*
X0106238Y0188026D02*
X0093625Y0188026D01*
X0093625Y0186427D02*
X0106200Y0186427D01*
X0106200Y0184829D02*
X0093625Y0184829D01*
X0093625Y0183230D02*
X0106981Y0183230D01*
X0108580Y0181632D02*
X0093625Y0181632D01*
X0093625Y0180033D02*
X0108245Y0180033D01*
X0109012Y0180800D02*
X0106200Y0177988D01*
X0106200Y0174012D01*
X0109012Y0171200D01*
X0112988Y0171200D01*
X0115800Y0174012D01*
X0115800Y0177988D01*
X0112988Y0180800D01*
X0109012Y0180800D01*
X0106647Y0178435D02*
X0093625Y0178435D01*
X0093625Y0176836D02*
X0106200Y0176836D01*
X0106200Y0175238D02*
X0093625Y0175238D01*
X0093625Y0173639D02*
X0106573Y0173639D01*
X0108171Y0172041D02*
X0093625Y0172041D01*
X0093625Y0170442D02*
X0136000Y0170442D01*
X0136000Y0168844D02*
X0093625Y0168844D01*
X0093625Y0167245D02*
X0136000Y0167245D01*
X0136000Y0165647D02*
X0093625Y0165647D01*
X0093625Y0164048D02*
X0136000Y0164048D01*
X0136000Y0162450D02*
X0093625Y0162450D01*
X0093625Y0160851D02*
X0136000Y0160851D01*
X0136000Y0159253D02*
X0093625Y0159253D01*
X0093625Y0157654D02*
X0136000Y0157654D01*
X0136000Y0156056D02*
X0093625Y0156056D01*
X0093625Y0154457D02*
X0136000Y0154457D01*
X0136000Y0152859D02*
X0093625Y0152859D01*
X0093625Y0151260D02*
X0136000Y0151260D01*
X0136000Y0149662D02*
X0093625Y0149662D01*
X0093625Y0148063D02*
X0136000Y0148063D01*
X0136000Y0146465D02*
X0093625Y0146465D01*
X0093625Y0144866D02*
X0108078Y0144866D01*
X0109012Y0145800D02*
X0106200Y0142988D01*
X0106200Y0139012D01*
X0109012Y0136200D01*
X0112988Y0136200D01*
X0115800Y0139012D01*
X0115800Y0142988D01*
X0112988Y0145800D01*
X0109012Y0145800D01*
X0106479Y0143268D02*
X0093625Y0143268D01*
X0093625Y0141669D02*
X0106200Y0141669D01*
X0106200Y0140070D02*
X0094521Y0140070D01*
X0095225Y0138472D02*
X0106740Y0138472D01*
X0108338Y0136873D02*
X0095107Y0136873D01*
X0094116Y0135275D02*
X0108487Y0135275D01*
X0109012Y0135800D02*
X0106200Y0132988D01*
X0106200Y0129012D01*
X0109012Y0126200D01*
X0112988Y0126200D01*
X0115800Y0129012D01*
X0115800Y0132988D01*
X0112988Y0135800D01*
X0109012Y0135800D01*
X0106888Y0133676D02*
X0094665Y0133676D01*
X0095700Y0132078D02*
X0106200Y0132078D01*
X0106200Y0130479D02*
X0095850Y0130479D01*
X0095222Y0128881D02*
X0106331Y0128881D01*
X0107929Y0127282D02*
X0094250Y0127282D01*
X0094250Y0125684D02*
X0108896Y0125684D01*
X0109012Y0125800D02*
X0106200Y0122988D01*
X0106200Y0119012D01*
X0109012Y0116200D01*
X0112988Y0116200D01*
X0115800Y0119012D01*
X0115800Y0122988D01*
X0112988Y0125800D01*
X0109012Y0125800D01*
X0107297Y0124085D02*
X0094250Y0124085D01*
X0094250Y0122487D02*
X0106200Y0122487D01*
X0106200Y0120888D02*
X0094250Y0120888D01*
X0094250Y0119290D02*
X0106200Y0119290D01*
X0107520Y0117691D02*
X0094250Y0117691D01*
X0094250Y0116093D02*
X0136000Y0116093D01*
X0136000Y0117691D02*
X0124480Y0117691D01*
X0125800Y0119012D02*
X0122988Y0116200D01*
X0119012Y0116200D01*
X0116200Y0119012D01*
X0116200Y0122988D01*
X0119012Y0125800D01*
X0122988Y0125800D01*
X0125800Y0122988D01*
X0125800Y0119012D01*
X0125800Y0119290D02*
X0136000Y0119290D01*
X0136000Y0120888D02*
X0125800Y0120888D01*
X0125800Y0122487D02*
X0136000Y0122487D01*
X0136000Y0124085D02*
X0124703Y0124085D01*
X0123104Y0125684D02*
X0136000Y0125684D01*
X0136000Y0127282D02*
X0124071Y0127282D01*
X0122988Y0126200D02*
X0125800Y0129012D01*
X0125800Y0132988D01*
X0122988Y0135800D01*
X0119012Y0135800D01*
X0116200Y0132988D01*
X0116200Y0129012D01*
X0119012Y0126200D01*
X0122988Y0126200D01*
X0125669Y0128881D02*
X0136000Y0128881D01*
X0136000Y0130479D02*
X0125800Y0130479D01*
X0125800Y0132078D02*
X0136000Y0132078D01*
X0136000Y0133676D02*
X0125112Y0133676D01*
X0123513Y0135275D02*
X0136000Y0135275D01*
X0136000Y0136873D02*
X0123662Y0136873D01*
X0122988Y0136200D02*
X0125800Y0139012D01*
X0125800Y0142988D01*
X0122988Y0145800D01*
X0119012Y0145800D01*
X0116200Y0142988D01*
X0116200Y0139012D01*
X0119012Y0136200D01*
X0122988Y0136200D01*
X0125260Y0138472D02*
X0136000Y0138472D01*
X0136000Y0140070D02*
X0125800Y0140070D01*
X0125800Y0141669D02*
X0136000Y0141669D01*
X0136000Y0143268D02*
X0125521Y0143268D01*
X0123922Y0144866D02*
X0136000Y0144866D01*
X0136000Y0172041D02*
X0123829Y0172041D01*
X0122988Y0171200D02*
X0125800Y0174012D01*
X0125800Y0177988D01*
X0122988Y0180800D01*
X0119012Y0180800D01*
X0116200Y0177988D01*
X0116200Y0174012D01*
X0119012Y0171200D01*
X0122988Y0171200D01*
X0125427Y0173639D02*
X0136000Y0173639D01*
X0136000Y0175238D02*
X0125800Y0175238D01*
X0125800Y0176836D02*
X0136000Y0176836D01*
X0136000Y0178435D02*
X0125353Y0178435D01*
X0123755Y0180033D02*
X0136000Y0180033D01*
X0136000Y0181632D02*
X0123420Y0181632D01*
X0122988Y0181200D02*
X0125800Y0184012D01*
X0125800Y0187988D01*
X0122988Y0190800D01*
X0119012Y0190800D01*
X0116200Y0187988D01*
X0116200Y0184012D01*
X0119012Y0181200D01*
X0122988Y0181200D01*
X0125019Y0183230D02*
X0136000Y0183230D01*
X0136000Y0184829D02*
X0125800Y0184829D01*
X0125800Y0186427D02*
X0136000Y0186427D01*
X0136000Y0188026D02*
X0125762Y0188026D01*
X0124164Y0189624D02*
X0136000Y0189624D01*
X0136000Y0191223D02*
X0123011Y0191223D01*
X0122988Y0191200D02*
X0125800Y0194012D01*
X0125800Y0197988D01*
X0122988Y0200800D01*
X0119012Y0200800D01*
X0116200Y0197988D01*
X0116200Y0194012D01*
X0119012Y0191200D01*
X0122988Y0191200D01*
X0124610Y0192821D02*
X0136000Y0192821D01*
X0136000Y0194420D02*
X0125800Y0194420D01*
X0125800Y0196018D02*
X0136000Y0196018D01*
X0136000Y0197617D02*
X0125800Y0197617D01*
X0124573Y0199215D02*
X0136000Y0199215D01*
X0117799Y0202412D02*
X0114201Y0202412D01*
X0112988Y0201200D02*
X0115800Y0204012D01*
X0115800Y0207988D01*
X0112988Y0210800D01*
X0109012Y0210800D01*
X0106200Y0207988D01*
X0106200Y0204012D01*
X0109012Y0201200D01*
X0112988Y0201200D01*
X0114573Y0199215D02*
X0117427Y0199215D01*
X0116200Y0197617D02*
X0115800Y0197617D01*
X0115800Y0196018D02*
X0116200Y0196018D01*
X0116200Y0194420D02*
X0115800Y0194420D01*
X0114610Y0192821D02*
X0117390Y0192821D01*
X0118989Y0191223D02*
X0113011Y0191223D01*
X0114164Y0189624D02*
X0117836Y0189624D01*
X0116238Y0188026D02*
X0115762Y0188026D01*
X0115800Y0186427D02*
X0116200Y0186427D01*
X0116200Y0184829D02*
X0115800Y0184829D01*
X0115019Y0183230D02*
X0116981Y0183230D01*
X0118580Y0181632D02*
X0113420Y0181632D01*
X0113755Y0180033D02*
X0118245Y0180033D01*
X0116647Y0178435D02*
X0115353Y0178435D01*
X0115800Y0176836D02*
X0116200Y0176836D01*
X0116200Y0175238D02*
X0115800Y0175238D01*
X0115427Y0173639D02*
X0116573Y0173639D01*
X0118171Y0172041D02*
X0113829Y0172041D01*
X0113922Y0144866D02*
X0118078Y0144866D01*
X0116479Y0143268D02*
X0115521Y0143268D01*
X0115800Y0141669D02*
X0116200Y0141669D01*
X0116200Y0140070D02*
X0115800Y0140070D01*
X0115260Y0138472D02*
X0116740Y0138472D01*
X0118338Y0136873D02*
X0113662Y0136873D01*
X0113513Y0135275D02*
X0118487Y0135275D01*
X0116888Y0133676D02*
X0115112Y0133676D01*
X0115800Y0132078D02*
X0116200Y0132078D01*
X0116200Y0130479D02*
X0115800Y0130479D01*
X0115669Y0128881D02*
X0116331Y0128881D01*
X0117929Y0127282D02*
X0114071Y0127282D01*
X0113104Y0125684D02*
X0118896Y0125684D01*
X0117297Y0124085D02*
X0114703Y0124085D01*
X0115800Y0122487D02*
X0116200Y0122487D01*
X0116200Y0120888D02*
X0115800Y0120888D01*
X0115800Y0119290D02*
X0116200Y0119290D01*
X0117520Y0117691D02*
X0114480Y0117691D01*
X0112988Y0115800D02*
X0115800Y0112988D01*
X0115800Y0109012D01*
X0112988Y0106200D01*
X0109012Y0106200D01*
X0106200Y0109012D01*
X0106200Y0112988D01*
X0109012Y0115800D01*
X0112988Y0115800D01*
X0114294Y0114494D02*
X0117706Y0114494D01*
X0119012Y0115800D02*
X0116200Y0112988D01*
X0116200Y0109012D01*
X0119012Y0106200D01*
X0122988Y0106200D01*
X0125800Y0109012D01*
X0125800Y0112988D01*
X0122988Y0115800D01*
X0119012Y0115800D01*
X0116200Y0112896D02*
X0115800Y0112896D01*
X0115800Y0111297D02*
X0116200Y0111297D01*
X0116200Y0109699D02*
X0115800Y0109699D01*
X0114888Y0108100D02*
X0117112Y0108100D01*
X0118710Y0106502D02*
X0113290Y0106502D01*
X0108710Y0106502D02*
X0094250Y0106502D01*
X0094250Y0108100D02*
X0107112Y0108100D01*
X0106200Y0109699D02*
X0094250Y0109699D01*
X0094250Y0111297D02*
X0106200Y0111297D01*
X0106200Y0112896D02*
X0094250Y0112896D01*
X0094250Y0114494D02*
X0107706Y0114494D01*
X0094250Y0104903D02*
X0136000Y0104903D01*
X0136000Y0103305D02*
X0094250Y0103305D01*
X0094250Y0101706D02*
X0136000Y0101706D01*
X0136000Y0100108D02*
X0094250Y0100108D01*
X0094250Y0098509D02*
X0136000Y0098509D01*
X0136000Y0096911D02*
X0094250Y0096911D01*
X0094250Y0095312D02*
X0136000Y0095312D01*
X0136000Y0093714D02*
X0094250Y0093714D01*
X0094250Y0092115D02*
X0136000Y0092115D01*
X0136000Y0090517D02*
X0094250Y0090517D01*
X0094250Y0088918D02*
X0136000Y0088918D01*
X0136000Y0087320D02*
X0094250Y0087320D01*
X0094250Y0085721D02*
X0136000Y0085721D01*
X0136000Y0084123D02*
X0094250Y0084123D01*
X0094250Y0082524D02*
X0136000Y0082524D01*
X0136000Y0080926D02*
X0094250Y0080926D01*
X0094250Y0079327D02*
X0107539Y0079327D01*
X0106200Y0077988D02*
X0106200Y0074012D01*
X0109012Y0071200D01*
X0112988Y0071200D01*
X0115800Y0074012D01*
X0115800Y0077988D01*
X0112988Y0080800D01*
X0109012Y0080800D01*
X0106200Y0077988D01*
X0106200Y0077729D02*
X0094250Y0077729D01*
X0094250Y0076130D02*
X0106200Y0076130D01*
X0106200Y0074532D02*
X0094250Y0074532D01*
X0094250Y0072933D02*
X0107279Y0072933D01*
X0108877Y0071334D02*
X0094250Y0071334D01*
X0094250Y0069736D02*
X0107948Y0069736D01*
X0109012Y0070800D02*
X0106200Y0067988D01*
X0106200Y0064012D01*
X0109012Y0061200D01*
X0112988Y0061200D01*
X0115800Y0064012D01*
X0115800Y0067988D01*
X0112988Y0070800D01*
X0109012Y0070800D01*
X0106349Y0068137D02*
X0095204Y0068137D01*
X0095850Y0066539D02*
X0106200Y0066539D01*
X0106200Y0064940D02*
X0095708Y0064940D01*
X0094683Y0063342D02*
X0106870Y0063342D01*
X0108468Y0061743D02*
X0094250Y0061743D01*
X0094250Y0060145D02*
X0108357Y0060145D01*
X0109012Y0060800D02*
X0106200Y0057988D01*
X0106200Y0054012D01*
X0109012Y0051200D01*
X0112988Y0051200D01*
X0115800Y0054012D01*
X0115800Y0057988D01*
X0112988Y0060800D01*
X0109012Y0060800D01*
X0106758Y0058546D02*
X0094250Y0058546D01*
X0094250Y0056948D02*
X0106200Y0056948D01*
X0106200Y0055349D02*
X0094250Y0055349D01*
X0094250Y0053751D02*
X0106461Y0053751D01*
X0108059Y0052152D02*
X0094250Y0052152D01*
X0094250Y0050554D02*
X0108766Y0050554D01*
X0109012Y0050800D02*
X0106200Y0047988D01*
X0106200Y0044012D01*
X0109012Y0041200D01*
X0112988Y0041200D01*
X0115800Y0044012D01*
X0115800Y0047988D01*
X0112988Y0050800D01*
X0109012Y0050800D01*
X0107167Y0048955D02*
X0094250Y0048955D01*
X0094250Y0047357D02*
X0106200Y0047357D01*
X0106200Y0045758D02*
X0094250Y0045758D01*
X0094250Y0044160D02*
X0106200Y0044160D01*
X0107650Y0042561D02*
X0094250Y0042561D01*
X0094250Y0040963D02*
X0136000Y0040963D01*
X0136000Y0042561D02*
X0124350Y0042561D01*
X0122988Y0041200D02*
X0125800Y0044012D01*
X0125800Y0047988D01*
X0122988Y0050800D01*
X0119012Y0050800D01*
X0116200Y0047988D01*
X0116200Y0044012D01*
X0119012Y0041200D01*
X0122988Y0041200D01*
X0125800Y0044160D02*
X0136000Y0044160D01*
X0136000Y0045758D02*
X0125800Y0045758D01*
X0125800Y0047357D02*
X0136000Y0047357D01*
X0136000Y0048955D02*
X0124833Y0048955D01*
X0123234Y0050554D02*
X0136000Y0050554D01*
X0136000Y0052152D02*
X0123941Y0052152D01*
X0122988Y0051200D02*
X0125800Y0054012D01*
X0125800Y0057988D01*
X0122988Y0060800D01*
X0119012Y0060800D01*
X0116200Y0057988D01*
X0116200Y0054012D01*
X0119012Y0051200D01*
X0122988Y0051200D01*
X0125539Y0053751D02*
X0136000Y0053751D01*
X0136000Y0055349D02*
X0125800Y0055349D01*
X0125800Y0056948D02*
X0136000Y0056948D01*
X0136000Y0058546D02*
X0125242Y0058546D01*
X0123643Y0060145D02*
X0136000Y0060145D01*
X0136000Y0061743D02*
X0123532Y0061743D01*
X0122988Y0061200D02*
X0125800Y0064012D01*
X0125800Y0067988D01*
X0122988Y0070800D01*
X0119012Y0070800D01*
X0116200Y0067988D01*
X0116200Y0064012D01*
X0119012Y0061200D01*
X0122988Y0061200D01*
X0125130Y0063342D02*
X0136000Y0063342D01*
X0136000Y0064940D02*
X0125800Y0064940D01*
X0125800Y0066539D02*
X0136000Y0066539D01*
X0136000Y0068137D02*
X0125651Y0068137D01*
X0124052Y0069736D02*
X0136000Y0069736D01*
X0136000Y0071334D02*
X0123123Y0071334D01*
X0122988Y0071200D02*
X0125800Y0074012D01*
X0125800Y0077988D01*
X0122988Y0080800D01*
X0119012Y0080800D01*
X0116200Y0077988D01*
X0116200Y0074012D01*
X0119012Y0071200D01*
X0122988Y0071200D01*
X0124721Y0072933D02*
X0136000Y0072933D01*
X0136000Y0074532D02*
X0125800Y0074532D01*
X0125800Y0076130D02*
X0136000Y0076130D01*
X0136000Y0077729D02*
X0125800Y0077729D01*
X0124461Y0079327D02*
X0136000Y0079327D01*
X0136000Y0106502D02*
X0123290Y0106502D01*
X0124888Y0108100D02*
X0136000Y0108100D01*
X0136000Y0109699D02*
X0125800Y0109699D01*
X0125800Y0111297D02*
X0136000Y0111297D01*
X0136000Y0112896D02*
X0125800Y0112896D01*
X0124294Y0114494D02*
X0136000Y0114494D01*
X0117539Y0079327D02*
X0114461Y0079327D01*
X0115800Y0077729D02*
X0116200Y0077729D01*
X0116200Y0076130D02*
X0115800Y0076130D01*
X0115800Y0074532D02*
X0116200Y0074532D01*
X0117279Y0072933D02*
X0114721Y0072933D01*
X0113123Y0071334D02*
X0118877Y0071334D01*
X0117948Y0069736D02*
X0114052Y0069736D01*
X0115651Y0068137D02*
X0116349Y0068137D01*
X0116200Y0066539D02*
X0115800Y0066539D01*
X0115800Y0064940D02*
X0116200Y0064940D01*
X0116870Y0063342D02*
X0115130Y0063342D01*
X0113532Y0061743D02*
X0118468Y0061743D01*
X0118357Y0060145D02*
X0113643Y0060145D01*
X0115242Y0058546D02*
X0116758Y0058546D01*
X0116200Y0056948D02*
X0115800Y0056948D01*
X0115800Y0055349D02*
X0116200Y0055349D01*
X0116461Y0053751D02*
X0115539Y0053751D01*
X0113941Y0052152D02*
X0118059Y0052152D01*
X0118766Y0050554D02*
X0113234Y0050554D01*
X0114833Y0048955D02*
X0117167Y0048955D01*
X0116200Y0047357D02*
X0115800Y0047357D01*
X0115800Y0045758D02*
X0116200Y0045758D01*
X0116200Y0044160D02*
X0115800Y0044160D01*
X0114350Y0042561D02*
X0117650Y0042561D01*
X0125006Y0026576D02*
X0104875Y0026576D01*
X0104875Y0024978D02*
X0123141Y0024978D01*
X0121276Y0023379D02*
X0104875Y0023379D01*
X0104609Y0021781D02*
X0119411Y0021781D01*
X0117546Y0020182D02*
X0103011Y0020182D01*
X0101412Y0018584D02*
X0115681Y0018584D01*
X0113816Y0016985D02*
X0100800Y0016985D01*
X0100800Y0015387D02*
X0111951Y0015387D01*
X0110086Y0013788D02*
X0100576Y0013788D01*
X0098978Y0012190D02*
X0108221Y0012190D01*
X0106356Y0010591D02*
X0069669Y0010591D01*
X0068071Y0008993D02*
X0104491Y0008993D01*
X0102626Y0007394D02*
X0066472Y0007394D01*
X0062414Y0008993D02*
X0028007Y0008993D01*
X0029606Y0007394D02*
X0060816Y0007394D01*
X0053022Y0012190D02*
X0048978Y0012190D01*
X0050576Y0013788D02*
X0051424Y0013788D01*
X0051200Y0015387D02*
X0050800Y0015387D01*
X0050800Y0016985D02*
X0051200Y0016985D01*
X0051795Y0018584D02*
X0050205Y0018584D01*
X0048606Y0020182D02*
X0053394Y0020182D01*
X0053431Y0021781D02*
X0048569Y0021781D01*
X0050167Y0023379D02*
X0051833Y0023379D01*
X0051200Y0024978D02*
X0050800Y0024978D01*
X0050800Y0026576D02*
X0051200Y0026576D01*
X0051386Y0028175D02*
X0050614Y0028175D01*
X0049015Y0029773D02*
X0052985Y0029773D01*
X0058485Y0042561D02*
X0034350Y0042561D01*
X0032988Y0041200D02*
X0035800Y0044012D01*
X0035800Y0047988D01*
X0032988Y0050800D01*
X0029012Y0050800D01*
X0026200Y0047988D01*
X0026200Y0044012D01*
X0029012Y0041200D01*
X0032988Y0041200D01*
X0035800Y0044160D02*
X0056887Y0044160D01*
X0055288Y0045758D02*
X0035800Y0045758D01*
X0035800Y0047357D02*
X0053690Y0047357D01*
X0052091Y0048955D02*
X0034833Y0048955D01*
X0033234Y0050554D02*
X0050493Y0050554D01*
X0048894Y0052152D02*
X0033941Y0052152D01*
X0032988Y0051200D02*
X0035800Y0054012D01*
X0035800Y0057988D01*
X0032988Y0060800D01*
X0029012Y0060800D01*
X0026200Y0057988D01*
X0026200Y0054012D01*
X0029012Y0051200D01*
X0032988Y0051200D01*
X0035539Y0053751D02*
X0047296Y0053751D01*
X0045697Y0055349D02*
X0035800Y0055349D01*
X0035800Y0056948D02*
X0044625Y0056948D01*
X0044625Y0058546D02*
X0035242Y0058546D01*
X0033643Y0060145D02*
X0044625Y0060145D01*
X0044625Y0061743D02*
X0033532Y0061743D01*
X0032988Y0061200D02*
X0035800Y0064012D01*
X0035800Y0067988D01*
X0032988Y0070800D01*
X0029012Y0070800D01*
X0026200Y0067988D01*
X0026200Y0064012D01*
X0029012Y0061200D01*
X0032988Y0061200D01*
X0035130Y0063342D02*
X0044625Y0063342D01*
X0044625Y0064940D02*
X0035800Y0064940D01*
X0035800Y0066539D02*
X0044625Y0066539D01*
X0044625Y0068137D02*
X0035651Y0068137D01*
X0034052Y0069736D02*
X0044048Y0069736D01*
X0043108Y0071334D02*
X0033123Y0071334D01*
X0032988Y0071200D02*
X0035800Y0074012D01*
X0035800Y0077988D01*
X0032988Y0080800D01*
X0029012Y0080800D01*
X0026200Y0077988D01*
X0026200Y0074012D01*
X0029012Y0071200D01*
X0032988Y0071200D01*
X0034721Y0072933D02*
X0043025Y0072933D01*
X0043815Y0074532D02*
X0035800Y0074532D01*
X0035800Y0076130D02*
X0044625Y0076130D01*
X0044625Y0077729D02*
X0035800Y0077729D01*
X0034461Y0079327D02*
X0044625Y0079327D01*
X0052375Y0079327D02*
X0060875Y0079327D01*
X0060875Y0077729D02*
X0052375Y0077729D01*
X0052375Y0076130D02*
X0060875Y0076130D01*
X0060875Y0074532D02*
X0052375Y0074532D01*
X0052375Y0072933D02*
X0060875Y0072933D01*
X0060875Y0071334D02*
X0052375Y0071334D01*
X0052375Y0069736D02*
X0060875Y0069736D01*
X0060875Y0068137D02*
X0053645Y0068137D01*
X0053975Y0066539D02*
X0060875Y0066539D01*
X0059849Y0064940D02*
X0053574Y0064940D01*
X0053986Y0063342D02*
X0059275Y0063342D01*
X0059447Y0061743D02*
X0055585Y0061743D01*
X0057183Y0060145D02*
X0060514Y0060145D01*
X0058782Y0058546D02*
X0068125Y0058546D01*
X0069724Y0056948D02*
X0060380Y0056948D01*
X0061979Y0055349D02*
X0071322Y0055349D01*
X0072921Y0053751D02*
X0063578Y0053751D01*
X0065176Y0052152D02*
X0074519Y0052152D01*
X0076118Y0050554D02*
X0066775Y0050554D01*
X0068373Y0048955D02*
X0077716Y0048955D01*
X0079315Y0047357D02*
X0069972Y0047357D01*
X0071570Y0045758D02*
X0080913Y0045758D01*
X0082512Y0044160D02*
X0073169Y0044160D01*
X0074767Y0042561D02*
X0084110Y0042561D01*
X0085709Y0040963D02*
X0076366Y0040963D01*
X0077964Y0039364D02*
X0087307Y0039364D01*
X0088906Y0037766D02*
X0079563Y0037766D01*
X0081161Y0036167D02*
X0090504Y0036167D01*
X0092103Y0034569D02*
X0082760Y0034569D01*
X0084358Y0032970D02*
X0093701Y0032970D01*
X0094000Y0031372D02*
X0085957Y0031372D01*
X0089015Y0029773D02*
X0092985Y0029773D01*
X0091386Y0028175D02*
X0090614Y0028175D01*
X0090800Y0026576D02*
X0091200Y0026576D01*
X0091200Y0024978D02*
X0090800Y0024978D01*
X0090167Y0023379D02*
X0091833Y0023379D01*
X0093431Y0021781D02*
X0088569Y0021781D01*
X0088071Y0021000D02*
X0086200Y0021000D01*
X0086200Y0016200D01*
X0091000Y0016200D01*
X0091000Y0018071D01*
X0088071Y0021000D01*
X0088889Y0020182D02*
X0093394Y0020182D01*
X0091795Y0018584D02*
X0090487Y0018584D01*
X0091000Y0016985D02*
X0091200Y0016985D01*
X0091000Y0015800D02*
X0086200Y0015800D01*
X0086200Y0016200D01*
X0085800Y0016200D01*
X0085800Y0021000D01*
X0083929Y0021000D01*
X0081000Y0018071D01*
X0081000Y0016200D01*
X0085800Y0016200D01*
X0085800Y0015800D01*
X0086200Y0015800D01*
X0086200Y0011000D01*
X0088071Y0011000D01*
X0091000Y0013929D01*
X0091000Y0015800D01*
X0091000Y0015387D02*
X0091200Y0015387D01*
X0091424Y0013788D02*
X0090859Y0013788D01*
X0089261Y0012190D02*
X0093022Y0012190D01*
X0098569Y0021781D02*
X0098952Y0021781D01*
X0100167Y0023379D02*
X0100551Y0023379D01*
X0100800Y0024978D02*
X0100875Y0024978D01*
X0100875Y0026576D02*
X0100800Y0026576D01*
X0100875Y0028175D02*
X0100614Y0028175D01*
X0099398Y0029773D02*
X0099015Y0029773D01*
X0101858Y0032970D02*
X0132465Y0032970D01*
X0130600Y0031372D02*
X0103457Y0031372D01*
X0104875Y0029773D02*
X0128735Y0029773D01*
X0126870Y0028175D02*
X0104875Y0028175D01*
X0100260Y0034569D02*
X0134330Y0034569D01*
X0136000Y0036167D02*
X0098661Y0036167D01*
X0097063Y0037766D02*
X0136000Y0037766D01*
X0136000Y0039364D02*
X0095464Y0039364D01*
X0090250Y0042561D02*
X0089767Y0042561D01*
X0090250Y0044160D02*
X0088169Y0044160D01*
X0086570Y0045758D02*
X0090250Y0045758D01*
X0090250Y0047357D02*
X0084972Y0047357D01*
X0083373Y0048955D02*
X0090250Y0048955D01*
X0090250Y0050554D02*
X0081775Y0050554D01*
X0080176Y0052152D02*
X0090250Y0052152D01*
X0090250Y0053751D02*
X0078578Y0053751D01*
X0076979Y0055349D02*
X0090250Y0055349D01*
X0090250Y0056948D02*
X0075381Y0056948D01*
X0073782Y0058546D02*
X0090250Y0058546D01*
X0090250Y0060145D02*
X0072183Y0060145D01*
X0070585Y0061743D02*
X0090250Y0061743D01*
X0089817Y0063342D02*
X0068986Y0063342D01*
X0068625Y0064940D02*
X0088792Y0064940D01*
X0088650Y0066539D02*
X0080780Y0066539D01*
X0082354Y0068137D02*
X0089296Y0068137D01*
X0090250Y0069736D02*
X0082725Y0069736D01*
X0082365Y0071334D02*
X0090250Y0071334D01*
X0090250Y0072933D02*
X0081125Y0072933D01*
X0081125Y0074532D02*
X0090250Y0074532D01*
X0090250Y0076130D02*
X0081125Y0076130D01*
X0081125Y0077729D02*
X0090250Y0077729D01*
X0090250Y0079327D02*
X0081125Y0079327D01*
X0081125Y0080926D02*
X0090250Y0080926D01*
X0090250Y0082524D02*
X0081125Y0082524D01*
X0081125Y0084123D02*
X0090250Y0084123D01*
X0090250Y0085721D02*
X0081125Y0085721D01*
X0081125Y0087320D02*
X0090250Y0087320D01*
X0090250Y0088918D02*
X0081125Y0088918D01*
X0081125Y0090517D02*
X0090250Y0090517D01*
X0090250Y0092115D02*
X0081125Y0092115D01*
X0081125Y0093714D02*
X0090250Y0093714D01*
X0090250Y0095312D02*
X0081125Y0095312D01*
X0081125Y0096911D02*
X0090250Y0096911D01*
X0090250Y0098509D02*
X0081125Y0098509D01*
X0081125Y0100108D02*
X0090250Y0100108D01*
X0090250Y0101706D02*
X0081125Y0101706D01*
X0081125Y0103305D02*
X0090250Y0103305D01*
X0090250Y0104903D02*
X0081125Y0104903D01*
X0081125Y0106502D02*
X0090250Y0106502D01*
X0090250Y0108100D02*
X0081125Y0108100D01*
X0081125Y0109699D02*
X0090250Y0109699D01*
X0090250Y0111297D02*
X0081125Y0111297D01*
X0081125Y0112896D02*
X0090250Y0112896D01*
X0090250Y0114494D02*
X0081125Y0114494D01*
X0081125Y0116093D02*
X0090250Y0116093D01*
X0090250Y0117691D02*
X0081125Y0117691D01*
X0081125Y0119290D02*
X0090250Y0119290D01*
X0090250Y0120888D02*
X0081125Y0120888D01*
X0081125Y0122487D02*
X0090250Y0122487D01*
X0090250Y0124085D02*
X0081125Y0124085D01*
X0082262Y0125684D02*
X0090250Y0125684D01*
X0090250Y0127282D02*
X0083861Y0127282D01*
X0085459Y0128881D02*
X0089278Y0128881D01*
X0088650Y0130479D02*
X0087058Y0130479D01*
X0088656Y0132078D02*
X0088800Y0132078D01*
X0087795Y0136873D02*
X0067725Y0136873D01*
X0067462Y0135275D02*
X0086197Y0135275D01*
X0084598Y0133676D02*
X0066268Y0133676D01*
X0065710Y0128881D02*
X0079802Y0128881D01*
X0078204Y0127282D02*
X0066475Y0127282D01*
X0066382Y0125684D02*
X0077125Y0125684D01*
X0077125Y0124085D02*
X0065427Y0124085D01*
X0064875Y0122487D02*
X0077125Y0122487D01*
X0077125Y0120888D02*
X0064875Y0120888D01*
X0064875Y0119290D02*
X0077125Y0119290D01*
X0077125Y0117691D02*
X0064875Y0117691D01*
X0064875Y0116093D02*
X0077125Y0116093D01*
X0077125Y0114494D02*
X0064875Y0114494D01*
X0064875Y0112896D02*
X0077125Y0112896D01*
X0077125Y0111297D02*
X0064875Y0111297D01*
X0064875Y0109699D02*
X0077125Y0109699D01*
X0077125Y0108100D02*
X0064875Y0108100D01*
X0064875Y0106502D02*
X0077125Y0106502D01*
X0077125Y0104903D02*
X0064875Y0104903D01*
X0064875Y0103305D02*
X0077125Y0103305D01*
X0077125Y0101706D02*
X0064875Y0101706D01*
X0064875Y0100108D02*
X0077125Y0100108D01*
X0077125Y0098509D02*
X0064875Y0098509D01*
X0064875Y0096911D02*
X0077125Y0096911D01*
X0077125Y0095312D02*
X0064875Y0095312D01*
X0064875Y0093714D02*
X0077125Y0093714D01*
X0077125Y0092115D02*
X0064875Y0092115D01*
X0064875Y0090517D02*
X0077125Y0090517D01*
X0077125Y0088918D02*
X0064875Y0088918D01*
X0064875Y0087320D02*
X0077125Y0087320D01*
X0077125Y0085721D02*
X0064875Y0085721D01*
X0064875Y0084123D02*
X0077125Y0084123D01*
X0077125Y0082524D02*
X0064875Y0082524D01*
X0064875Y0080926D02*
X0077125Y0080926D01*
X0077125Y0079327D02*
X0064875Y0079327D01*
X0064875Y0077729D02*
X0077125Y0077729D01*
X0077125Y0076130D02*
X0064875Y0076130D01*
X0069435Y0074532D02*
X0077125Y0074532D01*
X0077125Y0072933D02*
X0070225Y0072933D01*
X0070142Y0071334D02*
X0075885Y0071334D01*
X0075525Y0069736D02*
X0069202Y0069736D01*
X0068625Y0068137D02*
X0075896Y0068137D01*
X0077470Y0066539D02*
X0068625Y0066539D01*
X0066527Y0060145D02*
X0065236Y0060145D01*
X0060875Y0080926D02*
X0052375Y0080926D01*
X0052375Y0082524D02*
X0060875Y0082524D01*
X0060875Y0084123D02*
X0052375Y0084123D01*
X0052375Y0085721D02*
X0060875Y0085721D01*
X0060875Y0087320D02*
X0052375Y0087320D01*
X0052375Y0088918D02*
X0060875Y0088918D01*
X0060875Y0090517D02*
X0052375Y0090517D01*
X0052375Y0092115D02*
X0060875Y0092115D01*
X0060875Y0093714D02*
X0052375Y0093714D01*
X0052375Y0095312D02*
X0060875Y0095312D01*
X0060875Y0096911D02*
X0052375Y0096911D01*
X0052375Y0098509D02*
X0060875Y0098509D01*
X0060875Y0100108D02*
X0052375Y0100108D01*
X0052375Y0101706D02*
X0060875Y0101706D01*
X0060875Y0103305D02*
X0052375Y0103305D01*
X0052375Y0104903D02*
X0060875Y0104903D01*
X0060875Y0106502D02*
X0052375Y0106502D01*
X0052375Y0108100D02*
X0060875Y0108100D01*
X0060875Y0109699D02*
X0052375Y0109699D01*
X0052375Y0111297D02*
X0060875Y0111297D01*
X0060875Y0112896D02*
X0052375Y0112896D01*
X0052375Y0114494D02*
X0060875Y0114494D01*
X0060875Y0116093D02*
X0052375Y0116093D01*
X0052375Y0117691D02*
X0060875Y0117691D01*
X0060875Y0119290D02*
X0052375Y0119290D01*
X0052375Y0120888D02*
X0060875Y0120888D01*
X0060875Y0122487D02*
X0052375Y0122487D01*
X0052375Y0124085D02*
X0060323Y0124085D01*
X0059368Y0125684D02*
X0052375Y0125684D01*
X0052375Y0127282D02*
X0059275Y0127282D01*
X0058375Y0128881D02*
X0052722Y0128881D01*
X0053797Y0130479D02*
X0058375Y0130479D01*
X0058375Y0132078D02*
X0053975Y0132078D01*
X0053415Y0133676D02*
X0058375Y0133676D01*
X0058375Y0135275D02*
X0052375Y0135275D01*
X0052375Y0136873D02*
X0058375Y0136873D01*
X0058375Y0138472D02*
X0052375Y0138472D01*
X0052375Y0140070D02*
X0058375Y0140070D01*
X0058375Y0141669D02*
X0052375Y0141669D01*
X0052375Y0143268D02*
X0058375Y0143268D01*
X0057668Y0144866D02*
X0052375Y0144866D01*
X0052375Y0146465D02*
X0056804Y0146465D01*
X0056815Y0148063D02*
X0052375Y0148063D01*
X0052375Y0149662D02*
X0057695Y0149662D01*
X0062125Y0151260D02*
X0052375Y0151260D01*
X0052375Y0152859D02*
X0062125Y0152859D01*
X0062125Y0154457D02*
X0052375Y0154457D01*
X0052375Y0156056D02*
X0062125Y0156056D01*
X0062125Y0157654D02*
X0052375Y0157654D01*
X0052375Y0159253D02*
X0062125Y0159253D01*
X0062125Y0160851D02*
X0052375Y0160851D01*
X0052375Y0162450D02*
X0062125Y0162450D01*
X0062125Y0164048D02*
X0052375Y0164048D01*
X0052375Y0165647D02*
X0062125Y0165647D01*
X0062125Y0167245D02*
X0052375Y0167245D01*
X0052375Y0168844D02*
X0062125Y0168844D01*
X0062125Y0170442D02*
X0052375Y0170442D01*
X0052375Y0172041D02*
X0062125Y0172041D01*
X0062125Y0173639D02*
X0052375Y0173639D01*
X0052375Y0175238D02*
X0062125Y0175238D01*
X0062125Y0176836D02*
X0052375Y0176836D01*
X0052375Y0178435D02*
X0062481Y0178435D01*
X0064080Y0180033D02*
X0052375Y0180033D01*
X0052375Y0181632D02*
X0065678Y0181632D01*
X0067277Y0183230D02*
X0052375Y0183230D01*
X0052375Y0184829D02*
X0068875Y0184829D01*
X0070474Y0186427D02*
X0052375Y0186427D01*
X0052375Y0188026D02*
X0072072Y0188026D01*
X0073671Y0189624D02*
X0064434Y0189624D01*
X0066087Y0191223D02*
X0075269Y0191223D01*
X0075525Y0192821D02*
X0066475Y0192821D01*
X0066132Y0194420D02*
X0076204Y0194420D01*
X0077729Y0188026D02*
X0089625Y0188026D01*
X0089625Y0189624D02*
X0081591Y0189624D01*
X0082596Y0191223D02*
X0089625Y0191223D01*
X0089625Y0192821D02*
X0082725Y0192821D01*
X0082046Y0194420D02*
X0089625Y0194420D01*
X0089625Y0196018D02*
X0064693Y0196018D01*
X0062375Y0197617D02*
X0088353Y0197617D01*
X0088025Y0199215D02*
X0066807Y0199215D01*
X0067686Y0200814D02*
X0088428Y0200814D01*
X0093625Y0202412D02*
X0107799Y0202412D01*
X0106201Y0204011D02*
X0093625Y0204011D01*
X0093625Y0205609D02*
X0106200Y0205609D01*
X0106200Y0207208D02*
X0093625Y0207208D01*
X0093625Y0208806D02*
X0107018Y0208806D01*
X0108617Y0210405D02*
X0093625Y0210405D01*
X0089625Y0186427D02*
X0076131Y0186427D01*
X0074532Y0184829D02*
X0089625Y0184829D01*
X0089625Y0183230D02*
X0072934Y0183230D01*
X0071335Y0181632D02*
X0089625Y0181632D01*
X0089625Y0180033D02*
X0069737Y0180033D01*
X0068138Y0178435D02*
X0089625Y0178435D01*
X0089625Y0176836D02*
X0066540Y0176836D01*
X0066125Y0175238D02*
X0089625Y0175238D01*
X0089625Y0173639D02*
X0066125Y0173639D01*
X0066125Y0172041D02*
X0089625Y0172041D01*
X0089625Y0170442D02*
X0066125Y0170442D01*
X0066125Y0168844D02*
X0089625Y0168844D01*
X0089625Y0167245D02*
X0066125Y0167245D01*
X0066125Y0165647D02*
X0089625Y0165647D01*
X0089625Y0164048D02*
X0066125Y0164048D01*
X0066125Y0162450D02*
X0089625Y0162450D01*
X0089625Y0160851D02*
X0066125Y0160851D01*
X0066125Y0159253D02*
X0089625Y0159253D01*
X0089625Y0157654D02*
X0066125Y0157654D01*
X0066125Y0156056D02*
X0089625Y0156056D01*
X0089625Y0154457D02*
X0066125Y0154457D01*
X0066125Y0152859D02*
X0089625Y0152859D01*
X0089625Y0151260D02*
X0066125Y0151260D01*
X0066125Y0149662D02*
X0089625Y0149662D01*
X0089625Y0148063D02*
X0066125Y0148063D01*
X0066125Y0146465D02*
X0089625Y0146465D01*
X0089625Y0144866D02*
X0066125Y0144866D01*
X0066125Y0143268D02*
X0089625Y0143268D01*
X0089625Y0141669D02*
X0066125Y0141669D01*
X0066125Y0140070D02*
X0088729Y0140070D01*
X0088025Y0138472D02*
X0067257Y0138472D01*
X0062375Y0132078D02*
X0083000Y0132078D01*
X0081401Y0130479D02*
X0062375Y0130479D01*
X0044625Y0114494D02*
X0034294Y0114494D01*
X0032988Y0115800D02*
X0035800Y0112988D01*
X0035800Y0109012D01*
X0032988Y0106200D01*
X0029012Y0106200D01*
X0026200Y0109012D01*
X0026200Y0112988D01*
X0029012Y0115800D01*
X0032988Y0115800D01*
X0035800Y0112896D02*
X0044625Y0112896D01*
X0044625Y0111297D02*
X0035800Y0111297D01*
X0035800Y0109699D02*
X0044625Y0109699D01*
X0044625Y0108100D02*
X0034888Y0108100D01*
X0033290Y0106502D02*
X0044625Y0106502D01*
X0028710Y0106502D02*
X0023290Y0106502D01*
X0024888Y0108100D02*
X0027112Y0108100D01*
X0026200Y0109699D02*
X0025800Y0109699D01*
X0025800Y0111297D02*
X0026200Y0111297D01*
X0026200Y0112896D02*
X0025800Y0112896D01*
X0024294Y0114494D02*
X0027706Y0114494D01*
X0027520Y0117691D02*
X0024480Y0117691D01*
X0025800Y0119012D02*
X0022988Y0116200D01*
X0019012Y0116200D01*
X0016200Y0119012D01*
X0016200Y0122988D01*
X0019012Y0125800D01*
X0022988Y0125800D01*
X0025800Y0122988D01*
X0025800Y0119012D01*
X0025800Y0119290D02*
X0026200Y0119290D01*
X0026200Y0120888D02*
X0025800Y0120888D01*
X0025800Y0122487D02*
X0026200Y0122487D01*
X0027297Y0124085D02*
X0024703Y0124085D01*
X0023104Y0125684D02*
X0028896Y0125684D01*
X0027929Y0127282D02*
X0024071Y0127282D01*
X0022988Y0126200D02*
X0025800Y0129012D01*
X0025800Y0132988D01*
X0022988Y0135800D01*
X0019012Y0135800D01*
X0016200Y0132988D01*
X0016200Y0129012D01*
X0019012Y0126200D01*
X0022988Y0126200D01*
X0025669Y0128881D02*
X0026331Y0128881D01*
X0026200Y0130479D02*
X0025800Y0130479D01*
X0025800Y0132078D02*
X0026200Y0132078D01*
X0026888Y0133676D02*
X0025112Y0133676D01*
X0023513Y0135275D02*
X0028487Y0135275D01*
X0028338Y0136873D02*
X0023662Y0136873D01*
X0022988Y0136200D02*
X0025800Y0139012D01*
X0025800Y0142988D01*
X0022988Y0145800D01*
X0019012Y0145800D01*
X0016200Y0142988D01*
X0016200Y0139012D01*
X0019012Y0136200D01*
X0022988Y0136200D01*
X0025260Y0138472D02*
X0026740Y0138472D01*
X0026200Y0140070D02*
X0025800Y0140070D01*
X0025800Y0141669D02*
X0026200Y0141669D01*
X0026479Y0143268D02*
X0025521Y0143268D01*
X0023922Y0144866D02*
X0028078Y0144866D01*
X0018078Y0144866D02*
X0006000Y0144866D01*
X0006000Y0143268D02*
X0016479Y0143268D01*
X0016200Y0141669D02*
X0006000Y0141669D01*
X0006000Y0140070D02*
X0016200Y0140070D01*
X0016740Y0138472D02*
X0006000Y0138472D01*
X0006000Y0136873D02*
X0018338Y0136873D01*
X0018487Y0135275D02*
X0006000Y0135275D01*
X0006000Y0133676D02*
X0016888Y0133676D01*
X0016200Y0132078D02*
X0006000Y0132078D01*
X0006000Y0130479D02*
X0016200Y0130479D01*
X0016331Y0128881D02*
X0006000Y0128881D01*
X0006000Y0127282D02*
X0017929Y0127282D01*
X0018896Y0125684D02*
X0006000Y0125684D01*
X0006000Y0124085D02*
X0017297Y0124085D01*
X0016200Y0122487D02*
X0006000Y0122487D01*
X0006000Y0120888D02*
X0016200Y0120888D01*
X0016200Y0119290D02*
X0006000Y0119290D01*
X0006000Y0117691D02*
X0017520Y0117691D01*
X0024461Y0079327D02*
X0027539Y0079327D01*
X0026200Y0077729D02*
X0025800Y0077729D01*
X0025800Y0076130D02*
X0026200Y0076130D01*
X0026200Y0074532D02*
X0025800Y0074532D01*
X0024721Y0072933D02*
X0027279Y0072933D01*
X0028877Y0071334D02*
X0023123Y0071334D01*
X0024052Y0069736D02*
X0027948Y0069736D01*
X0026349Y0068137D02*
X0025651Y0068137D01*
X0025800Y0066539D02*
X0026200Y0066539D01*
X0026200Y0064940D02*
X0025800Y0064940D01*
X0025130Y0063342D02*
X0026870Y0063342D01*
X0028468Y0061743D02*
X0023532Y0061743D01*
X0023643Y0060145D02*
X0028357Y0060145D01*
X0026758Y0058546D02*
X0025242Y0058546D01*
X0025800Y0056948D02*
X0026200Y0056948D01*
X0026200Y0055349D02*
X0025800Y0055349D01*
X0025539Y0053751D02*
X0026461Y0053751D01*
X0028059Y0052152D02*
X0023941Y0052152D01*
X0023234Y0050554D02*
X0028766Y0050554D01*
X0027167Y0048955D02*
X0024833Y0048955D01*
X0025800Y0047357D02*
X0026200Y0047357D01*
X0026200Y0045758D02*
X0025800Y0045758D01*
X0025800Y0044160D02*
X0026200Y0044160D01*
X0027650Y0042561D02*
X0024350Y0042561D01*
X0069015Y0029773D02*
X0072985Y0029773D01*
X0071386Y0028175D02*
X0070614Y0028175D01*
X0070800Y0026576D02*
X0071200Y0026576D01*
X0071200Y0024978D02*
X0070800Y0024978D01*
X0070551Y0023379D02*
X0070167Y0023379D01*
X0069000Y0021781D02*
X0068569Y0021781D01*
X0068606Y0020182D02*
X0069000Y0020182D01*
X0073011Y0020182D02*
X0073394Y0020182D01*
X0073022Y0012190D02*
X0071268Y0012190D01*
X0078978Y0012190D02*
X0082739Y0012190D01*
X0083929Y0011000D02*
X0085800Y0011000D01*
X0085800Y0015800D01*
X0081000Y0015800D01*
X0081000Y0013929D01*
X0083929Y0011000D01*
X0085800Y0012190D02*
X0086200Y0012190D01*
X0086200Y0013788D02*
X0085800Y0013788D01*
X0085800Y0015387D02*
X0086200Y0015387D01*
X0086200Y0016985D02*
X0085800Y0016985D01*
X0085800Y0018584D02*
X0086200Y0018584D01*
X0086200Y0020182D02*
X0085800Y0020182D01*
X0083111Y0020182D02*
X0078606Y0020182D01*
X0078569Y0021781D02*
X0083431Y0021781D01*
X0081833Y0023379D02*
X0080167Y0023379D01*
X0080800Y0024978D02*
X0081200Y0024978D01*
X0081200Y0026576D02*
X0080800Y0026576D01*
X0080614Y0028175D02*
X0081386Y0028175D01*
X0081898Y0029773D02*
X0079015Y0029773D01*
X0080300Y0031372D02*
X0069825Y0031372D01*
X0071424Y0032970D02*
X0078701Y0032970D01*
X0077103Y0034569D02*
X0073000Y0034569D01*
X0073000Y0036167D02*
X0075504Y0036167D01*
X0073906Y0037766D02*
X0073000Y0037766D01*
X0080205Y0018584D02*
X0081513Y0018584D01*
X0081000Y0016985D02*
X0080800Y0016985D01*
X0080800Y0015387D02*
X0081000Y0015387D01*
X0081141Y0013788D02*
X0080576Y0013788D01*
X0061316Y0189624D02*
X0052375Y0189624D01*
X0052375Y0191223D02*
X0059663Y0191223D01*
X0059275Y0192821D02*
X0052375Y0192821D01*
X0053261Y0194420D02*
X0058502Y0194420D01*
X0058375Y0196018D02*
X0053975Y0196018D01*
X0053861Y0197617D02*
X0058375Y0197617D01*
X0058375Y0199215D02*
X0052876Y0199215D01*
X0052375Y0200814D02*
X0058375Y0200814D01*
X0058375Y0202412D02*
X0052375Y0202412D01*
X0052375Y0204011D02*
X0058683Y0204011D01*
X0060281Y0205609D02*
X0052375Y0205609D01*
X0052375Y0207208D02*
X0060875Y0207208D01*
X0060875Y0208806D02*
X0052375Y0208806D01*
X0052375Y0210405D02*
X0060875Y0210405D01*
X0060875Y0212003D02*
X0052375Y0212003D01*
X0052375Y0213602D02*
X0060875Y0213602D01*
X0060875Y0215201D02*
X0052375Y0215201D01*
X0052375Y0216799D02*
X0060875Y0216799D01*
X0060875Y0218398D02*
X0052375Y0218398D01*
X0052375Y0219996D02*
X0060875Y0219996D01*
X0060875Y0221595D02*
X0052375Y0221595D01*
X0052375Y0223193D02*
X0060875Y0223193D01*
X0060875Y0224792D02*
X0052375Y0224792D01*
X0052375Y0226390D02*
X0060875Y0226390D01*
X0060875Y0227989D02*
X0052375Y0227989D01*
X0052375Y0229587D02*
X0060875Y0229587D01*
X0060875Y0231186D02*
X0052375Y0231186D01*
X0052375Y0232784D02*
X0060875Y0232784D01*
X0060875Y0234383D02*
X0052375Y0234383D01*
X0052375Y0235981D02*
X0060875Y0235981D01*
X0045379Y0277542D02*
X0007542Y0277542D01*
X0009141Y0279141D02*
X0043781Y0279141D01*
X0042182Y0280739D02*
X0010739Y0280739D01*
X0012338Y0282338D02*
X0040584Y0282338D01*
X0038985Y0283937D02*
X0013937Y0283937D01*
X0015535Y0285535D02*
X0037387Y0285535D01*
X0027557Y0274345D02*
X0024443Y0274345D01*
X0025800Y0272747D02*
X0026200Y0272747D01*
X0026200Y0271148D02*
X0025800Y0271148D01*
X0025800Y0269550D02*
X0026200Y0269550D01*
X0027260Y0267951D02*
X0024740Y0267951D01*
X0023141Y0266353D02*
X0028859Y0266353D01*
X0027966Y0264754D02*
X0024034Y0264754D01*
X0025632Y0263156D02*
X0026368Y0263156D01*
X0026200Y0261557D02*
X0025800Y0261557D01*
X0025800Y0259959D02*
X0026200Y0259959D01*
X0026851Y0258360D02*
X0025149Y0258360D01*
X0023550Y0256762D02*
X0028450Y0256762D01*
X0028375Y0255163D02*
X0023625Y0255163D01*
X0025223Y0253565D02*
X0026777Y0253565D01*
X0026200Y0251966D02*
X0025800Y0251966D01*
X0025800Y0250368D02*
X0026200Y0250368D01*
X0026443Y0248769D02*
X0025557Y0248769D01*
X0023959Y0247171D02*
X0028041Y0247171D01*
X0028784Y0245572D02*
X0023216Y0245572D01*
X0024814Y0243974D02*
X0027186Y0243974D01*
X0026200Y0242375D02*
X0025800Y0242375D01*
X0025800Y0240777D02*
X0026200Y0240777D01*
X0026200Y0239178D02*
X0025800Y0239178D01*
X0024368Y0237580D02*
X0027632Y0237580D01*
X0017018Y0208806D02*
X0006000Y0208806D01*
X0006000Y0207208D02*
X0016200Y0207208D01*
X0016200Y0205609D02*
X0006000Y0205609D01*
X0006000Y0204011D02*
X0016201Y0204011D01*
X0113383Y0210405D02*
X0118617Y0210405D01*
X0117018Y0208806D02*
X0114982Y0208806D01*
X0115800Y0207208D02*
X0116200Y0207208D01*
X0116200Y0205609D02*
X0115800Y0205609D01*
X0115799Y0204011D02*
X0116201Y0204011D01*
D12*
X0091625Y0199125D02*
X0091625Y0264125D01*
X0078500Y0216000D02*
X0064125Y0201625D01*
X0060375Y0202875D02*
X0062875Y0205375D01*
X0062875Y0256625D01*
X0062875Y0262875D02*
X0037250Y0288500D01*
X0015375Y0288500D01*
X0003500Y0276625D01*
X0003500Y0030375D01*
X0030375Y0003500D01*
X0059750Y0003500D01*
X0071000Y0014750D01*
X0071000Y0021000D01*
X0076000Y0026000D01*
X0068500Y0032875D02*
X0071000Y0035375D01*
X0071000Y0038500D01*
X0067875Y0041625D01*
X0067250Y0036625D02*
X0046625Y0057250D01*
X0046625Y0072250D01*
X0046625Y0137250D01*
X0046625Y0202250D01*
X0046625Y0263500D01*
X0050375Y0267250D01*
X0050375Y0261625D02*
X0050375Y0196625D01*
X0050375Y0131625D01*
X0050375Y0066625D01*
X0050375Y0064125D01*
X0086000Y0028500D01*
X0086000Y0026000D01*
X0092250Y0039750D02*
X0102875Y0029125D01*
X0102875Y0022875D01*
X0096000Y0016000D01*
X0096000Y0026000D02*
X0096000Y0033500D01*
X0066625Y0062875D01*
X0066625Y0072250D01*
X0062875Y0062875D02*
X0062875Y0126625D01*
X0060375Y0129125D01*
X0060375Y0147250D01*
X0064125Y0136625D02*
X0064125Y0177250D01*
X0079125Y0192250D01*
X0091625Y0199125D02*
X0091625Y0137875D01*
X0079125Y0125375D01*
X0079125Y0069750D01*
X0092250Y0066000D02*
X0092250Y0131000D01*
X0092250Y0066000D02*
X0092250Y0039750D01*
X0068500Y0032875D02*
X0062875Y0032875D01*
X0056000Y0026000D01*
X0144125Y0099125D02*
X0144125Y0124125D01*
X0151000Y0131000D01*
X0149750Y0126000D02*
X0156000Y0126000D01*
X0161000Y0131000D01*
X0161000Y0121000D02*
X0156000Y0116000D01*
X0156000Y0099750D01*
X0166000Y0089750D01*
X0166000Y0074750D01*
X0161000Y0069750D01*
X0161000Y0066000D01*
X0161000Y0076000D02*
X0161000Y0084750D01*
X0146000Y0099750D01*
X0146000Y0122250D01*
X0149750Y0126000D01*
X0151000Y0101000D02*
X0158500Y0093500D01*
X0158500Y0092250D01*
X0161000Y0101000D02*
X0167875Y0094125D01*
X0167875Y0056625D01*
X0161000Y0049750D01*
X0161000Y0046000D01*
X0151000Y0076000D02*
X0151000Y0092250D01*
X0144125Y0099125D01*
X0062875Y0192875D02*
X0060375Y0195375D01*
X0060375Y0202875D01*
D13*
X0064125Y0201625D03*
X0062875Y0192875D03*
X0050375Y0196625D03*
X0046625Y0202250D03*
X0078500Y0216000D03*
X0079125Y0192250D03*
X0091625Y0199125D03*
X0060375Y0147250D03*
X0064125Y0136625D03*
X0062875Y0126625D03*
X0050375Y0131625D03*
X0046625Y0137250D03*
X0046625Y0072250D03*
X0050375Y0066625D03*
X0062875Y0062875D03*
X0066625Y0072250D03*
X0079125Y0069750D03*
X0092250Y0066000D03*
X0067875Y0041625D03*
X0067250Y0036625D03*
X0092250Y0131000D03*
X0091625Y0137875D03*
X0158500Y0092250D03*
X0091625Y0264125D03*
X0062875Y0262875D03*
X0062875Y0256625D03*
X0050375Y0261625D03*
X0050375Y0267250D03*
M02*
