G75*
%MOIN*%
%OFA0B0*%
%FSLAX25Y25*%
%IPPOS*%
%LPD*%
%AMOC8*
5,1,8,0,0,1.08239X$1,22.5*
%
%ADD10R,0.06299X0.05118*%
%ADD11R,0.05906X0.01575*%
%ADD12OC8,0.06400*%
%ADD13R,0.05906X0.05118*%
%ADD14C,0.00800*%
%ADD15C,0.01600*%
%ADD16C,0.04000*%
D10*
X0096000Y0092063D03*
X0096000Y0099937D03*
X0096000Y0157063D03*
X0096000Y0164937D03*
X0096000Y0217063D03*
X0096000Y0224937D03*
X0096000Y0287063D03*
X0096000Y0294937D03*
D11*
X0085272Y0272634D03*
X0085272Y0270075D03*
X0085272Y0267516D03*
X0085272Y0264957D03*
X0085272Y0262398D03*
X0085272Y0259839D03*
X0085272Y0257280D03*
X0085272Y0254720D03*
X0085272Y0252161D03*
X0085272Y0249602D03*
X0085272Y0247043D03*
X0085272Y0244484D03*
X0085272Y0241925D03*
X0085272Y0239366D03*
X0085272Y0207634D03*
X0085272Y0205075D03*
X0085272Y0202516D03*
X0085272Y0199957D03*
X0085272Y0197398D03*
X0085272Y0194839D03*
X0085272Y0192280D03*
X0085272Y0189720D03*
X0085272Y0187161D03*
X0085272Y0184602D03*
X0085272Y0182043D03*
X0085272Y0179484D03*
X0085272Y0176925D03*
X0085272Y0174366D03*
X0085272Y0142634D03*
X0085272Y0140075D03*
X0085272Y0137516D03*
X0085272Y0134957D03*
X0085272Y0132398D03*
X0085272Y0129839D03*
X0085272Y0127280D03*
X0085272Y0124720D03*
X0085272Y0122161D03*
X0085272Y0119602D03*
X0085272Y0117043D03*
X0085272Y0114484D03*
X0085272Y0111925D03*
X0085272Y0109366D03*
X0085272Y0077634D03*
X0085272Y0075075D03*
X0085272Y0072516D03*
X0085272Y0069957D03*
X0085272Y0067398D03*
X0085272Y0064839D03*
X0085272Y0062280D03*
X0085272Y0059720D03*
X0085272Y0057161D03*
X0085272Y0054602D03*
X0085272Y0052043D03*
X0085272Y0049484D03*
X0085272Y0046925D03*
X0085272Y0044366D03*
X0056728Y0044366D03*
X0056728Y0046925D03*
X0056728Y0049484D03*
X0056728Y0052043D03*
X0056728Y0054602D03*
X0056728Y0057161D03*
X0056728Y0059720D03*
X0056728Y0062280D03*
X0056728Y0064839D03*
X0056728Y0067398D03*
X0056728Y0069957D03*
X0056728Y0072516D03*
X0056728Y0075075D03*
X0056728Y0077634D03*
X0056728Y0109366D03*
X0056728Y0111925D03*
X0056728Y0114484D03*
X0056728Y0117043D03*
X0056728Y0119602D03*
X0056728Y0122161D03*
X0056728Y0124720D03*
X0056728Y0127280D03*
X0056728Y0129839D03*
X0056728Y0132398D03*
X0056728Y0134957D03*
X0056728Y0137516D03*
X0056728Y0140075D03*
X0056728Y0142634D03*
X0056728Y0174366D03*
X0056728Y0176925D03*
X0056728Y0179484D03*
X0056728Y0182043D03*
X0056728Y0184602D03*
X0056728Y0187161D03*
X0056728Y0189720D03*
X0056728Y0192280D03*
X0056728Y0194839D03*
X0056728Y0197398D03*
X0056728Y0199957D03*
X0056728Y0202516D03*
X0056728Y0205075D03*
X0056728Y0207634D03*
X0056728Y0239366D03*
X0056728Y0241925D03*
X0056728Y0244484D03*
X0056728Y0247043D03*
X0056728Y0249602D03*
X0056728Y0252161D03*
X0056728Y0254720D03*
X0056728Y0257280D03*
X0056728Y0259839D03*
X0056728Y0262398D03*
X0056728Y0264957D03*
X0056728Y0267516D03*
X0056728Y0270075D03*
X0056728Y0272634D03*
D12*
X0031000Y0271000D03*
X0031000Y0261000D03*
X0031000Y0251000D03*
X0031000Y0241000D03*
X0021000Y0241000D03*
X0021000Y0251000D03*
X0021000Y0261000D03*
X0021000Y0271000D03*
X0021000Y0206000D03*
X0021000Y0196000D03*
X0021000Y0186000D03*
X0021000Y0176000D03*
X0031000Y0176000D03*
X0031000Y0186000D03*
X0031000Y0196000D03*
X0031000Y0206000D03*
X0031000Y0141000D03*
X0031000Y0131000D03*
X0031000Y0121000D03*
X0031000Y0111000D03*
X0021000Y0111000D03*
X0021000Y0121000D03*
X0021000Y0131000D03*
X0021000Y0141000D03*
X0021000Y0076000D03*
X0021000Y0066000D03*
X0021000Y0056000D03*
X0021000Y0046000D03*
X0031000Y0046000D03*
X0031000Y0056000D03*
X0031000Y0066000D03*
X0031000Y0076000D03*
X0046000Y0026000D03*
X0046000Y0016000D03*
X0056000Y0016000D03*
X0056000Y0026000D03*
X0066000Y0026000D03*
X0066000Y0016000D03*
X0076000Y0016000D03*
X0076000Y0026000D03*
X0086000Y0026000D03*
X0086000Y0016000D03*
X0096000Y0016000D03*
X0096000Y0026000D03*
X0111000Y0046000D03*
X0111000Y0056000D03*
X0111000Y0066000D03*
X0111000Y0076000D03*
X0121000Y0076000D03*
X0121000Y0066000D03*
X0121000Y0056000D03*
X0121000Y0046000D03*
X0151000Y0046000D03*
X0151000Y0056000D03*
X0151000Y0066000D03*
X0151000Y0076000D03*
X0161000Y0076000D03*
X0161000Y0066000D03*
X0161000Y0056000D03*
X0161000Y0046000D03*
X0161000Y0101000D03*
X0161000Y0111000D03*
X0161000Y0121000D03*
X0161000Y0131000D03*
X0151000Y0131000D03*
X0151000Y0121000D03*
X0151000Y0111000D03*
X0151000Y0101000D03*
X0121000Y0111000D03*
X0121000Y0121000D03*
X0121000Y0131000D03*
X0121000Y0141000D03*
X0111000Y0141000D03*
X0111000Y0131000D03*
X0111000Y0121000D03*
X0111000Y0111000D03*
X0111000Y0176000D03*
X0111000Y0186000D03*
X0111000Y0196000D03*
X0111000Y0206000D03*
X0121000Y0206000D03*
X0121000Y0196000D03*
X0121000Y0186000D03*
X0121000Y0176000D03*
X0121000Y0241000D03*
X0121000Y0251000D03*
X0121000Y0261000D03*
X0121000Y0271000D03*
X0111000Y0271000D03*
X0111000Y0261000D03*
X0111000Y0251000D03*
X0111000Y0241000D03*
D13*
X0086000Y0224740D03*
X0086000Y0217260D03*
X0086000Y0164740D03*
X0086000Y0157260D03*
X0086000Y0099740D03*
X0086000Y0092260D03*
X0086000Y0287260D03*
X0086000Y0294740D03*
D14*
X0086000Y0287260D02*
X0086000Y0287250D01*
X0078500Y0279750D01*
X0078500Y0273500D01*
X0081625Y0270375D01*
X0084750Y0270375D01*
X0085272Y0270075D01*
X0085272Y0272634D02*
X0085375Y0272875D01*
X0096000Y0283500D01*
X0096000Y0285375D01*
X0116625Y0285375D01*
X0138500Y0263500D01*
X0138500Y0198500D01*
X0138500Y0157250D01*
X0096000Y0157250D01*
X0096000Y0157063D01*
X0096000Y0153500D01*
X0085375Y0142875D01*
X0085272Y0142634D01*
X0084750Y0140375D02*
X0085272Y0140075D01*
X0084750Y0140375D02*
X0081625Y0140375D01*
X0078500Y0143500D01*
X0078500Y0149750D01*
X0086000Y0157250D01*
X0086000Y0157260D01*
X0085375Y0174125D02*
X0085272Y0174366D01*
X0085375Y0174125D02*
X0102875Y0174125D01*
X0107875Y0169125D01*
X0114125Y0169125D01*
X0121000Y0176000D01*
X0116000Y0181000D02*
X0121000Y0186000D01*
X0116000Y0191000D02*
X0121000Y0196000D01*
X0116000Y0201000D02*
X0121000Y0206000D01*
X0116000Y0201000D02*
X0109750Y0201000D01*
X0098500Y0189750D01*
X0085375Y0189750D01*
X0085272Y0189720D01*
X0085375Y0187250D02*
X0085272Y0187161D01*
X0085375Y0187250D02*
X0102250Y0187250D01*
X0111000Y0196000D01*
X0109750Y0191000D02*
X0116000Y0191000D01*
X0111000Y0186000D02*
X0107250Y0182250D01*
X0085375Y0182250D01*
X0085272Y0182043D01*
X0085375Y0179750D02*
X0085272Y0179484D01*
X0085375Y0179750D02*
X0108500Y0179750D01*
X0109750Y0181000D01*
X0116000Y0181000D01*
X0111000Y0176000D02*
X0110375Y0176625D01*
X0085375Y0176625D01*
X0085272Y0176925D01*
X0085272Y0184602D02*
X0085375Y0184750D01*
X0103500Y0184750D01*
X0109750Y0191000D01*
X0097250Y0192250D02*
X0111000Y0206000D01*
X0120375Y0216625D02*
X0138500Y0198500D01*
X0120375Y0216625D02*
X0096000Y0216625D01*
X0096000Y0217063D01*
X0096000Y0216625D02*
X0087250Y0207875D01*
X0085375Y0207875D01*
X0085272Y0207634D01*
X0084750Y0205375D02*
X0085272Y0205075D01*
X0084750Y0205375D02*
X0081625Y0205375D01*
X0078500Y0208500D01*
X0078500Y0210375D01*
X0086000Y0217875D01*
X0086000Y0217260D01*
X0078500Y0216000D02*
X0078500Y0259125D01*
X0082250Y0262875D01*
X0084750Y0262875D01*
X0085272Y0262398D01*
X0084750Y0264750D02*
X0085272Y0264957D01*
X0084750Y0264750D02*
X0081625Y0264750D01*
X0074750Y0257875D01*
X0074750Y0206625D01*
X0081625Y0199750D01*
X0075375Y0193500D01*
X0075375Y0141625D01*
X0081625Y0135375D01*
X0084750Y0135375D01*
X0085272Y0134957D01*
X0085375Y0135375D01*
X0087875Y0135375D01*
X0092250Y0131000D01*
X0097250Y0127250D02*
X0111000Y0141000D01*
X0109750Y0136000D02*
X0116000Y0136000D01*
X0121000Y0141000D01*
X0121000Y0131000D02*
X0116000Y0126000D01*
X0109750Y0126000D01*
X0103500Y0119750D01*
X0085375Y0119750D01*
X0085272Y0119602D01*
X0085375Y0117250D02*
X0085272Y0117043D01*
X0085375Y0117250D02*
X0107250Y0117250D01*
X0111000Y0121000D01*
X0109750Y0116000D02*
X0116000Y0116000D01*
X0121000Y0121000D01*
X0121000Y0111000D02*
X0114125Y0104125D01*
X0107875Y0104125D01*
X0102875Y0109125D01*
X0085375Y0109125D01*
X0085272Y0109366D01*
X0085375Y0111625D02*
X0085272Y0111925D01*
X0085375Y0111625D02*
X0110375Y0111625D01*
X0111000Y0111000D01*
X0108500Y0114750D02*
X0109750Y0116000D01*
X0108500Y0114750D02*
X0085375Y0114750D01*
X0085272Y0114484D01*
X0085272Y0122161D02*
X0085375Y0122250D01*
X0102250Y0122250D01*
X0111000Y0131000D01*
X0109750Y0136000D02*
X0098500Y0124750D01*
X0085375Y0124750D01*
X0085272Y0124720D01*
X0085375Y0127250D02*
X0085272Y0127280D01*
X0085375Y0127250D02*
X0097250Y0127250D01*
X0091625Y0137875D02*
X0085375Y0137875D01*
X0085272Y0137516D01*
X0084750Y0132875D02*
X0082250Y0132875D01*
X0076625Y0127250D01*
X0076625Y0077250D01*
X0067250Y0067875D01*
X0057250Y0067875D01*
X0056728Y0067398D01*
X0056625Y0069750D02*
X0056728Y0069957D01*
X0056625Y0069750D02*
X0053500Y0069750D01*
X0050375Y0066625D01*
X0046625Y0072250D02*
X0056625Y0072250D01*
X0056728Y0072516D01*
X0056728Y0075075D02*
X0057250Y0075375D01*
X0062250Y0075375D01*
X0062875Y0076000D01*
X0066625Y0072250D01*
X0062875Y0076000D02*
X0067875Y0081000D01*
X0067875Y0137875D01*
X0067875Y0202875D01*
X0066625Y0204125D01*
X0066625Y0264125D01*
X0061000Y0269750D01*
X0057250Y0269750D01*
X0056728Y0270075D01*
X0056728Y0267516D02*
X0056625Y0267250D01*
X0050375Y0267250D01*
X0053500Y0264750D02*
X0050375Y0261625D01*
X0053500Y0264750D02*
X0056625Y0264750D01*
X0056728Y0264957D01*
X0057250Y0262875D02*
X0056728Y0262398D01*
X0057250Y0262875D02*
X0062875Y0262875D01*
X0059750Y0259750D02*
X0062875Y0256625D01*
X0059750Y0259750D02*
X0057250Y0259750D01*
X0056728Y0259839D01*
X0056728Y0257280D02*
X0056625Y0257250D01*
X0044750Y0257250D01*
X0031000Y0271000D01*
X0032250Y0266000D02*
X0026000Y0266000D01*
X0021000Y0271000D01*
X0021000Y0261000D02*
X0026000Y0256000D01*
X0032250Y0256000D01*
X0038500Y0249750D01*
X0056625Y0249750D01*
X0056728Y0249602D01*
X0056625Y0247250D02*
X0056728Y0247043D01*
X0056625Y0247250D02*
X0034750Y0247250D01*
X0031000Y0251000D01*
X0032250Y0246000D02*
X0026000Y0246000D01*
X0021000Y0251000D01*
X0021000Y0241000D02*
X0027875Y0234125D01*
X0034125Y0234125D01*
X0039125Y0239125D01*
X0056625Y0239125D01*
X0056728Y0239366D01*
X0056625Y0241625D02*
X0056728Y0241925D01*
X0056625Y0241625D02*
X0031625Y0241625D01*
X0031000Y0241000D01*
X0033500Y0244750D02*
X0032250Y0246000D01*
X0033500Y0244750D02*
X0056625Y0244750D01*
X0056728Y0244484D01*
X0056728Y0252161D02*
X0056625Y0252250D01*
X0039750Y0252250D01*
X0031000Y0261000D01*
X0032250Y0266000D02*
X0043500Y0254750D01*
X0056625Y0254750D01*
X0056728Y0254720D01*
X0085272Y0254720D02*
X0085375Y0254750D01*
X0098500Y0254750D01*
X0109750Y0266000D01*
X0116000Y0266000D01*
X0121000Y0271000D01*
X0121000Y0261000D02*
X0116000Y0256000D01*
X0109750Y0256000D01*
X0103500Y0249750D01*
X0085375Y0249750D01*
X0085272Y0249602D01*
X0085375Y0247250D02*
X0085272Y0247043D01*
X0085375Y0247250D02*
X0107250Y0247250D01*
X0111000Y0251000D01*
X0109750Y0246000D02*
X0108500Y0244750D01*
X0085375Y0244750D01*
X0085272Y0244484D01*
X0085272Y0241925D02*
X0085375Y0241625D01*
X0110375Y0241625D01*
X0111000Y0241000D01*
X0109750Y0246000D02*
X0116000Y0246000D01*
X0121000Y0251000D01*
X0121000Y0241000D02*
X0114125Y0234125D01*
X0107875Y0234125D01*
X0102875Y0239125D01*
X0085375Y0239125D01*
X0085272Y0239366D01*
X0085272Y0252161D02*
X0085375Y0252250D01*
X0102250Y0252250D01*
X0111000Y0261000D01*
X0111000Y0271000D02*
X0097250Y0257250D01*
X0085375Y0257250D01*
X0085272Y0257280D01*
X0091625Y0264125D02*
X0088500Y0267250D01*
X0085375Y0267250D01*
X0085272Y0267516D01*
X0096000Y0285375D02*
X0096000Y0287063D01*
X0096000Y0286625D01*
X0065375Y0205375D02*
X0057250Y0205375D01*
X0056728Y0205075D01*
X0056728Y0202516D02*
X0056625Y0202250D01*
X0046625Y0202250D01*
X0050375Y0196625D02*
X0053500Y0199750D01*
X0056625Y0199750D01*
X0056728Y0199957D01*
X0057250Y0197875D02*
X0056728Y0197398D01*
X0057250Y0197875D02*
X0060375Y0197875D01*
X0064125Y0201625D01*
X0066625Y0204125D02*
X0065375Y0205375D01*
X0059750Y0194750D02*
X0062250Y0192250D01*
X0062875Y0192875D01*
X0062250Y0192250D02*
X0063500Y0191000D01*
X0063500Y0150375D01*
X0060375Y0147250D01*
X0057250Y0140375D02*
X0056728Y0140075D01*
X0057250Y0140375D02*
X0065375Y0140375D01*
X0067875Y0137875D01*
X0064125Y0136625D02*
X0060375Y0132875D01*
X0057250Y0132875D01*
X0056728Y0132398D01*
X0056625Y0134750D02*
X0056728Y0134957D01*
X0056625Y0134750D02*
X0053500Y0134750D01*
X0050375Y0131625D01*
X0046625Y0137250D02*
X0056625Y0137250D01*
X0056728Y0137516D01*
X0056728Y0129839D02*
X0057250Y0129750D01*
X0059750Y0129750D01*
X0062875Y0126625D01*
X0056728Y0127280D02*
X0056625Y0127250D01*
X0044750Y0127250D01*
X0031000Y0141000D01*
X0032250Y0136000D02*
X0026000Y0136000D01*
X0021000Y0141000D01*
X0021000Y0131000D02*
X0026000Y0126000D01*
X0032250Y0126000D01*
X0038500Y0119750D01*
X0056625Y0119750D01*
X0056728Y0119602D01*
X0056625Y0117250D02*
X0056728Y0117043D01*
X0056625Y0117250D02*
X0034750Y0117250D01*
X0031000Y0121000D01*
X0032250Y0116000D02*
X0026000Y0116000D01*
X0021000Y0121000D01*
X0021000Y0111000D02*
X0027875Y0104125D01*
X0034125Y0104125D01*
X0039125Y0109125D01*
X0056625Y0109125D01*
X0056728Y0109366D01*
X0056625Y0111625D02*
X0056728Y0111925D01*
X0056625Y0111625D02*
X0031625Y0111625D01*
X0031000Y0111000D01*
X0033500Y0114750D02*
X0032250Y0116000D01*
X0033500Y0114750D02*
X0056625Y0114750D01*
X0056728Y0114484D01*
X0056728Y0122161D02*
X0056625Y0122250D01*
X0039750Y0122250D01*
X0031000Y0131000D01*
X0032250Y0136000D02*
X0043500Y0124750D01*
X0056625Y0124750D01*
X0056728Y0124720D01*
X0086000Y0092250D02*
X0078500Y0084750D01*
X0078500Y0078500D01*
X0081625Y0075375D01*
X0084750Y0075375D01*
X0085272Y0075075D01*
X0085272Y0077634D02*
X0085375Y0077875D01*
X0096000Y0088500D01*
X0096000Y0091000D01*
X0116000Y0091000D01*
X0138500Y0068500D01*
X0138500Y0157250D01*
X0151000Y0121000D02*
X0146000Y0116000D01*
X0146000Y0074750D01*
X0151000Y0069750D01*
X0151000Y0066000D01*
X0156000Y0064750D02*
X0151000Y0059750D01*
X0151000Y0056000D01*
X0156000Y0054750D02*
X0151000Y0049750D01*
X0151000Y0046000D01*
X0156000Y0054750D02*
X0156000Y0057250D01*
X0159750Y0061000D01*
X0162250Y0061000D01*
X0166000Y0064750D01*
X0166000Y0084750D01*
X0158500Y0092250D01*
X0156000Y0089750D02*
X0154750Y0091000D01*
X0154750Y0098500D01*
X0156000Y0099750D01*
X0156000Y0106000D01*
X0151000Y0111000D01*
X0161000Y0111000D02*
X0167875Y0104125D01*
X0167875Y0064125D01*
X0161000Y0057250D01*
X0161000Y0056000D01*
X0156000Y0064750D02*
X0156000Y0089750D01*
X0138500Y0068500D02*
X0138500Y0035375D01*
X0101625Y0003500D01*
X0088500Y0003500D01*
X0076000Y0016000D01*
X0071000Y0021000D02*
X0071000Y0027250D01*
X0071625Y0027875D01*
X0071625Y0057250D01*
X0081625Y0067250D01*
X0084750Y0067250D01*
X0085272Y0067398D01*
X0085375Y0069750D02*
X0085272Y0069957D01*
X0085375Y0069750D02*
X0088500Y0069750D01*
X0092250Y0066000D01*
X0097250Y0062250D02*
X0111000Y0076000D01*
X0109750Y0071000D02*
X0116000Y0071000D01*
X0121000Y0076000D01*
X0121000Y0066000D02*
X0116000Y0061000D01*
X0109750Y0061000D01*
X0103500Y0054750D01*
X0085375Y0054750D01*
X0085272Y0054602D01*
X0085375Y0052250D02*
X0085272Y0052043D01*
X0085375Y0052250D02*
X0107250Y0052250D01*
X0111000Y0056000D01*
X0109750Y0051000D02*
X0108500Y0049750D01*
X0085375Y0049750D01*
X0085272Y0049484D01*
X0085272Y0046925D02*
X0085375Y0046625D01*
X0110375Y0046625D01*
X0111000Y0046000D01*
X0109750Y0051000D02*
X0116000Y0051000D01*
X0121000Y0056000D01*
X0121000Y0046000D02*
X0114125Y0039125D01*
X0107875Y0039125D01*
X0102875Y0044125D01*
X0085375Y0044125D01*
X0085272Y0044366D01*
X0085272Y0057161D02*
X0085375Y0057250D01*
X0102250Y0057250D01*
X0111000Y0066000D01*
X0109750Y0071000D02*
X0098500Y0059750D01*
X0085375Y0059750D01*
X0085272Y0059720D01*
X0085375Y0062250D02*
X0085272Y0062280D01*
X0085375Y0062250D02*
X0097250Y0062250D01*
X0085272Y0072516D02*
X0084750Y0072250D01*
X0081625Y0072250D01*
X0079125Y0069750D01*
X0067875Y0058500D01*
X0067875Y0041625D01*
X0067250Y0036625D02*
X0067250Y0027250D01*
X0066000Y0026000D01*
X0063500Y0029750D02*
X0061000Y0027250D01*
X0061000Y0021000D01*
X0056000Y0016000D01*
X0063500Y0029750D02*
X0063500Y0061000D01*
X0062250Y0062250D01*
X0062875Y0062875D01*
X0062250Y0062250D02*
X0059750Y0064750D01*
X0057250Y0064750D01*
X0056728Y0064839D01*
X0056728Y0062280D02*
X0056625Y0062250D01*
X0044750Y0062250D01*
X0031000Y0076000D01*
X0032250Y0071000D02*
X0026000Y0071000D01*
X0021000Y0076000D01*
X0021000Y0066000D02*
X0026000Y0061000D01*
X0032250Y0061000D01*
X0038500Y0054750D01*
X0056625Y0054750D01*
X0056728Y0054602D01*
X0056625Y0052250D02*
X0056728Y0052043D01*
X0056625Y0052250D02*
X0034750Y0052250D01*
X0031000Y0056000D01*
X0032250Y0051000D02*
X0026000Y0051000D01*
X0021000Y0056000D01*
X0021000Y0046000D02*
X0027875Y0039125D01*
X0034125Y0039125D01*
X0039125Y0044125D01*
X0056625Y0044125D01*
X0056728Y0044366D01*
X0056625Y0046625D02*
X0056728Y0046925D01*
X0056625Y0046625D02*
X0031625Y0046625D01*
X0031000Y0046000D01*
X0033500Y0049750D02*
X0032250Y0051000D01*
X0033500Y0049750D02*
X0056625Y0049750D01*
X0056728Y0049484D01*
X0056728Y0057161D02*
X0056625Y0057250D01*
X0039750Y0057250D01*
X0031000Y0066000D01*
X0032250Y0071000D02*
X0043500Y0059750D01*
X0056625Y0059750D01*
X0056728Y0059720D01*
X0071000Y0021000D02*
X0066000Y0016000D01*
X0096000Y0091000D02*
X0096000Y0092063D01*
X0096000Y0091625D01*
X0086000Y0092250D02*
X0086000Y0092260D01*
X0085272Y0132398D02*
X0084750Y0132875D01*
X0056625Y0174125D02*
X0056728Y0174366D01*
X0056625Y0174125D02*
X0039125Y0174125D01*
X0034125Y0169125D01*
X0027875Y0169125D01*
X0021000Y0176000D01*
X0026000Y0181000D02*
X0021000Y0186000D01*
X0026000Y0191000D02*
X0021000Y0196000D01*
X0026000Y0201000D02*
X0021000Y0206000D01*
X0026000Y0201000D02*
X0032250Y0201000D01*
X0043500Y0189750D01*
X0056625Y0189750D01*
X0056728Y0189720D01*
X0056625Y0187250D02*
X0056728Y0187161D01*
X0056625Y0187250D02*
X0039750Y0187250D01*
X0031000Y0196000D01*
X0032250Y0191000D02*
X0026000Y0191000D01*
X0032250Y0191000D02*
X0038500Y0184750D01*
X0056625Y0184750D01*
X0056728Y0184602D01*
X0056625Y0182250D02*
X0056728Y0182043D01*
X0056625Y0182250D02*
X0034750Y0182250D01*
X0031000Y0186000D01*
X0032250Y0181000D02*
X0026000Y0181000D01*
X0032250Y0181000D02*
X0033500Y0179750D01*
X0056625Y0179750D01*
X0056728Y0179484D01*
X0056728Y0176925D02*
X0056625Y0176625D01*
X0031625Y0176625D01*
X0031000Y0176000D01*
X0044750Y0192250D02*
X0031000Y0206000D01*
X0044750Y0192250D02*
X0056625Y0192250D01*
X0056728Y0192280D01*
X0057250Y0194750D02*
X0056728Y0194839D01*
X0057250Y0194750D02*
X0059750Y0194750D01*
X0079125Y0192250D02*
X0081000Y0194125D01*
X0081000Y0196625D01*
X0082250Y0197875D01*
X0084750Y0197875D01*
X0085272Y0197398D01*
X0085272Y0199957D02*
X0084750Y0200375D01*
X0082250Y0200375D01*
X0081625Y0199750D01*
X0085272Y0202516D02*
X0085375Y0202875D01*
X0087875Y0202875D01*
X0091625Y0199125D01*
X0097250Y0192250D02*
X0085375Y0192250D01*
X0085272Y0192280D01*
D15*
X0041833Y0023379D02*
X0013621Y0023379D01*
X0015219Y0021781D02*
X0043431Y0021781D01*
X0044012Y0021200D02*
X0047988Y0021200D01*
X0050800Y0024012D01*
X0050800Y0027988D01*
X0047988Y0030800D01*
X0044012Y0030800D01*
X0041200Y0027988D01*
X0041200Y0024012D01*
X0044012Y0021200D01*
X0044012Y0020800D02*
X0041200Y0017988D01*
X0041200Y0014012D01*
X0044012Y0011200D01*
X0047988Y0011200D01*
X0050800Y0014012D01*
X0050800Y0017988D01*
X0047988Y0020800D01*
X0044012Y0020800D01*
X0043394Y0020182D02*
X0016818Y0020182D01*
X0018416Y0018584D02*
X0041795Y0018584D01*
X0041200Y0016985D02*
X0020015Y0016985D01*
X0021613Y0015387D02*
X0041200Y0015387D01*
X0041424Y0013788D02*
X0023212Y0013788D01*
X0024810Y0012190D02*
X0043022Y0012190D01*
X0048978Y0012190D02*
X0053022Y0012190D01*
X0054012Y0011200D02*
X0057988Y0011200D01*
X0060800Y0014012D01*
X0060800Y0017972D01*
X0063000Y0020172D01*
X0063000Y0022212D01*
X0064012Y0021200D01*
X0067988Y0021200D01*
X0069000Y0022212D01*
X0069000Y0021828D01*
X0067972Y0020800D01*
X0064012Y0020800D01*
X0061200Y0017988D01*
X0061200Y0014012D01*
X0064012Y0011200D01*
X0067988Y0011200D01*
X0070800Y0014012D01*
X0070800Y0017972D01*
X0073000Y0020172D01*
X0073000Y0022212D01*
X0074012Y0021200D01*
X0077988Y0021200D01*
X0080800Y0024012D01*
X0080800Y0027988D01*
X0077988Y0030800D01*
X0074012Y0030800D01*
X0073625Y0030413D01*
X0073625Y0056422D01*
X0080719Y0063515D01*
X0080719Y0042916D01*
X0081656Y0041979D01*
X0085355Y0041979D01*
X0085401Y0041960D01*
X0085444Y0041979D01*
X0088887Y0041979D01*
X0089033Y0042125D01*
X0102047Y0042125D01*
X0105875Y0038297D01*
X0107047Y0037125D01*
X0114953Y0037125D01*
X0119028Y0041200D01*
X0122988Y0041200D01*
X0125800Y0044012D01*
X0125800Y0047988D01*
X0122988Y0050800D01*
X0119012Y0050800D01*
X0116200Y0047988D01*
X0116200Y0044028D01*
X0113297Y0041125D01*
X0108703Y0041125D01*
X0105203Y0044625D01*
X0106200Y0044625D01*
X0106200Y0044012D01*
X0109012Y0041200D01*
X0112988Y0041200D01*
X0115800Y0044012D01*
X0115800Y0047988D01*
X0114788Y0049000D01*
X0116828Y0049000D01*
X0119028Y0051200D01*
X0122988Y0051200D01*
X0125800Y0054012D01*
X0125800Y0057988D01*
X0122988Y0060800D01*
X0119012Y0060800D01*
X0116200Y0057988D01*
X0116200Y0054028D01*
X0115172Y0053000D01*
X0114788Y0053000D01*
X0115800Y0054012D01*
X0115800Y0057988D01*
X0114788Y0059000D01*
X0116828Y0059000D01*
X0119028Y0061200D01*
X0122988Y0061200D01*
X0125800Y0064012D01*
X0125800Y0067988D01*
X0122988Y0070800D01*
X0119012Y0070800D01*
X0116200Y0067988D01*
X0116200Y0064028D01*
X0115172Y0063000D01*
X0114788Y0063000D01*
X0115800Y0064012D01*
X0115800Y0067988D01*
X0114788Y0069000D01*
X0116828Y0069000D01*
X0119028Y0071200D01*
X0122988Y0071200D01*
X0125800Y0074012D01*
X0125800Y0077988D01*
X0122988Y0080800D01*
X0119012Y0080800D01*
X0116200Y0077988D01*
X0116200Y0074028D01*
X0115172Y0073000D01*
X0114788Y0073000D01*
X0115800Y0074012D01*
X0115800Y0077988D01*
X0112988Y0080800D01*
X0109012Y0080800D01*
X0106200Y0077988D01*
X0106200Y0074028D01*
X0096422Y0064250D01*
X0095422Y0064250D01*
X0095850Y0065284D01*
X0095850Y0066716D01*
X0095302Y0068039D01*
X0094289Y0069052D01*
X0092966Y0069600D01*
X0091534Y0069600D01*
X0091495Y0069584D01*
X0089824Y0071254D01*
X0089824Y0079084D01*
X0089618Y0079290D01*
X0096828Y0086500D01*
X0098000Y0087672D01*
X0098000Y0087904D01*
X0099812Y0087904D01*
X0100750Y0088841D01*
X0100750Y0089000D01*
X0115172Y0089000D01*
X0136000Y0068172D01*
X0136000Y0036000D01*
X0101000Y0006000D01*
X0088828Y0006000D01*
X0080800Y0014028D01*
X0080800Y0017988D01*
X0077988Y0020800D01*
X0074012Y0020800D01*
X0071200Y0017988D01*
X0071200Y0014012D01*
X0074012Y0011200D01*
X0077972Y0011200D01*
X0083172Y0006000D01*
X0031000Y0006000D01*
X0006000Y0031000D01*
X0006000Y0276000D01*
X0016000Y0286000D01*
X0066000Y0286000D01*
X0071000Y0291000D01*
X0071000Y0299161D01*
X0092134Y0299161D01*
X0091745Y0298936D01*
X0091410Y0298601D01*
X0091173Y0298191D01*
X0091050Y0297733D01*
X0091050Y0295417D01*
X0095520Y0295417D01*
X0095520Y0294457D01*
X0091050Y0294457D01*
X0091050Y0292141D01*
X0091173Y0291683D01*
X0091410Y0291273D01*
X0091745Y0290938D01*
X0091845Y0290880D01*
X0091250Y0290285D01*
X0091250Y0283841D01*
X0092188Y0282904D01*
X0092576Y0282904D01*
X0084693Y0275021D01*
X0081656Y0275021D01*
X0080732Y0274097D01*
X0080500Y0274328D01*
X0080500Y0278922D01*
X0084679Y0283101D01*
X0089615Y0283101D01*
X0090553Y0284038D01*
X0090553Y0290482D01*
X0090176Y0290859D01*
X0090393Y0291076D01*
X0090630Y0291486D01*
X0090753Y0291944D01*
X0090753Y0294261D01*
X0086480Y0294261D01*
X0086480Y0295220D01*
X0090753Y0295220D01*
X0090753Y0297536D01*
X0090630Y0297994D01*
X0090393Y0298404D01*
X0090058Y0298740D01*
X0089648Y0298977D01*
X0089190Y0299099D01*
X0086480Y0299099D01*
X0086480Y0295220D01*
X0085520Y0295220D01*
X0085520Y0294261D01*
X0081247Y0294261D01*
X0081247Y0291944D01*
X0081370Y0291486D01*
X0081607Y0291076D01*
X0081824Y0290859D01*
X0081447Y0290482D01*
X0081447Y0285526D01*
X0076500Y0280578D01*
X0076500Y0272672D01*
X0077672Y0271500D01*
X0080719Y0268453D01*
X0080719Y0266672D01*
X0073922Y0259875D01*
X0072750Y0258703D01*
X0072750Y0205797D01*
X0078797Y0199750D01*
X0073375Y0194328D01*
X0073375Y0140797D01*
X0074547Y0139625D01*
X0080359Y0133813D01*
X0080250Y0133703D01*
X0074625Y0128078D01*
X0074625Y0078078D01*
X0070016Y0073470D01*
X0069677Y0074289D01*
X0068664Y0075302D01*
X0067341Y0075850D01*
X0065909Y0075850D01*
X0065870Y0075834D01*
X0065703Y0076000D01*
X0068703Y0079000D01*
X0068703Y0079000D01*
X0069875Y0080172D01*
X0069875Y0203703D01*
X0068703Y0204875D01*
X0068625Y0204953D01*
X0068625Y0264953D01*
X0067453Y0266125D01*
X0061828Y0271750D01*
X0061481Y0271750D01*
X0061481Y0272634D01*
X0061481Y0273658D01*
X0061358Y0274116D01*
X0061121Y0274526D01*
X0060786Y0274862D01*
X0060376Y0275099D01*
X0059918Y0275221D01*
X0056728Y0275221D01*
X0053539Y0275221D01*
X0053081Y0275099D01*
X0052670Y0274862D01*
X0052335Y0274526D01*
X0052098Y0274116D01*
X0051976Y0273658D01*
X0051976Y0272634D01*
X0056728Y0272634D01*
X0056728Y0272634D01*
X0056728Y0275221D01*
X0056728Y0272634D01*
X0056728Y0272634D01*
X0051976Y0272634D01*
X0051976Y0271609D01*
X0052098Y0271152D01*
X0052176Y0271018D01*
X0052176Y0270401D01*
X0051091Y0270850D01*
X0049659Y0270850D01*
X0048336Y0270302D01*
X0047323Y0269289D01*
X0046775Y0267966D01*
X0046775Y0266534D01*
X0047323Y0265211D01*
X0048096Y0264438D01*
X0047323Y0263664D01*
X0046775Y0262341D01*
X0046775Y0260909D01*
X0047323Y0259586D01*
X0047659Y0259250D01*
X0045578Y0259250D01*
X0035800Y0269028D01*
X0035800Y0272988D01*
X0032988Y0275800D01*
X0029012Y0275800D01*
X0026200Y0272988D01*
X0026200Y0269012D01*
X0027212Y0268000D01*
X0026828Y0268000D01*
X0025800Y0269028D01*
X0025800Y0272988D01*
X0022988Y0275800D01*
X0019012Y0275800D01*
X0016200Y0272988D01*
X0016200Y0269012D01*
X0019012Y0266200D01*
X0022972Y0266200D01*
X0025172Y0264000D01*
X0027212Y0264000D01*
X0026200Y0262988D01*
X0026200Y0259012D01*
X0027212Y0258000D01*
X0026828Y0258000D01*
X0025800Y0259028D01*
X0025800Y0262988D01*
X0022988Y0265800D01*
X0019012Y0265800D01*
X0016200Y0262988D01*
X0016200Y0259012D01*
X0019012Y0256200D01*
X0022972Y0256200D01*
X0025172Y0254000D01*
X0027212Y0254000D01*
X0026200Y0252988D01*
X0026200Y0249012D01*
X0027212Y0248000D01*
X0026828Y0248000D01*
X0025800Y0249028D01*
X0025800Y0252988D01*
X0022988Y0255800D01*
X0019012Y0255800D01*
X0016200Y0252988D01*
X0016200Y0249012D01*
X0019012Y0246200D01*
X0022972Y0246200D01*
X0025172Y0244000D01*
X0027212Y0244000D01*
X0026200Y0242988D01*
X0026200Y0239012D01*
X0029012Y0236200D01*
X0032988Y0236200D01*
X0035800Y0239012D01*
X0035800Y0239625D01*
X0036797Y0239625D01*
X0033297Y0236125D01*
X0028703Y0236125D01*
X0025800Y0239028D01*
X0025800Y0242988D01*
X0022988Y0245800D01*
X0019012Y0245800D01*
X0016200Y0242988D01*
X0016200Y0239012D01*
X0019012Y0236200D01*
X0022972Y0236200D01*
X0027047Y0232125D01*
X0034953Y0232125D01*
X0036125Y0233297D01*
X0039953Y0237125D01*
X0052967Y0237125D01*
X0053113Y0236979D01*
X0056556Y0236979D01*
X0056599Y0236960D01*
X0056645Y0236979D01*
X0060344Y0236979D01*
X0061281Y0237916D01*
X0061281Y0253389D01*
X0062159Y0253025D01*
X0063591Y0253025D01*
X0064625Y0253453D01*
X0064625Y0207375D01*
X0061481Y0207375D01*
X0061481Y0207634D01*
X0061481Y0208658D01*
X0061358Y0209116D01*
X0061121Y0209526D01*
X0060786Y0209862D01*
X0060376Y0210099D01*
X0059918Y0210221D01*
X0056728Y0210221D01*
X0053539Y0210221D01*
X0053081Y0210099D01*
X0052670Y0209862D01*
X0052335Y0209526D01*
X0052098Y0209116D01*
X0051976Y0208658D01*
X0051976Y0207634D01*
X0056728Y0207634D01*
X0056728Y0207634D01*
X0056728Y0210221D01*
X0056728Y0207634D01*
X0056728Y0207634D01*
X0051976Y0207634D01*
X0051976Y0206609D01*
X0052098Y0206152D01*
X0052176Y0206018D01*
X0052176Y0204250D01*
X0049693Y0204250D01*
X0049677Y0204289D01*
X0048664Y0205302D01*
X0047341Y0205850D01*
X0045909Y0205850D01*
X0044586Y0205302D01*
X0043573Y0204289D01*
X0043025Y0202966D01*
X0043025Y0201534D01*
X0043573Y0200211D01*
X0044586Y0199198D01*
X0045909Y0198650D01*
X0047317Y0198650D01*
X0046775Y0197341D01*
X0046775Y0195909D01*
X0047323Y0194586D01*
X0047659Y0194250D01*
X0045578Y0194250D01*
X0035800Y0204028D01*
X0035800Y0207988D01*
X0032988Y0210800D01*
X0029012Y0210800D01*
X0026200Y0207988D01*
X0026200Y0204012D01*
X0027212Y0203000D01*
X0026828Y0203000D01*
X0025800Y0204028D01*
X0025800Y0207988D01*
X0022988Y0210800D01*
X0019012Y0210800D01*
X0016200Y0207988D01*
X0016200Y0204012D01*
X0019012Y0201200D01*
X0022972Y0201200D01*
X0025172Y0199000D01*
X0027212Y0199000D01*
X0026200Y0197988D01*
X0026200Y0194012D01*
X0027212Y0193000D01*
X0026828Y0193000D01*
X0025800Y0194028D01*
X0025800Y0197988D01*
X0022988Y0200800D01*
X0019012Y0200800D01*
X0016200Y0197988D01*
X0016200Y0194012D01*
X0019012Y0191200D01*
X0022972Y0191200D01*
X0025172Y0189000D01*
X0027212Y0189000D01*
X0026200Y0187988D01*
X0026200Y0184012D01*
X0027212Y0183000D01*
X0026828Y0183000D01*
X0025800Y0184028D01*
X0025800Y0187988D01*
X0022988Y0190800D01*
X0019012Y0190800D01*
X0016200Y0187988D01*
X0016200Y0184012D01*
X0019012Y0181200D01*
X0022972Y0181200D01*
X0025172Y0179000D01*
X0027212Y0179000D01*
X0026200Y0177988D01*
X0026200Y0174012D01*
X0029012Y0171200D01*
X0032988Y0171200D01*
X0035800Y0174012D01*
X0035800Y0174625D01*
X0036797Y0174625D01*
X0033297Y0171125D01*
X0028703Y0171125D01*
X0025800Y0174028D01*
X0025800Y0177988D01*
X0022988Y0180800D01*
X0019012Y0180800D01*
X0016200Y0177988D01*
X0016200Y0174012D01*
X0019012Y0171200D01*
X0022972Y0171200D01*
X0027047Y0167125D01*
X0034953Y0167125D01*
X0036125Y0168297D01*
X0039953Y0172125D01*
X0052967Y0172125D01*
X0053113Y0171979D01*
X0056556Y0171979D01*
X0056599Y0171960D01*
X0056645Y0171979D01*
X0060344Y0171979D01*
X0061281Y0172916D01*
X0061281Y0189639D01*
X0061500Y0189548D01*
X0061500Y0151203D01*
X0061130Y0150834D01*
X0061091Y0150850D01*
X0059659Y0150850D01*
X0058336Y0150302D01*
X0057323Y0149289D01*
X0056775Y0147966D01*
X0056775Y0146534D01*
X0057319Y0145221D01*
X0056728Y0145221D01*
X0053539Y0145221D01*
X0053081Y0145099D01*
X0052670Y0144862D01*
X0052335Y0144526D01*
X0052098Y0144116D01*
X0051976Y0143658D01*
X0051976Y0142634D01*
X0056728Y0142634D01*
X0056728Y0142634D01*
X0056728Y0145221D01*
X0056728Y0142634D01*
X0056728Y0142634D01*
X0051976Y0142634D01*
X0051976Y0141609D01*
X0052098Y0141152D01*
X0052176Y0141018D01*
X0052176Y0139250D01*
X0049693Y0139250D01*
X0049677Y0139289D01*
X0048664Y0140302D01*
X0047341Y0140850D01*
X0045909Y0140850D01*
X0044586Y0140302D01*
X0043573Y0139289D01*
X0043025Y0137966D01*
X0043025Y0136534D01*
X0043573Y0135211D01*
X0044586Y0134198D01*
X0045909Y0133650D01*
X0047317Y0133650D01*
X0046775Y0132341D01*
X0046775Y0130909D01*
X0047323Y0129586D01*
X0047659Y0129250D01*
X0045578Y0129250D01*
X0035800Y0139028D01*
X0035800Y0142988D01*
X0032988Y0145800D01*
X0029012Y0145800D01*
X0026200Y0142988D01*
X0026200Y0139012D01*
X0027212Y0138000D01*
X0026828Y0138000D01*
X0025800Y0139028D01*
X0025800Y0142988D01*
X0022988Y0145800D01*
X0019012Y0145800D01*
X0016200Y0142988D01*
X0016200Y0139012D01*
X0019012Y0136200D01*
X0022972Y0136200D01*
X0025172Y0134000D01*
X0027212Y0134000D01*
X0026200Y0132988D01*
X0026200Y0129012D01*
X0027212Y0128000D01*
X0026828Y0128000D01*
X0025800Y0129028D01*
X0025800Y0132988D01*
X0022988Y0135800D01*
X0019012Y0135800D01*
X0016200Y0132988D01*
X0016200Y0129012D01*
X0019012Y0126200D01*
X0022972Y0126200D01*
X0025172Y0124000D01*
X0027212Y0124000D01*
X0026200Y0122988D01*
X0026200Y0119012D01*
X0027212Y0118000D01*
X0026828Y0118000D01*
X0025800Y0119028D01*
X0025800Y0122988D01*
X0022988Y0125800D01*
X0019012Y0125800D01*
X0016200Y0122988D01*
X0016200Y0119012D01*
X0019012Y0116200D01*
X0022972Y0116200D01*
X0025172Y0114000D01*
X0027212Y0114000D01*
X0026200Y0112988D01*
X0026200Y0109012D01*
X0029012Y0106200D01*
X0032988Y0106200D01*
X0035800Y0109012D01*
X0035800Y0109625D01*
X0036797Y0109625D01*
X0033297Y0106125D01*
X0028703Y0106125D01*
X0025800Y0109028D01*
X0025800Y0112988D01*
X0022988Y0115800D01*
X0019012Y0115800D01*
X0016200Y0112988D01*
X0016200Y0109012D01*
X0019012Y0106200D01*
X0022972Y0106200D01*
X0027047Y0102125D01*
X0034953Y0102125D01*
X0036125Y0103297D01*
X0039953Y0107125D01*
X0052967Y0107125D01*
X0053113Y0106979D01*
X0056556Y0106979D01*
X0056599Y0106960D01*
X0056645Y0106979D01*
X0060344Y0106979D01*
X0061281Y0107916D01*
X0061281Y0123389D01*
X0062159Y0123025D01*
X0063591Y0123025D01*
X0064914Y0123573D01*
X0065875Y0124534D01*
X0065875Y0081828D01*
X0062047Y0078000D01*
X0062047Y0078000D01*
X0061481Y0077434D01*
X0061481Y0077634D01*
X0061481Y0078658D01*
X0061358Y0079116D01*
X0061121Y0079526D01*
X0060786Y0079862D01*
X0060376Y0080099D01*
X0059918Y0080221D01*
X0056728Y0080221D01*
X0053539Y0080221D01*
X0053081Y0080099D01*
X0052670Y0079862D01*
X0052335Y0079526D01*
X0052098Y0079116D01*
X0051976Y0078658D01*
X0051976Y0077634D01*
X0056728Y0077634D01*
X0056728Y0077634D01*
X0056728Y0080221D01*
X0056728Y0077634D01*
X0056728Y0077634D01*
X0051976Y0077634D01*
X0051976Y0076609D01*
X0052098Y0076152D01*
X0052176Y0076018D01*
X0052176Y0074250D01*
X0049693Y0074250D01*
X0049677Y0074289D01*
X0048664Y0075302D01*
X0047341Y0075850D01*
X0045909Y0075850D01*
X0044586Y0075302D01*
X0043573Y0074289D01*
X0043025Y0072966D01*
X0043025Y0071534D01*
X0043573Y0070211D01*
X0044586Y0069198D01*
X0045909Y0068650D01*
X0047317Y0068650D01*
X0046775Y0067341D01*
X0046775Y0065909D01*
X0047323Y0064586D01*
X0047659Y0064250D01*
X0045578Y0064250D01*
X0035800Y0074028D01*
X0035800Y0077988D01*
X0032988Y0080800D01*
X0029012Y0080800D01*
X0026200Y0077988D01*
X0026200Y0074012D01*
X0027212Y0073000D01*
X0026828Y0073000D01*
X0025800Y0074028D01*
X0025800Y0077988D01*
X0022988Y0080800D01*
X0019012Y0080800D01*
X0016200Y0077988D01*
X0016200Y0074012D01*
X0019012Y0071200D01*
X0022972Y0071200D01*
X0025172Y0069000D01*
X0027212Y0069000D01*
X0026200Y0067988D01*
X0026200Y0064012D01*
X0027212Y0063000D01*
X0026828Y0063000D01*
X0025800Y0064028D01*
X0025800Y0067988D01*
X0022988Y0070800D01*
X0019012Y0070800D01*
X0016200Y0067988D01*
X0016200Y0064012D01*
X0019012Y0061200D01*
X0022972Y0061200D01*
X0025172Y0059000D01*
X0027212Y0059000D01*
X0026200Y0057988D01*
X0026200Y0054012D01*
X0027212Y0053000D01*
X0026828Y0053000D01*
X0025800Y0054028D01*
X0025800Y0057988D01*
X0022988Y0060800D01*
X0019012Y0060800D01*
X0016200Y0057988D01*
X0016200Y0054012D01*
X0019012Y0051200D01*
X0022972Y0051200D01*
X0025172Y0049000D01*
X0027212Y0049000D01*
X0026200Y0047988D01*
X0026200Y0044012D01*
X0029012Y0041200D01*
X0032988Y0041200D01*
X0035800Y0044012D01*
X0035800Y0044625D01*
X0036797Y0044625D01*
X0033297Y0041125D01*
X0028703Y0041125D01*
X0025800Y0044028D01*
X0025800Y0047988D01*
X0022988Y0050800D01*
X0019012Y0050800D01*
X0016200Y0047988D01*
X0016200Y0044012D01*
X0019012Y0041200D01*
X0022972Y0041200D01*
X0027047Y0037125D01*
X0034953Y0037125D01*
X0036125Y0038297D01*
X0039953Y0042125D01*
X0052967Y0042125D01*
X0053113Y0041979D01*
X0056556Y0041979D01*
X0056599Y0041960D01*
X0056645Y0041979D01*
X0060344Y0041979D01*
X0061281Y0042916D01*
X0061281Y0059639D01*
X0061500Y0059548D01*
X0061500Y0030578D01*
X0060172Y0029250D01*
X0059855Y0028933D01*
X0057988Y0030800D01*
X0054012Y0030800D01*
X0051200Y0027988D01*
X0051200Y0024012D01*
X0054012Y0021200D01*
X0057988Y0021200D01*
X0059000Y0022212D01*
X0059000Y0021828D01*
X0057972Y0020800D01*
X0054012Y0020800D01*
X0051200Y0017988D01*
X0051200Y0014012D01*
X0054012Y0011200D01*
X0051424Y0013788D02*
X0050576Y0013788D01*
X0050800Y0015387D02*
X0051200Y0015387D01*
X0051200Y0016985D02*
X0050800Y0016985D01*
X0050205Y0018584D02*
X0051795Y0018584D01*
X0053394Y0020182D02*
X0048606Y0020182D01*
X0048569Y0021781D02*
X0053431Y0021781D01*
X0051833Y0023379D02*
X0050167Y0023379D01*
X0050800Y0024978D02*
X0051200Y0024978D01*
X0051200Y0026576D02*
X0050800Y0026576D01*
X0050614Y0028175D02*
X0051386Y0028175D01*
X0052985Y0029773D02*
X0049015Y0029773D01*
X0042985Y0029773D02*
X0007227Y0029773D01*
X0006000Y0031372D02*
X0061500Y0031372D01*
X0061500Y0032970D02*
X0006000Y0032970D01*
X0006000Y0034569D02*
X0061500Y0034569D01*
X0061500Y0036167D02*
X0006000Y0036167D01*
X0006000Y0037766D02*
X0026406Y0037766D01*
X0024807Y0039364D02*
X0006000Y0039364D01*
X0006000Y0040963D02*
X0023209Y0040963D01*
X0025800Y0044160D02*
X0026200Y0044160D01*
X0026200Y0045758D02*
X0025800Y0045758D01*
X0025800Y0047357D02*
X0026200Y0047357D01*
X0027167Y0048955D02*
X0024833Y0048955D01*
X0023618Y0050554D02*
X0023234Y0050554D01*
X0026078Y0053751D02*
X0026461Y0053751D01*
X0026200Y0055349D02*
X0025800Y0055349D01*
X0025800Y0056948D02*
X0026200Y0056948D01*
X0026758Y0058546D02*
X0025242Y0058546D01*
X0024027Y0060145D02*
X0023643Y0060145D01*
X0026486Y0063342D02*
X0026870Y0063342D01*
X0026200Y0064940D02*
X0025800Y0064940D01*
X0025800Y0066539D02*
X0026200Y0066539D01*
X0026349Y0068137D02*
X0025651Y0068137D01*
X0024436Y0069736D02*
X0024052Y0069736D01*
X0025800Y0074532D02*
X0026200Y0074532D01*
X0026200Y0076130D02*
X0025800Y0076130D01*
X0025800Y0077729D02*
X0026200Y0077729D01*
X0027539Y0079327D02*
X0024461Y0079327D01*
X0018877Y0071334D02*
X0006000Y0071334D01*
X0006000Y0069736D02*
X0017948Y0069736D01*
X0016349Y0068137D02*
X0006000Y0068137D01*
X0006000Y0066539D02*
X0016200Y0066539D01*
X0016200Y0064940D02*
X0006000Y0064940D01*
X0006000Y0063342D02*
X0016870Y0063342D01*
X0018468Y0061743D02*
X0006000Y0061743D01*
X0006000Y0060145D02*
X0018357Y0060145D01*
X0016758Y0058546D02*
X0006000Y0058546D01*
X0006000Y0056948D02*
X0016200Y0056948D01*
X0016200Y0055349D02*
X0006000Y0055349D01*
X0006000Y0053751D02*
X0016461Y0053751D01*
X0018059Y0052152D02*
X0006000Y0052152D01*
X0006000Y0050554D02*
X0018766Y0050554D01*
X0017167Y0048955D02*
X0006000Y0048955D01*
X0006000Y0047357D02*
X0016200Y0047357D01*
X0016200Y0045758D02*
X0006000Y0045758D01*
X0006000Y0044160D02*
X0016200Y0044160D01*
X0017650Y0042561D02*
X0006000Y0042561D01*
X0008825Y0028175D02*
X0041386Y0028175D01*
X0041200Y0026576D02*
X0010424Y0026576D01*
X0012022Y0024978D02*
X0041200Y0024978D01*
X0035594Y0037766D02*
X0061500Y0037766D01*
X0061500Y0039364D02*
X0037193Y0039364D01*
X0038791Y0040963D02*
X0061500Y0040963D01*
X0061500Y0042561D02*
X0060926Y0042561D01*
X0061281Y0044160D02*
X0061500Y0044160D01*
X0061500Y0045758D02*
X0061281Y0045758D01*
X0061281Y0047357D02*
X0061500Y0047357D01*
X0061500Y0048955D02*
X0061281Y0048955D01*
X0061281Y0050554D02*
X0061500Y0050554D01*
X0061500Y0052152D02*
X0061281Y0052152D01*
X0061281Y0053751D02*
X0061500Y0053751D01*
X0061500Y0055349D02*
X0061281Y0055349D01*
X0061281Y0056948D02*
X0061500Y0056948D01*
X0061500Y0058546D02*
X0061281Y0058546D01*
X0069435Y0074532D02*
X0071078Y0074532D01*
X0072677Y0076130D02*
X0065833Y0076130D01*
X0067432Y0077729D02*
X0074275Y0077729D01*
X0074625Y0079327D02*
X0069030Y0079327D01*
X0069875Y0080926D02*
X0074625Y0080926D01*
X0074625Y0082524D02*
X0069875Y0082524D01*
X0069875Y0084123D02*
X0074625Y0084123D01*
X0074625Y0085721D02*
X0069875Y0085721D01*
X0069875Y0087320D02*
X0074625Y0087320D01*
X0074625Y0088918D02*
X0069875Y0088918D01*
X0069875Y0090517D02*
X0074625Y0090517D01*
X0074625Y0092115D02*
X0069875Y0092115D01*
X0069875Y0093714D02*
X0074625Y0093714D01*
X0074625Y0095312D02*
X0069875Y0095312D01*
X0069875Y0096911D02*
X0074625Y0096911D01*
X0074625Y0098509D02*
X0069875Y0098509D01*
X0069875Y0100108D02*
X0074625Y0100108D01*
X0074625Y0101706D02*
X0069875Y0101706D01*
X0069875Y0103305D02*
X0074625Y0103305D01*
X0074625Y0104903D02*
X0069875Y0104903D01*
X0069875Y0106502D02*
X0074625Y0106502D01*
X0074625Y0108100D02*
X0069875Y0108100D01*
X0069875Y0109699D02*
X0074625Y0109699D01*
X0074625Y0111297D02*
X0069875Y0111297D01*
X0069875Y0112896D02*
X0074625Y0112896D01*
X0074625Y0114494D02*
X0069875Y0114494D01*
X0069875Y0116093D02*
X0074625Y0116093D01*
X0074625Y0117691D02*
X0069875Y0117691D01*
X0069875Y0119290D02*
X0074625Y0119290D01*
X0074625Y0120888D02*
X0069875Y0120888D01*
X0069875Y0122487D02*
X0074625Y0122487D01*
X0074625Y0124085D02*
X0069875Y0124085D01*
X0069875Y0125684D02*
X0074625Y0125684D01*
X0074625Y0127282D02*
X0069875Y0127282D01*
X0069875Y0128881D02*
X0075427Y0128881D01*
X0077026Y0130479D02*
X0069875Y0130479D01*
X0069875Y0132078D02*
X0078625Y0132078D01*
X0080223Y0133676D02*
X0069875Y0133676D01*
X0069875Y0135275D02*
X0078897Y0135275D01*
X0077298Y0136873D02*
X0069875Y0136873D01*
X0069875Y0138472D02*
X0075700Y0138472D01*
X0074101Y0140070D02*
X0069875Y0140070D01*
X0069875Y0141669D02*
X0073375Y0141669D01*
X0073375Y0143268D02*
X0069875Y0143268D01*
X0069875Y0144866D02*
X0073375Y0144866D01*
X0073375Y0146465D02*
X0069875Y0146465D01*
X0069875Y0148063D02*
X0073375Y0148063D01*
X0073375Y0149662D02*
X0069875Y0149662D01*
X0069875Y0151260D02*
X0073375Y0151260D01*
X0073375Y0152859D02*
X0069875Y0152859D01*
X0069875Y0154457D02*
X0073375Y0154457D01*
X0073375Y0156056D02*
X0069875Y0156056D01*
X0069875Y0157654D02*
X0073375Y0157654D01*
X0073375Y0159253D02*
X0069875Y0159253D01*
X0069875Y0160851D02*
X0073375Y0160851D01*
X0073375Y0162450D02*
X0069875Y0162450D01*
X0069875Y0164048D02*
X0073375Y0164048D01*
X0073375Y0165647D02*
X0069875Y0165647D01*
X0069875Y0167245D02*
X0073375Y0167245D01*
X0073375Y0168844D02*
X0069875Y0168844D01*
X0069875Y0170442D02*
X0073375Y0170442D01*
X0073375Y0172041D02*
X0069875Y0172041D01*
X0069875Y0173639D02*
X0073375Y0173639D01*
X0073375Y0175238D02*
X0069875Y0175238D01*
X0069875Y0176836D02*
X0073375Y0176836D01*
X0073375Y0178435D02*
X0069875Y0178435D01*
X0069875Y0180033D02*
X0073375Y0180033D01*
X0073375Y0181632D02*
X0069875Y0181632D01*
X0069875Y0183230D02*
X0073375Y0183230D01*
X0073375Y0184829D02*
X0069875Y0184829D01*
X0069875Y0186427D02*
X0073375Y0186427D01*
X0073375Y0188026D02*
X0069875Y0188026D01*
X0069875Y0189624D02*
X0073375Y0189624D01*
X0073375Y0191223D02*
X0069875Y0191223D01*
X0069875Y0192821D02*
X0073375Y0192821D01*
X0073466Y0194420D02*
X0069875Y0194420D01*
X0069875Y0196018D02*
X0075065Y0196018D01*
X0076663Y0197617D02*
X0069875Y0197617D01*
X0069875Y0199215D02*
X0078262Y0199215D01*
X0077733Y0200814D02*
X0069875Y0200814D01*
X0069875Y0202412D02*
X0076134Y0202412D01*
X0074536Y0204011D02*
X0069567Y0204011D01*
X0068625Y0205609D02*
X0072937Y0205609D01*
X0072750Y0207208D02*
X0068625Y0207208D01*
X0068625Y0208806D02*
X0072750Y0208806D01*
X0072750Y0210405D02*
X0068625Y0210405D01*
X0068625Y0212003D02*
X0072750Y0212003D01*
X0072750Y0213602D02*
X0068625Y0213602D01*
X0068625Y0215201D02*
X0072750Y0215201D01*
X0072750Y0216799D02*
X0068625Y0216799D01*
X0068625Y0218398D02*
X0072750Y0218398D01*
X0072750Y0219996D02*
X0068625Y0219996D01*
X0068625Y0221595D02*
X0072750Y0221595D01*
X0072750Y0223193D02*
X0068625Y0223193D01*
X0068625Y0224792D02*
X0072750Y0224792D01*
X0072750Y0226390D02*
X0068625Y0226390D01*
X0068625Y0227989D02*
X0072750Y0227989D01*
X0072750Y0229587D02*
X0068625Y0229587D01*
X0068625Y0231186D02*
X0072750Y0231186D01*
X0072750Y0232784D02*
X0068625Y0232784D01*
X0068625Y0234383D02*
X0072750Y0234383D01*
X0072750Y0235981D02*
X0068625Y0235981D01*
X0068625Y0237580D02*
X0072750Y0237580D01*
X0072750Y0239178D02*
X0068625Y0239178D01*
X0068625Y0240777D02*
X0072750Y0240777D01*
X0072750Y0242375D02*
X0068625Y0242375D01*
X0068625Y0243974D02*
X0072750Y0243974D01*
X0072750Y0245572D02*
X0068625Y0245572D01*
X0068625Y0247171D02*
X0072750Y0247171D01*
X0072750Y0248769D02*
X0068625Y0248769D01*
X0068625Y0250368D02*
X0072750Y0250368D01*
X0072750Y0251966D02*
X0068625Y0251966D01*
X0068625Y0253565D02*
X0072750Y0253565D01*
X0072750Y0255163D02*
X0068625Y0255163D01*
X0068625Y0256762D02*
X0072750Y0256762D01*
X0072750Y0258360D02*
X0068625Y0258360D01*
X0068625Y0259959D02*
X0074005Y0259959D01*
X0075604Y0261557D02*
X0068625Y0261557D01*
X0068625Y0263156D02*
X0077202Y0263156D01*
X0078801Y0264754D02*
X0068625Y0264754D01*
X0067226Y0266353D02*
X0080399Y0266353D01*
X0080719Y0267951D02*
X0065627Y0267951D01*
X0064029Y0269550D02*
X0079622Y0269550D01*
X0078023Y0271148D02*
X0062430Y0271148D01*
X0061481Y0272634D02*
X0056728Y0272634D01*
X0061481Y0272634D01*
X0061481Y0272747D02*
X0076500Y0272747D01*
X0076500Y0274345D02*
X0061226Y0274345D01*
X0056728Y0274345D02*
X0056728Y0274345D01*
X0056728Y0272747D02*
X0056728Y0272747D01*
X0056728Y0272634D02*
X0056728Y0272634D01*
X0051976Y0272747D02*
X0035800Y0272747D01*
X0035800Y0271148D02*
X0052100Y0271148D01*
X0052231Y0274345D02*
X0034443Y0274345D01*
X0035800Y0269550D02*
X0047584Y0269550D01*
X0046775Y0267951D02*
X0036877Y0267951D01*
X0038476Y0266353D02*
X0046850Y0266353D01*
X0047779Y0264754D02*
X0040074Y0264754D01*
X0041673Y0263156D02*
X0047112Y0263156D01*
X0046775Y0261557D02*
X0043271Y0261557D01*
X0044870Y0259959D02*
X0047169Y0259959D01*
X0036350Y0239178D02*
X0035800Y0239178D01*
X0034751Y0237580D02*
X0034368Y0237580D01*
X0037211Y0234383D02*
X0064625Y0234383D01*
X0064625Y0235981D02*
X0038810Y0235981D01*
X0035613Y0232784D02*
X0064625Y0232784D01*
X0064625Y0231186D02*
X0006000Y0231186D01*
X0006000Y0232784D02*
X0026387Y0232784D01*
X0024789Y0234383D02*
X0006000Y0234383D01*
X0006000Y0235981D02*
X0023190Y0235981D01*
X0025800Y0239178D02*
X0026200Y0239178D01*
X0026200Y0240777D02*
X0025800Y0240777D01*
X0025800Y0242375D02*
X0026200Y0242375D01*
X0027186Y0243974D02*
X0024814Y0243974D01*
X0023599Y0245572D02*
X0023216Y0245572D01*
X0026059Y0248769D02*
X0026443Y0248769D01*
X0026200Y0250368D02*
X0025800Y0250368D01*
X0025800Y0251966D02*
X0026200Y0251966D01*
X0026777Y0253565D02*
X0025223Y0253565D01*
X0024008Y0255163D02*
X0023625Y0255163D01*
X0026468Y0258360D02*
X0026851Y0258360D01*
X0026200Y0259959D02*
X0025800Y0259959D01*
X0025800Y0261557D02*
X0026200Y0261557D01*
X0026368Y0263156D02*
X0025632Y0263156D01*
X0024417Y0264754D02*
X0024034Y0264754D01*
X0025800Y0269550D02*
X0026200Y0269550D01*
X0026200Y0271148D02*
X0025800Y0271148D01*
X0025800Y0272747D02*
X0026200Y0272747D01*
X0027557Y0274345D02*
X0024443Y0274345D01*
X0018859Y0266353D02*
X0006000Y0266353D01*
X0006000Y0267951D02*
X0017260Y0267951D01*
X0016200Y0269550D02*
X0006000Y0269550D01*
X0006000Y0271148D02*
X0016200Y0271148D01*
X0016200Y0272747D02*
X0006000Y0272747D01*
X0006000Y0274345D02*
X0017557Y0274345D01*
X0012338Y0282338D02*
X0078260Y0282338D01*
X0079858Y0283937D02*
X0013937Y0283937D01*
X0015535Y0285535D02*
X0081447Y0285535D01*
X0081447Y0287134D02*
X0067134Y0287134D01*
X0068732Y0288732D02*
X0081447Y0288732D01*
X0081447Y0290331D02*
X0070331Y0290331D01*
X0071000Y0291929D02*
X0081251Y0291929D01*
X0081247Y0293528D02*
X0071000Y0293528D01*
X0071000Y0295126D02*
X0085520Y0295126D01*
X0085520Y0295220D02*
X0081247Y0295220D01*
X0081247Y0297536D01*
X0081370Y0297994D01*
X0081607Y0298404D01*
X0081942Y0298740D01*
X0082352Y0298977D01*
X0082810Y0299099D01*
X0085520Y0299099D01*
X0085520Y0295220D01*
X0086480Y0295126D02*
X0095520Y0295126D01*
X0096480Y0295126D02*
X0136000Y0295126D01*
X0136000Y0293528D02*
X0100950Y0293528D01*
X0100950Y0294457D02*
X0096480Y0294457D01*
X0096480Y0295417D01*
X0100950Y0295417D01*
X0100950Y0297733D01*
X0100827Y0298191D01*
X0100590Y0298601D01*
X0100255Y0298936D01*
X0099866Y0299161D01*
X0136000Y0299161D01*
X0136000Y0268828D01*
X0117453Y0287375D01*
X0115797Y0287375D01*
X0100750Y0287375D01*
X0100750Y0290285D01*
X0100155Y0290880D01*
X0100255Y0290938D01*
X0100590Y0291273D01*
X0100827Y0291683D01*
X0100950Y0292141D01*
X0100950Y0294457D01*
X0100950Y0296725D02*
X0136000Y0296725D01*
X0136000Y0298323D02*
X0100751Y0298323D01*
X0100893Y0291929D02*
X0136000Y0291929D01*
X0136000Y0290331D02*
X0100704Y0290331D01*
X0100750Y0288732D02*
X0136000Y0288732D01*
X0136000Y0287134D02*
X0117695Y0287134D01*
X0119293Y0285535D02*
X0136000Y0285535D01*
X0136000Y0283937D02*
X0120892Y0283937D01*
X0122490Y0282338D02*
X0136000Y0282338D01*
X0136000Y0280739D02*
X0124089Y0280739D01*
X0125687Y0279141D02*
X0136000Y0279141D01*
X0136000Y0277542D02*
X0127286Y0277542D01*
X0128884Y0275944D02*
X0136000Y0275944D01*
X0136000Y0274345D02*
X0130483Y0274345D01*
X0132081Y0272747D02*
X0136000Y0272747D01*
X0136000Y0271148D02*
X0133680Y0271148D01*
X0135279Y0269550D02*
X0136000Y0269550D01*
X0132819Y0266353D02*
X0123141Y0266353D01*
X0122988Y0266200D02*
X0125800Y0269012D01*
X0125800Y0272988D01*
X0122988Y0275800D01*
X0119012Y0275800D01*
X0116200Y0272988D01*
X0116200Y0269028D01*
X0115172Y0268000D01*
X0114788Y0268000D01*
X0115800Y0269012D01*
X0115800Y0272988D01*
X0112988Y0275800D01*
X0109012Y0275800D01*
X0106200Y0272988D01*
X0106200Y0269028D01*
X0096422Y0259250D01*
X0089824Y0259250D01*
X0089824Y0260974D01*
X0090909Y0260525D01*
X0092341Y0260525D01*
X0093664Y0261073D01*
X0094677Y0262086D01*
X0095225Y0263409D01*
X0095225Y0264841D01*
X0094677Y0266164D01*
X0093664Y0267177D01*
X0092341Y0267725D01*
X0090909Y0267725D01*
X0090870Y0267709D01*
X0089824Y0268754D01*
X0089824Y0274084D01*
X0089618Y0274290D01*
X0096828Y0281500D01*
X0098000Y0282672D01*
X0098000Y0282904D01*
X0099812Y0282904D01*
X0100283Y0283375D01*
X0115797Y0283375D01*
X0136000Y0263172D01*
X0136000Y0203828D01*
X0121203Y0218625D01*
X0100750Y0218625D01*
X0100750Y0220285D01*
X0100155Y0220880D01*
X0100255Y0220938D01*
X0100590Y0221273D01*
X0100827Y0221683D01*
X0100950Y0222141D01*
X0100950Y0224457D01*
X0096480Y0224457D01*
X0096480Y0225417D01*
X0095520Y0225417D01*
X0095520Y0229296D01*
X0092613Y0229296D01*
X0092156Y0229173D01*
X0091745Y0228936D01*
X0091410Y0228601D01*
X0091173Y0228191D01*
X0091050Y0227733D01*
X0091050Y0225417D01*
X0095520Y0225417D01*
X0095520Y0224457D01*
X0091050Y0224457D01*
X0091050Y0222141D01*
X0091173Y0221683D01*
X0091410Y0221273D01*
X0091745Y0220938D01*
X0091845Y0220880D01*
X0091250Y0220285D01*
X0091250Y0214704D01*
X0086568Y0210021D01*
X0085444Y0210021D01*
X0085401Y0210040D01*
X0085355Y0210021D01*
X0081656Y0210021D01*
X0080732Y0209097D01*
X0080500Y0209328D01*
X0080500Y0209547D01*
X0084054Y0213101D01*
X0089615Y0213101D01*
X0090553Y0214038D01*
X0090553Y0220482D01*
X0090176Y0220859D01*
X0090393Y0221076D01*
X0090630Y0221486D01*
X0090753Y0221944D01*
X0090753Y0224261D01*
X0086480Y0224261D01*
X0086480Y0225220D01*
X0090753Y0225220D01*
X0090753Y0227536D01*
X0090630Y0227994D01*
X0090393Y0228404D01*
X0090058Y0228740D01*
X0089648Y0228977D01*
X0089190Y0229099D01*
X0086480Y0229099D01*
X0086480Y0225220D01*
X0085520Y0225220D01*
X0085520Y0224261D01*
X0081247Y0224261D01*
X0081247Y0221944D01*
X0081370Y0221486D01*
X0081607Y0221076D01*
X0081824Y0220859D01*
X0081447Y0220482D01*
X0081447Y0218144D01*
X0080539Y0219052D01*
X0080500Y0219068D01*
X0080500Y0258297D01*
X0080719Y0258515D01*
X0080719Y0237916D01*
X0081656Y0236979D01*
X0085355Y0236979D01*
X0085401Y0236960D01*
X0085444Y0236979D01*
X0088887Y0236979D01*
X0089033Y0237125D01*
X0102047Y0237125D01*
X0105875Y0233297D01*
X0107047Y0232125D01*
X0114953Y0232125D01*
X0119028Y0236200D01*
X0122988Y0236200D01*
X0125800Y0239012D01*
X0125800Y0242988D01*
X0122988Y0245800D01*
X0119012Y0245800D01*
X0116200Y0242988D01*
X0116200Y0239028D01*
X0113297Y0236125D01*
X0108703Y0236125D01*
X0105203Y0239625D01*
X0106200Y0239625D01*
X0106200Y0239012D01*
X0109012Y0236200D01*
X0112988Y0236200D01*
X0115800Y0239012D01*
X0115800Y0242988D01*
X0114788Y0244000D01*
X0116828Y0244000D01*
X0119028Y0246200D01*
X0122988Y0246200D01*
X0125800Y0249012D01*
X0125800Y0252988D01*
X0122988Y0255800D01*
X0119012Y0255800D01*
X0116200Y0252988D01*
X0116200Y0249028D01*
X0115172Y0248000D01*
X0114788Y0248000D01*
X0115800Y0249012D01*
X0115800Y0252988D01*
X0114788Y0254000D01*
X0116828Y0254000D01*
X0119028Y0256200D01*
X0122988Y0256200D01*
X0125800Y0259012D01*
X0125800Y0262988D01*
X0122988Y0265800D01*
X0119012Y0265800D01*
X0116200Y0262988D01*
X0116200Y0259028D01*
X0115172Y0258000D01*
X0114788Y0258000D01*
X0115800Y0259012D01*
X0115800Y0262988D01*
X0114788Y0264000D01*
X0116828Y0264000D01*
X0119028Y0266200D01*
X0122988Y0266200D01*
X0124034Y0264754D02*
X0134417Y0264754D01*
X0136000Y0263156D02*
X0125632Y0263156D01*
X0125800Y0261557D02*
X0136000Y0261557D01*
X0136000Y0259959D02*
X0125800Y0259959D01*
X0125149Y0258360D02*
X0136000Y0258360D01*
X0136000Y0256762D02*
X0123550Y0256762D01*
X0123625Y0255163D02*
X0136000Y0255163D01*
X0136000Y0253565D02*
X0125223Y0253565D01*
X0125800Y0251966D02*
X0136000Y0251966D01*
X0136000Y0250368D02*
X0125800Y0250368D01*
X0125557Y0248769D02*
X0136000Y0248769D01*
X0136000Y0247171D02*
X0123959Y0247171D01*
X0123216Y0245572D02*
X0136000Y0245572D01*
X0136000Y0243974D02*
X0124814Y0243974D01*
X0125800Y0242375D02*
X0136000Y0242375D01*
X0136000Y0240777D02*
X0125800Y0240777D01*
X0125800Y0239178D02*
X0136000Y0239178D01*
X0136000Y0237580D02*
X0124368Y0237580D01*
X0118810Y0235981D02*
X0136000Y0235981D01*
X0136000Y0234383D02*
X0117211Y0234383D01*
X0115613Y0232784D02*
X0136000Y0232784D01*
X0136000Y0231186D02*
X0080500Y0231186D01*
X0080500Y0232784D02*
X0106387Y0232784D01*
X0104789Y0234383D02*
X0080500Y0234383D01*
X0080500Y0235981D02*
X0103190Y0235981D01*
X0105650Y0239178D02*
X0106200Y0239178D01*
X0107249Y0237580D02*
X0107632Y0237580D01*
X0114368Y0237580D02*
X0114751Y0237580D01*
X0115800Y0239178D02*
X0116200Y0239178D01*
X0116200Y0240777D02*
X0115800Y0240777D01*
X0115800Y0242375D02*
X0116200Y0242375D01*
X0117186Y0243974D02*
X0114814Y0243974D01*
X0115557Y0248769D02*
X0115941Y0248769D01*
X0115800Y0250368D02*
X0116200Y0250368D01*
X0116200Y0251966D02*
X0115800Y0251966D01*
X0115223Y0253565D02*
X0116777Y0253565D01*
X0117992Y0255163D02*
X0118375Y0255163D01*
X0115532Y0258360D02*
X0115149Y0258360D01*
X0115800Y0259959D02*
X0116200Y0259959D01*
X0116200Y0261557D02*
X0115800Y0261557D01*
X0115632Y0263156D02*
X0116368Y0263156D01*
X0117583Y0264754D02*
X0117966Y0264754D01*
X0116200Y0269550D02*
X0115800Y0269550D01*
X0115800Y0271148D02*
X0116200Y0271148D01*
X0116200Y0272747D02*
X0115800Y0272747D01*
X0114443Y0274345D02*
X0117557Y0274345D01*
X0120031Y0279141D02*
X0094469Y0279141D01*
X0092871Y0277542D02*
X0121629Y0277542D01*
X0123228Y0275944D02*
X0091272Y0275944D01*
X0089674Y0274345D02*
X0107557Y0274345D01*
X0106200Y0272747D02*
X0089824Y0272747D01*
X0089824Y0271148D02*
X0106200Y0271148D01*
X0106200Y0269550D02*
X0089824Y0269550D01*
X0090627Y0267951D02*
X0105123Y0267951D01*
X0103524Y0266353D02*
X0094488Y0266353D01*
X0095225Y0264754D02*
X0101926Y0264754D01*
X0100327Y0263156D02*
X0095120Y0263156D01*
X0094149Y0261557D02*
X0098729Y0261557D01*
X0097130Y0259959D02*
X0089824Y0259959D01*
X0080719Y0258360D02*
X0080564Y0258360D01*
X0080500Y0256762D02*
X0080719Y0256762D01*
X0080719Y0255163D02*
X0080500Y0255163D01*
X0080500Y0253565D02*
X0080719Y0253565D01*
X0080719Y0251966D02*
X0080500Y0251966D01*
X0080500Y0250368D02*
X0080719Y0250368D01*
X0080719Y0248769D02*
X0080500Y0248769D01*
X0080500Y0247171D02*
X0080719Y0247171D01*
X0080719Y0245572D02*
X0080500Y0245572D01*
X0080500Y0243974D02*
X0080719Y0243974D01*
X0080719Y0242375D02*
X0080500Y0242375D01*
X0080500Y0240777D02*
X0080719Y0240777D01*
X0080719Y0239178D02*
X0080500Y0239178D01*
X0080500Y0237580D02*
X0081055Y0237580D01*
X0080500Y0229587D02*
X0136000Y0229587D01*
X0136000Y0227989D02*
X0100881Y0227989D01*
X0100827Y0228191D02*
X0100590Y0228601D01*
X0100255Y0228936D01*
X0099844Y0229173D01*
X0099387Y0229296D01*
X0096480Y0229296D01*
X0096480Y0225417D01*
X0100950Y0225417D01*
X0100950Y0227733D01*
X0100827Y0228191D01*
X0100950Y0226390D02*
X0136000Y0226390D01*
X0136000Y0224792D02*
X0096480Y0224792D01*
X0095520Y0224792D02*
X0086480Y0224792D01*
X0085520Y0224792D02*
X0080500Y0224792D01*
X0081247Y0225220D02*
X0085520Y0225220D01*
X0085520Y0229099D01*
X0082810Y0229099D01*
X0082352Y0228977D01*
X0081942Y0228740D01*
X0081607Y0228404D01*
X0081370Y0227994D01*
X0081247Y0227536D01*
X0081247Y0225220D01*
X0081247Y0226390D02*
X0080500Y0226390D01*
X0080500Y0227989D02*
X0081368Y0227989D01*
X0081247Y0223193D02*
X0080500Y0223193D01*
X0080500Y0221595D02*
X0081341Y0221595D01*
X0081447Y0219996D02*
X0080500Y0219996D01*
X0081194Y0218398D02*
X0081447Y0218398D01*
X0082957Y0212003D02*
X0088550Y0212003D01*
X0090117Y0213602D02*
X0090149Y0213602D01*
X0090553Y0215201D02*
X0091250Y0215201D01*
X0091250Y0216799D02*
X0090553Y0216799D01*
X0090553Y0218398D02*
X0091250Y0218398D01*
X0091250Y0219996D02*
X0090553Y0219996D01*
X0090659Y0221595D02*
X0091224Y0221595D01*
X0091050Y0223193D02*
X0090753Y0223193D01*
X0090753Y0226390D02*
X0091050Y0226390D01*
X0091119Y0227989D02*
X0090632Y0227989D01*
X0095520Y0227989D02*
X0096480Y0227989D01*
X0096480Y0226390D02*
X0095520Y0226390D01*
X0100950Y0223193D02*
X0136000Y0223193D01*
X0136000Y0221595D02*
X0100776Y0221595D01*
X0100750Y0219996D02*
X0136000Y0219996D01*
X0136000Y0218398D02*
X0121431Y0218398D01*
X0123029Y0216799D02*
X0136000Y0216799D01*
X0136000Y0215201D02*
X0124628Y0215201D01*
X0126226Y0213602D02*
X0136000Y0213602D01*
X0136000Y0212003D02*
X0127825Y0212003D01*
X0129423Y0210405D02*
X0136000Y0210405D01*
X0136000Y0208806D02*
X0131022Y0208806D01*
X0132620Y0207208D02*
X0136000Y0207208D01*
X0136000Y0205609D02*
X0134219Y0205609D01*
X0135817Y0204011D02*
X0136000Y0204011D01*
X0133358Y0200814D02*
X0118642Y0200814D01*
X0119012Y0200800D02*
X0116200Y0197988D01*
X0116200Y0194028D01*
X0115172Y0193000D01*
X0114788Y0193000D01*
X0115800Y0194012D01*
X0115800Y0197988D01*
X0114788Y0199000D01*
X0116828Y0199000D01*
X0119028Y0201200D01*
X0122988Y0201200D01*
X0125800Y0204012D01*
X0125800Y0207988D01*
X0122988Y0210800D01*
X0119012Y0210800D01*
X0116200Y0207988D01*
X0116200Y0204028D01*
X0115172Y0203000D01*
X0114788Y0203000D01*
X0115800Y0204012D01*
X0115800Y0207988D01*
X0112988Y0210800D01*
X0109012Y0210800D01*
X0106200Y0207988D01*
X0106200Y0204028D01*
X0096422Y0194250D01*
X0089824Y0194250D01*
X0089824Y0195974D01*
X0090909Y0195525D01*
X0092341Y0195525D01*
X0093664Y0196073D01*
X0094677Y0197086D01*
X0095225Y0198409D01*
X0095225Y0199841D01*
X0094677Y0201164D01*
X0093664Y0202177D01*
X0092341Y0202725D01*
X0090909Y0202725D01*
X0090870Y0202709D01*
X0089875Y0203703D01*
X0089824Y0203754D01*
X0089824Y0207621D01*
X0095107Y0212904D01*
X0099812Y0212904D01*
X0100750Y0213841D01*
X0100750Y0214625D01*
X0119547Y0214625D01*
X0136000Y0198172D01*
X0136000Y0159250D01*
X0100750Y0159250D01*
X0100750Y0160285D01*
X0100155Y0160880D01*
X0100255Y0160938D01*
X0100590Y0161273D01*
X0100827Y0161683D01*
X0100950Y0162141D01*
X0100950Y0164457D01*
X0096480Y0164457D01*
X0096480Y0165417D01*
X0095520Y0165417D01*
X0095520Y0169296D01*
X0092613Y0169296D01*
X0092156Y0169173D01*
X0091745Y0168936D01*
X0091410Y0168601D01*
X0091173Y0168191D01*
X0091050Y0167733D01*
X0091050Y0165417D01*
X0095520Y0165417D01*
X0095520Y0164457D01*
X0091050Y0164457D01*
X0091050Y0162141D01*
X0091173Y0161683D01*
X0091410Y0161273D01*
X0091745Y0160938D01*
X0091845Y0160880D01*
X0091250Y0160285D01*
X0091250Y0153841D01*
X0092188Y0152904D01*
X0092576Y0152904D01*
X0084693Y0145021D01*
X0081656Y0145021D01*
X0080732Y0144097D01*
X0080500Y0144328D01*
X0080500Y0148922D01*
X0084679Y0153101D01*
X0089615Y0153101D01*
X0090553Y0154038D01*
X0090553Y0160482D01*
X0090176Y0160859D01*
X0090393Y0161076D01*
X0090630Y0161486D01*
X0090753Y0161944D01*
X0090753Y0164261D01*
X0086480Y0164261D01*
X0086480Y0165220D01*
X0090753Y0165220D01*
X0090753Y0167536D01*
X0090630Y0167994D01*
X0090393Y0168404D01*
X0090058Y0168740D01*
X0089648Y0168977D01*
X0089190Y0169099D01*
X0086480Y0169099D01*
X0086480Y0165220D01*
X0085520Y0165220D01*
X0085520Y0164261D01*
X0081247Y0164261D01*
X0081247Y0161944D01*
X0081370Y0161486D01*
X0081607Y0161076D01*
X0081824Y0160859D01*
X0081447Y0160482D01*
X0081447Y0155526D01*
X0077375Y0151453D01*
X0077375Y0189078D01*
X0078409Y0188650D01*
X0079841Y0188650D01*
X0080719Y0189014D01*
X0080719Y0172916D01*
X0081656Y0171979D01*
X0085355Y0171979D01*
X0085401Y0171960D01*
X0085444Y0171979D01*
X0088887Y0171979D01*
X0089033Y0172125D01*
X0102047Y0172125D01*
X0105875Y0168297D01*
X0107047Y0167125D01*
X0114953Y0167125D01*
X0119028Y0171200D01*
X0122988Y0171200D01*
X0125800Y0174012D01*
X0125800Y0177988D01*
X0122988Y0180800D01*
X0119012Y0180800D01*
X0116200Y0177988D01*
X0116200Y0174028D01*
X0113297Y0171125D01*
X0108703Y0171125D01*
X0105203Y0174625D01*
X0106200Y0174625D01*
X0106200Y0174012D01*
X0109012Y0171200D01*
X0112988Y0171200D01*
X0115800Y0174012D01*
X0115800Y0177988D01*
X0114788Y0179000D01*
X0116828Y0179000D01*
X0119028Y0181200D01*
X0122988Y0181200D01*
X0125800Y0184012D01*
X0125800Y0187988D01*
X0122988Y0190800D01*
X0119012Y0190800D01*
X0116200Y0187988D01*
X0116200Y0184028D01*
X0115172Y0183000D01*
X0114788Y0183000D01*
X0115800Y0184012D01*
X0115800Y0187988D01*
X0114788Y0189000D01*
X0116828Y0189000D01*
X0119028Y0191200D01*
X0122988Y0191200D01*
X0125800Y0194012D01*
X0125800Y0197988D01*
X0122988Y0200800D01*
X0119012Y0200800D01*
X0117427Y0199215D02*
X0117044Y0199215D01*
X0116200Y0197617D02*
X0115800Y0197617D01*
X0115800Y0196018D02*
X0116200Y0196018D01*
X0116200Y0194420D02*
X0115800Y0194420D01*
X0117453Y0189624D02*
X0117836Y0189624D01*
X0116238Y0188026D02*
X0115762Y0188026D01*
X0115800Y0186427D02*
X0116200Y0186427D01*
X0116200Y0184829D02*
X0115800Y0184829D01*
X0115402Y0183230D02*
X0115018Y0183230D01*
X0117862Y0180033D02*
X0118245Y0180033D01*
X0116647Y0178435D02*
X0115353Y0178435D01*
X0115800Y0176836D02*
X0116200Y0176836D01*
X0116200Y0175238D02*
X0115800Y0175238D01*
X0115811Y0173639D02*
X0115427Y0173639D01*
X0114212Y0172041D02*
X0113829Y0172041D01*
X0116672Y0168844D02*
X0136000Y0168844D01*
X0136000Y0170442D02*
X0118271Y0170442D01*
X0115074Y0167245D02*
X0136000Y0167245D01*
X0136000Y0165647D02*
X0100950Y0165647D01*
X0100950Y0165417D02*
X0100950Y0167733D01*
X0100827Y0168191D01*
X0100590Y0168601D01*
X0100255Y0168936D01*
X0099844Y0169173D01*
X0099387Y0169296D01*
X0096480Y0169296D01*
X0096480Y0165417D01*
X0100950Y0165417D01*
X0100950Y0164048D02*
X0136000Y0164048D01*
X0136000Y0162450D02*
X0100950Y0162450D01*
X0100183Y0160851D02*
X0136000Y0160851D01*
X0136000Y0159253D02*
X0100750Y0159253D01*
X0100750Y0155250D02*
X0136000Y0155250D01*
X0136000Y0073828D01*
X0118000Y0091828D01*
X0116828Y0093000D01*
X0100750Y0093000D01*
X0100750Y0095285D01*
X0100155Y0095880D01*
X0100255Y0095938D01*
X0100590Y0096273D01*
X0100827Y0096683D01*
X0100950Y0097141D01*
X0100950Y0099457D01*
X0096480Y0099457D01*
X0096480Y0100417D01*
X0095520Y0100417D01*
X0095520Y0104296D01*
X0092613Y0104296D01*
X0092156Y0104173D01*
X0091745Y0103936D01*
X0091410Y0103601D01*
X0091173Y0103191D01*
X0091050Y0102733D01*
X0091050Y0100417D01*
X0095520Y0100417D01*
X0095520Y0099457D01*
X0091050Y0099457D01*
X0091050Y0097141D01*
X0091173Y0096683D01*
X0091410Y0096273D01*
X0091745Y0095938D01*
X0091845Y0095880D01*
X0091250Y0095285D01*
X0091250Y0088841D01*
X0092188Y0087904D01*
X0092576Y0087904D01*
X0084693Y0080021D01*
X0081656Y0080021D01*
X0080732Y0079097D01*
X0080500Y0079328D01*
X0080500Y0083922D01*
X0084679Y0088101D01*
X0089615Y0088101D01*
X0090553Y0089038D01*
X0090553Y0095482D01*
X0090176Y0095859D01*
X0090393Y0096076D01*
X0090630Y0096486D01*
X0090753Y0096944D01*
X0090753Y0099261D01*
X0086480Y0099261D01*
X0086480Y0100220D01*
X0090753Y0100220D01*
X0090753Y0102536D01*
X0090630Y0102994D01*
X0090393Y0103404D01*
X0090058Y0103740D01*
X0089648Y0103977D01*
X0089190Y0104099D01*
X0086480Y0104099D01*
X0086480Y0100220D01*
X0085520Y0100220D01*
X0085520Y0099261D01*
X0081247Y0099261D01*
X0081247Y0096944D01*
X0081370Y0096486D01*
X0081607Y0096076D01*
X0081824Y0095859D01*
X0081447Y0095482D01*
X0081447Y0090526D01*
X0078625Y0087703D01*
X0078625Y0126422D01*
X0080719Y0128515D01*
X0080719Y0107916D01*
X0081656Y0106979D01*
X0085355Y0106979D01*
X0085401Y0106960D01*
X0085444Y0106979D01*
X0088887Y0106979D01*
X0089033Y0107125D01*
X0102047Y0107125D01*
X0105875Y0103297D01*
X0105875Y0103297D01*
X0107047Y0102125D01*
X0114953Y0102125D01*
X0119028Y0106200D01*
X0122988Y0106200D01*
X0125800Y0109012D01*
X0125800Y0112988D01*
X0122988Y0115800D01*
X0119012Y0115800D01*
X0116200Y0112988D01*
X0116200Y0109028D01*
X0113297Y0106125D01*
X0108703Y0106125D01*
X0105203Y0109625D01*
X0106200Y0109625D01*
X0106200Y0109012D01*
X0109012Y0106200D01*
X0112988Y0106200D01*
X0115800Y0109012D01*
X0115800Y0112988D01*
X0114788Y0114000D01*
X0116828Y0114000D01*
X0119028Y0116200D01*
X0122988Y0116200D01*
X0125800Y0119012D01*
X0125800Y0122988D01*
X0122988Y0125800D01*
X0119012Y0125800D01*
X0116200Y0122988D01*
X0116200Y0119028D01*
X0115172Y0118000D01*
X0114788Y0118000D01*
X0115800Y0119012D01*
X0115800Y0122988D01*
X0114788Y0124000D01*
X0116828Y0124000D01*
X0119028Y0126200D01*
X0122988Y0126200D01*
X0125800Y0129012D01*
X0125800Y0132988D01*
X0122988Y0135800D01*
X0119012Y0135800D01*
X0116200Y0132988D01*
X0116200Y0129028D01*
X0115172Y0128000D01*
X0114788Y0128000D01*
X0115800Y0129012D01*
X0115800Y0132988D01*
X0114788Y0134000D01*
X0116828Y0134000D01*
X0119028Y0136200D01*
X0122988Y0136200D01*
X0125800Y0139012D01*
X0125800Y0142988D01*
X0122988Y0145800D01*
X0119012Y0145800D01*
X0116200Y0142988D01*
X0116200Y0139028D01*
X0115172Y0138000D01*
X0114788Y0138000D01*
X0115800Y0139012D01*
X0115800Y0142988D01*
X0112988Y0145800D01*
X0109012Y0145800D01*
X0106200Y0142988D01*
X0106200Y0139028D01*
X0096422Y0129250D01*
X0095422Y0129250D01*
X0095850Y0130284D01*
X0095850Y0131716D01*
X0095302Y0133039D01*
X0094289Y0134052D01*
X0093046Y0134567D01*
X0093664Y0134823D01*
X0094677Y0135836D01*
X0095225Y0137159D01*
X0095225Y0138591D01*
X0094677Y0139914D01*
X0093664Y0140927D01*
X0092341Y0141475D01*
X0090909Y0141475D01*
X0089824Y0141026D01*
X0089824Y0144084D01*
X0089618Y0144290D01*
X0096828Y0151500D01*
X0098000Y0152672D01*
X0098000Y0152904D01*
X0099812Y0152904D01*
X0100750Y0153841D01*
X0100750Y0155250D01*
X0100750Y0154457D02*
X0136000Y0154457D01*
X0136000Y0152859D02*
X0098000Y0152859D01*
X0096588Y0151260D02*
X0136000Y0151260D01*
X0136000Y0149662D02*
X0094990Y0149662D01*
X0093391Y0148063D02*
X0136000Y0148063D01*
X0136000Y0146465D02*
X0091793Y0146465D01*
X0090194Y0144866D02*
X0108078Y0144866D01*
X0106479Y0143268D02*
X0089824Y0143268D01*
X0089824Y0141669D02*
X0106200Y0141669D01*
X0106200Y0140070D02*
X0094521Y0140070D01*
X0095225Y0138472D02*
X0105644Y0138472D01*
X0104045Y0136873D02*
X0095107Y0136873D01*
X0094116Y0135275D02*
X0102447Y0135275D01*
X0100848Y0133676D02*
X0094665Y0133676D01*
X0095700Y0132078D02*
X0099250Y0132078D01*
X0097651Y0130479D02*
X0095850Y0130479D01*
X0086136Y0146465D02*
X0080500Y0146465D01*
X0080500Y0148063D02*
X0087735Y0148063D01*
X0089333Y0149662D02*
X0081240Y0149662D01*
X0082838Y0151260D02*
X0090932Y0151260D01*
X0092530Y0152859D02*
X0084437Y0152859D01*
X0080379Y0154457D02*
X0077375Y0154457D01*
X0077375Y0152859D02*
X0078780Y0152859D01*
X0077375Y0156056D02*
X0081447Y0156056D01*
X0081447Y0157654D02*
X0077375Y0157654D01*
X0077375Y0159253D02*
X0081447Y0159253D01*
X0081817Y0160851D02*
X0077375Y0160851D01*
X0077375Y0162450D02*
X0081247Y0162450D01*
X0081247Y0164048D02*
X0077375Y0164048D01*
X0077375Y0165647D02*
X0081247Y0165647D01*
X0081247Y0165220D02*
X0085520Y0165220D01*
X0085520Y0169099D01*
X0082810Y0169099D01*
X0082352Y0168977D01*
X0081942Y0168740D01*
X0081607Y0168404D01*
X0081370Y0167994D01*
X0081247Y0167536D01*
X0081247Y0165220D01*
X0081247Y0167245D02*
X0077375Y0167245D01*
X0077375Y0168844D02*
X0082122Y0168844D01*
X0081594Y0172041D02*
X0077375Y0172041D01*
X0077375Y0173639D02*
X0080719Y0173639D01*
X0080719Y0175238D02*
X0077375Y0175238D01*
X0077375Y0176836D02*
X0080719Y0176836D01*
X0080719Y0178435D02*
X0077375Y0178435D01*
X0077375Y0180033D02*
X0080719Y0180033D01*
X0080719Y0181632D02*
X0077375Y0181632D01*
X0077375Y0183230D02*
X0080719Y0183230D01*
X0080719Y0184829D02*
X0077375Y0184829D01*
X0077375Y0186427D02*
X0080719Y0186427D01*
X0080719Y0188026D02*
X0077375Y0188026D01*
X0077375Y0170442D02*
X0103729Y0170442D01*
X0102131Y0172041D02*
X0088949Y0172041D01*
X0089878Y0168844D02*
X0091652Y0168844D01*
X0091050Y0167245D02*
X0090753Y0167245D01*
X0090753Y0165647D02*
X0091050Y0165647D01*
X0091050Y0164048D02*
X0090753Y0164048D01*
X0090753Y0162450D02*
X0091050Y0162450D01*
X0091817Y0160851D02*
X0090183Y0160851D01*
X0090553Y0159253D02*
X0091250Y0159253D01*
X0091250Y0157654D02*
X0090553Y0157654D01*
X0090553Y0156056D02*
X0091250Y0156056D01*
X0091250Y0154457D02*
X0090553Y0154457D01*
X0086480Y0165647D02*
X0085520Y0165647D01*
X0085520Y0167245D02*
X0086480Y0167245D01*
X0086480Y0168844D02*
X0085520Y0168844D01*
X0095520Y0168844D02*
X0096480Y0168844D01*
X0096480Y0167245D02*
X0095520Y0167245D01*
X0095520Y0165647D02*
X0096480Y0165647D01*
X0100348Y0168844D02*
X0105328Y0168844D01*
X0106926Y0167245D02*
X0100950Y0167245D01*
X0106189Y0173639D02*
X0106573Y0173639D01*
X0107788Y0172041D02*
X0108171Y0172041D01*
X0096591Y0194420D02*
X0089824Y0194420D01*
X0093532Y0196018D02*
X0098190Y0196018D01*
X0099788Y0197617D02*
X0094897Y0197617D01*
X0095225Y0199215D02*
X0101387Y0199215D01*
X0102986Y0200814D02*
X0094822Y0200814D01*
X0093096Y0202412D02*
X0104584Y0202412D01*
X0106183Y0204011D02*
X0089824Y0204011D01*
X0089824Y0205609D02*
X0106200Y0205609D01*
X0106200Y0207208D02*
X0089824Y0207208D01*
X0091010Y0208806D02*
X0107018Y0208806D01*
X0108617Y0210405D02*
X0092608Y0210405D01*
X0094207Y0212003D02*
X0122168Y0212003D01*
X0123383Y0210405D02*
X0123767Y0210405D01*
X0124982Y0208806D02*
X0125365Y0208806D01*
X0125800Y0207208D02*
X0126964Y0207208D01*
X0125800Y0205609D02*
X0128562Y0205609D01*
X0130161Y0204011D02*
X0125799Y0204011D01*
X0124201Y0202412D02*
X0131759Y0202412D01*
X0134956Y0199215D02*
X0124573Y0199215D01*
X0125800Y0197617D02*
X0136000Y0197617D01*
X0136000Y0196018D02*
X0125800Y0196018D01*
X0125800Y0194420D02*
X0136000Y0194420D01*
X0136000Y0192821D02*
X0124610Y0192821D01*
X0123011Y0191223D02*
X0136000Y0191223D01*
X0136000Y0189624D02*
X0124164Y0189624D01*
X0125762Y0188026D02*
X0136000Y0188026D01*
X0136000Y0186427D02*
X0125800Y0186427D01*
X0125800Y0184829D02*
X0136000Y0184829D01*
X0136000Y0183230D02*
X0125019Y0183230D01*
X0123420Y0181632D02*
X0136000Y0181632D01*
X0136000Y0180033D02*
X0123755Y0180033D01*
X0125353Y0178435D02*
X0136000Y0178435D01*
X0136000Y0176836D02*
X0125800Y0176836D01*
X0125800Y0175238D02*
X0136000Y0175238D01*
X0136000Y0173639D02*
X0125427Y0173639D01*
X0123829Y0172041D02*
X0136000Y0172041D01*
X0136000Y0144866D02*
X0123922Y0144866D01*
X0125521Y0143268D02*
X0136000Y0143268D01*
X0136000Y0141669D02*
X0125800Y0141669D01*
X0125800Y0140070D02*
X0136000Y0140070D01*
X0136000Y0138472D02*
X0125260Y0138472D01*
X0123662Y0136873D02*
X0136000Y0136873D01*
X0136000Y0135275D02*
X0123513Y0135275D01*
X0125112Y0133676D02*
X0136000Y0133676D01*
X0136000Y0132078D02*
X0125800Y0132078D01*
X0125800Y0130479D02*
X0136000Y0130479D01*
X0136000Y0128881D02*
X0125669Y0128881D01*
X0124071Y0127282D02*
X0136000Y0127282D01*
X0136000Y0125684D02*
X0123104Y0125684D01*
X0124703Y0124085D02*
X0136000Y0124085D01*
X0136000Y0122487D02*
X0125800Y0122487D01*
X0125800Y0120888D02*
X0136000Y0120888D01*
X0136000Y0119290D02*
X0125800Y0119290D01*
X0124480Y0117691D02*
X0136000Y0117691D01*
X0136000Y0116093D02*
X0118921Y0116093D01*
X0117706Y0114494D02*
X0117323Y0114494D01*
X0116200Y0112896D02*
X0115800Y0112896D01*
X0115800Y0111297D02*
X0116200Y0111297D01*
X0116200Y0109699D02*
X0115800Y0109699D01*
X0115272Y0108100D02*
X0114888Y0108100D01*
X0113673Y0106502D02*
X0113290Y0106502D01*
X0116133Y0103305D02*
X0136000Y0103305D01*
X0136000Y0104903D02*
X0117732Y0104903D01*
X0123290Y0106502D02*
X0136000Y0106502D01*
X0136000Y0108100D02*
X0124888Y0108100D01*
X0125800Y0109699D02*
X0136000Y0109699D01*
X0136000Y0111297D02*
X0125800Y0111297D01*
X0125800Y0112896D02*
X0136000Y0112896D01*
X0136000Y0114494D02*
X0124294Y0114494D01*
X0116200Y0119290D02*
X0115800Y0119290D01*
X0115800Y0120888D02*
X0116200Y0120888D01*
X0116200Y0122487D02*
X0115800Y0122487D01*
X0116914Y0124085D02*
X0117297Y0124085D01*
X0118512Y0125684D02*
X0118896Y0125684D01*
X0116200Y0130479D02*
X0115800Y0130479D01*
X0115800Y0132078D02*
X0116200Y0132078D01*
X0116888Y0133676D02*
X0115112Y0133676D01*
X0115669Y0128881D02*
X0116052Y0128881D01*
X0118103Y0135275D02*
X0118487Y0135275D01*
X0116200Y0140070D02*
X0115800Y0140070D01*
X0115800Y0141669D02*
X0116200Y0141669D01*
X0116479Y0143268D02*
X0115521Y0143268D01*
X0113922Y0144866D02*
X0118078Y0144866D01*
X0115644Y0138472D02*
X0115260Y0138472D01*
X0107112Y0108100D02*
X0106728Y0108100D01*
X0108327Y0106502D02*
X0108710Y0106502D01*
X0105867Y0103305D02*
X0100761Y0103305D01*
X0100827Y0103191D02*
X0100590Y0103601D01*
X0100255Y0103936D01*
X0099844Y0104173D01*
X0099387Y0104296D01*
X0096480Y0104296D01*
X0096480Y0100417D01*
X0100950Y0100417D01*
X0100950Y0102733D01*
X0100827Y0103191D01*
X0100950Y0101706D02*
X0136000Y0101706D01*
X0136000Y0100108D02*
X0096480Y0100108D01*
X0095520Y0100108D02*
X0086480Y0100108D01*
X0085520Y0100108D02*
X0078625Y0100108D01*
X0078625Y0101706D02*
X0081247Y0101706D01*
X0081247Y0102536D02*
X0081247Y0100220D01*
X0085520Y0100220D01*
X0085520Y0104099D01*
X0082810Y0104099D01*
X0082352Y0103977D01*
X0081942Y0103740D01*
X0081607Y0103404D01*
X0081370Y0102994D01*
X0081247Y0102536D01*
X0081549Y0103305D02*
X0078625Y0103305D01*
X0078625Y0104903D02*
X0104268Y0104903D01*
X0102670Y0106502D02*
X0078625Y0106502D01*
X0078625Y0108100D02*
X0080719Y0108100D01*
X0080719Y0109699D02*
X0078625Y0109699D01*
X0078625Y0111297D02*
X0080719Y0111297D01*
X0080719Y0112896D02*
X0078625Y0112896D01*
X0078625Y0114494D02*
X0080719Y0114494D01*
X0080719Y0116093D02*
X0078625Y0116093D01*
X0078625Y0117691D02*
X0080719Y0117691D01*
X0080719Y0119290D02*
X0078625Y0119290D01*
X0078625Y0120888D02*
X0080719Y0120888D01*
X0080719Y0122487D02*
X0078625Y0122487D01*
X0078625Y0124085D02*
X0080719Y0124085D01*
X0080719Y0125684D02*
X0078625Y0125684D01*
X0079486Y0127282D02*
X0080719Y0127282D01*
X0080500Y0144866D02*
X0081501Y0144866D01*
X0065875Y0144866D02*
X0063082Y0144866D01*
X0063427Y0145211D02*
X0062414Y0144198D01*
X0061444Y0143796D01*
X0061481Y0143658D01*
X0061481Y0142634D01*
X0056728Y0142634D01*
X0056728Y0142634D01*
X0061481Y0142634D01*
X0061481Y0142375D01*
X0065875Y0142375D01*
X0065875Y0190784D01*
X0065500Y0190409D01*
X0065500Y0149547D01*
X0063959Y0148005D01*
X0063975Y0147966D01*
X0063975Y0146534D01*
X0063427Y0145211D01*
X0063946Y0146465D02*
X0065875Y0146465D01*
X0065875Y0148063D02*
X0064016Y0148063D01*
X0065500Y0149662D02*
X0065875Y0149662D01*
X0065875Y0151260D02*
X0065500Y0151260D01*
X0065500Y0152859D02*
X0065875Y0152859D01*
X0065875Y0154457D02*
X0065500Y0154457D01*
X0065500Y0156056D02*
X0065875Y0156056D01*
X0065875Y0157654D02*
X0065500Y0157654D01*
X0065500Y0159253D02*
X0065875Y0159253D01*
X0065875Y0160851D02*
X0065500Y0160851D01*
X0065500Y0162450D02*
X0065875Y0162450D01*
X0065875Y0164048D02*
X0065500Y0164048D01*
X0065500Y0165647D02*
X0065875Y0165647D01*
X0065875Y0167245D02*
X0065500Y0167245D01*
X0065500Y0168844D02*
X0065875Y0168844D01*
X0065875Y0170442D02*
X0065500Y0170442D01*
X0065500Y0172041D02*
X0065875Y0172041D01*
X0065875Y0173639D02*
X0065500Y0173639D01*
X0065500Y0175238D02*
X0065875Y0175238D01*
X0065875Y0176836D02*
X0065500Y0176836D01*
X0065500Y0178435D02*
X0065875Y0178435D01*
X0065875Y0180033D02*
X0065500Y0180033D01*
X0065500Y0181632D02*
X0065875Y0181632D01*
X0065875Y0183230D02*
X0065500Y0183230D01*
X0065500Y0184829D02*
X0065875Y0184829D01*
X0065875Y0186427D02*
X0065500Y0186427D01*
X0065500Y0188026D02*
X0065875Y0188026D01*
X0065875Y0189624D02*
X0065500Y0189624D01*
X0061500Y0188026D02*
X0061281Y0188026D01*
X0061281Y0189624D02*
X0061316Y0189624D01*
X0061281Y0186427D02*
X0061500Y0186427D01*
X0061500Y0184829D02*
X0061281Y0184829D01*
X0061281Y0183230D02*
X0061500Y0183230D01*
X0061500Y0181632D02*
X0061281Y0181632D01*
X0061281Y0180033D02*
X0061500Y0180033D01*
X0061500Y0178435D02*
X0061281Y0178435D01*
X0061281Y0176836D02*
X0061500Y0176836D01*
X0061500Y0175238D02*
X0061281Y0175238D01*
X0061281Y0173639D02*
X0061500Y0173639D01*
X0061500Y0172041D02*
X0060406Y0172041D01*
X0061500Y0170442D02*
X0038271Y0170442D01*
X0039869Y0172041D02*
X0053051Y0172041D01*
X0061500Y0168844D02*
X0036672Y0168844D01*
X0035074Y0167245D02*
X0061500Y0167245D01*
X0061500Y0165647D02*
X0006000Y0165647D01*
X0006000Y0167245D02*
X0026926Y0167245D01*
X0025328Y0168844D02*
X0006000Y0168844D01*
X0006000Y0170442D02*
X0023729Y0170442D01*
X0026189Y0173639D02*
X0026573Y0173639D01*
X0026200Y0175238D02*
X0025800Y0175238D01*
X0025800Y0176836D02*
X0026200Y0176836D01*
X0026647Y0178435D02*
X0025353Y0178435D01*
X0024138Y0180033D02*
X0023755Y0180033D01*
X0026598Y0183230D02*
X0026981Y0183230D01*
X0026200Y0184829D02*
X0025800Y0184829D01*
X0025800Y0186427D02*
X0026200Y0186427D01*
X0026238Y0188026D02*
X0025762Y0188026D01*
X0024547Y0189624D02*
X0024164Y0189624D01*
X0025800Y0194420D02*
X0026200Y0194420D01*
X0026200Y0196018D02*
X0025800Y0196018D01*
X0025800Y0197617D02*
X0026200Y0197617D01*
X0024956Y0199215D02*
X0024573Y0199215D01*
X0023358Y0200814D02*
X0006000Y0200814D01*
X0006000Y0202412D02*
X0017799Y0202412D01*
X0016201Y0204011D02*
X0006000Y0204011D01*
X0006000Y0205609D02*
X0016200Y0205609D01*
X0016200Y0207208D02*
X0006000Y0207208D01*
X0006000Y0208806D02*
X0017018Y0208806D01*
X0018617Y0210405D02*
X0006000Y0210405D01*
X0006000Y0212003D02*
X0064625Y0212003D01*
X0064625Y0210405D02*
X0033383Y0210405D01*
X0034982Y0208806D02*
X0052015Y0208806D01*
X0051976Y0207208D02*
X0035800Y0207208D01*
X0035800Y0205609D02*
X0045328Y0205609D01*
X0043458Y0204011D02*
X0035817Y0204011D01*
X0037416Y0202412D02*
X0043025Y0202412D01*
X0043323Y0200814D02*
X0039014Y0200814D01*
X0040613Y0199215D02*
X0044568Y0199215D01*
X0046889Y0197617D02*
X0042212Y0197617D01*
X0043810Y0196018D02*
X0046775Y0196018D01*
X0047489Y0194420D02*
X0045409Y0194420D01*
X0047922Y0205609D02*
X0052176Y0205609D01*
X0056728Y0207634D02*
X0056728Y0207634D01*
X0061481Y0207634D01*
X0056728Y0207634D01*
X0056728Y0208806D02*
X0056728Y0208806D01*
X0061441Y0208806D02*
X0064625Y0208806D01*
X0064625Y0213602D02*
X0006000Y0213602D01*
X0006000Y0215201D02*
X0064625Y0215201D01*
X0064625Y0216799D02*
X0006000Y0216799D01*
X0006000Y0218398D02*
X0064625Y0218398D01*
X0064625Y0219996D02*
X0006000Y0219996D01*
X0006000Y0221595D02*
X0064625Y0221595D01*
X0064625Y0223193D02*
X0006000Y0223193D01*
X0006000Y0224792D02*
X0064625Y0224792D01*
X0064625Y0226390D02*
X0006000Y0226390D01*
X0006000Y0227989D02*
X0064625Y0227989D01*
X0064625Y0229587D02*
X0006000Y0229587D01*
X0006000Y0237580D02*
X0017632Y0237580D01*
X0016200Y0239178D02*
X0006000Y0239178D01*
X0006000Y0240777D02*
X0016200Y0240777D01*
X0016200Y0242375D02*
X0006000Y0242375D01*
X0006000Y0243974D02*
X0017186Y0243974D01*
X0018784Y0245572D02*
X0006000Y0245572D01*
X0006000Y0247171D02*
X0018041Y0247171D01*
X0016443Y0248769D02*
X0006000Y0248769D01*
X0006000Y0250368D02*
X0016200Y0250368D01*
X0016200Y0251966D02*
X0006000Y0251966D01*
X0006000Y0253565D02*
X0016777Y0253565D01*
X0018375Y0255163D02*
X0006000Y0255163D01*
X0006000Y0256762D02*
X0018450Y0256762D01*
X0016851Y0258360D02*
X0006000Y0258360D01*
X0006000Y0259959D02*
X0016200Y0259959D01*
X0016200Y0261557D02*
X0006000Y0261557D01*
X0006000Y0263156D02*
X0016368Y0263156D01*
X0017966Y0264754D02*
X0006000Y0264754D01*
X0006000Y0275944D02*
X0076500Y0275944D01*
X0076500Y0277542D02*
X0007542Y0277542D01*
X0009141Y0279141D02*
X0076500Y0279141D01*
X0076661Y0280739D02*
X0010739Y0280739D01*
X0027249Y0237580D02*
X0027632Y0237580D01*
X0028617Y0210405D02*
X0023383Y0210405D01*
X0024982Y0208806D02*
X0027018Y0208806D01*
X0026200Y0207208D02*
X0025800Y0207208D01*
X0025800Y0205609D02*
X0026200Y0205609D01*
X0026201Y0204011D02*
X0025817Y0204011D01*
X0018989Y0191223D02*
X0006000Y0191223D01*
X0006000Y0192821D02*
X0017390Y0192821D01*
X0016200Y0194420D02*
X0006000Y0194420D01*
X0006000Y0196018D02*
X0016200Y0196018D01*
X0016200Y0197617D02*
X0006000Y0197617D01*
X0006000Y0199215D02*
X0017427Y0199215D01*
X0017836Y0189624D02*
X0006000Y0189624D01*
X0006000Y0188026D02*
X0016238Y0188026D01*
X0016200Y0186427D02*
X0006000Y0186427D01*
X0006000Y0184829D02*
X0016200Y0184829D01*
X0016981Y0183230D02*
X0006000Y0183230D01*
X0006000Y0181632D02*
X0018580Y0181632D01*
X0018245Y0180033D02*
X0006000Y0180033D01*
X0006000Y0178435D02*
X0016647Y0178435D01*
X0016200Y0176836D02*
X0006000Y0176836D01*
X0006000Y0175238D02*
X0016200Y0175238D01*
X0016573Y0173639D02*
X0006000Y0173639D01*
X0006000Y0172041D02*
X0018171Y0172041D01*
X0027788Y0172041D02*
X0028171Y0172041D01*
X0033829Y0172041D02*
X0034212Y0172041D01*
X0035427Y0173639D02*
X0035811Y0173639D01*
X0033922Y0144866D02*
X0052678Y0144866D01*
X0051976Y0143268D02*
X0035521Y0143268D01*
X0035800Y0141669D02*
X0051976Y0141669D01*
X0052176Y0140070D02*
X0048896Y0140070D01*
X0045845Y0133676D02*
X0041152Y0133676D01*
X0042750Y0132078D02*
X0046775Y0132078D01*
X0046953Y0130479D02*
X0044349Y0130479D01*
X0043546Y0135275D02*
X0039553Y0135275D01*
X0037955Y0136873D02*
X0043025Y0136873D01*
X0043235Y0138472D02*
X0036356Y0138472D01*
X0035800Y0140070D02*
X0044354Y0140070D01*
X0056728Y0143268D02*
X0056728Y0143268D01*
X0056728Y0144866D02*
X0056728Y0144866D01*
X0056804Y0146465D02*
X0006000Y0146465D01*
X0006000Y0148063D02*
X0056815Y0148063D01*
X0057695Y0149662D02*
X0006000Y0149662D01*
X0006000Y0151260D02*
X0061500Y0151260D01*
X0061500Y0152859D02*
X0006000Y0152859D01*
X0006000Y0154457D02*
X0061500Y0154457D01*
X0061500Y0156056D02*
X0006000Y0156056D01*
X0006000Y0157654D02*
X0061500Y0157654D01*
X0061500Y0159253D02*
X0006000Y0159253D01*
X0006000Y0160851D02*
X0061500Y0160851D01*
X0061500Y0162450D02*
X0006000Y0162450D01*
X0006000Y0164048D02*
X0061500Y0164048D01*
X0061481Y0143268D02*
X0065875Y0143268D01*
X0065875Y0124085D02*
X0065427Y0124085D01*
X0065875Y0122487D02*
X0061281Y0122487D01*
X0061281Y0120888D02*
X0065875Y0120888D01*
X0065875Y0119290D02*
X0061281Y0119290D01*
X0061281Y0117691D02*
X0065875Y0117691D01*
X0065875Y0116093D02*
X0061281Y0116093D01*
X0061281Y0114494D02*
X0065875Y0114494D01*
X0065875Y0112896D02*
X0061281Y0112896D01*
X0061281Y0111297D02*
X0065875Y0111297D01*
X0065875Y0109699D02*
X0061281Y0109699D01*
X0061281Y0108100D02*
X0065875Y0108100D01*
X0065875Y0106502D02*
X0039330Y0106502D01*
X0037732Y0104903D02*
X0065875Y0104903D01*
X0065875Y0103305D02*
X0036133Y0103305D01*
X0033673Y0106502D02*
X0033290Y0106502D01*
X0034888Y0108100D02*
X0035272Y0108100D01*
X0028710Y0106502D02*
X0028327Y0106502D01*
X0027112Y0108100D02*
X0026728Y0108100D01*
X0026200Y0109699D02*
X0025800Y0109699D01*
X0025800Y0111297D02*
X0026200Y0111297D01*
X0026200Y0112896D02*
X0025800Y0112896D01*
X0024677Y0114494D02*
X0024294Y0114494D01*
X0023079Y0116093D02*
X0006000Y0116093D01*
X0006000Y0117691D02*
X0017520Y0117691D01*
X0016200Y0119290D02*
X0006000Y0119290D01*
X0006000Y0120888D02*
X0016200Y0120888D01*
X0016200Y0122487D02*
X0006000Y0122487D01*
X0006000Y0124085D02*
X0017297Y0124085D01*
X0018896Y0125684D02*
X0006000Y0125684D01*
X0006000Y0127282D02*
X0017929Y0127282D01*
X0016331Y0128881D02*
X0006000Y0128881D01*
X0006000Y0130479D02*
X0016200Y0130479D01*
X0016200Y0132078D02*
X0006000Y0132078D01*
X0006000Y0133676D02*
X0016888Y0133676D01*
X0018487Y0135275D02*
X0006000Y0135275D01*
X0006000Y0136873D02*
X0018338Y0136873D01*
X0016740Y0138472D02*
X0006000Y0138472D01*
X0006000Y0140070D02*
X0016200Y0140070D01*
X0016200Y0141669D02*
X0006000Y0141669D01*
X0006000Y0143268D02*
X0016479Y0143268D01*
X0018078Y0144866D02*
X0006000Y0144866D01*
X0023513Y0135275D02*
X0023897Y0135275D01*
X0025112Y0133676D02*
X0026888Y0133676D01*
X0026200Y0132078D02*
X0025800Y0132078D01*
X0025800Y0130479D02*
X0026200Y0130479D01*
X0026331Y0128881D02*
X0025948Y0128881D01*
X0023488Y0125684D02*
X0023104Y0125684D01*
X0024703Y0124085D02*
X0025086Y0124085D01*
X0025800Y0122487D02*
X0026200Y0122487D01*
X0026200Y0120888D02*
X0025800Y0120888D01*
X0025800Y0119290D02*
X0026200Y0119290D01*
X0017706Y0114494D02*
X0006000Y0114494D01*
X0006000Y0112896D02*
X0016200Y0112896D01*
X0016200Y0111297D02*
X0006000Y0111297D01*
X0006000Y0109699D02*
X0016200Y0109699D01*
X0017112Y0108100D02*
X0006000Y0108100D01*
X0006000Y0106502D02*
X0018710Y0106502D01*
X0024268Y0104903D02*
X0006000Y0104903D01*
X0006000Y0103305D02*
X0025867Y0103305D01*
X0017539Y0079327D02*
X0006000Y0079327D01*
X0006000Y0077729D02*
X0016200Y0077729D01*
X0016200Y0076130D02*
X0006000Y0076130D01*
X0006000Y0074532D02*
X0016200Y0074532D01*
X0017279Y0072933D02*
X0006000Y0072933D01*
X0006000Y0080926D02*
X0064972Y0080926D01*
X0065875Y0082524D02*
X0006000Y0082524D01*
X0006000Y0084123D02*
X0065875Y0084123D01*
X0065875Y0085721D02*
X0006000Y0085721D01*
X0006000Y0087320D02*
X0065875Y0087320D01*
X0065875Y0088918D02*
X0006000Y0088918D01*
X0006000Y0090517D02*
X0065875Y0090517D01*
X0065875Y0092115D02*
X0006000Y0092115D01*
X0006000Y0093714D02*
X0065875Y0093714D01*
X0065875Y0095312D02*
X0006000Y0095312D01*
X0006000Y0096911D02*
X0065875Y0096911D01*
X0065875Y0098509D02*
X0006000Y0098509D01*
X0006000Y0100108D02*
X0065875Y0100108D01*
X0065875Y0101706D02*
X0006000Y0101706D01*
X0026356Y0138472D02*
X0026740Y0138472D01*
X0026200Y0140070D02*
X0025800Y0140070D01*
X0025800Y0141669D02*
X0026200Y0141669D01*
X0026479Y0143268D02*
X0025521Y0143268D01*
X0023922Y0144866D02*
X0028078Y0144866D01*
X0034461Y0079327D02*
X0052220Y0079327D01*
X0051976Y0077729D02*
X0035800Y0077729D01*
X0035800Y0076130D02*
X0052111Y0076130D01*
X0052176Y0074532D02*
X0049435Y0074532D01*
X0047105Y0068137D02*
X0041691Y0068137D01*
X0043289Y0066539D02*
X0046775Y0066539D01*
X0047176Y0064940D02*
X0044888Y0064940D01*
X0044048Y0069736D02*
X0040092Y0069736D01*
X0038494Y0071334D02*
X0043108Y0071334D01*
X0043025Y0072933D02*
X0036895Y0072933D01*
X0035800Y0074532D02*
X0043815Y0074532D01*
X0056728Y0077634D02*
X0056728Y0077634D01*
X0061481Y0077634D01*
X0056728Y0077634D01*
X0056728Y0077729D02*
X0056728Y0077729D01*
X0056728Y0079327D02*
X0056728Y0079327D01*
X0061237Y0079327D02*
X0063374Y0079327D01*
X0061775Y0077729D02*
X0061481Y0077729D01*
X0074151Y0056948D02*
X0080719Y0056948D01*
X0080719Y0058546D02*
X0075750Y0058546D01*
X0077348Y0060145D02*
X0080719Y0060145D01*
X0080719Y0061743D02*
X0078947Y0061743D01*
X0080545Y0063342D02*
X0080719Y0063342D01*
X0080719Y0055349D02*
X0073625Y0055349D01*
X0073625Y0053751D02*
X0080719Y0053751D01*
X0080719Y0052152D02*
X0073625Y0052152D01*
X0073625Y0050554D02*
X0080719Y0050554D01*
X0080719Y0048955D02*
X0073625Y0048955D01*
X0073625Y0047357D02*
X0080719Y0047357D01*
X0080719Y0045758D02*
X0073625Y0045758D01*
X0073625Y0044160D02*
X0080719Y0044160D01*
X0081074Y0042561D02*
X0073625Y0042561D01*
X0073625Y0040963D02*
X0103209Y0040963D01*
X0104807Y0039364D02*
X0073625Y0039364D01*
X0073625Y0037766D02*
X0106406Y0037766D01*
X0107267Y0042561D02*
X0107650Y0042561D01*
X0106200Y0044160D02*
X0105669Y0044160D01*
X0097988Y0030800D02*
X0094012Y0030800D01*
X0091200Y0027988D01*
X0091200Y0024012D01*
X0094012Y0021200D01*
X0097988Y0021200D01*
X0100800Y0024012D01*
X0100800Y0027988D01*
X0097988Y0030800D01*
X0099015Y0029773D02*
X0128735Y0029773D01*
X0126870Y0028175D02*
X0100614Y0028175D01*
X0100800Y0026576D02*
X0125006Y0026576D01*
X0123141Y0024978D02*
X0100800Y0024978D01*
X0100167Y0023379D02*
X0121276Y0023379D01*
X0119411Y0021781D02*
X0098569Y0021781D01*
X0097988Y0020800D02*
X0094012Y0020800D01*
X0091200Y0017988D01*
X0091200Y0014012D01*
X0094012Y0011200D01*
X0097988Y0011200D01*
X0100800Y0014012D01*
X0100800Y0017988D01*
X0097988Y0020800D01*
X0098606Y0020182D02*
X0117546Y0020182D01*
X0115681Y0018584D02*
X0100205Y0018584D01*
X0100800Y0016985D02*
X0113816Y0016985D01*
X0111951Y0015387D02*
X0100800Y0015387D01*
X0100576Y0013788D02*
X0110086Y0013788D01*
X0108221Y0012190D02*
X0098978Y0012190D01*
X0093022Y0012190D02*
X0089261Y0012190D01*
X0088071Y0011000D02*
X0091000Y0013929D01*
X0091000Y0015800D01*
X0086200Y0015800D01*
X0086200Y0016200D01*
X0091000Y0016200D01*
X0091000Y0018071D01*
X0088071Y0021000D01*
X0086200Y0021000D01*
X0086200Y0016200D01*
X0085800Y0016200D01*
X0085800Y0021000D01*
X0083929Y0021000D01*
X0081000Y0018071D01*
X0081000Y0016200D01*
X0085800Y0016200D01*
X0085800Y0015800D01*
X0086200Y0015800D01*
X0086200Y0011000D01*
X0088071Y0011000D01*
X0086200Y0012190D02*
X0085800Y0012190D01*
X0085800Y0011000D02*
X0083929Y0011000D01*
X0081000Y0013929D01*
X0081000Y0015800D01*
X0085800Y0015800D01*
X0085800Y0011000D01*
X0084237Y0010591D02*
X0106356Y0010591D01*
X0104491Y0008993D02*
X0085836Y0008993D01*
X0087434Y0007394D02*
X0102626Y0007394D01*
X0093394Y0020182D02*
X0088889Y0020182D01*
X0087988Y0021200D02*
X0090800Y0024012D01*
X0090800Y0027988D01*
X0087988Y0030800D01*
X0084012Y0030800D01*
X0081200Y0027988D01*
X0081200Y0024012D01*
X0084012Y0021200D01*
X0087988Y0021200D01*
X0088569Y0021781D02*
X0093431Y0021781D01*
X0091833Y0023379D02*
X0090167Y0023379D01*
X0090800Y0024978D02*
X0091200Y0024978D01*
X0091200Y0026576D02*
X0090800Y0026576D01*
X0090614Y0028175D02*
X0091386Y0028175D01*
X0092985Y0029773D02*
X0089015Y0029773D01*
X0086200Y0020182D02*
X0085800Y0020182D01*
X0085800Y0018584D02*
X0086200Y0018584D01*
X0086200Y0016985D02*
X0085800Y0016985D01*
X0085800Y0015387D02*
X0086200Y0015387D01*
X0086200Y0013788D02*
X0085800Y0013788D01*
X0082739Y0012190D02*
X0082639Y0012190D01*
X0081141Y0013788D02*
X0081040Y0013788D01*
X0081000Y0015387D02*
X0080800Y0015387D01*
X0080800Y0016985D02*
X0081000Y0016985D01*
X0081513Y0018584D02*
X0080205Y0018584D01*
X0078606Y0020182D02*
X0083111Y0020182D01*
X0083431Y0021781D02*
X0078569Y0021781D01*
X0080167Y0023379D02*
X0081833Y0023379D01*
X0081200Y0024978D02*
X0080800Y0024978D01*
X0080800Y0026576D02*
X0081200Y0026576D01*
X0081386Y0028175D02*
X0080614Y0028175D01*
X0079015Y0029773D02*
X0082985Y0029773D01*
X0073625Y0031372D02*
X0130600Y0031372D01*
X0132465Y0032970D02*
X0073625Y0032970D01*
X0073625Y0034569D02*
X0134330Y0034569D01*
X0136000Y0036167D02*
X0073625Y0036167D01*
X0073431Y0021781D02*
X0073000Y0021781D01*
X0073000Y0020182D02*
X0073394Y0020182D01*
X0071795Y0018584D02*
X0071412Y0018584D01*
X0071200Y0016985D02*
X0070800Y0016985D01*
X0070800Y0015387D02*
X0071200Y0015387D01*
X0071424Y0013788D02*
X0070576Y0013788D01*
X0068978Y0012190D02*
X0073022Y0012190D01*
X0068952Y0021781D02*
X0068569Y0021781D01*
X0063431Y0021781D02*
X0063000Y0021781D01*
X0063000Y0020182D02*
X0063394Y0020182D01*
X0061795Y0018584D02*
X0061412Y0018584D01*
X0061200Y0016985D02*
X0060800Y0016985D01*
X0060800Y0015387D02*
X0061200Y0015387D01*
X0061424Y0013788D02*
X0060576Y0013788D01*
X0058978Y0012190D02*
X0063022Y0012190D01*
X0058952Y0021781D02*
X0058569Y0021781D01*
X0059015Y0029773D02*
X0060695Y0029773D01*
X0078581Y0010591D02*
X0026409Y0010591D01*
X0028007Y0008993D02*
X0080179Y0008993D01*
X0081778Y0007394D02*
X0029606Y0007394D01*
X0027650Y0042561D02*
X0027267Y0042561D01*
X0034350Y0042561D02*
X0034733Y0042561D01*
X0035800Y0044160D02*
X0036331Y0044160D01*
X0078625Y0088918D02*
X0079840Y0088918D01*
X0078625Y0090517D02*
X0081438Y0090517D01*
X0081447Y0092115D02*
X0078625Y0092115D01*
X0078625Y0093714D02*
X0081447Y0093714D01*
X0081447Y0095312D02*
X0078625Y0095312D01*
X0078625Y0096911D02*
X0081256Y0096911D01*
X0081247Y0098509D02*
X0078625Y0098509D01*
X0085520Y0101706D02*
X0086480Y0101706D01*
X0086480Y0103305D02*
X0085520Y0103305D01*
X0090451Y0103305D02*
X0091239Y0103305D01*
X0091050Y0101706D02*
X0090753Y0101706D01*
X0090753Y0098509D02*
X0091050Y0098509D01*
X0091112Y0096911D02*
X0090744Y0096911D01*
X0090553Y0095312D02*
X0091278Y0095312D01*
X0091250Y0093714D02*
X0090553Y0093714D01*
X0090553Y0092115D02*
X0091250Y0092115D01*
X0091250Y0090517D02*
X0090553Y0090517D01*
X0090433Y0088918D02*
X0091250Y0088918D01*
X0091991Y0087320D02*
X0083898Y0087320D01*
X0082300Y0085721D02*
X0090393Y0085721D01*
X0088794Y0084123D02*
X0080701Y0084123D01*
X0080500Y0082524D02*
X0087196Y0082524D01*
X0085597Y0080926D02*
X0080500Y0080926D01*
X0080501Y0079327D02*
X0080962Y0079327D01*
X0089655Y0079327D02*
X0107539Y0079327D01*
X0106200Y0077729D02*
X0089824Y0077729D01*
X0089824Y0076130D02*
X0106200Y0076130D01*
X0106200Y0074532D02*
X0089824Y0074532D01*
X0089824Y0072933D02*
X0105105Y0072933D01*
X0103506Y0071334D02*
X0089824Y0071334D01*
X0091342Y0069736D02*
X0101908Y0069736D01*
X0100309Y0068137D02*
X0095204Y0068137D01*
X0095850Y0066539D02*
X0098711Y0066539D01*
X0097112Y0064940D02*
X0095708Y0064940D01*
X0091254Y0080926D02*
X0123246Y0080926D01*
X0124461Y0079327D02*
X0124845Y0079327D01*
X0125800Y0077729D02*
X0126443Y0077729D01*
X0125800Y0076130D02*
X0128042Y0076130D01*
X0129640Y0074532D02*
X0125800Y0074532D01*
X0124721Y0072933D02*
X0131239Y0072933D01*
X0132837Y0071334D02*
X0123123Y0071334D01*
X0124052Y0069736D02*
X0134436Y0069736D01*
X0136000Y0068137D02*
X0125651Y0068137D01*
X0125800Y0066539D02*
X0136000Y0066539D01*
X0136000Y0064940D02*
X0125800Y0064940D01*
X0125130Y0063342D02*
X0136000Y0063342D01*
X0136000Y0061743D02*
X0123532Y0061743D01*
X0123643Y0060145D02*
X0136000Y0060145D01*
X0136000Y0058546D02*
X0125242Y0058546D01*
X0125800Y0056948D02*
X0136000Y0056948D01*
X0136000Y0055349D02*
X0125800Y0055349D01*
X0125539Y0053751D02*
X0136000Y0053751D01*
X0136000Y0052152D02*
X0123941Y0052152D01*
X0123234Y0050554D02*
X0136000Y0050554D01*
X0136000Y0048955D02*
X0124833Y0048955D01*
X0125800Y0047357D02*
X0136000Y0047357D01*
X0136000Y0045758D02*
X0125800Y0045758D01*
X0125800Y0044160D02*
X0136000Y0044160D01*
X0136000Y0042561D02*
X0124350Y0042561D01*
X0118791Y0040963D02*
X0136000Y0040963D01*
X0136000Y0039364D02*
X0117193Y0039364D01*
X0115594Y0037766D02*
X0136000Y0037766D01*
X0118766Y0050554D02*
X0118382Y0050554D01*
X0117167Y0048955D02*
X0114833Y0048955D01*
X0115800Y0047357D02*
X0116200Y0047357D01*
X0116200Y0045758D02*
X0115800Y0045758D01*
X0115800Y0044160D02*
X0116200Y0044160D01*
X0114733Y0042561D02*
X0114350Y0042561D01*
X0115539Y0053751D02*
X0115922Y0053751D01*
X0115800Y0055349D02*
X0116200Y0055349D01*
X0116200Y0056948D02*
X0115800Y0056948D01*
X0115242Y0058546D02*
X0116758Y0058546D01*
X0117973Y0060145D02*
X0118357Y0060145D01*
X0115514Y0063342D02*
X0115130Y0063342D01*
X0115800Y0064940D02*
X0116200Y0064940D01*
X0116200Y0066539D02*
X0115800Y0066539D01*
X0115651Y0068137D02*
X0116349Y0068137D01*
X0117564Y0069736D02*
X0117948Y0069736D01*
X0116200Y0074532D02*
X0115800Y0074532D01*
X0115800Y0076130D02*
X0116200Y0076130D01*
X0116200Y0077729D02*
X0115800Y0077729D01*
X0114461Y0079327D02*
X0117539Y0079327D01*
X0120049Y0084123D02*
X0094451Y0084123D01*
X0096050Y0085721D02*
X0118450Y0085721D01*
X0116852Y0087320D02*
X0097648Y0087320D01*
X0100750Y0088918D02*
X0115253Y0088918D01*
X0117713Y0092115D02*
X0136000Y0092115D01*
X0136000Y0090517D02*
X0119312Y0090517D01*
X0120910Y0088918D02*
X0136000Y0088918D01*
X0136000Y0087320D02*
X0122509Y0087320D01*
X0124107Y0085721D02*
X0136000Y0085721D01*
X0136000Y0084123D02*
X0125706Y0084123D01*
X0127304Y0082524D02*
X0136000Y0082524D01*
X0136000Y0080926D02*
X0128903Y0080926D01*
X0130501Y0079327D02*
X0136000Y0079327D01*
X0136000Y0077729D02*
X0132100Y0077729D01*
X0133698Y0076130D02*
X0136000Y0076130D01*
X0136000Y0074532D02*
X0135297Y0074532D01*
X0136000Y0093714D02*
X0100750Y0093714D01*
X0100722Y0095312D02*
X0136000Y0095312D01*
X0136000Y0096911D02*
X0100888Y0096911D01*
X0100950Y0098509D02*
X0136000Y0098509D01*
X0121647Y0082524D02*
X0092852Y0082524D01*
X0095520Y0101706D02*
X0096480Y0101706D01*
X0096480Y0103305D02*
X0095520Y0103305D01*
X0091795Y0018584D02*
X0090487Y0018584D01*
X0091000Y0016985D02*
X0091200Y0016985D01*
X0091200Y0015387D02*
X0091000Y0015387D01*
X0090859Y0013788D02*
X0091424Y0013788D01*
X0115799Y0204011D02*
X0116183Y0204011D01*
X0116200Y0205609D02*
X0115800Y0205609D01*
X0115800Y0207208D02*
X0116200Y0207208D01*
X0117018Y0208806D02*
X0114982Y0208806D01*
X0113383Y0210405D02*
X0118617Y0210405D01*
X0120570Y0213602D02*
X0100510Y0213602D01*
X0086952Y0210405D02*
X0081358Y0210405D01*
X0085520Y0226390D02*
X0086480Y0226390D01*
X0086480Y0227989D02*
X0085520Y0227989D01*
X0064625Y0237580D02*
X0060945Y0237580D01*
X0061281Y0239178D02*
X0064625Y0239178D01*
X0064625Y0240777D02*
X0061281Y0240777D01*
X0061281Y0242375D02*
X0064625Y0242375D01*
X0064625Y0243974D02*
X0061281Y0243974D01*
X0061281Y0245572D02*
X0064625Y0245572D01*
X0064625Y0247171D02*
X0061281Y0247171D01*
X0061281Y0248769D02*
X0064625Y0248769D01*
X0064625Y0250368D02*
X0061281Y0250368D01*
X0061281Y0251966D02*
X0064625Y0251966D01*
X0080500Y0274345D02*
X0080980Y0274345D01*
X0080500Y0275944D02*
X0085616Y0275944D01*
X0087214Y0277542D02*
X0080500Y0277542D01*
X0080719Y0279141D02*
X0088813Y0279141D01*
X0090411Y0280739D02*
X0082318Y0280739D01*
X0083916Y0282338D02*
X0092010Y0282338D01*
X0091250Y0283937D02*
X0090451Y0283937D01*
X0090553Y0285535D02*
X0091250Y0285535D01*
X0091250Y0287134D02*
X0090553Y0287134D01*
X0090553Y0288732D02*
X0091250Y0288732D01*
X0091296Y0290331D02*
X0090553Y0290331D01*
X0090749Y0291929D02*
X0091107Y0291929D01*
X0091050Y0293528D02*
X0090753Y0293528D01*
X0090753Y0296725D02*
X0091050Y0296725D01*
X0091249Y0298323D02*
X0090440Y0298323D01*
X0086480Y0298323D02*
X0085520Y0298323D01*
X0085520Y0296725D02*
X0086480Y0296725D01*
X0081560Y0298323D02*
X0071000Y0298323D01*
X0071000Y0296725D02*
X0081247Y0296725D01*
X0096068Y0280739D02*
X0118432Y0280739D01*
X0116834Y0282338D02*
X0097666Y0282338D01*
X0118401Y0245572D02*
X0118784Y0245572D01*
X0124740Y0267951D02*
X0131220Y0267951D01*
X0129622Y0269550D02*
X0125800Y0269550D01*
X0125800Y0271148D02*
X0128023Y0271148D01*
X0126425Y0272747D02*
X0125800Y0272747D01*
X0124826Y0274345D02*
X0124443Y0274345D01*
D16*
X0091625Y0264125D03*
X0078500Y0216000D03*
X0079125Y0192250D03*
X0091625Y0199125D03*
X0064125Y0201625D03*
X0062875Y0192875D03*
X0050375Y0196625D03*
X0046625Y0202250D03*
X0060375Y0147250D03*
X0064125Y0136625D03*
X0062875Y0126625D03*
X0050375Y0131625D03*
X0046625Y0137250D03*
X0046625Y0072250D03*
X0050375Y0066625D03*
X0062875Y0062875D03*
X0066625Y0072250D03*
X0079125Y0069750D03*
X0092250Y0066000D03*
X0067875Y0041625D03*
X0067250Y0036625D03*
X0092250Y0131000D03*
X0091625Y0137875D03*
X0158500Y0092250D03*
X0062875Y0256625D03*
X0062875Y0262875D03*
X0050375Y0261625D03*
X0050375Y0267250D03*
M02*
