%
M48
M72
T01C0.02000
T02C0.04000
%
T01
X46625Y72250
X50375Y66625
X62875Y62875
X66625Y72250
X79125Y69750
X92250Y66000
X67875Y41625
X67250Y36625
X62875Y126625
X64125Y136625
X60375Y147250
X50375Y131625
X46625Y137250
X62875Y192875
X64125Y201625
X50375Y196625
X46625Y202250
X78500Y216000
X79125Y192250
X91625Y199125
X62875Y256625
X62875Y262875
X50375Y261625
X50375Y267250
X91625Y264125
X91625Y137875
X92250Y131000
X158500Y92250
T02
X21000Y46000
X21000Y56000
X21000Y66000
X21000Y76000
X31000Y76000
X31000Y66000
X31000Y56000
X31000Y46000
X46000Y26000
X46000Y16000
X56000Y16000
X56000Y26000
X66000Y26000
X66000Y16000
X76000Y16000
X76000Y26000
X86000Y26000
X86000Y16000
X96000Y16000
X96000Y26000
X111000Y46000
X111000Y56000
X111000Y66000
X111000Y76000
X121000Y76000
X121000Y66000
X121000Y56000
X121000Y46000
X151000Y46000
X151000Y56000
X151000Y66000
X151000Y76000
X161000Y76000
X161000Y66000
X161000Y56000
X161000Y46000
X161000Y101000
X161000Y111000
X161000Y121000
X161000Y131000
X151000Y131000
X151000Y121000
X151000Y111000
X151000Y101000
X121000Y111000
X121000Y121000
X121000Y131000
X121000Y141000
X111000Y141000
X111000Y131000
X111000Y121000
X111000Y111000
X111000Y176000
X111000Y186000
X111000Y196000
X111000Y206000
X121000Y206000
X121000Y196000
X121000Y186000
X121000Y176000
X121000Y241000
X121000Y251000
X121000Y261000
X121000Y271000
X111000Y271000
X111000Y261000
X111000Y251000
X111000Y241000
X31000Y241000
X31000Y251000
X31000Y261000
X31000Y271000
X21000Y271000
X21000Y261000
X21000Y251000
X21000Y241000
X21000Y206000
X21000Y196000
X21000Y186000
X21000Y176000
X31000Y176000
X31000Y186000
X31000Y196000
X31000Y206000
X31000Y141000
X31000Y131000
X31000Y121000
X31000Y111000
X21000Y111000
X21000Y121000
X21000Y131000
X21000Y141000
M30
