G75*
%MOIN*%
%OFA0B0*%
%FSLAX25Y25*%
%IPPOS*%
%LPD*%
%AMOC8*
5,1,8,0,0,1.08239X$1,22.5*
%
%ADD10C,0.00000*%
%ADD11C,0.00300*%
%ADD12C,0.00800*%
%ADD13C,0.00400*%
%ADD14C,0.00600*%
%ADD15C,0.00500*%
D10*
X0001000Y0001000D02*
X0001000Y0300961D01*
X0169701Y0300961D01*
X0169701Y0001000D01*
X0001000Y0001000D01*
D11*
X0099592Y0093338D02*
X0100209Y0092721D01*
X0102678Y0092721D01*
X0103295Y0093338D01*
X0103295Y0094572D01*
X0102678Y0095189D01*
X0103295Y0096404D02*
X0103295Y0098873D01*
X0103295Y0097638D02*
X0099592Y0097638D01*
X0100826Y0096404D01*
X0100209Y0095189D02*
X0099592Y0094572D01*
X0099592Y0093338D01*
X0100209Y0157721D02*
X0102678Y0157721D01*
X0103295Y0158338D01*
X0103295Y0159572D01*
X0102678Y0160189D01*
X0102678Y0161404D02*
X0103295Y0162021D01*
X0103295Y0163255D01*
X0102678Y0163873D01*
X0102060Y0163873D01*
X0101443Y0163255D01*
X0101443Y0162638D01*
X0101443Y0163255D02*
X0100826Y0163873D01*
X0100209Y0163873D01*
X0099592Y0163255D01*
X0099592Y0162021D01*
X0100209Y0161404D01*
X0100209Y0160189D02*
X0099592Y0159572D01*
X0099592Y0158338D01*
X0100209Y0157721D01*
X0100209Y0217721D02*
X0102678Y0217721D01*
X0103295Y0218338D01*
X0103295Y0219572D01*
X0102678Y0220189D01*
X0103295Y0221404D02*
X0100826Y0223873D01*
X0100209Y0223873D01*
X0099592Y0223255D01*
X0099592Y0222021D01*
X0100209Y0221404D01*
X0100209Y0220189D02*
X0099592Y0219572D01*
X0099592Y0218338D01*
X0100209Y0217721D01*
X0103295Y0221404D02*
X0103295Y0223873D01*
X0102678Y0287721D02*
X0100209Y0287721D01*
X0099592Y0288338D01*
X0099592Y0289572D01*
X0100209Y0290189D01*
X0101443Y0291404D02*
X0099592Y0293255D01*
X0103295Y0293255D01*
X0101443Y0293873D02*
X0101443Y0291404D01*
X0102678Y0290189D02*
X0103295Y0289572D01*
X0103295Y0288338D01*
X0102678Y0287721D01*
D12*
X0081236Y0276079D02*
X0081236Y0235921D01*
X0060764Y0235921D01*
X0060764Y0276079D01*
X0060764Y0211079D02*
X0060764Y0170921D01*
X0081236Y0170921D01*
X0081236Y0211079D01*
X0081236Y0146079D02*
X0081236Y0105921D01*
X0060764Y0105921D01*
X0060764Y0146079D01*
X0060764Y0081079D02*
X0060764Y0040921D01*
X0081236Y0040921D01*
X0081236Y0081079D01*
D13*
X0081564Y0082759D02*
X0080029Y0082759D01*
X0079262Y0083526D01*
X0077727Y0083526D02*
X0076960Y0082759D01*
X0075425Y0082759D01*
X0074658Y0083526D01*
X0073123Y0083526D02*
X0072356Y0082759D01*
X0070821Y0082759D01*
X0070054Y0083526D01*
X0070054Y0086596D01*
X0070821Y0087363D01*
X0072356Y0087363D01*
X0073123Y0086596D01*
X0074658Y0087363D02*
X0074658Y0085061D01*
X0076192Y0085828D01*
X0076960Y0085828D01*
X0077727Y0085061D01*
X0077727Y0083526D01*
X0079262Y0085828D02*
X0080029Y0085061D01*
X0082331Y0085061D01*
X0082331Y0083526D02*
X0082331Y0086596D01*
X0081564Y0087363D01*
X0080029Y0087363D01*
X0079262Y0086596D01*
X0079262Y0085828D01*
X0077727Y0087363D02*
X0074658Y0087363D01*
X0076196Y0093700D02*
X0076196Y0096002D01*
X0076963Y0096769D01*
X0078498Y0096769D01*
X0079265Y0096002D01*
X0079265Y0093700D01*
X0079265Y0095235D02*
X0080800Y0096769D01*
X0080800Y0093700D02*
X0076196Y0093700D01*
X0078498Y0098304D02*
X0078498Y0101373D01*
X0076196Y0100606D02*
X0078498Y0098304D01*
X0080800Y0100606D02*
X0076196Y0100606D01*
X0086168Y0087363D02*
X0083866Y0085061D01*
X0086935Y0085061D01*
X0088470Y0083526D02*
X0088470Y0086596D01*
X0089237Y0087363D01*
X0090772Y0087363D01*
X0091539Y0086596D01*
X0088470Y0083526D01*
X0089237Y0082759D01*
X0090772Y0082759D01*
X0091539Y0083526D01*
X0091539Y0086596D01*
X0086168Y0087363D02*
X0086168Y0082759D01*
X0082331Y0083526D02*
X0081564Y0082759D01*
X0068519Y0082759D02*
X0065450Y0082759D01*
X0065450Y0087363D01*
X0063915Y0087363D02*
X0060846Y0087363D01*
X0062381Y0087363D02*
X0062381Y0082759D01*
X0062381Y0147759D02*
X0062381Y0152363D01*
X0063915Y0152363D02*
X0060846Y0152363D01*
X0065450Y0152363D02*
X0065450Y0147759D01*
X0068519Y0147759D01*
X0070054Y0148526D02*
X0070054Y0151596D01*
X0070821Y0152363D01*
X0072356Y0152363D01*
X0073123Y0151596D01*
X0074658Y0152363D02*
X0074658Y0150061D01*
X0076192Y0150828D01*
X0076960Y0150828D01*
X0077727Y0150061D01*
X0077727Y0148526D01*
X0076960Y0147759D01*
X0075425Y0147759D01*
X0074658Y0148526D01*
X0073123Y0148526D02*
X0072356Y0147759D01*
X0070821Y0147759D01*
X0070054Y0148526D01*
X0074658Y0152363D02*
X0077727Y0152363D01*
X0079262Y0151596D02*
X0079262Y0150828D01*
X0080029Y0150061D01*
X0082331Y0150061D01*
X0082331Y0148526D02*
X0082331Y0151596D01*
X0081564Y0152363D01*
X0080029Y0152363D01*
X0079262Y0151596D01*
X0079262Y0148526D02*
X0080029Y0147759D01*
X0081564Y0147759D01*
X0082331Y0148526D01*
X0083866Y0150061D02*
X0086935Y0150061D01*
X0088470Y0148526D02*
X0091539Y0151596D01*
X0091539Y0148526D01*
X0090772Y0147759D01*
X0089237Y0147759D01*
X0088470Y0148526D01*
X0088470Y0151596D01*
X0089237Y0152363D01*
X0090772Y0152363D01*
X0091539Y0151596D01*
X0086168Y0152363D02*
X0086168Y0147759D01*
X0083866Y0150061D02*
X0086168Y0152363D01*
X0080800Y0158700D02*
X0076196Y0158700D01*
X0076196Y0161002D01*
X0076963Y0161769D01*
X0078498Y0161769D01*
X0079265Y0161002D01*
X0079265Y0158700D01*
X0079265Y0160235D02*
X0080800Y0161769D01*
X0080033Y0163304D02*
X0080800Y0164071D01*
X0080800Y0165606D01*
X0080033Y0166373D01*
X0079265Y0166373D01*
X0078498Y0165606D01*
X0078498Y0164839D01*
X0078498Y0165606D02*
X0077731Y0166373D01*
X0076963Y0166373D01*
X0076196Y0165606D01*
X0076196Y0164071D01*
X0076963Y0163304D01*
X0076960Y0212759D02*
X0075425Y0212759D01*
X0074658Y0213526D01*
X0073123Y0213526D02*
X0072356Y0212759D01*
X0070821Y0212759D01*
X0070054Y0213526D01*
X0070054Y0216596D01*
X0070821Y0217363D01*
X0072356Y0217363D01*
X0073123Y0216596D01*
X0074658Y0217363D02*
X0074658Y0215061D01*
X0076192Y0215828D01*
X0076960Y0215828D01*
X0077727Y0215061D01*
X0077727Y0213526D01*
X0076960Y0212759D01*
X0079262Y0213526D02*
X0080029Y0212759D01*
X0081564Y0212759D01*
X0082331Y0213526D01*
X0082331Y0216596D01*
X0081564Y0217363D01*
X0080029Y0217363D01*
X0079262Y0216596D01*
X0079262Y0215828D01*
X0080029Y0215061D01*
X0082331Y0215061D01*
X0083866Y0215061D02*
X0086935Y0215061D01*
X0088470Y0213526D02*
X0088470Y0216596D01*
X0089237Y0217363D01*
X0090772Y0217363D01*
X0091539Y0216596D01*
X0088470Y0213526D01*
X0089237Y0212759D01*
X0090772Y0212759D01*
X0091539Y0213526D01*
X0091539Y0216596D01*
X0086168Y0217363D02*
X0086168Y0212759D01*
X0083866Y0215061D02*
X0086168Y0217363D01*
X0080800Y0218700D02*
X0076196Y0218700D01*
X0076196Y0221002D01*
X0076963Y0221769D01*
X0078498Y0221769D01*
X0079265Y0221002D01*
X0079265Y0218700D01*
X0079265Y0220235D02*
X0080800Y0221769D01*
X0080800Y0223304D02*
X0077731Y0226373D01*
X0076963Y0226373D01*
X0076196Y0225606D01*
X0076196Y0224071D01*
X0076963Y0223304D01*
X0080800Y0223304D02*
X0080800Y0226373D01*
X0077727Y0217363D02*
X0074658Y0217363D01*
X0068519Y0212759D02*
X0065450Y0212759D01*
X0065450Y0217363D01*
X0063915Y0217363D02*
X0060846Y0217363D01*
X0062381Y0217363D02*
X0062381Y0212759D01*
X0062381Y0277759D02*
X0062381Y0282363D01*
X0063915Y0282363D02*
X0060846Y0282363D01*
X0065450Y0282363D02*
X0065450Y0277759D01*
X0068519Y0277759D01*
X0070054Y0278526D02*
X0070054Y0281596D01*
X0070821Y0282363D01*
X0072356Y0282363D01*
X0073123Y0281596D01*
X0074658Y0282363D02*
X0074658Y0280061D01*
X0076192Y0280828D01*
X0076960Y0280828D01*
X0077727Y0280061D01*
X0077727Y0278526D01*
X0076960Y0277759D01*
X0075425Y0277759D01*
X0074658Y0278526D01*
X0073123Y0278526D02*
X0072356Y0277759D01*
X0070821Y0277759D01*
X0070054Y0278526D01*
X0074658Y0282363D02*
X0077727Y0282363D01*
X0079262Y0281596D02*
X0079262Y0280828D01*
X0080029Y0280061D01*
X0082331Y0280061D01*
X0082331Y0278526D02*
X0082331Y0281596D01*
X0081564Y0282363D01*
X0080029Y0282363D01*
X0079262Y0281596D01*
X0079262Y0278526D02*
X0080029Y0277759D01*
X0081564Y0277759D01*
X0082331Y0278526D01*
X0083866Y0280061D02*
X0086935Y0280061D01*
X0088470Y0278526D02*
X0088470Y0281596D01*
X0089237Y0282363D01*
X0090772Y0282363D01*
X0091539Y0281596D01*
X0088470Y0278526D01*
X0089237Y0277759D01*
X0090772Y0277759D01*
X0091539Y0278526D01*
X0091539Y0281596D01*
X0086168Y0282363D02*
X0086168Y0277759D01*
X0083866Y0280061D02*
X0086168Y0282363D01*
X0080800Y0288700D02*
X0076196Y0288700D01*
X0076196Y0291002D01*
X0076963Y0291769D01*
X0078498Y0291769D01*
X0079265Y0291002D01*
X0079265Y0288700D01*
X0079265Y0290235D02*
X0080800Y0291769D01*
X0080800Y0293304D02*
X0080800Y0296373D01*
X0080800Y0294839D02*
X0076196Y0294839D01*
X0077731Y0293304D01*
D14*
X0106000Y0273500D02*
X0106000Y0268500D01*
X0108500Y0266000D01*
X0123500Y0266000D01*
X0126000Y0268500D01*
X0126000Y0273500D01*
X0123500Y0276000D01*
X0108500Y0276000D01*
X0106000Y0273500D01*
X0108500Y0266000D02*
X0106000Y0263500D01*
X0106000Y0258500D01*
X0108500Y0256000D01*
X0123500Y0256000D01*
X0126000Y0258500D01*
X0126000Y0263500D01*
X0123500Y0266000D01*
X0123500Y0256000D02*
X0126000Y0253500D01*
X0126000Y0248500D01*
X0123500Y0246000D01*
X0108500Y0246000D01*
X0106000Y0248500D01*
X0106000Y0253500D01*
X0108500Y0256000D01*
X0108500Y0246000D02*
X0106000Y0243500D01*
X0106000Y0238500D01*
X0108500Y0236000D01*
X0123500Y0236000D01*
X0126000Y0238500D01*
X0126000Y0243500D01*
X0123500Y0246000D01*
X0123500Y0211000D02*
X0108500Y0211000D01*
X0106000Y0208500D01*
X0106000Y0203500D01*
X0108500Y0201000D01*
X0123500Y0201000D01*
X0126000Y0203500D01*
X0126000Y0208500D01*
X0123500Y0211000D01*
X0123500Y0201000D02*
X0126000Y0198500D01*
X0126000Y0193500D01*
X0123500Y0191000D01*
X0108500Y0191000D01*
X0106000Y0193500D01*
X0106000Y0198500D01*
X0108500Y0201000D01*
X0108500Y0191000D02*
X0106000Y0188500D01*
X0106000Y0183500D01*
X0108500Y0181000D01*
X0123500Y0181000D01*
X0126000Y0183500D01*
X0126000Y0188500D01*
X0123500Y0191000D01*
X0123500Y0181000D02*
X0126000Y0178500D01*
X0126000Y0173500D01*
X0123500Y0171000D01*
X0108500Y0171000D01*
X0106000Y0173500D01*
X0106000Y0178500D01*
X0108500Y0181000D01*
X0108500Y0146000D02*
X0106000Y0143500D01*
X0106000Y0138500D01*
X0108500Y0136000D01*
X0123500Y0136000D01*
X0126000Y0138500D01*
X0126000Y0143500D01*
X0123500Y0146000D01*
X0108500Y0146000D01*
X0108500Y0136000D02*
X0106000Y0133500D01*
X0106000Y0128500D01*
X0108500Y0126000D01*
X0123500Y0126000D01*
X0126000Y0128500D01*
X0126000Y0133500D01*
X0123500Y0136000D01*
X0123500Y0126000D02*
X0126000Y0123500D01*
X0126000Y0118500D01*
X0123500Y0116000D01*
X0108500Y0116000D01*
X0106000Y0118500D01*
X0106000Y0123500D01*
X0108500Y0126000D01*
X0108500Y0116000D02*
X0106000Y0113500D01*
X0106000Y0108500D01*
X0108500Y0106000D01*
X0123500Y0106000D01*
X0126000Y0108500D01*
X0126000Y0113500D01*
X0123500Y0116000D01*
X0123500Y0081000D02*
X0108500Y0081000D01*
X0106000Y0078500D01*
X0106000Y0073500D01*
X0108500Y0071000D01*
X0123500Y0071000D01*
X0126000Y0073500D01*
X0126000Y0078500D01*
X0123500Y0081000D01*
X0123500Y0071000D02*
X0126000Y0068500D01*
X0126000Y0063500D01*
X0123500Y0061000D01*
X0108500Y0061000D01*
X0106000Y0063500D01*
X0106000Y0068500D01*
X0108500Y0071000D01*
X0108500Y0061000D02*
X0106000Y0058500D01*
X0106000Y0053500D01*
X0108500Y0051000D01*
X0123500Y0051000D01*
X0126000Y0053500D01*
X0126000Y0058500D01*
X0123500Y0061000D01*
X0123500Y0051000D02*
X0126000Y0048500D01*
X0126000Y0043500D01*
X0123500Y0041000D01*
X0108500Y0041000D01*
X0106000Y0043500D01*
X0106000Y0048500D01*
X0108500Y0051000D01*
X0098500Y0031000D02*
X0093500Y0031000D01*
X0091000Y0028500D01*
X0091000Y0013500D01*
X0088500Y0011000D01*
X0083500Y0011000D01*
X0081000Y0013500D01*
X0081000Y0028500D01*
X0078500Y0031000D01*
X0073500Y0031000D01*
X0071000Y0028500D01*
X0071000Y0013500D01*
X0068500Y0011000D01*
X0063500Y0011000D01*
X0061000Y0013500D01*
X0061000Y0028500D01*
X0058500Y0031000D01*
X0053500Y0031000D01*
X0051000Y0028500D01*
X0048500Y0031000D01*
X0043500Y0031000D01*
X0041000Y0028500D01*
X0041000Y0013500D01*
X0043500Y0011000D01*
X0048500Y0011000D01*
X0051000Y0013500D01*
X0051000Y0028500D01*
X0051000Y0013500D02*
X0053500Y0011000D01*
X0058500Y0011000D01*
X0061000Y0013500D01*
X0061000Y0028500D02*
X0063500Y0031000D01*
X0068500Y0031000D01*
X0071000Y0028500D01*
X0071000Y0013500D02*
X0073500Y0011000D01*
X0078500Y0011000D01*
X0081000Y0013500D01*
X0081000Y0028500D02*
X0083500Y0031000D01*
X0088500Y0031000D01*
X0091000Y0028500D01*
X0098500Y0031000D02*
X0101000Y0028500D01*
X0101000Y0013500D01*
X0098500Y0011000D01*
X0093500Y0011000D01*
X0091000Y0013500D01*
X0146000Y0043500D02*
X0146000Y0048500D01*
X0148500Y0051000D01*
X0163500Y0051000D01*
X0166000Y0053500D01*
X0166000Y0058500D01*
X0163500Y0061000D01*
X0148500Y0061000D01*
X0146000Y0063500D01*
X0146000Y0068500D01*
X0148500Y0071000D01*
X0146000Y0073500D01*
X0146000Y0078500D01*
X0148500Y0081000D01*
X0163500Y0081000D01*
X0166000Y0078500D01*
X0166000Y0073500D01*
X0163500Y0071000D01*
X0148500Y0071000D01*
X0148500Y0061000D02*
X0146000Y0058500D01*
X0146000Y0053500D01*
X0148500Y0051000D01*
X0146000Y0043500D02*
X0148500Y0041000D01*
X0163500Y0041000D01*
X0166000Y0043500D01*
X0166000Y0048500D01*
X0163500Y0051000D01*
X0163500Y0061000D02*
X0166000Y0063500D01*
X0166000Y0068500D01*
X0163500Y0071000D01*
X0163500Y0096000D02*
X0148500Y0096000D01*
X0146000Y0098500D01*
X0146000Y0103500D01*
X0148500Y0106000D01*
X0163500Y0106000D01*
X0166000Y0108500D01*
X0166000Y0113500D01*
X0163500Y0116000D01*
X0148500Y0116000D01*
X0146000Y0118500D01*
X0146000Y0123500D01*
X0148500Y0126000D01*
X0146000Y0128500D01*
X0146000Y0133500D01*
X0148500Y0136000D01*
X0163500Y0136000D01*
X0166000Y0133500D01*
X0166000Y0128500D01*
X0163500Y0126000D01*
X0148500Y0126000D01*
X0148500Y0116000D02*
X0146000Y0113500D01*
X0146000Y0108500D01*
X0148500Y0106000D01*
X0163500Y0106000D02*
X0166000Y0103500D01*
X0166000Y0098500D01*
X0163500Y0096000D01*
X0163500Y0116000D02*
X0166000Y0118500D01*
X0166000Y0123500D01*
X0163500Y0126000D01*
D15*
X0143250Y0112314D02*
X0143250Y0110812D01*
X0142499Y0110062D01*
X0139497Y0113064D01*
X0142499Y0113064D01*
X0143250Y0112314D01*
X0142499Y0110062D02*
X0139497Y0110062D01*
X0138746Y0110812D01*
X0138746Y0112314D01*
X0139497Y0113064D01*
X0143250Y0108460D02*
X0143250Y0105458D01*
X0143250Y0106959D02*
X0138746Y0106959D01*
X0140247Y0105458D01*
X0139497Y0103856D02*
X0140998Y0103856D01*
X0141749Y0103106D01*
X0141749Y0100854D01*
X0143250Y0100854D02*
X0138746Y0100854D01*
X0138746Y0103106D01*
X0139497Y0103856D01*
X0138746Y0099253D02*
X0138746Y0097751D01*
X0138746Y0098502D02*
X0142499Y0098502D01*
X0143250Y0097751D01*
X0143250Y0097001D01*
X0142499Y0096250D01*
X0143250Y0058064D02*
X0143250Y0055062D01*
X0143250Y0056563D02*
X0138746Y0056563D01*
X0140247Y0055062D01*
X0143250Y0053460D02*
X0143250Y0050458D01*
X0143250Y0051959D02*
X0138746Y0051959D01*
X0140247Y0050458D01*
X0139497Y0048856D02*
X0140998Y0048856D01*
X0141749Y0048106D01*
X0141749Y0045854D01*
X0143250Y0045854D02*
X0138746Y0045854D01*
X0138746Y0048106D01*
X0139497Y0048856D01*
X0138746Y0044253D02*
X0138746Y0042751D01*
X0138746Y0043502D02*
X0142499Y0043502D01*
X0143250Y0042751D01*
X0143250Y0042001D01*
X0142499Y0041250D01*
X0103250Y0042001D02*
X0103250Y0042751D01*
X0102499Y0043502D01*
X0098746Y0043502D01*
X0098746Y0042751D02*
X0098746Y0044253D01*
X0098746Y0045854D02*
X0098746Y0048106D01*
X0099497Y0048856D01*
X0100998Y0048856D01*
X0101749Y0048106D01*
X0101749Y0045854D01*
X0103250Y0045854D02*
X0098746Y0045854D01*
X0099497Y0050458D02*
X0098746Y0051208D01*
X0098746Y0052710D01*
X0099497Y0053460D01*
X0100247Y0053460D01*
X0100998Y0052710D01*
X0100998Y0051208D01*
X0100247Y0050458D01*
X0099497Y0050458D01*
X0100998Y0051208D02*
X0101749Y0050458D01*
X0102499Y0050458D01*
X0103250Y0051208D01*
X0103250Y0052710D01*
X0102499Y0053460D01*
X0101749Y0053460D01*
X0100998Y0052710D01*
X0103250Y0042001D02*
X0102499Y0041250D01*
X0098898Y0008254D02*
X0097397Y0008254D01*
X0096646Y0007503D01*
X0096646Y0006753D01*
X0097397Y0006002D01*
X0099649Y0006002D01*
X0099649Y0004501D02*
X0099649Y0007503D01*
X0098898Y0008254D01*
X0099649Y0004501D02*
X0098898Y0003750D01*
X0097397Y0003750D01*
X0096646Y0004501D01*
X0095045Y0006002D02*
X0095045Y0007503D01*
X0094294Y0008254D01*
X0092042Y0008254D01*
X0092042Y0003750D01*
X0092042Y0005251D02*
X0094294Y0005251D01*
X0095045Y0006002D01*
X0090441Y0008254D02*
X0088939Y0008254D01*
X0089690Y0008254D02*
X0089690Y0004501D01*
X0088939Y0003750D01*
X0088189Y0003750D01*
X0087438Y0004501D01*
X0102499Y0106250D02*
X0103250Y0107001D01*
X0103250Y0107751D01*
X0102499Y0108502D01*
X0098746Y0108502D01*
X0098746Y0107751D02*
X0098746Y0109253D01*
X0098746Y0110854D02*
X0098746Y0113106D01*
X0099497Y0113856D01*
X0100998Y0113856D01*
X0101749Y0113106D01*
X0101749Y0110854D01*
X0103250Y0110854D02*
X0098746Y0110854D01*
X0100998Y0115458D02*
X0099497Y0116959D01*
X0098746Y0118460D01*
X0100998Y0117710D02*
X0100998Y0115458D01*
X0102499Y0115458D01*
X0103250Y0116208D01*
X0103250Y0117710D01*
X0102499Y0118460D01*
X0101749Y0118460D01*
X0100998Y0117710D01*
X0102499Y0171250D02*
X0103250Y0172001D01*
X0103250Y0172751D01*
X0102499Y0173502D01*
X0098746Y0173502D01*
X0098746Y0172751D02*
X0098746Y0174253D01*
X0098746Y0175854D02*
X0098746Y0178106D01*
X0099497Y0178856D01*
X0100998Y0178856D01*
X0101749Y0178106D01*
X0101749Y0175854D01*
X0103250Y0175854D02*
X0098746Y0175854D01*
X0100998Y0180458D02*
X0098746Y0182710D01*
X0103250Y0182710D01*
X0100998Y0183460D02*
X0100998Y0180458D01*
X0102499Y0236250D02*
X0103250Y0237001D01*
X0103250Y0237751D01*
X0102499Y0238502D01*
X0098746Y0238502D01*
X0098746Y0237751D02*
X0098746Y0239253D01*
X0098746Y0240854D02*
X0098746Y0243106D01*
X0099497Y0243856D01*
X0100998Y0243856D01*
X0101749Y0243106D01*
X0101749Y0240854D01*
X0103250Y0240854D02*
X0098746Y0240854D01*
X0099497Y0245458D02*
X0098746Y0246208D01*
X0098746Y0247710D01*
X0099497Y0248460D01*
X0100247Y0248460D01*
X0103250Y0245458D01*
X0103250Y0248460D01*
M02*
