%FSLAX46Y46*%
G04 Gerber Fmt 4.6, Leading zero omitted, Abs format (unit mm)*
G04 Created by KiCad (PCBNEW (2014-jul-16 BZR unknown)-product) date Tue 14 Oct 2014 06:58:31 PM EDT*
%MOMM*%
G01*
G04 APERTURE LIST*
%ADD10C,0.100000*%
%ADD11R,1.198880X1.501140*%
%ADD12R,1.727200X1.727200*%
%ADD13O,1.727200X1.727200*%
%ADD14R,1.501140X1.198880*%
%ADD15R,1.498600X1.300480*%
%ADD16R,1.300480X1.498600*%
%ADD17R,0.406400X1.270000*%
%ADD18R,3.780000X1.200000*%
%ADD19R,1.270000X0.406400*%
%ADD20R,1.200000X3.780000*%
G04 APERTURE END LIST*
D10*
D11*
X161750000Y-62199520D03*
X161750000Y-64800480D03*
D12*
X116730000Y-64190000D03*
D13*
X119270000Y-64190000D03*
X116730000Y-66730000D03*
X119270000Y-66730000D03*
X116730000Y-69270000D03*
X119270000Y-69270000D03*
X116730000Y-71810000D03*
X119270000Y-71810000D03*
D12*
X116730000Y-81690000D03*
D13*
X119270000Y-81690000D03*
X116730000Y-84230000D03*
X119270000Y-84230000D03*
X116730000Y-86770000D03*
X119270000Y-86770000D03*
X116730000Y-89310000D03*
X119270000Y-89310000D03*
D12*
X116480000Y-99690000D03*
D13*
X119020000Y-99690000D03*
X116480000Y-102230000D03*
X119020000Y-102230000D03*
X116480000Y-104770000D03*
X119020000Y-104770000D03*
X116480000Y-107310000D03*
X119020000Y-107310000D03*
D12*
X159685000Y-79605000D03*
D13*
X159685000Y-82145000D03*
X157145000Y-79605000D03*
X157145000Y-82145000D03*
X154605000Y-79605000D03*
X154605000Y-82145000D03*
X152065000Y-79605000D03*
X152065000Y-82145000D03*
D12*
X144770000Y-71810000D03*
D13*
X142230000Y-71810000D03*
X144770000Y-69270000D03*
X142230000Y-69270000D03*
X144770000Y-66730000D03*
X142230000Y-66730000D03*
X144770000Y-64190000D03*
X142230000Y-64190000D03*
D12*
X144770000Y-89310000D03*
D13*
X142230000Y-89310000D03*
X144770000Y-86770000D03*
X142230000Y-86770000D03*
X144770000Y-84230000D03*
X142230000Y-84230000D03*
X144770000Y-81690000D03*
X142230000Y-81690000D03*
D12*
X144520000Y-107310000D03*
D13*
X141980000Y-107310000D03*
X144520000Y-104770000D03*
X141980000Y-104770000D03*
X144520000Y-102230000D03*
X141980000Y-102230000D03*
X144520000Y-99690000D03*
X141980000Y-99690000D03*
D12*
X152065000Y-107645000D03*
D13*
X152065000Y-105105000D03*
X154605000Y-107645000D03*
X154605000Y-105105000D03*
X157145000Y-107645000D03*
X157145000Y-105105000D03*
X159685000Y-107645000D03*
X159685000Y-105105000D03*
D14*
X131199520Y-60000000D03*
X133800480Y-60000000D03*
X131699520Y-78500000D03*
X134300480Y-78500000D03*
D11*
X132500000Y-96199520D03*
X132500000Y-98800480D03*
X160625000Y-93324520D03*
X160625000Y-95925480D03*
D15*
X128500000Y-60047500D03*
X128500000Y-61952500D03*
X128500000Y-78547500D03*
X128500000Y-80452500D03*
X128250000Y-96047500D03*
X128250000Y-97952500D03*
D16*
X160672500Y-91125000D03*
X162577500Y-91125000D03*
D12*
X167230000Y-62690000D03*
D13*
X169770000Y-62690000D03*
X167230000Y-65230000D03*
X169770000Y-65230000D03*
X167230000Y-67770000D03*
X169770000Y-67770000D03*
X167230000Y-70310000D03*
X169770000Y-70310000D03*
D12*
X167480000Y-75690000D03*
D13*
X170020000Y-75690000D03*
X167480000Y-78230000D03*
X170020000Y-78230000D03*
X167480000Y-80770000D03*
X170020000Y-80770000D03*
X167480000Y-83310000D03*
X170020000Y-83310000D03*
D12*
X158810000Y-63230000D03*
D13*
X158810000Y-65770000D03*
X156270000Y-63230000D03*
X156270000Y-65770000D03*
X153730000Y-63230000D03*
X153730000Y-65770000D03*
X151190000Y-63230000D03*
X151190000Y-65770000D03*
D17*
X158066000Y-89819000D03*
X157431000Y-89819000D03*
X156770600Y-89819000D03*
X156110200Y-89819000D03*
X155475200Y-89819000D03*
X154814800Y-89819000D03*
X154154400Y-89819000D03*
X153519400Y-89819000D03*
X152859000Y-89819000D03*
X152224000Y-89819000D03*
X151563600Y-89819000D03*
X150903200Y-89819000D03*
X150268200Y-89819000D03*
X149607800Y-89819000D03*
X149607800Y-96931000D03*
X150268200Y-96931000D03*
X150877800Y-96931000D03*
X151563600Y-96931000D03*
X152224000Y-96931000D03*
X152859000Y-96931000D03*
X153519400Y-96931000D03*
X154154400Y-96931000D03*
X154814800Y-96931000D03*
X155475200Y-96931000D03*
X156110200Y-96931000D03*
X156770600Y-96931000D03*
X157431000Y-96931000D03*
X158066000Y-96931000D03*
D18*
X153875000Y-93375000D03*
D19*
X126694000Y-101309000D03*
X126694000Y-101944000D03*
X126694000Y-102604400D03*
X126694000Y-103264800D03*
X126694000Y-103899800D03*
X126694000Y-104560200D03*
X126694000Y-105220600D03*
X126694000Y-105855600D03*
X126694000Y-106516000D03*
X126694000Y-107151000D03*
X126694000Y-107811400D03*
X126694000Y-108471800D03*
X126694000Y-109106800D03*
X126694000Y-109767200D03*
X133806000Y-109767200D03*
X133806000Y-109106800D03*
X133806000Y-108497200D03*
X133806000Y-107811400D03*
X133806000Y-107151000D03*
X133806000Y-106516000D03*
X133806000Y-105855600D03*
X133806000Y-105220600D03*
X133806000Y-104560200D03*
X133806000Y-103899800D03*
X133806000Y-103264800D03*
X133806000Y-102604400D03*
X133806000Y-101944000D03*
X133806000Y-101309000D03*
D20*
X130250000Y-105500000D03*
D19*
X126944000Y-83309000D03*
X126944000Y-83944000D03*
X126944000Y-84604400D03*
X126944000Y-85264800D03*
X126944000Y-85899800D03*
X126944000Y-86560200D03*
X126944000Y-87220600D03*
X126944000Y-87855600D03*
X126944000Y-88516000D03*
X126944000Y-89151000D03*
X126944000Y-89811400D03*
X126944000Y-90471800D03*
X126944000Y-91106800D03*
X126944000Y-91767200D03*
X134056000Y-91767200D03*
X134056000Y-91106800D03*
X134056000Y-90497200D03*
X134056000Y-89811400D03*
X134056000Y-89151000D03*
X134056000Y-88516000D03*
X134056000Y-87855600D03*
X134056000Y-87220600D03*
X134056000Y-86560200D03*
X134056000Y-85899800D03*
X134056000Y-85264800D03*
X134056000Y-84604400D03*
X134056000Y-83944000D03*
X134056000Y-83309000D03*
D20*
X130500000Y-87500000D03*
D19*
X127444000Y-65809000D03*
X127444000Y-66444000D03*
X127444000Y-67104400D03*
X127444000Y-67764800D03*
X127444000Y-68399800D03*
X127444000Y-69060200D03*
X127444000Y-69720600D03*
X127444000Y-70355600D03*
X127444000Y-71016000D03*
X127444000Y-71651000D03*
X127444000Y-72311400D03*
X127444000Y-72971800D03*
X127444000Y-73606800D03*
X127444000Y-74267200D03*
X134556000Y-74267200D03*
X134556000Y-73606800D03*
X134556000Y-72997200D03*
X134556000Y-72311400D03*
X134556000Y-71651000D03*
X134556000Y-71016000D03*
X134556000Y-70355600D03*
X134556000Y-69720600D03*
X134556000Y-69060200D03*
X134556000Y-68399800D03*
X134556000Y-67764800D03*
X134556000Y-67104400D03*
X134556000Y-66444000D03*
X134556000Y-65809000D03*
D20*
X131000000Y-70000000D03*
M02*
