%FSLAX46Y46*%
G04 Gerber Fmt 4.6, Leading zero omitted, Abs format (unit mm)*
G04 Created by KiCad (PCBNEW (2014-jul-16 BZR unknown)-product) date Tue 14 Oct 2014 06:58:31 PM EDT*
%MOMM*%
G01*
G04 APERTURE LIST*
%ADD10C,0.100000*%
%ADD11R,1.727200X1.727200*%
%ADD12O,1.727200X1.727200*%
%ADD13C,0.889000*%
%ADD14C,0.254000*%
G04 APERTURE END LIST*
D10*
D11*
X116730000Y-64190000D03*
D12*
X119270000Y-64190000D03*
X116730000Y-66730000D03*
X119270000Y-66730000D03*
X116730000Y-69270000D03*
X119270000Y-69270000D03*
X116730000Y-71810000D03*
X119270000Y-71810000D03*
D11*
X116730000Y-81690000D03*
D12*
X119270000Y-81690000D03*
X116730000Y-84230000D03*
X119270000Y-84230000D03*
X116730000Y-86770000D03*
X119270000Y-86770000D03*
X116730000Y-89310000D03*
X119270000Y-89310000D03*
D11*
X116480000Y-99690000D03*
D12*
X119020000Y-99690000D03*
X116480000Y-102230000D03*
X119020000Y-102230000D03*
X116480000Y-104770000D03*
X119020000Y-104770000D03*
X116480000Y-107310000D03*
X119020000Y-107310000D03*
D11*
X159685000Y-79605000D03*
D12*
X159685000Y-82145000D03*
X157145000Y-79605000D03*
X157145000Y-82145000D03*
X154605000Y-79605000D03*
X154605000Y-82145000D03*
X152065000Y-79605000D03*
X152065000Y-82145000D03*
D11*
X144770000Y-71810000D03*
D12*
X142230000Y-71810000D03*
X144770000Y-69270000D03*
X142230000Y-69270000D03*
X144770000Y-66730000D03*
X142230000Y-66730000D03*
X144770000Y-64190000D03*
X142230000Y-64190000D03*
D11*
X144770000Y-89310000D03*
D12*
X142230000Y-89310000D03*
X144770000Y-86770000D03*
X142230000Y-86770000D03*
X144770000Y-84230000D03*
X142230000Y-84230000D03*
X144770000Y-81690000D03*
X142230000Y-81690000D03*
D11*
X144520000Y-107310000D03*
D12*
X141980000Y-107310000D03*
X144520000Y-104770000D03*
X141980000Y-104770000D03*
X144520000Y-102230000D03*
X141980000Y-102230000D03*
X144520000Y-99690000D03*
X141980000Y-99690000D03*
D11*
X152065000Y-107645000D03*
D12*
X152065000Y-105105000D03*
X154605000Y-107645000D03*
X154605000Y-105105000D03*
X157145000Y-107645000D03*
X157145000Y-105105000D03*
X159685000Y-107645000D03*
X159685000Y-105105000D03*
D11*
X167230000Y-62690000D03*
D12*
X169770000Y-62690000D03*
X167230000Y-65230000D03*
X169770000Y-65230000D03*
X167230000Y-67770000D03*
X169770000Y-67770000D03*
X167230000Y-70310000D03*
X169770000Y-70310000D03*
D11*
X167480000Y-75690000D03*
D12*
X170020000Y-75690000D03*
X167480000Y-78230000D03*
X170020000Y-78230000D03*
X167480000Y-80770000D03*
X170020000Y-80770000D03*
X167480000Y-83310000D03*
X170020000Y-83310000D03*
D11*
X158810000Y-63230000D03*
D12*
X158810000Y-65770000D03*
X156270000Y-63230000D03*
X156270000Y-65770000D03*
X153730000Y-63230000D03*
X153730000Y-65770000D03*
X151190000Y-63230000D03*
X151190000Y-65770000D03*
D13*
X133570800Y-95982100D03*
X158033500Y-90995000D03*
X131699500Y-77423600D03*
X129722800Y-78588600D03*
X127806400Y-101085600D03*
X131199500Y-61079400D03*
X128563500Y-65578500D03*
X127251900Y-59802700D03*
X129507700Y-96084400D03*
X126944000Y-82604500D03*
X130148000Y-67191900D03*
X156627300Y-88599900D03*
X157511200Y-86600300D03*
X125586400Y-85707900D03*
X132980800Y-69569900D03*
X155587500Y-95691400D03*
X156155100Y-99151100D03*
X135757700Y-92127100D03*
X126757100Y-92844300D03*
D14*
X119447000Y-81317200D02*
X119270000Y-81494200D01*
X119270000Y-81494200D02*
X119270000Y-81690000D01*
X119447000Y-81317200D02*
X119447000Y-81547900D01*
X119447000Y-81086500D02*
X119447000Y-81317200D01*
X158810000Y-63230000D02*
X157692400Y-63230000D01*
X157692400Y-63230000D02*
X157692400Y-63101400D01*
X157692400Y-63101400D02*
X156793000Y-62202000D01*
X156793000Y-62202000D02*
X135137900Y-62202000D01*
X135137900Y-62202000D02*
X130148000Y-67191900D01*
X151190000Y-63230000D02*
X151190000Y-64347600D01*
X151190000Y-64347600D02*
X151329800Y-64347600D01*
X151329800Y-64347600D02*
X152307600Y-65325400D01*
X152307600Y-65325400D02*
X152307600Y-65820100D01*
X152307600Y-65820100D02*
X156010600Y-69523100D01*
X156010600Y-69523100D02*
X156010600Y-87983200D01*
X156010600Y-87983200D02*
X156627300Y-88599900D01*
X156270000Y-63230000D02*
X156270000Y-64347600D01*
X156270000Y-64347600D02*
X156155600Y-64347600D01*
X156155600Y-64347600D02*
X155253700Y-65249500D01*
X155253700Y-65249500D02*
X155253700Y-68254200D01*
X155253700Y-68254200D02*
X158161400Y-71161900D01*
X158161400Y-71161900D02*
X158161400Y-85950100D01*
X158161400Y-85950100D02*
X157511200Y-86600300D01*
X132980800Y-69569900D02*
X125586400Y-76964300D01*
X125586400Y-76964300D02*
X125586400Y-85707900D01*
X158810000Y-65770000D02*
X158810000Y-66887600D01*
X158810000Y-66887600D02*
X158668700Y-67028900D01*
X158668700Y-67028900D02*
X158668700Y-92610200D01*
X158668700Y-92610200D02*
X155587500Y-95691400D01*
X151190000Y-65770000D02*
X151190000Y-66887600D01*
X156155100Y-99151100D02*
X153335000Y-96331000D01*
X153335000Y-96331000D02*
X153335000Y-69032600D01*
X153335000Y-69032600D02*
X151190000Y-66887600D01*
X167230000Y-62690000D02*
X167230000Y-63807600D01*
X167480000Y-75690000D02*
X167480000Y-74572400D01*
X167480000Y-74572400D02*
X168253700Y-73798700D01*
X168253700Y-73798700D02*
X168253700Y-64703200D01*
X168253700Y-64703200D02*
X167358100Y-63807600D01*
X167358100Y-63807600D02*
X167230000Y-63807600D01*
X169770000Y-62690000D02*
X169770000Y-63807600D01*
X170020000Y-75690000D02*
X170020000Y-74572400D01*
X170020000Y-74572400D02*
X170822000Y-73770400D01*
X170822000Y-73770400D02*
X170822000Y-64728400D01*
X170822000Y-64728400D02*
X169901200Y-63807600D01*
X169901200Y-63807600D02*
X169770000Y-63807600D01*
X167230000Y-65230000D02*
X167230000Y-66347600D01*
X167480000Y-78230000D02*
X167480000Y-77112400D01*
X167480000Y-77112400D02*
X166921200Y-77112400D01*
X166921200Y-77112400D02*
X166182600Y-76373800D01*
X166182600Y-76373800D02*
X166182600Y-67254600D01*
X166182600Y-67254600D02*
X167089600Y-66347600D01*
X167089600Y-66347600D02*
X167230000Y-66347600D01*
X169770000Y-65230000D02*
X169770000Y-64112400D01*
X170020000Y-78230000D02*
X170020000Y-77112400D01*
X170020000Y-77112400D02*
X170159700Y-77112400D01*
X170159700Y-77112400D02*
X171143700Y-76128400D01*
X171143700Y-76128400D02*
X171143700Y-62591500D01*
X171143700Y-62591500D02*
X170225200Y-61673000D01*
X170225200Y-61673000D02*
X169303100Y-61673000D01*
X169303100Y-61673000D02*
X168712000Y-62264100D01*
X168712000Y-62264100D02*
X168712000Y-63173600D01*
X168712000Y-63173600D02*
X169650800Y-64112400D01*
X169650800Y-64112400D02*
X169770000Y-64112400D01*
X169770000Y-67770000D02*
X169770000Y-68887600D01*
X170020000Y-80770000D02*
X170020000Y-79652400D01*
X170020000Y-79652400D02*
X169902000Y-79652400D01*
X169902000Y-79652400D02*
X168745200Y-78495600D01*
X168745200Y-78495600D02*
X168745200Y-69819500D01*
X168745200Y-69819500D02*
X169677100Y-68887600D01*
X169677100Y-68887600D02*
X169770000Y-68887600D01*
X126757100Y-92844300D02*
X135040500Y-92844300D01*
X135040500Y-92844300D02*
X135757700Y-92127100D01*
G36*
X157367931Y-66201800D02*
X156701800Y-66201800D01*
X156701800Y-66633600D01*
X156015700Y-66633600D01*
X156015700Y-65565130D01*
X156521197Y-65059633D01*
X156561605Y-65051596D01*
X156701800Y-64957920D01*
X156701800Y-65338200D01*
X157367931Y-65338200D01*
X157282041Y-65770000D01*
X157367931Y-66201800D01*
X157367931Y-66201800D01*
G37*
X157367931Y-66201800D02*
X156701800Y-66201800D01*
X156701800Y-66633600D01*
X156015700Y-66633600D01*
X156015700Y-65565130D01*
X156521197Y-65059633D01*
X156561605Y-65051596D01*
X156701800Y-64957920D01*
X156701800Y-65338200D01*
X157367931Y-65338200D01*
X157282041Y-65770000D01*
X157367931Y-66201800D01*
G36*
X174373000Y-112123000D02*
X173377000Y-112123000D01*
X173377000Y-88127000D01*
X173377000Y-58373000D01*
X162873000Y-58373000D01*
X162873000Y-88127000D01*
X173377000Y-88127000D01*
X173377000Y-112123000D01*
X173250000Y-112123000D01*
X162183126Y-112123000D01*
X162183126Y-67143730D01*
X161019261Y-66201800D01*
X160252068Y-66201800D01*
X160337959Y-65770000D01*
X160252068Y-65338200D01*
X161019261Y-65338200D01*
X162183126Y-64396270D01*
X161422591Y-62560158D01*
X159802020Y-60832681D01*
X157643731Y-59856866D01*
X156701800Y-61016518D01*
X156701800Y-61440000D01*
X155838200Y-61440000D01*
X155838200Y-61016518D01*
X154896269Y-59856866D01*
X152737980Y-60832681D01*
X152168245Y-61440000D01*
X135137900Y-61440000D01*
X134846295Y-61498004D01*
X134599084Y-61663185D01*
X130149869Y-66112400D01*
X129934216Y-66112213D01*
X129537311Y-66276211D01*
X129233378Y-66579614D01*
X129068687Y-66976232D01*
X129068313Y-67405684D01*
X129232311Y-67802589D01*
X129535714Y-68106522D01*
X129932332Y-68271213D01*
X130361784Y-68271587D01*
X130758689Y-68107589D01*
X131062622Y-67804186D01*
X131227313Y-67407568D01*
X131227502Y-67190027D01*
X135453530Y-62964000D01*
X141375321Y-62964000D01*
X141170330Y-63100971D01*
X140845474Y-63587152D01*
X140731400Y-64160641D01*
X140731400Y-64219359D01*
X140845474Y-64792848D01*
X141170330Y-65279029D01*
X141441172Y-65460000D01*
X141170330Y-65640971D01*
X140845474Y-66127152D01*
X140731400Y-66700641D01*
X140731400Y-66759359D01*
X140845474Y-67332848D01*
X141170330Y-67819029D01*
X141441172Y-68000000D01*
X141170330Y-68180971D01*
X140845474Y-68667152D01*
X140731400Y-69240641D01*
X140731400Y-69299359D01*
X140845474Y-69872848D01*
X141170330Y-70359029D01*
X141441172Y-70540000D01*
X141170330Y-70720971D01*
X140845474Y-71207152D01*
X140731400Y-71780641D01*
X140731400Y-71839359D01*
X140845474Y-72412848D01*
X141170330Y-72899029D01*
X141656511Y-73223885D01*
X142230000Y-73337959D01*
X142803489Y-73223885D01*
X143289670Y-72899029D01*
X143303736Y-72877976D01*
X143368073Y-73033298D01*
X143546701Y-73211927D01*
X143780090Y-73308600D01*
X144032709Y-73308600D01*
X145759909Y-73308600D01*
X145993298Y-73211927D01*
X146171927Y-73033299D01*
X146268600Y-72799910D01*
X146268600Y-72547291D01*
X146268600Y-70820091D01*
X146171927Y-70586702D01*
X145993299Y-70408073D01*
X145839473Y-70344356D01*
X146154526Y-69872848D01*
X146268600Y-69299359D01*
X146268600Y-69240641D01*
X146154526Y-68667152D01*
X145829670Y-68180971D01*
X145558827Y-68000000D01*
X145829670Y-67819029D01*
X146154526Y-67332848D01*
X146268600Y-66759359D01*
X146268600Y-66700641D01*
X146154526Y-66127152D01*
X145829670Y-65640971D01*
X145558827Y-65460000D01*
X145829670Y-65279029D01*
X146154526Y-64792848D01*
X146268600Y-64219359D01*
X146268600Y-64160641D01*
X146154526Y-63587152D01*
X145829670Y-63100971D01*
X145624678Y-62964000D01*
X149714951Y-62964000D01*
X149662041Y-63230000D01*
X149776115Y-63803489D01*
X150100971Y-64289670D01*
X150199400Y-64355438D01*
X150199400Y-64644561D01*
X150100971Y-64710330D01*
X149776115Y-65196511D01*
X149662041Y-65770000D01*
X149776115Y-66343489D01*
X150100971Y-66829670D01*
X150199400Y-66895438D01*
X150199400Y-68183002D01*
X150787350Y-68183002D01*
X151117409Y-68979842D01*
X152573000Y-70531455D01*
X152573000Y-78201607D01*
X152094359Y-78106400D01*
X152035641Y-78106400D01*
X151462152Y-78220474D01*
X150975971Y-78545330D01*
X150651115Y-79031511D01*
X150537041Y-79605000D01*
X150651115Y-80178489D01*
X150975971Y-80664670D01*
X151290751Y-80875000D01*
X150975971Y-81085330D01*
X150651115Y-81571511D01*
X150537041Y-82145000D01*
X150651115Y-82718489D01*
X150975971Y-83204670D01*
X151462152Y-83529526D01*
X152035641Y-83643600D01*
X152094359Y-83643600D01*
X152573000Y-83548392D01*
X152573000Y-96331000D01*
X152631004Y-96622605D01*
X152796185Y-96869815D01*
X155075600Y-99149231D01*
X155075413Y-99364884D01*
X155239411Y-99761789D01*
X155542814Y-100065722D01*
X155939432Y-100230413D01*
X156368884Y-100230787D01*
X156765789Y-100066789D01*
X157069722Y-99763386D01*
X157234413Y-99366768D01*
X157234787Y-98937316D01*
X157070789Y-98540411D01*
X156767386Y-98236478D01*
X156370768Y-98071787D01*
X156153228Y-98071597D01*
X154097000Y-96015369D01*
X154097000Y-83548392D01*
X154575641Y-83643600D01*
X154634359Y-83643600D01*
X155207848Y-83529526D01*
X155248600Y-83502296D01*
X155248600Y-87983200D01*
X155306604Y-88274805D01*
X155471785Y-88522015D01*
X155547800Y-88598030D01*
X155547613Y-88813684D01*
X155711611Y-89210589D01*
X156015014Y-89514522D01*
X156411632Y-89679213D01*
X156841084Y-89679587D01*
X157237989Y-89515589D01*
X157541922Y-89212186D01*
X157706613Y-88815568D01*
X157706987Y-88386116D01*
X157542989Y-87989211D01*
X157239586Y-87685278D01*
X156842968Y-87520587D01*
X156772600Y-87520525D01*
X156772600Y-87388387D01*
X156898914Y-87514922D01*
X157295532Y-87679613D01*
X157724984Y-87679987D01*
X157906700Y-87604903D01*
X157906700Y-92294570D01*
X155589369Y-94611900D01*
X155373716Y-94611713D01*
X154976811Y-94775711D01*
X154672878Y-95079114D01*
X154508187Y-95475732D01*
X154507813Y-95905184D01*
X154671811Y-96302089D01*
X154975214Y-96606022D01*
X155371832Y-96770713D01*
X155801284Y-96771087D01*
X156198189Y-96607089D01*
X156502122Y-96303686D01*
X156666813Y-95907068D01*
X156667002Y-95689527D01*
X159207515Y-93149015D01*
X159372696Y-92901805D01*
X159372696Y-92901804D01*
X159430700Y-92610200D01*
X159430700Y-83598856D01*
X159655641Y-83643600D01*
X159714359Y-83643600D01*
X160287848Y-83529526D01*
X160774029Y-83204670D01*
X161098885Y-82718489D01*
X161212959Y-82145000D01*
X161098885Y-81571511D01*
X160774029Y-81085330D01*
X160752976Y-81071263D01*
X160908298Y-81006927D01*
X161086927Y-80828299D01*
X161183600Y-80594910D01*
X161183600Y-80342291D01*
X161183600Y-78615091D01*
X161086927Y-78381702D01*
X160908299Y-78203073D01*
X160674910Y-78106400D01*
X160422291Y-78106400D01*
X159430700Y-78106400D01*
X159430700Y-70875201D01*
X159802020Y-70707319D01*
X161422591Y-68979842D01*
X162183126Y-67143730D01*
X162183126Y-112123000D01*
X161212959Y-112123000D01*
X161212959Y-107645000D01*
X161098885Y-107071511D01*
X160774029Y-106585330D01*
X160459248Y-106375000D01*
X160774029Y-106164670D01*
X161098885Y-105678489D01*
X161212959Y-105105000D01*
X161098885Y-104531511D01*
X160774029Y-104045330D01*
X160287848Y-103720474D01*
X159714359Y-103606400D01*
X159655641Y-103606400D01*
X159082152Y-103720474D01*
X158595971Y-104045330D01*
X158415000Y-104316172D01*
X158234029Y-104045330D01*
X157747848Y-103720474D01*
X157174359Y-103606400D01*
X157115641Y-103606400D01*
X156542152Y-103720474D01*
X156055971Y-104045330D01*
X155875000Y-104316172D01*
X155694029Y-104045330D01*
X155207848Y-103720474D01*
X154634359Y-103606400D01*
X154575641Y-103606400D01*
X154002152Y-103720474D01*
X153515971Y-104045330D01*
X153335000Y-104316172D01*
X153154029Y-104045330D01*
X152667848Y-103720474D01*
X152094359Y-103606400D01*
X152035641Y-103606400D01*
X151462152Y-103720474D01*
X150975971Y-104045330D01*
X150651115Y-104531511D01*
X150537041Y-105105000D01*
X150651115Y-105678489D01*
X150975971Y-106164670D01*
X150997023Y-106178736D01*
X150841702Y-106243073D01*
X150663073Y-106421701D01*
X150566400Y-106655090D01*
X150566400Y-106907709D01*
X150566400Y-108634909D01*
X150663073Y-108868298D01*
X150841701Y-109046927D01*
X151075090Y-109143600D01*
X151327709Y-109143600D01*
X153054909Y-109143600D01*
X153288298Y-109046927D01*
X153466927Y-108868299D01*
X153530643Y-108714473D01*
X154002152Y-109029526D01*
X154575641Y-109143600D01*
X154634359Y-109143600D01*
X155207848Y-109029526D01*
X155694029Y-108704670D01*
X155875000Y-108433827D01*
X156055971Y-108704670D01*
X156542152Y-109029526D01*
X157115641Y-109143600D01*
X157174359Y-109143600D01*
X157747848Y-109029526D01*
X158234029Y-108704670D01*
X158415000Y-108433827D01*
X158595971Y-108704670D01*
X159082152Y-109029526D01*
X159655641Y-109143600D01*
X159714359Y-109143600D01*
X160287848Y-109029526D01*
X160774029Y-108704670D01*
X161098885Y-108218489D01*
X161212959Y-107645000D01*
X161212959Y-112123000D01*
X146268600Y-112123000D01*
X146268600Y-90299910D01*
X146268600Y-90047291D01*
X146268600Y-88320091D01*
X146171927Y-88086702D01*
X145993299Y-87908073D01*
X145839473Y-87844356D01*
X146154526Y-87372848D01*
X146268600Y-86799359D01*
X146268600Y-86740641D01*
X146154526Y-86167152D01*
X145829670Y-85680971D01*
X145558827Y-85500000D01*
X145829670Y-85319029D01*
X146154526Y-84832848D01*
X146268600Y-84259359D01*
X146268600Y-84200641D01*
X146154526Y-83627152D01*
X145829670Y-83140971D01*
X145558827Y-82960000D01*
X145829670Y-82779029D01*
X146154526Y-82292848D01*
X146268600Y-81719359D01*
X146268600Y-81660641D01*
X146154526Y-81087152D01*
X145829670Y-80600971D01*
X145343489Y-80276115D01*
X144770000Y-80162041D01*
X144196511Y-80276115D01*
X143710330Y-80600971D01*
X143500000Y-80915751D01*
X143289670Y-80600971D01*
X142803489Y-80276115D01*
X142230000Y-80162041D01*
X141656511Y-80276115D01*
X141170330Y-80600971D01*
X140845474Y-81087152D01*
X140731400Y-81660641D01*
X140731400Y-81719359D01*
X140845474Y-82292848D01*
X141170330Y-82779029D01*
X141441172Y-82960000D01*
X141170330Y-83140971D01*
X140845474Y-83627152D01*
X140731400Y-84200641D01*
X140731400Y-84259359D01*
X140845474Y-84832848D01*
X141170330Y-85319029D01*
X141441172Y-85500000D01*
X141170330Y-85680971D01*
X140845474Y-86167152D01*
X140731400Y-86740641D01*
X140731400Y-86799359D01*
X140845474Y-87372848D01*
X141170330Y-87859029D01*
X141441172Y-88040000D01*
X141170330Y-88220971D01*
X140845474Y-88707152D01*
X140731400Y-89280641D01*
X140731400Y-89339359D01*
X140845474Y-89912848D01*
X141170330Y-90399029D01*
X141656511Y-90723885D01*
X142230000Y-90837959D01*
X142803489Y-90723885D01*
X143289670Y-90399029D01*
X143303736Y-90377976D01*
X143368073Y-90533298D01*
X143546701Y-90711927D01*
X143780090Y-90808600D01*
X144032709Y-90808600D01*
X145759909Y-90808600D01*
X145993298Y-90711927D01*
X146171927Y-90533299D01*
X146268600Y-90299910D01*
X146268600Y-112123000D01*
X146018600Y-112123000D01*
X146018600Y-108299910D01*
X146018600Y-108047291D01*
X146018600Y-106320091D01*
X145921927Y-106086702D01*
X145743299Y-105908073D01*
X145589473Y-105844356D01*
X145904526Y-105372848D01*
X146018600Y-104799359D01*
X146018600Y-104740641D01*
X145904526Y-104167152D01*
X145579670Y-103680971D01*
X145308827Y-103500000D01*
X145579670Y-103319029D01*
X145904526Y-102832848D01*
X146018600Y-102259359D01*
X146018600Y-102200641D01*
X145904526Y-101627152D01*
X145579670Y-101140971D01*
X145308827Y-100960000D01*
X145579670Y-100779029D01*
X145904526Y-100292848D01*
X146018600Y-99719359D01*
X146018600Y-99660641D01*
X145904526Y-99087152D01*
X145579670Y-98600971D01*
X145093489Y-98276115D01*
X144520000Y-98162041D01*
X143946511Y-98276115D01*
X143460330Y-98600971D01*
X143250000Y-98915751D01*
X143039670Y-98600971D01*
X142553489Y-98276115D01*
X141980000Y-98162041D01*
X141406511Y-98276115D01*
X140920330Y-98600971D01*
X140595474Y-99087152D01*
X140481400Y-99660641D01*
X140481400Y-99719359D01*
X140595474Y-100292848D01*
X140920330Y-100779029D01*
X141191172Y-100960000D01*
X140920330Y-101140971D01*
X140595474Y-101627152D01*
X140481400Y-102200641D01*
X140481400Y-102259359D01*
X140595474Y-102832848D01*
X140920330Y-103319029D01*
X141191172Y-103500000D01*
X140920330Y-103680971D01*
X140595474Y-104167152D01*
X140481400Y-104740641D01*
X140481400Y-104799359D01*
X140595474Y-105372848D01*
X140920330Y-105859029D01*
X141191172Y-106040000D01*
X140920330Y-106220971D01*
X140595474Y-106707152D01*
X140481400Y-107280641D01*
X140481400Y-107339359D01*
X140595474Y-107912848D01*
X140920330Y-108399029D01*
X141406511Y-108723885D01*
X141980000Y-108837959D01*
X142553489Y-108723885D01*
X143039670Y-108399029D01*
X143053736Y-108377976D01*
X143118073Y-108533298D01*
X143296701Y-108711927D01*
X143530090Y-108808600D01*
X143782709Y-108808600D01*
X145509909Y-108808600D01*
X145743298Y-108711927D01*
X145921927Y-108533299D01*
X146018600Y-108299910D01*
X146018600Y-112123000D01*
X136837387Y-112123000D01*
X136837387Y-91913316D01*
X136673389Y-91516411D01*
X136369986Y-91212478D01*
X135973368Y-91047787D01*
X135543916Y-91047413D01*
X135147011Y-91211411D01*
X134843078Y-91514814D01*
X134678387Y-91911432D01*
X134678238Y-92082300D01*
X134060487Y-92082300D01*
X134060487Y-69356116D01*
X133896489Y-68959211D01*
X133593086Y-68655278D01*
X133196468Y-68490587D01*
X132767016Y-68490213D01*
X132370111Y-68654211D01*
X132066178Y-68957614D01*
X131901487Y-69354232D01*
X131901297Y-69571771D01*
X125047585Y-76425485D01*
X124882404Y-76672695D01*
X124824400Y-76964300D01*
X124824400Y-84943258D01*
X124671778Y-85095614D01*
X124507087Y-85492232D01*
X124506713Y-85921684D01*
X124670711Y-86318589D01*
X124974114Y-86622522D01*
X125370732Y-86787213D01*
X125800184Y-86787587D01*
X126197089Y-86623589D01*
X126501022Y-86320186D01*
X126665713Y-85923568D01*
X126666087Y-85494116D01*
X126502089Y-85097211D01*
X126348400Y-84943253D01*
X126348400Y-77279930D01*
X132978931Y-70649399D01*
X133194584Y-70649587D01*
X133591489Y-70485589D01*
X133895422Y-70182186D01*
X134060113Y-69785568D01*
X134060487Y-69356116D01*
X134060487Y-92082300D01*
X127521741Y-92082300D01*
X127369386Y-91929678D01*
X126972768Y-91764987D01*
X126543316Y-91764613D01*
X126146411Y-91928611D01*
X125842478Y-92232014D01*
X125677787Y-92628632D01*
X125677413Y-93058084D01*
X125841411Y-93454989D01*
X126144814Y-93758922D01*
X126541432Y-93923613D01*
X126970884Y-93923987D01*
X127367789Y-93759989D01*
X127521746Y-93606300D01*
X135040500Y-93606300D01*
X135040500Y-93606299D01*
X135332104Y-93548296D01*
X135332105Y-93548296D01*
X135579315Y-93383115D01*
X135755830Y-93206599D01*
X135971484Y-93206787D01*
X136368389Y-93042789D01*
X136672322Y-92739386D01*
X136837013Y-92342768D01*
X136837387Y-91913316D01*
X136837387Y-112123000D01*
X120768600Y-112123000D01*
X120768600Y-89339359D01*
X120768600Y-89280641D01*
X120654526Y-88707152D01*
X120329670Y-88220971D01*
X120058827Y-88040000D01*
X120329670Y-87859029D01*
X120654526Y-87372848D01*
X120768600Y-86799359D01*
X120768600Y-86740641D01*
X120654526Y-86167152D01*
X120329670Y-85680971D01*
X120058827Y-85500000D01*
X120329670Y-85319029D01*
X120654526Y-84832848D01*
X120768600Y-84259359D01*
X120768600Y-84200641D01*
X120654526Y-83627152D01*
X120329670Y-83140971D01*
X120058827Y-82960000D01*
X120329670Y-82779029D01*
X120654526Y-82292848D01*
X120768600Y-81719359D01*
X120768600Y-81660641D01*
X120768600Y-71839359D01*
X120768600Y-71780641D01*
X120654526Y-71207152D01*
X120329670Y-70720971D01*
X120058827Y-70540000D01*
X120329670Y-70359029D01*
X120654526Y-69872848D01*
X120768600Y-69299359D01*
X120768600Y-69240641D01*
X120654526Y-68667152D01*
X120329670Y-68180971D01*
X120058827Y-68000000D01*
X120329670Y-67819029D01*
X120654526Y-67332848D01*
X120768600Y-66759359D01*
X120768600Y-66700641D01*
X120654526Y-66127152D01*
X120329670Y-65640971D01*
X120058827Y-65460000D01*
X120329670Y-65279029D01*
X120654526Y-64792848D01*
X120768600Y-64219359D01*
X120768600Y-64160641D01*
X120654526Y-63587152D01*
X120329670Y-63100971D01*
X119843489Y-62776115D01*
X119270000Y-62662041D01*
X118696511Y-62776115D01*
X118210330Y-63100971D01*
X118196263Y-63122023D01*
X118131927Y-62966702D01*
X117953299Y-62788073D01*
X117719910Y-62691400D01*
X117467291Y-62691400D01*
X115740091Y-62691400D01*
X115506702Y-62788073D01*
X115328073Y-62966701D01*
X115231400Y-63200090D01*
X115231400Y-63452709D01*
X115231400Y-65179909D01*
X115328073Y-65413298D01*
X115506701Y-65591927D01*
X115660526Y-65655643D01*
X115345474Y-66127152D01*
X115231400Y-66700641D01*
X115231400Y-66759359D01*
X115345474Y-67332848D01*
X115670330Y-67819029D01*
X115941172Y-68000000D01*
X115670330Y-68180971D01*
X115345474Y-68667152D01*
X115231400Y-69240641D01*
X115231400Y-69299359D01*
X115345474Y-69872848D01*
X115670330Y-70359029D01*
X115941172Y-70540000D01*
X115670330Y-70720971D01*
X115345474Y-71207152D01*
X115231400Y-71780641D01*
X115231400Y-71839359D01*
X115345474Y-72412848D01*
X115670330Y-72899029D01*
X116156511Y-73223885D01*
X116730000Y-73337959D01*
X117303489Y-73223885D01*
X117789670Y-72899029D01*
X118000000Y-72584248D01*
X118210330Y-72899029D01*
X118696511Y-73223885D01*
X119270000Y-73337959D01*
X119843489Y-73223885D01*
X120329670Y-72899029D01*
X120654526Y-72412848D01*
X120768600Y-71839359D01*
X120768600Y-81660641D01*
X120654526Y-81087152D01*
X120329670Y-80600971D01*
X119843489Y-80276115D01*
X119270000Y-80162041D01*
X118696511Y-80276115D01*
X118210330Y-80600971D01*
X118196263Y-80622023D01*
X118131927Y-80466702D01*
X117953299Y-80288073D01*
X117719910Y-80191400D01*
X117467291Y-80191400D01*
X115740091Y-80191400D01*
X115506702Y-80288073D01*
X115328073Y-80466701D01*
X115231400Y-80700090D01*
X115231400Y-80952709D01*
X115231400Y-82679909D01*
X115328073Y-82913298D01*
X115506701Y-83091927D01*
X115660526Y-83155643D01*
X115345474Y-83627152D01*
X115231400Y-84200641D01*
X115231400Y-84259359D01*
X115345474Y-84832848D01*
X115670330Y-85319029D01*
X115941172Y-85500000D01*
X115670330Y-85680971D01*
X115345474Y-86167152D01*
X115231400Y-86740641D01*
X115231400Y-86799359D01*
X115345474Y-87372848D01*
X115670330Y-87859029D01*
X115941172Y-88040000D01*
X115670330Y-88220971D01*
X115345474Y-88707152D01*
X115231400Y-89280641D01*
X115231400Y-89339359D01*
X115345474Y-89912848D01*
X115670330Y-90399029D01*
X116156511Y-90723885D01*
X116730000Y-90837959D01*
X117303489Y-90723885D01*
X117789670Y-90399029D01*
X118000000Y-90084248D01*
X118210330Y-90399029D01*
X118696511Y-90723885D01*
X119270000Y-90837959D01*
X119843489Y-90723885D01*
X120329670Y-90399029D01*
X120654526Y-89912848D01*
X120768600Y-89339359D01*
X120768600Y-112123000D01*
X120518600Y-112123000D01*
X120518600Y-107339359D01*
X120518600Y-107280641D01*
X120404526Y-106707152D01*
X120079670Y-106220971D01*
X119808827Y-106040000D01*
X120079670Y-105859029D01*
X120404526Y-105372848D01*
X120518600Y-104799359D01*
X120518600Y-104740641D01*
X120404526Y-104167152D01*
X120079670Y-103680971D01*
X119808827Y-103500000D01*
X120079670Y-103319029D01*
X120404526Y-102832848D01*
X120518600Y-102259359D01*
X120518600Y-102200641D01*
X120404526Y-101627152D01*
X120079670Y-101140971D01*
X119808827Y-100960000D01*
X120079670Y-100779029D01*
X120404526Y-100292848D01*
X120518600Y-99719359D01*
X120518600Y-99660641D01*
X120404526Y-99087152D01*
X120079670Y-98600971D01*
X119593489Y-98276115D01*
X119020000Y-98162041D01*
X118446511Y-98276115D01*
X117960330Y-98600971D01*
X117946263Y-98622023D01*
X117881927Y-98466702D01*
X117703299Y-98288073D01*
X117469910Y-98191400D01*
X117217291Y-98191400D01*
X115490091Y-98191400D01*
X115256702Y-98288073D01*
X115078073Y-98466701D01*
X114981400Y-98700090D01*
X114981400Y-98952709D01*
X114981400Y-100679909D01*
X115078073Y-100913298D01*
X115256701Y-101091927D01*
X115410526Y-101155643D01*
X115095474Y-101627152D01*
X114981400Y-102200641D01*
X114981400Y-102259359D01*
X115095474Y-102832848D01*
X115420330Y-103319029D01*
X115691172Y-103500000D01*
X115420330Y-103680971D01*
X115095474Y-104167152D01*
X114981400Y-104740641D01*
X114981400Y-104799359D01*
X115095474Y-105372848D01*
X115420330Y-105859029D01*
X115691172Y-106040000D01*
X115420330Y-106220971D01*
X115095474Y-106707152D01*
X114981400Y-107280641D01*
X114981400Y-107339359D01*
X115095474Y-107912848D01*
X115420330Y-108399029D01*
X115906511Y-108723885D01*
X116480000Y-108837959D01*
X117053489Y-108723885D01*
X117539670Y-108399029D01*
X117750000Y-108084248D01*
X117960330Y-108399029D01*
X118446511Y-108723885D01*
X119020000Y-108837959D01*
X119593489Y-108723885D01*
X120079670Y-108399029D01*
X120404526Y-107912848D01*
X120518600Y-107339359D01*
X120518600Y-112123000D01*
X114127000Y-112123000D01*
X114127000Y-55627000D01*
X174373000Y-55627000D01*
X174373000Y-112123000D01*
X174373000Y-112123000D01*
G37*
X174373000Y-112123000D02*
X173377000Y-112123000D01*
X173377000Y-88127000D01*
X173377000Y-58373000D01*
X162873000Y-58373000D01*
X162873000Y-88127000D01*
X173377000Y-88127000D01*
X173377000Y-112123000D01*
X173250000Y-112123000D01*
X162183126Y-112123000D01*
X162183126Y-67143730D01*
X161019261Y-66201800D01*
X160252068Y-66201800D01*
X160337959Y-65770000D01*
X160252068Y-65338200D01*
X161019261Y-65338200D01*
X162183126Y-64396270D01*
X161422591Y-62560158D01*
X159802020Y-60832681D01*
X157643731Y-59856866D01*
X156701800Y-61016518D01*
X156701800Y-61440000D01*
X155838200Y-61440000D01*
X155838200Y-61016518D01*
X154896269Y-59856866D01*
X152737980Y-60832681D01*
X152168245Y-61440000D01*
X135137900Y-61440000D01*
X134846295Y-61498004D01*
X134599084Y-61663185D01*
X130149869Y-66112400D01*
X129934216Y-66112213D01*
X129537311Y-66276211D01*
X129233378Y-66579614D01*
X129068687Y-66976232D01*
X129068313Y-67405684D01*
X129232311Y-67802589D01*
X129535714Y-68106522D01*
X129932332Y-68271213D01*
X130361784Y-68271587D01*
X130758689Y-68107589D01*
X131062622Y-67804186D01*
X131227313Y-67407568D01*
X131227502Y-67190027D01*
X135453530Y-62964000D01*
X141375321Y-62964000D01*
X141170330Y-63100971D01*
X140845474Y-63587152D01*
X140731400Y-64160641D01*
X140731400Y-64219359D01*
X140845474Y-64792848D01*
X141170330Y-65279029D01*
X141441172Y-65460000D01*
X141170330Y-65640971D01*
X140845474Y-66127152D01*
X140731400Y-66700641D01*
X140731400Y-66759359D01*
X140845474Y-67332848D01*
X141170330Y-67819029D01*
X141441172Y-68000000D01*
X141170330Y-68180971D01*
X140845474Y-68667152D01*
X140731400Y-69240641D01*
X140731400Y-69299359D01*
X140845474Y-69872848D01*
X141170330Y-70359029D01*
X141441172Y-70540000D01*
X141170330Y-70720971D01*
X140845474Y-71207152D01*
X140731400Y-71780641D01*
X140731400Y-71839359D01*
X140845474Y-72412848D01*
X141170330Y-72899029D01*
X141656511Y-73223885D01*
X142230000Y-73337959D01*
X142803489Y-73223885D01*
X143289670Y-72899029D01*
X143303736Y-72877976D01*
X143368073Y-73033298D01*
X143546701Y-73211927D01*
X143780090Y-73308600D01*
X144032709Y-73308600D01*
X145759909Y-73308600D01*
X145993298Y-73211927D01*
X146171927Y-73033299D01*
X146268600Y-72799910D01*
X146268600Y-72547291D01*
X146268600Y-70820091D01*
X146171927Y-70586702D01*
X145993299Y-70408073D01*
X145839473Y-70344356D01*
X146154526Y-69872848D01*
X146268600Y-69299359D01*
X146268600Y-69240641D01*
X146154526Y-68667152D01*
X145829670Y-68180971D01*
X145558827Y-68000000D01*
X145829670Y-67819029D01*
X146154526Y-67332848D01*
X146268600Y-66759359D01*
X146268600Y-66700641D01*
X146154526Y-66127152D01*
X145829670Y-65640971D01*
X145558827Y-65460000D01*
X145829670Y-65279029D01*
X146154526Y-64792848D01*
X146268600Y-64219359D01*
X146268600Y-64160641D01*
X146154526Y-63587152D01*
X145829670Y-63100971D01*
X145624678Y-62964000D01*
X149714951Y-62964000D01*
X149662041Y-63230000D01*
X149776115Y-63803489D01*
X150100971Y-64289670D01*
X150199400Y-64355438D01*
X150199400Y-64644561D01*
X150100971Y-64710330D01*
X149776115Y-65196511D01*
X149662041Y-65770000D01*
X149776115Y-66343489D01*
X150100971Y-66829670D01*
X150199400Y-66895438D01*
X150199400Y-68183002D01*
X150787350Y-68183002D01*
X151117409Y-68979842D01*
X152573000Y-70531455D01*
X152573000Y-78201607D01*
X152094359Y-78106400D01*
X152035641Y-78106400D01*
X151462152Y-78220474D01*
X150975971Y-78545330D01*
X150651115Y-79031511D01*
X150537041Y-79605000D01*
X150651115Y-80178489D01*
X150975971Y-80664670D01*
X151290751Y-80875000D01*
X150975971Y-81085330D01*
X150651115Y-81571511D01*
X150537041Y-82145000D01*
X150651115Y-82718489D01*
X150975971Y-83204670D01*
X151462152Y-83529526D01*
X152035641Y-83643600D01*
X152094359Y-83643600D01*
X152573000Y-83548392D01*
X152573000Y-96331000D01*
X152631004Y-96622605D01*
X152796185Y-96869815D01*
X155075600Y-99149231D01*
X155075413Y-99364884D01*
X155239411Y-99761789D01*
X155542814Y-100065722D01*
X155939432Y-100230413D01*
X156368884Y-100230787D01*
X156765789Y-100066789D01*
X157069722Y-99763386D01*
X157234413Y-99366768D01*
X157234787Y-98937316D01*
X157070789Y-98540411D01*
X156767386Y-98236478D01*
X156370768Y-98071787D01*
X156153228Y-98071597D01*
X154097000Y-96015369D01*
X154097000Y-83548392D01*
X154575641Y-83643600D01*
X154634359Y-83643600D01*
X155207848Y-83529526D01*
X155248600Y-83502296D01*
X155248600Y-87983200D01*
X155306604Y-88274805D01*
X155471785Y-88522015D01*
X155547800Y-88598030D01*
X155547613Y-88813684D01*
X155711611Y-89210589D01*
X156015014Y-89514522D01*
X156411632Y-89679213D01*
X156841084Y-89679587D01*
X157237989Y-89515589D01*
X157541922Y-89212186D01*
X157706613Y-88815568D01*
X157706987Y-88386116D01*
X157542989Y-87989211D01*
X157239586Y-87685278D01*
X156842968Y-87520587D01*
X156772600Y-87520525D01*
X156772600Y-87388387D01*
X156898914Y-87514922D01*
X157295532Y-87679613D01*
X157724984Y-87679987D01*
X157906700Y-87604903D01*
X157906700Y-92294570D01*
X155589369Y-94611900D01*
X155373716Y-94611713D01*
X154976811Y-94775711D01*
X154672878Y-95079114D01*
X154508187Y-95475732D01*
X154507813Y-95905184D01*
X154671811Y-96302089D01*
X154975214Y-96606022D01*
X155371832Y-96770713D01*
X155801284Y-96771087D01*
X156198189Y-96607089D01*
X156502122Y-96303686D01*
X156666813Y-95907068D01*
X156667002Y-95689527D01*
X159207515Y-93149015D01*
X159372696Y-92901805D01*
X159372696Y-92901804D01*
X159430700Y-92610200D01*
X159430700Y-83598856D01*
X159655641Y-83643600D01*
X159714359Y-83643600D01*
X160287848Y-83529526D01*
X160774029Y-83204670D01*
X161098885Y-82718489D01*
X161212959Y-82145000D01*
X161098885Y-81571511D01*
X160774029Y-81085330D01*
X160752976Y-81071263D01*
X160908298Y-81006927D01*
X161086927Y-80828299D01*
X161183600Y-80594910D01*
X161183600Y-80342291D01*
X161183600Y-78615091D01*
X161086927Y-78381702D01*
X160908299Y-78203073D01*
X160674910Y-78106400D01*
X160422291Y-78106400D01*
X159430700Y-78106400D01*
X159430700Y-70875201D01*
X159802020Y-70707319D01*
X161422591Y-68979842D01*
X162183126Y-67143730D01*
X162183126Y-112123000D01*
X161212959Y-112123000D01*
X161212959Y-107645000D01*
X161098885Y-107071511D01*
X160774029Y-106585330D01*
X160459248Y-106375000D01*
X160774029Y-106164670D01*
X161098885Y-105678489D01*
X161212959Y-105105000D01*
X161098885Y-104531511D01*
X160774029Y-104045330D01*
X160287848Y-103720474D01*
X159714359Y-103606400D01*
X159655641Y-103606400D01*
X159082152Y-103720474D01*
X158595971Y-104045330D01*
X158415000Y-104316172D01*
X158234029Y-104045330D01*
X157747848Y-103720474D01*
X157174359Y-103606400D01*
X157115641Y-103606400D01*
X156542152Y-103720474D01*
X156055971Y-104045330D01*
X155875000Y-104316172D01*
X155694029Y-104045330D01*
X155207848Y-103720474D01*
X154634359Y-103606400D01*
X154575641Y-103606400D01*
X154002152Y-103720474D01*
X153515971Y-104045330D01*
X153335000Y-104316172D01*
X153154029Y-104045330D01*
X152667848Y-103720474D01*
X152094359Y-103606400D01*
X152035641Y-103606400D01*
X151462152Y-103720474D01*
X150975971Y-104045330D01*
X150651115Y-104531511D01*
X150537041Y-105105000D01*
X150651115Y-105678489D01*
X150975971Y-106164670D01*
X150997023Y-106178736D01*
X150841702Y-106243073D01*
X150663073Y-106421701D01*
X150566400Y-106655090D01*
X150566400Y-106907709D01*
X150566400Y-108634909D01*
X150663073Y-108868298D01*
X150841701Y-109046927D01*
X151075090Y-109143600D01*
X151327709Y-109143600D01*
X153054909Y-109143600D01*
X153288298Y-109046927D01*
X153466927Y-108868299D01*
X153530643Y-108714473D01*
X154002152Y-109029526D01*
X154575641Y-109143600D01*
X154634359Y-109143600D01*
X155207848Y-109029526D01*
X155694029Y-108704670D01*
X155875000Y-108433827D01*
X156055971Y-108704670D01*
X156542152Y-109029526D01*
X157115641Y-109143600D01*
X157174359Y-109143600D01*
X157747848Y-109029526D01*
X158234029Y-108704670D01*
X158415000Y-108433827D01*
X158595971Y-108704670D01*
X159082152Y-109029526D01*
X159655641Y-109143600D01*
X159714359Y-109143600D01*
X160287848Y-109029526D01*
X160774029Y-108704670D01*
X161098885Y-108218489D01*
X161212959Y-107645000D01*
X161212959Y-112123000D01*
X146268600Y-112123000D01*
X146268600Y-90299910D01*
X146268600Y-90047291D01*
X146268600Y-88320091D01*
X146171927Y-88086702D01*
X145993299Y-87908073D01*
X145839473Y-87844356D01*
X146154526Y-87372848D01*
X146268600Y-86799359D01*
X146268600Y-86740641D01*
X146154526Y-86167152D01*
X145829670Y-85680971D01*
X145558827Y-85500000D01*
X145829670Y-85319029D01*
X146154526Y-84832848D01*
X146268600Y-84259359D01*
X146268600Y-84200641D01*
X146154526Y-83627152D01*
X145829670Y-83140971D01*
X145558827Y-82960000D01*
X145829670Y-82779029D01*
X146154526Y-82292848D01*
X146268600Y-81719359D01*
X146268600Y-81660641D01*
X146154526Y-81087152D01*
X145829670Y-80600971D01*
X145343489Y-80276115D01*
X144770000Y-80162041D01*
X144196511Y-80276115D01*
X143710330Y-80600971D01*
X143500000Y-80915751D01*
X143289670Y-80600971D01*
X142803489Y-80276115D01*
X142230000Y-80162041D01*
X141656511Y-80276115D01*
X141170330Y-80600971D01*
X140845474Y-81087152D01*
X140731400Y-81660641D01*
X140731400Y-81719359D01*
X140845474Y-82292848D01*
X141170330Y-82779029D01*
X141441172Y-82960000D01*
X141170330Y-83140971D01*
X140845474Y-83627152D01*
X140731400Y-84200641D01*
X140731400Y-84259359D01*
X140845474Y-84832848D01*
X141170330Y-85319029D01*
X141441172Y-85500000D01*
X141170330Y-85680971D01*
X140845474Y-86167152D01*
X140731400Y-86740641D01*
X140731400Y-86799359D01*
X140845474Y-87372848D01*
X141170330Y-87859029D01*
X141441172Y-88040000D01*
X141170330Y-88220971D01*
X140845474Y-88707152D01*
X140731400Y-89280641D01*
X140731400Y-89339359D01*
X140845474Y-89912848D01*
X141170330Y-90399029D01*
X141656511Y-90723885D01*
X142230000Y-90837959D01*
X142803489Y-90723885D01*
X143289670Y-90399029D01*
X143303736Y-90377976D01*
X143368073Y-90533298D01*
X143546701Y-90711927D01*
X143780090Y-90808600D01*
X144032709Y-90808600D01*
X145759909Y-90808600D01*
X145993298Y-90711927D01*
X146171927Y-90533299D01*
X146268600Y-90299910D01*
X146268600Y-112123000D01*
X146018600Y-112123000D01*
X146018600Y-108299910D01*
X146018600Y-108047291D01*
X146018600Y-106320091D01*
X145921927Y-106086702D01*
X145743299Y-105908073D01*
X145589473Y-105844356D01*
X145904526Y-105372848D01*
X146018600Y-104799359D01*
X146018600Y-104740641D01*
X145904526Y-104167152D01*
X145579670Y-103680971D01*
X145308827Y-103500000D01*
X145579670Y-103319029D01*
X145904526Y-102832848D01*
X146018600Y-102259359D01*
X146018600Y-102200641D01*
X145904526Y-101627152D01*
X145579670Y-101140971D01*
X145308827Y-100960000D01*
X145579670Y-100779029D01*
X145904526Y-100292848D01*
X146018600Y-99719359D01*
X146018600Y-99660641D01*
X145904526Y-99087152D01*
X145579670Y-98600971D01*
X145093489Y-98276115D01*
X144520000Y-98162041D01*
X143946511Y-98276115D01*
X143460330Y-98600971D01*
X143250000Y-98915751D01*
X143039670Y-98600971D01*
X142553489Y-98276115D01*
X141980000Y-98162041D01*
X141406511Y-98276115D01*
X140920330Y-98600971D01*
X140595474Y-99087152D01*
X140481400Y-99660641D01*
X140481400Y-99719359D01*
X140595474Y-100292848D01*
X140920330Y-100779029D01*
X141191172Y-100960000D01*
X140920330Y-101140971D01*
X140595474Y-101627152D01*
X140481400Y-102200641D01*
X140481400Y-102259359D01*
X140595474Y-102832848D01*
X140920330Y-103319029D01*
X141191172Y-103500000D01*
X140920330Y-103680971D01*
X140595474Y-104167152D01*
X140481400Y-104740641D01*
X140481400Y-104799359D01*
X140595474Y-105372848D01*
X140920330Y-105859029D01*
X141191172Y-106040000D01*
X140920330Y-106220971D01*
X140595474Y-106707152D01*
X140481400Y-107280641D01*
X140481400Y-107339359D01*
X140595474Y-107912848D01*
X140920330Y-108399029D01*
X141406511Y-108723885D01*
X141980000Y-108837959D01*
X142553489Y-108723885D01*
X143039670Y-108399029D01*
X143053736Y-108377976D01*
X143118073Y-108533298D01*
X143296701Y-108711927D01*
X143530090Y-108808600D01*
X143782709Y-108808600D01*
X145509909Y-108808600D01*
X145743298Y-108711927D01*
X145921927Y-108533299D01*
X146018600Y-108299910D01*
X146018600Y-112123000D01*
X136837387Y-112123000D01*
X136837387Y-91913316D01*
X136673389Y-91516411D01*
X136369986Y-91212478D01*
X135973368Y-91047787D01*
X135543916Y-91047413D01*
X135147011Y-91211411D01*
X134843078Y-91514814D01*
X134678387Y-91911432D01*
X134678238Y-92082300D01*
X134060487Y-92082300D01*
X134060487Y-69356116D01*
X133896489Y-68959211D01*
X133593086Y-68655278D01*
X133196468Y-68490587D01*
X132767016Y-68490213D01*
X132370111Y-68654211D01*
X132066178Y-68957614D01*
X131901487Y-69354232D01*
X131901297Y-69571771D01*
X125047585Y-76425485D01*
X124882404Y-76672695D01*
X124824400Y-76964300D01*
X124824400Y-84943258D01*
X124671778Y-85095614D01*
X124507087Y-85492232D01*
X124506713Y-85921684D01*
X124670711Y-86318589D01*
X124974114Y-86622522D01*
X125370732Y-86787213D01*
X125800184Y-86787587D01*
X126197089Y-86623589D01*
X126501022Y-86320186D01*
X126665713Y-85923568D01*
X126666087Y-85494116D01*
X126502089Y-85097211D01*
X126348400Y-84943253D01*
X126348400Y-77279930D01*
X132978931Y-70649399D01*
X133194584Y-70649587D01*
X133591489Y-70485589D01*
X133895422Y-70182186D01*
X134060113Y-69785568D01*
X134060487Y-69356116D01*
X134060487Y-92082300D01*
X127521741Y-92082300D01*
X127369386Y-91929678D01*
X126972768Y-91764987D01*
X126543316Y-91764613D01*
X126146411Y-91928611D01*
X125842478Y-92232014D01*
X125677787Y-92628632D01*
X125677413Y-93058084D01*
X125841411Y-93454989D01*
X126144814Y-93758922D01*
X126541432Y-93923613D01*
X126970884Y-93923987D01*
X127367789Y-93759989D01*
X127521746Y-93606300D01*
X135040500Y-93606300D01*
X135040500Y-93606299D01*
X135332104Y-93548296D01*
X135332105Y-93548296D01*
X135579315Y-93383115D01*
X135755830Y-93206599D01*
X135971484Y-93206787D01*
X136368389Y-93042789D01*
X136672322Y-92739386D01*
X136837013Y-92342768D01*
X136837387Y-91913316D01*
X136837387Y-112123000D01*
X120768600Y-112123000D01*
X120768600Y-89339359D01*
X120768600Y-89280641D01*
X120654526Y-88707152D01*
X120329670Y-88220971D01*
X120058827Y-88040000D01*
X120329670Y-87859029D01*
X120654526Y-87372848D01*
X120768600Y-86799359D01*
X120768600Y-86740641D01*
X120654526Y-86167152D01*
X120329670Y-85680971D01*
X120058827Y-85500000D01*
X120329670Y-85319029D01*
X120654526Y-84832848D01*
X120768600Y-84259359D01*
X120768600Y-84200641D01*
X120654526Y-83627152D01*
X120329670Y-83140971D01*
X120058827Y-82960000D01*
X120329670Y-82779029D01*
X120654526Y-82292848D01*
X120768600Y-81719359D01*
X120768600Y-81660641D01*
X120768600Y-71839359D01*
X120768600Y-71780641D01*
X120654526Y-71207152D01*
X120329670Y-70720971D01*
X120058827Y-70540000D01*
X120329670Y-70359029D01*
X120654526Y-69872848D01*
X120768600Y-69299359D01*
X120768600Y-69240641D01*
X120654526Y-68667152D01*
X120329670Y-68180971D01*
X120058827Y-68000000D01*
X120329670Y-67819029D01*
X120654526Y-67332848D01*
X120768600Y-66759359D01*
X120768600Y-66700641D01*
X120654526Y-66127152D01*
X120329670Y-65640971D01*
X120058827Y-65460000D01*
X120329670Y-65279029D01*
X120654526Y-64792848D01*
X120768600Y-64219359D01*
X120768600Y-64160641D01*
X120654526Y-63587152D01*
X120329670Y-63100971D01*
X119843489Y-62776115D01*
X119270000Y-62662041D01*
X118696511Y-62776115D01*
X118210330Y-63100971D01*
X118196263Y-63122023D01*
X118131927Y-62966702D01*
X117953299Y-62788073D01*
X117719910Y-62691400D01*
X117467291Y-62691400D01*
X115740091Y-62691400D01*
X115506702Y-62788073D01*
X115328073Y-62966701D01*
X115231400Y-63200090D01*
X115231400Y-63452709D01*
X115231400Y-65179909D01*
X115328073Y-65413298D01*
X115506701Y-65591927D01*
X115660526Y-65655643D01*
X115345474Y-66127152D01*
X115231400Y-66700641D01*
X115231400Y-66759359D01*
X115345474Y-67332848D01*
X115670330Y-67819029D01*
X115941172Y-68000000D01*
X115670330Y-68180971D01*
X115345474Y-68667152D01*
X115231400Y-69240641D01*
X115231400Y-69299359D01*
X115345474Y-69872848D01*
X115670330Y-70359029D01*
X115941172Y-70540000D01*
X115670330Y-70720971D01*
X115345474Y-71207152D01*
X115231400Y-71780641D01*
X115231400Y-71839359D01*
X115345474Y-72412848D01*
X115670330Y-72899029D01*
X116156511Y-73223885D01*
X116730000Y-73337959D01*
X117303489Y-73223885D01*
X117789670Y-72899029D01*
X118000000Y-72584248D01*
X118210330Y-72899029D01*
X118696511Y-73223885D01*
X119270000Y-73337959D01*
X119843489Y-73223885D01*
X120329670Y-72899029D01*
X120654526Y-72412848D01*
X120768600Y-71839359D01*
X120768600Y-81660641D01*
X120654526Y-81087152D01*
X120329670Y-80600971D01*
X119843489Y-80276115D01*
X119270000Y-80162041D01*
X118696511Y-80276115D01*
X118210330Y-80600971D01*
X118196263Y-80622023D01*
X118131927Y-80466702D01*
X117953299Y-80288073D01*
X117719910Y-80191400D01*
X117467291Y-80191400D01*
X115740091Y-80191400D01*
X115506702Y-80288073D01*
X115328073Y-80466701D01*
X115231400Y-80700090D01*
X115231400Y-80952709D01*
X115231400Y-82679909D01*
X115328073Y-82913298D01*
X115506701Y-83091927D01*
X115660526Y-83155643D01*
X115345474Y-83627152D01*
X115231400Y-84200641D01*
X115231400Y-84259359D01*
X115345474Y-84832848D01*
X115670330Y-85319029D01*
X115941172Y-85500000D01*
X115670330Y-85680971D01*
X115345474Y-86167152D01*
X115231400Y-86740641D01*
X115231400Y-86799359D01*
X115345474Y-87372848D01*
X115670330Y-87859029D01*
X115941172Y-88040000D01*
X115670330Y-88220971D01*
X115345474Y-88707152D01*
X115231400Y-89280641D01*
X115231400Y-89339359D01*
X115345474Y-89912848D01*
X115670330Y-90399029D01*
X116156511Y-90723885D01*
X116730000Y-90837959D01*
X117303489Y-90723885D01*
X117789670Y-90399029D01*
X118000000Y-90084248D01*
X118210330Y-90399029D01*
X118696511Y-90723885D01*
X119270000Y-90837959D01*
X119843489Y-90723885D01*
X120329670Y-90399029D01*
X120654526Y-89912848D01*
X120768600Y-89339359D01*
X120768600Y-112123000D01*
X120518600Y-112123000D01*
X120518600Y-107339359D01*
X120518600Y-107280641D01*
X120404526Y-106707152D01*
X120079670Y-106220971D01*
X119808827Y-106040000D01*
X120079670Y-105859029D01*
X120404526Y-105372848D01*
X120518600Y-104799359D01*
X120518600Y-104740641D01*
X120404526Y-104167152D01*
X120079670Y-103680971D01*
X119808827Y-103500000D01*
X120079670Y-103319029D01*
X120404526Y-102832848D01*
X120518600Y-102259359D01*
X120518600Y-102200641D01*
X120404526Y-101627152D01*
X120079670Y-101140971D01*
X119808827Y-100960000D01*
X120079670Y-100779029D01*
X120404526Y-100292848D01*
X120518600Y-99719359D01*
X120518600Y-99660641D01*
X120404526Y-99087152D01*
X120079670Y-98600971D01*
X119593489Y-98276115D01*
X119020000Y-98162041D01*
X118446511Y-98276115D01*
X117960330Y-98600971D01*
X117946263Y-98622023D01*
X117881927Y-98466702D01*
X117703299Y-98288073D01*
X117469910Y-98191400D01*
X117217291Y-98191400D01*
X115490091Y-98191400D01*
X115256702Y-98288073D01*
X115078073Y-98466701D01*
X114981400Y-98700090D01*
X114981400Y-98952709D01*
X114981400Y-100679909D01*
X115078073Y-100913298D01*
X115256701Y-101091927D01*
X115410526Y-101155643D01*
X115095474Y-101627152D01*
X114981400Y-102200641D01*
X114981400Y-102259359D01*
X115095474Y-102832848D01*
X115420330Y-103319029D01*
X115691172Y-103500000D01*
X115420330Y-103680971D01*
X115095474Y-104167152D01*
X114981400Y-104740641D01*
X114981400Y-104799359D01*
X115095474Y-105372848D01*
X115420330Y-105859029D01*
X115691172Y-106040000D01*
X115420330Y-106220971D01*
X115095474Y-106707152D01*
X114981400Y-107280641D01*
X114981400Y-107339359D01*
X115095474Y-107912848D01*
X115420330Y-108399029D01*
X115906511Y-108723885D01*
X116480000Y-108837959D01*
X117053489Y-108723885D01*
X117539670Y-108399029D01*
X117750000Y-108084248D01*
X117960330Y-108399029D01*
X118446511Y-108723885D01*
X119020000Y-108837959D01*
X119593489Y-108723885D01*
X120079670Y-108399029D01*
X120404526Y-107912848D01*
X120518600Y-107339359D01*
X120518600Y-112123000D01*
X114127000Y-112123000D01*
X114127000Y-55627000D01*
X174373000Y-55627000D01*
X174373000Y-112123000D01*
M02*
