%FSLAX46Y46*%
G04 Gerber Fmt 4.6, Leading zero omitted, Abs format (unit mm)*
G04 Created by KiCad (PCBNEW (2014-jul-16 BZR unknown)-product) date Tue 14 Oct 2014 06:58:31 PM EDT*
%MOMM*%
G01*
G04 APERTURE LIST*
%ADD10C,0.100000*%
%ADD11R,1.198880X1.501140*%
%ADD12R,1.727200X1.727200*%
%ADD13O,1.727200X1.727200*%
%ADD14R,1.501140X1.198880*%
%ADD15R,1.498600X1.300480*%
%ADD16R,1.300480X1.498600*%
%ADD17R,0.406400X1.270000*%
%ADD18R,3.780000X1.200000*%
%ADD19R,1.270000X0.406400*%
%ADD20R,1.200000X3.780000*%
%ADD21C,0.889000*%
%ADD22C,0.254000*%
G04 APERTURE END LIST*
D10*
D11*
X161750000Y-62199520D03*
X161750000Y-64800480D03*
D12*
X116730000Y-64190000D03*
D13*
X119270000Y-64190000D03*
X116730000Y-66730000D03*
X119270000Y-66730000D03*
X116730000Y-69270000D03*
X119270000Y-69270000D03*
X116730000Y-71810000D03*
X119270000Y-71810000D03*
D12*
X116730000Y-81690000D03*
D13*
X119270000Y-81690000D03*
X116730000Y-84230000D03*
X119270000Y-84230000D03*
X116730000Y-86770000D03*
X119270000Y-86770000D03*
X116730000Y-89310000D03*
X119270000Y-89310000D03*
D12*
X116480000Y-99690000D03*
D13*
X119020000Y-99690000D03*
X116480000Y-102230000D03*
X119020000Y-102230000D03*
X116480000Y-104770000D03*
X119020000Y-104770000D03*
X116480000Y-107310000D03*
X119020000Y-107310000D03*
D12*
X159685000Y-79605000D03*
D13*
X159685000Y-82145000D03*
X157145000Y-79605000D03*
X157145000Y-82145000D03*
X154605000Y-79605000D03*
X154605000Y-82145000D03*
X152065000Y-79605000D03*
X152065000Y-82145000D03*
D12*
X144770000Y-71810000D03*
D13*
X142230000Y-71810000D03*
X144770000Y-69270000D03*
X142230000Y-69270000D03*
X144770000Y-66730000D03*
X142230000Y-66730000D03*
X144770000Y-64190000D03*
X142230000Y-64190000D03*
D12*
X144770000Y-89310000D03*
D13*
X142230000Y-89310000D03*
X144770000Y-86770000D03*
X142230000Y-86770000D03*
X144770000Y-84230000D03*
X142230000Y-84230000D03*
X144770000Y-81690000D03*
X142230000Y-81690000D03*
D12*
X144520000Y-107310000D03*
D13*
X141980000Y-107310000D03*
X144520000Y-104770000D03*
X141980000Y-104770000D03*
X144520000Y-102230000D03*
X141980000Y-102230000D03*
X144520000Y-99690000D03*
X141980000Y-99690000D03*
D12*
X152065000Y-107645000D03*
D13*
X152065000Y-105105000D03*
X154605000Y-107645000D03*
X154605000Y-105105000D03*
X157145000Y-107645000D03*
X157145000Y-105105000D03*
X159685000Y-107645000D03*
X159685000Y-105105000D03*
D14*
X131199520Y-60000000D03*
X133800480Y-60000000D03*
X131699520Y-78500000D03*
X134300480Y-78500000D03*
D11*
X132500000Y-96199520D03*
X132500000Y-98800480D03*
X160625000Y-93324520D03*
X160625000Y-95925480D03*
D15*
X128500000Y-60047500D03*
X128500000Y-61952500D03*
X128500000Y-78547500D03*
X128500000Y-80452500D03*
X128250000Y-96047500D03*
X128250000Y-97952500D03*
D16*
X160672500Y-91125000D03*
X162577500Y-91125000D03*
D12*
X167230000Y-62690000D03*
D13*
X169770000Y-62690000D03*
X167230000Y-65230000D03*
X169770000Y-65230000D03*
X167230000Y-67770000D03*
X169770000Y-67770000D03*
X167230000Y-70310000D03*
X169770000Y-70310000D03*
D12*
X167480000Y-75690000D03*
D13*
X170020000Y-75690000D03*
X167480000Y-78230000D03*
X170020000Y-78230000D03*
X167480000Y-80770000D03*
X170020000Y-80770000D03*
X167480000Y-83310000D03*
X170020000Y-83310000D03*
D12*
X158810000Y-63230000D03*
D13*
X158810000Y-65770000D03*
X156270000Y-63230000D03*
X156270000Y-65770000D03*
X153730000Y-63230000D03*
X153730000Y-65770000D03*
X151190000Y-63230000D03*
X151190000Y-65770000D03*
D17*
X158066000Y-89819000D03*
X157431000Y-89819000D03*
X156770600Y-89819000D03*
X156110200Y-89819000D03*
X155475200Y-89819000D03*
X154814800Y-89819000D03*
X154154400Y-89819000D03*
X153519400Y-89819000D03*
X152859000Y-89819000D03*
X152224000Y-89819000D03*
X151563600Y-89819000D03*
X150903200Y-89819000D03*
X150268200Y-89819000D03*
X149607800Y-89819000D03*
X149607800Y-96931000D03*
X150268200Y-96931000D03*
X150877800Y-96931000D03*
X151563600Y-96931000D03*
X152224000Y-96931000D03*
X152859000Y-96931000D03*
X153519400Y-96931000D03*
X154154400Y-96931000D03*
X154814800Y-96931000D03*
X155475200Y-96931000D03*
X156110200Y-96931000D03*
X156770600Y-96931000D03*
X157431000Y-96931000D03*
X158066000Y-96931000D03*
D18*
X153875000Y-93375000D03*
D19*
X126694000Y-101309000D03*
X126694000Y-101944000D03*
X126694000Y-102604400D03*
X126694000Y-103264800D03*
X126694000Y-103899800D03*
X126694000Y-104560200D03*
X126694000Y-105220600D03*
X126694000Y-105855600D03*
X126694000Y-106516000D03*
X126694000Y-107151000D03*
X126694000Y-107811400D03*
X126694000Y-108471800D03*
X126694000Y-109106800D03*
X126694000Y-109767200D03*
X133806000Y-109767200D03*
X133806000Y-109106800D03*
X133806000Y-108497200D03*
X133806000Y-107811400D03*
X133806000Y-107151000D03*
X133806000Y-106516000D03*
X133806000Y-105855600D03*
X133806000Y-105220600D03*
X133806000Y-104560200D03*
X133806000Y-103899800D03*
X133806000Y-103264800D03*
X133806000Y-102604400D03*
X133806000Y-101944000D03*
X133806000Y-101309000D03*
D20*
X130250000Y-105500000D03*
D19*
X126944000Y-83309000D03*
X126944000Y-83944000D03*
X126944000Y-84604400D03*
X126944000Y-85264800D03*
X126944000Y-85899800D03*
X126944000Y-86560200D03*
X126944000Y-87220600D03*
X126944000Y-87855600D03*
X126944000Y-88516000D03*
X126944000Y-89151000D03*
X126944000Y-89811400D03*
X126944000Y-90471800D03*
X126944000Y-91106800D03*
X126944000Y-91767200D03*
X134056000Y-91767200D03*
X134056000Y-91106800D03*
X134056000Y-90497200D03*
X134056000Y-89811400D03*
X134056000Y-89151000D03*
X134056000Y-88516000D03*
X134056000Y-87855600D03*
X134056000Y-87220600D03*
X134056000Y-86560200D03*
X134056000Y-85899800D03*
X134056000Y-85264800D03*
X134056000Y-84604400D03*
X134056000Y-83944000D03*
X134056000Y-83309000D03*
D20*
X130500000Y-87500000D03*
D19*
X127444000Y-65809000D03*
X127444000Y-66444000D03*
X127444000Y-67104400D03*
X127444000Y-67764800D03*
X127444000Y-68399800D03*
X127444000Y-69060200D03*
X127444000Y-69720600D03*
X127444000Y-70355600D03*
X127444000Y-71016000D03*
X127444000Y-71651000D03*
X127444000Y-72311400D03*
X127444000Y-72971800D03*
X127444000Y-73606800D03*
X127444000Y-74267200D03*
X134556000Y-74267200D03*
X134556000Y-73606800D03*
X134556000Y-72997200D03*
X134556000Y-72311400D03*
X134556000Y-71651000D03*
X134556000Y-71016000D03*
X134556000Y-70355600D03*
X134556000Y-69720600D03*
X134556000Y-69060200D03*
X134556000Y-68399800D03*
X134556000Y-67764800D03*
X134556000Y-67104400D03*
X134556000Y-66444000D03*
X134556000Y-65809000D03*
D20*
X131000000Y-70000000D03*
D21*
X133570800Y-95982100D03*
X158033500Y-90995000D03*
X131699500Y-77423600D03*
X129722800Y-78588600D03*
X127806400Y-101085600D03*
X131199500Y-61079400D03*
X128563500Y-65578500D03*
X127251900Y-59802700D03*
X129507700Y-96084400D03*
X126944000Y-82604500D03*
X130148000Y-67191900D03*
X156627300Y-88599900D03*
X157511200Y-86600300D03*
X125586400Y-85707900D03*
X132980800Y-69569900D03*
X155587500Y-95691400D03*
X156155100Y-99151100D03*
X135757700Y-92127100D03*
X126757100Y-92844300D03*
D22*
X133800500Y-60000000D02*
X133800500Y-60853400D01*
X134556000Y-66444000D02*
X133667000Y-66444000D01*
X133667000Y-66444000D02*
X133667000Y-60986900D01*
X133667000Y-60986900D02*
X133800500Y-60853400D01*
X134300500Y-78500000D02*
X134300500Y-79353400D01*
X134056000Y-83944000D02*
X134945000Y-83944000D01*
X134945000Y-83944000D02*
X134945000Y-79997900D01*
X134945000Y-79997900D02*
X134300500Y-79353400D01*
X132500000Y-98800500D02*
X133353400Y-98800500D01*
X133806000Y-101944000D02*
X134695000Y-101944000D01*
X134695000Y-101944000D02*
X134695000Y-100142100D01*
X134695000Y-100142100D02*
X133353400Y-98800500D01*
X160625000Y-95925500D02*
X159771600Y-95925500D01*
X157431000Y-96931000D02*
X157431000Y-97820000D01*
X157431000Y-97820000D02*
X158303800Y-97820000D01*
X158303800Y-97820000D02*
X159771600Y-96352200D01*
X159771600Y-96352200D02*
X159771600Y-95925500D01*
X127444000Y-69720600D02*
X126555000Y-69720600D01*
X126555000Y-69720600D02*
X121024400Y-64190000D01*
X121024400Y-64190000D02*
X119270000Y-64190000D01*
X116730000Y-64190000D02*
X117847600Y-64190000D01*
X127444000Y-70355600D02*
X126555000Y-70355600D01*
X126555000Y-70355600D02*
X121507000Y-65307600D01*
X121507000Y-65307600D02*
X118825400Y-65307600D01*
X118825400Y-65307600D02*
X117847600Y-64329800D01*
X117847600Y-64329800D02*
X117847600Y-64190000D01*
X119270000Y-66730000D02*
X122269000Y-66730000D01*
X122269000Y-66730000D02*
X126555000Y-71016000D01*
X127444000Y-71016000D02*
X126555000Y-71016000D01*
X117847600Y-66730000D02*
X117847600Y-66845800D01*
X117847600Y-66845800D02*
X119151600Y-68149800D01*
X119151600Y-68149800D02*
X123053800Y-68149800D01*
X123053800Y-68149800D02*
X126555000Y-71651000D01*
X116730000Y-66730000D02*
X117847600Y-66730000D01*
X127444000Y-71651000D02*
X126555000Y-71651000D01*
X127444000Y-72311400D02*
X125116400Y-72311400D01*
X125116400Y-72311400D02*
X122075000Y-69270000D01*
X122075000Y-69270000D02*
X119270000Y-69270000D01*
X116730000Y-69270000D02*
X117847600Y-69270000D01*
X127444000Y-72971800D02*
X123144600Y-72971800D01*
X123144600Y-72971800D02*
X120712800Y-70540000D01*
X120712800Y-70540000D02*
X119001800Y-70540000D01*
X119001800Y-70540000D02*
X117847600Y-69385800D01*
X117847600Y-69385800D02*
X117847600Y-69270000D01*
X119270000Y-71810000D02*
X120387600Y-71810000D01*
X127444000Y-73606800D02*
X122184400Y-73606800D01*
X122184400Y-73606800D02*
X120387600Y-71810000D01*
X116730000Y-71810000D02*
X117847600Y-71810000D01*
X127444000Y-74267200D02*
X120189000Y-74267200D01*
X120189000Y-74267200D02*
X117847600Y-71925800D01*
X117847600Y-71925800D02*
X117847600Y-71810000D01*
X120387600Y-81690000D02*
X120387600Y-81816400D01*
X120387600Y-81816400D02*
X125791800Y-87220600D01*
X125791800Y-87220600D02*
X126055000Y-87220600D01*
X119270000Y-81690000D02*
X120387600Y-81690000D01*
X126944000Y-87220600D02*
X126055000Y-87220600D01*
X116730000Y-81690000D02*
X117847600Y-81690000D01*
X126944000Y-87855600D02*
X126031100Y-87855600D01*
X126031100Y-87855600D02*
X120983100Y-82807600D01*
X120983100Y-82807600D02*
X118825400Y-82807600D01*
X118825400Y-82807600D02*
X117847600Y-81829800D01*
X117847600Y-81829800D02*
X117847600Y-81690000D01*
X126944000Y-88516000D02*
X126055000Y-88516000D01*
X126055000Y-88516000D02*
X121769000Y-84230000D01*
X121769000Y-84230000D02*
X119270000Y-84230000D01*
X117847600Y-84230000D02*
X117847600Y-84345800D01*
X117847600Y-84345800D02*
X119001800Y-85500000D01*
X119001800Y-85500000D02*
X122404000Y-85500000D01*
X122404000Y-85500000D02*
X126055000Y-89151000D01*
X116730000Y-84230000D02*
X117847600Y-84230000D01*
X126944000Y-89151000D02*
X126055000Y-89151000D01*
X119270000Y-86770000D02*
X123013600Y-86770000D01*
X123013600Y-86770000D02*
X126055000Y-89811400D01*
X126944000Y-89811400D02*
X126055000Y-89811400D01*
X116730000Y-86770000D02*
X117847600Y-86770000D01*
X126944000Y-90471800D02*
X123227800Y-90471800D01*
X123227800Y-90471800D02*
X120796000Y-88040000D01*
X120796000Y-88040000D02*
X119001800Y-88040000D01*
X119001800Y-88040000D02*
X117847600Y-86885800D01*
X117847600Y-86885800D02*
X117847600Y-86770000D01*
X119270000Y-89310000D02*
X120387600Y-89310000D01*
X126944000Y-91106800D02*
X122184400Y-91106800D01*
X122184400Y-91106800D02*
X120387600Y-89310000D01*
X116730000Y-89310000D02*
X117847600Y-89310000D01*
X126944000Y-91767200D02*
X120189000Y-91767200D01*
X120189000Y-91767200D02*
X117847600Y-89425800D01*
X117847600Y-89425800D02*
X117847600Y-89310000D01*
X126694000Y-105220600D02*
X125668200Y-105220600D01*
X125668200Y-105220600D02*
X120137600Y-99690000D01*
X119020000Y-99690000D02*
X120137600Y-99690000D01*
X116480000Y-99690000D02*
X117597600Y-99690000D01*
X126694000Y-105855600D02*
X125805000Y-105855600D01*
X125805000Y-105855600D02*
X120757000Y-100807600D01*
X120757000Y-100807600D02*
X118575400Y-100807600D01*
X118575400Y-100807600D02*
X117597600Y-99829800D01*
X117597600Y-99829800D02*
X117597600Y-99690000D01*
X126694000Y-106516000D02*
X125805000Y-106516000D01*
X125805000Y-106516000D02*
X121519000Y-102230000D01*
X121519000Y-102230000D02*
X119020000Y-102230000D01*
X116480000Y-102230000D02*
X117597600Y-102230000D01*
X126694000Y-107151000D02*
X125805000Y-107151000D01*
X125805000Y-107151000D02*
X122154000Y-103500000D01*
X122154000Y-103500000D02*
X118751800Y-103500000D01*
X118751800Y-103500000D02*
X117597600Y-102345800D01*
X117597600Y-102345800D02*
X117597600Y-102230000D01*
X119020000Y-104770000D02*
X122763600Y-104770000D01*
X122763600Y-104770000D02*
X125805000Y-107811400D01*
X126694000Y-107811400D02*
X125805000Y-107811400D01*
X116480000Y-104770000D02*
X117597600Y-104770000D01*
X126694000Y-108471800D02*
X122977800Y-108471800D01*
X122977800Y-108471800D02*
X120546000Y-106040000D01*
X120546000Y-106040000D02*
X118751800Y-106040000D01*
X118751800Y-106040000D02*
X117597600Y-104885800D01*
X117597600Y-104885800D02*
X117597600Y-104770000D01*
X119020000Y-107310000D02*
X120137600Y-107310000D01*
X126694000Y-109106800D02*
X121934400Y-109106800D01*
X121934400Y-109106800D02*
X120137600Y-107310000D01*
X116480000Y-107310000D02*
X117597600Y-107310000D01*
X126694000Y-109767200D02*
X119939000Y-109767200D01*
X119939000Y-109767200D02*
X117597600Y-107425800D01*
X117597600Y-107425800D02*
X117597600Y-107310000D01*
X159685000Y-82145000D02*
X159685000Y-83399400D01*
X159685000Y-83399400D02*
X154154400Y-88930000D01*
X154154400Y-89819000D02*
X154154400Y-88930000D01*
X159685000Y-80722600D02*
X159545200Y-80722600D01*
X159545200Y-80722600D02*
X158567400Y-81700400D01*
X158567400Y-81700400D02*
X158567400Y-83191200D01*
X158567400Y-83191200D02*
X153519400Y-88239200D01*
X153519400Y-88239200D02*
X153519400Y-89819000D01*
X159685000Y-79605000D02*
X159685000Y-80722600D01*
X157145000Y-82145000D02*
X157145000Y-84169300D01*
X157145000Y-84169300D02*
X152859000Y-88455300D01*
X152859000Y-88455300D02*
X152859000Y-89819000D01*
X157145000Y-79605000D02*
X157145000Y-80722600D01*
X152224000Y-89819000D02*
X152224000Y-87322000D01*
X152224000Y-87322000D02*
X155875000Y-83671000D01*
X155875000Y-83671000D02*
X155875000Y-81876800D01*
X155875000Y-81876800D02*
X157029200Y-80722600D01*
X157029200Y-80722600D02*
X157145000Y-80722600D01*
X151563600Y-89819000D02*
X151563600Y-86852400D01*
X151563600Y-86852400D02*
X154605000Y-83811000D01*
X154605000Y-83811000D02*
X154605000Y-82145000D01*
X154605000Y-79605000D02*
X154605000Y-80722600D01*
X150903200Y-89819000D02*
X150903200Y-86102800D01*
X150903200Y-86102800D02*
X153335000Y-83671000D01*
X153335000Y-83671000D02*
X153335000Y-81876800D01*
X153335000Y-81876800D02*
X154489200Y-80722600D01*
X154489200Y-80722600D02*
X154605000Y-80722600D01*
X152065000Y-82145000D02*
X152065000Y-83262600D01*
X150268200Y-89819000D02*
X150268200Y-85059400D01*
X150268200Y-85059400D02*
X152065000Y-83262600D01*
X149607800Y-89819000D02*
X149607800Y-83111800D01*
X149607800Y-83111800D02*
X151997000Y-80722600D01*
X151997000Y-80722600D02*
X152065000Y-80722600D01*
X152065000Y-79605000D02*
X152065000Y-80722600D01*
X143652400Y-71810000D02*
X143652400Y-71854500D01*
X143652400Y-71854500D02*
X141239700Y-74267200D01*
X141239700Y-74267200D02*
X134556000Y-74267200D01*
X144770000Y-71810000D02*
X143652400Y-71810000D01*
X142230000Y-71810000D02*
X141112400Y-71810000D01*
X134556000Y-73606800D02*
X139315600Y-73606800D01*
X139315600Y-73606800D02*
X141112400Y-71810000D01*
X143652400Y-69270000D02*
X143652400Y-69385800D01*
X143652400Y-69385800D02*
X142498200Y-70540000D01*
X142498200Y-70540000D02*
X141010400Y-70540000D01*
X141010400Y-70540000D02*
X138553200Y-72997200D01*
X138553200Y-72997200D02*
X134556000Y-72997200D01*
X144770000Y-69270000D02*
X143652400Y-69270000D01*
X141112400Y-69270000D02*
X138071000Y-72311400D01*
X138071000Y-72311400D02*
X134556000Y-72311400D01*
X142230000Y-69270000D02*
X141112400Y-69270000D01*
X143652400Y-66730000D02*
X143652400Y-66845800D01*
X143652400Y-66845800D02*
X142498200Y-68000000D01*
X142498200Y-68000000D02*
X140615000Y-68000000D01*
X140615000Y-68000000D02*
X136964000Y-71651000D01*
X136964000Y-71651000D02*
X134556000Y-71651000D01*
X144770000Y-66730000D02*
X143652400Y-66730000D01*
X141112400Y-66730000D02*
X136826400Y-71016000D01*
X136826400Y-71016000D02*
X134556000Y-71016000D01*
X142230000Y-66730000D02*
X141112400Y-66730000D01*
X144770000Y-64190000D02*
X144770000Y-65307600D01*
X134556000Y-70355600D02*
X133667000Y-70355600D01*
X133667000Y-70355600D02*
X133667000Y-74432300D01*
X133667000Y-74432300D02*
X133873500Y-74638800D01*
X133873500Y-74638800D02*
X143910500Y-74638800D01*
X143910500Y-74638800D02*
X145813500Y-72735800D01*
X145813500Y-72735800D02*
X145813500Y-66276900D01*
X145813500Y-66276900D02*
X144844200Y-65307600D01*
X144844200Y-65307600D02*
X144770000Y-65307600D01*
X142230000Y-64190000D02*
X141112400Y-64190000D01*
X134556000Y-69720600D02*
X135581800Y-69720600D01*
X135581800Y-69720600D02*
X141112400Y-64190000D01*
X144770000Y-89310000D02*
X143652400Y-89310000D01*
X134056000Y-91767200D02*
X134945000Y-91767200D01*
X134945000Y-91767200D02*
X135182300Y-91529900D01*
X135182300Y-91529900D02*
X141447500Y-91529900D01*
X141447500Y-91529900D02*
X143652400Y-89325000D01*
X143652400Y-89325000D02*
X143652400Y-89310000D01*
X142230000Y-89310000D02*
X141112400Y-89310000D01*
X134056000Y-91106800D02*
X139315600Y-91106800D01*
X139315600Y-91106800D02*
X141112400Y-89310000D01*
X144770000Y-86770000D02*
X143652400Y-86770000D01*
X134056000Y-90497200D02*
X138553200Y-90497200D01*
X138553200Y-90497200D02*
X141010400Y-88040000D01*
X141010400Y-88040000D02*
X142498200Y-88040000D01*
X142498200Y-88040000D02*
X143652400Y-86885800D01*
X143652400Y-86885800D02*
X143652400Y-86770000D01*
X141112400Y-86770000D02*
X138071000Y-89811400D01*
X138071000Y-89811400D02*
X134056000Y-89811400D01*
X142230000Y-86770000D02*
X141112400Y-86770000D01*
X144770000Y-84230000D02*
X143652400Y-84230000D01*
X134056000Y-89151000D02*
X137359400Y-89151000D01*
X137359400Y-89151000D02*
X141010400Y-85500000D01*
X141010400Y-85500000D02*
X142498200Y-85500000D01*
X142498200Y-85500000D02*
X143652400Y-84345800D01*
X143652400Y-84345800D02*
X143652400Y-84230000D01*
X141112400Y-84230000D02*
X136826400Y-88516000D01*
X136826400Y-88516000D02*
X134056000Y-88516000D01*
X142230000Y-84230000D02*
X141112400Y-84230000D01*
X144770000Y-81690000D02*
X143652400Y-81690000D01*
X134056000Y-87855600D02*
X136114800Y-87855600D01*
X136114800Y-87855600D02*
X141010400Y-82960000D01*
X141010400Y-82960000D02*
X142498200Y-82960000D01*
X142498200Y-82960000D02*
X143652400Y-81805800D01*
X143652400Y-81805800D02*
X143652400Y-81690000D01*
X141112400Y-81690000D02*
X135581800Y-87220600D01*
X135581800Y-87220600D02*
X134056000Y-87220600D01*
X142230000Y-81690000D02*
X141112400Y-81690000D01*
X144520000Y-107310000D02*
X143402400Y-107310000D01*
X133806000Y-109767200D02*
X141084900Y-109767200D01*
X141084900Y-109767200D02*
X143402400Y-107449700D01*
X143402400Y-107449700D02*
X143402400Y-107310000D01*
X140862000Y-107310000D02*
X139065200Y-109106800D01*
X139065200Y-109106800D02*
X133806000Y-109106800D01*
X141980000Y-107310000D02*
X140862000Y-107310000D01*
X144520000Y-104770000D02*
X143402400Y-104770000D01*
X133806000Y-108497200D02*
X138303200Y-108497200D01*
X138303200Y-108497200D02*
X140760400Y-106040000D01*
X140760400Y-106040000D02*
X142248200Y-106040000D01*
X142248200Y-106040000D02*
X143402400Y-104885800D01*
X143402400Y-104885800D02*
X143402400Y-104770000D01*
X140862400Y-104770000D02*
X137821000Y-107811400D01*
X137821000Y-107811400D02*
X133806000Y-107811400D01*
X141980000Y-104770000D02*
X140862400Y-104770000D01*
X144520000Y-102230000D02*
X143402400Y-102230000D01*
X133806000Y-107151000D02*
X137109400Y-107151000D01*
X137109400Y-107151000D02*
X140760400Y-103500000D01*
X140760400Y-103500000D02*
X142248200Y-103500000D01*
X142248200Y-103500000D02*
X143402400Y-102345800D01*
X143402400Y-102345800D02*
X143402400Y-102230000D01*
X140862400Y-102230000D02*
X136576400Y-106516000D01*
X136576400Y-106516000D02*
X133806000Y-106516000D01*
X141980000Y-102230000D02*
X140862400Y-102230000D01*
X144520000Y-99690000D02*
X143402400Y-99690000D01*
X133806000Y-105855600D02*
X135864800Y-105855600D01*
X135864800Y-105855600D02*
X140760400Y-100960000D01*
X140760400Y-100960000D02*
X142248200Y-100960000D01*
X142248200Y-100960000D02*
X143402400Y-99805800D01*
X143402400Y-99805800D02*
X143402400Y-99690000D01*
X141980000Y-99690000D02*
X140862400Y-99690000D01*
X133806000Y-105220600D02*
X135331800Y-105220600D01*
X135331800Y-105220600D02*
X140862400Y-99690000D01*
X152065000Y-107645000D02*
X152065000Y-106527400D01*
X149607800Y-96931000D02*
X149607800Y-104209900D01*
X149607800Y-104209900D02*
X151925300Y-106527400D01*
X151925300Y-106527400D02*
X152065000Y-106527400D01*
X152065000Y-105105000D02*
X152065000Y-103987400D01*
X150268200Y-96931000D02*
X150268200Y-102190600D01*
X150268200Y-102190600D02*
X152065000Y-103987400D01*
X154605000Y-106527400D02*
X154489200Y-106527400D01*
X154489200Y-106527400D02*
X153335000Y-105373200D01*
X153335000Y-105373200D02*
X153335000Y-103885300D01*
X153335000Y-103885300D02*
X150877800Y-101428100D01*
X150877800Y-101428100D02*
X150877800Y-96931000D01*
X154605000Y-107645000D02*
X154605000Y-106527400D01*
X154605000Y-103987400D02*
X151563600Y-100946000D01*
X151563600Y-100946000D02*
X151563600Y-96931000D01*
X154605000Y-105105000D02*
X154605000Y-103987400D01*
X157145000Y-107645000D02*
X157145000Y-106527400D01*
X152224000Y-96931000D02*
X152224000Y-100234300D01*
X152224000Y-100234300D02*
X155875000Y-103885300D01*
X155875000Y-103885300D02*
X155875000Y-105373200D01*
X155875000Y-105373200D02*
X157029200Y-106527400D01*
X157029200Y-106527400D02*
X157145000Y-106527400D01*
X157145000Y-103987400D02*
X152859000Y-99701400D01*
X152859000Y-99701400D02*
X152859000Y-96931000D01*
X157145000Y-105105000D02*
X157145000Y-103987400D01*
X159685000Y-106527400D02*
X159569200Y-106527400D01*
X159569200Y-106527400D02*
X158415000Y-105373200D01*
X158415000Y-105373200D02*
X158415000Y-103489900D01*
X158415000Y-103489900D02*
X153519400Y-98594300D01*
X153519400Y-98594300D02*
X153519400Y-96931000D01*
X159685000Y-107645000D02*
X159685000Y-106527400D01*
X159685000Y-103987400D02*
X154154400Y-98456800D01*
X154154400Y-98456800D02*
X154154400Y-96931000D01*
X159685000Y-105105000D02*
X159685000Y-103987400D01*
X133570800Y-95982100D02*
X133353400Y-96199500D01*
X132500000Y-96199500D02*
X133353400Y-96199500D01*
X158033500Y-90995000D02*
X158193300Y-90835200D01*
X158193300Y-90835200D02*
X158066000Y-90708000D01*
X160672500Y-91125000D02*
X158483000Y-91125000D01*
X158483000Y-91125000D02*
X158193300Y-90835200D01*
X160625000Y-93324500D02*
X160625000Y-92319900D01*
X160625000Y-92319900D02*
X160672500Y-92272400D01*
X160672500Y-92272400D02*
X160672500Y-91125000D01*
X158066000Y-89819000D02*
X158066000Y-90708000D01*
X131699500Y-77423600D02*
X131699500Y-78500000D01*
X129722800Y-78588600D02*
X129544400Y-78588600D01*
X129544400Y-78588600D02*
X129503300Y-78547500D01*
X128500000Y-78547500D02*
X129503300Y-78547500D01*
X127583000Y-101309000D02*
X127806400Y-101085600D01*
X126694000Y-101309000D02*
X127583000Y-101309000D01*
X131199500Y-61079400D02*
X131199500Y-60000000D01*
X128563500Y-65578500D02*
X128333000Y-65809000D01*
X127444000Y-65809000D02*
X128333000Y-65809000D01*
X127496700Y-60047500D02*
X127251900Y-59802700D01*
X128500000Y-60047500D02*
X127496700Y-60047500D01*
X129507700Y-96084400D02*
X129290200Y-96084400D01*
X129290200Y-96084400D02*
X129253300Y-96047500D01*
X128250000Y-96047500D02*
X129253300Y-96047500D01*
X126944000Y-83309000D02*
X126944000Y-82604500D01*
X130250000Y-105500000D02*
X130250000Y-103356000D01*
X126694000Y-101944000D02*
X127583000Y-101944000D01*
X127583000Y-101944000D02*
X128995000Y-103356000D01*
X128995000Y-103356000D02*
X130250000Y-103356000D01*
X130500000Y-89644000D02*
X130476700Y-89667300D01*
X130476700Y-89667300D02*
X130476700Y-90917800D01*
X130476700Y-90917800D02*
X125906300Y-95488200D01*
X125906300Y-95488200D02*
X125906300Y-101575400D01*
X125906300Y-101575400D02*
X126274900Y-101944000D01*
X126274900Y-101944000D02*
X126694000Y-101944000D01*
X130500000Y-87500000D02*
X130500000Y-89644000D01*
X157431000Y-89819000D02*
X157431000Y-88930000D01*
X157431000Y-88930000D02*
X160730200Y-85630800D01*
X160730200Y-85630800D02*
X160730200Y-64032600D01*
X160730200Y-64032600D02*
X159927600Y-63230000D01*
X157431000Y-90178300D02*
X157431000Y-89819000D01*
X157431000Y-90178300D02*
X157431000Y-90708000D01*
X158810000Y-63230000D02*
X159927600Y-63230000D01*
X161750000Y-62199500D02*
X160896600Y-62199500D01*
X159927600Y-63230000D02*
X159927600Y-63168500D01*
X159927600Y-63168500D02*
X160896600Y-62199500D01*
X153875000Y-93375000D02*
X156019000Y-93375000D01*
X157431000Y-90708000D02*
X156019000Y-92120000D01*
X156019000Y-92120000D02*
X156019000Y-93375000D01*
X127772700Y-83883700D02*
X127712400Y-83944000D01*
X131000000Y-72144000D02*
X131000000Y-74384500D01*
X131000000Y-74384500D02*
X127594500Y-77790000D01*
X127594500Y-77790000D02*
X127594500Y-82716400D01*
X127594500Y-82716400D02*
X127772700Y-82894600D01*
X127772700Y-82894600D02*
X127772700Y-83883700D01*
X127772700Y-83883700D02*
X129027700Y-83883700D01*
X129027700Y-83883700D02*
X130500000Y-85356000D01*
X130500000Y-87500000D02*
X130500000Y-85356000D01*
X130148000Y-67191900D02*
X129400100Y-66444000D01*
X129400100Y-66444000D02*
X127444000Y-66444000D01*
X130148000Y-67191900D02*
X130335900Y-67191900D01*
X130335900Y-67191900D02*
X131000000Y-67856000D01*
X131000000Y-70000000D02*
X131000000Y-72144000D01*
X126944000Y-83944000D02*
X127712400Y-83944000D01*
X131000000Y-68928000D02*
X131000000Y-70000000D01*
X131000000Y-68928000D02*
X131000000Y-67856000D01*
X126287000Y-102604000D02*
X125626600Y-101943600D01*
X125626600Y-101943600D02*
X125626600Y-95214900D01*
X125626600Y-95214900D02*
X128392400Y-92449100D01*
X128392400Y-92449100D02*
X128392400Y-85163800D01*
X128392400Y-85163800D02*
X127833000Y-84604400D01*
X156627300Y-88599900D02*
X156770600Y-88743200D01*
X156770600Y-88743200D02*
X156770600Y-89819000D01*
X126944000Y-84604400D02*
X127833000Y-84604400D01*
X126693600Y-102604000D02*
X126287000Y-102604000D01*
X126693600Y-102604000D02*
X126694000Y-102604400D01*
X126694000Y-102604000D02*
X126693600Y-102604000D01*
X126944000Y-84604400D02*
X126518000Y-84604400D01*
X127444000Y-67104400D02*
X128333000Y-67104400D01*
X126518000Y-84604400D02*
X126156300Y-84242700D01*
X126156300Y-84242700D02*
X126156300Y-78008800D01*
X126156300Y-78008800D02*
X128848800Y-75316300D01*
X128848800Y-75316300D02*
X128848800Y-67620200D01*
X128848800Y-67620200D02*
X128333000Y-67104400D01*
X151190000Y-63230000D02*
X150072400Y-63230000D01*
X127444000Y-67104400D02*
X126555000Y-67104400D01*
X126555000Y-67104400D02*
X126555000Y-62280700D01*
X126555000Y-62280700D02*
X127695700Y-61140000D01*
X127695700Y-61140000D02*
X129454000Y-61140000D01*
X129454000Y-61140000D02*
X130273000Y-60321000D01*
X130273000Y-60321000D02*
X130273000Y-59322100D01*
X130273000Y-59322100D02*
X130347300Y-59247800D01*
X130347300Y-59247800D02*
X146090200Y-59247800D01*
X146090200Y-59247800D02*
X150072400Y-63230000D01*
X125805000Y-103264800D02*
X125346900Y-102806700D01*
X125346900Y-102806700D02*
X125346900Y-95099100D01*
X125346900Y-95099100D02*
X128112700Y-92333300D01*
X128112700Y-92333300D02*
X128112700Y-85544500D01*
X128112700Y-85544500D02*
X127833000Y-85264800D01*
X156110200Y-89819000D02*
X156110200Y-88930000D01*
X126694000Y-103264800D02*
X125805000Y-103264800D01*
X126944000Y-85264800D02*
X127833000Y-85264800D01*
X126559300Y-85264800D02*
X126944000Y-85264800D01*
X157511200Y-86600300D02*
X155990200Y-88121300D01*
X155990200Y-88121300D02*
X155990200Y-88810000D01*
X155990200Y-88810000D02*
X156110200Y-88930000D01*
X126559300Y-85264800D02*
X126055000Y-85264800D01*
X126555000Y-67764800D02*
X126261500Y-67471300D01*
X126261500Y-67471300D02*
X126261500Y-62107700D01*
X126261500Y-62107700D02*
X127518700Y-60850500D01*
X127518700Y-60850500D02*
X129336200Y-60850500D01*
X129336200Y-60850500D02*
X129569500Y-60617200D01*
X129569500Y-60617200D02*
X129569500Y-59555600D01*
X129569500Y-59555600D02*
X130162100Y-58963000D01*
X130162100Y-58963000D02*
X150977300Y-58963000D01*
X150977300Y-58963000D02*
X155152400Y-63138100D01*
X155152400Y-63138100D02*
X155152400Y-63230000D01*
X128333000Y-67764800D02*
X128542800Y-67974600D01*
X128542800Y-67974600D02*
X128542800Y-74669100D01*
X128542800Y-74669100D02*
X125834400Y-77377500D01*
X125834400Y-77377500D02*
X125834400Y-85044200D01*
X125834400Y-85044200D02*
X126055000Y-85264800D01*
X127444000Y-67764800D02*
X126555000Y-67764800D01*
X156270000Y-63230000D02*
X155152400Y-63230000D01*
X127444000Y-67764800D02*
X128333000Y-67764800D01*
X153730000Y-63230000D02*
X154847600Y-63230000D01*
X127444000Y-68399800D02*
X126555000Y-68399800D01*
X126555000Y-68399800D02*
X125967000Y-67811800D01*
X125967000Y-67811800D02*
X125967000Y-60221800D01*
X125967000Y-60221800D02*
X127563400Y-58625400D01*
X127563400Y-58625400D02*
X153129900Y-58625400D01*
X153129900Y-58625400D02*
X157326300Y-62821800D01*
X157326300Y-62821800D02*
X157326300Y-63615100D01*
X157326300Y-63615100D02*
X156657800Y-64283600D01*
X156657800Y-64283600D02*
X155773200Y-64283600D01*
X155773200Y-64283600D02*
X154847600Y-63358000D01*
X154847600Y-63358000D02*
X154847600Y-63230000D01*
X133806000Y-104560200D02*
X132917000Y-104560200D01*
X133647000Y-86560200D02*
X133220700Y-86986500D01*
X133220700Y-86986500D02*
X133220700Y-93819200D01*
X133220700Y-93819200D02*
X131460500Y-95579400D01*
X131460500Y-95579400D02*
X131460500Y-103103700D01*
X131460500Y-103103700D02*
X132917000Y-104560200D01*
X133647000Y-86560200D02*
X134056000Y-86560200D01*
X134945000Y-86560200D02*
X135540600Y-85964600D01*
X135540600Y-85964600D02*
X135540600Y-76768600D01*
X135540600Y-76768600D02*
X133385000Y-74613000D01*
X133385000Y-74613000D02*
X133385000Y-70010300D01*
X133385000Y-70010300D02*
X133667000Y-69728300D01*
X133667000Y-69728300D02*
X133667000Y-69060200D01*
X134695000Y-104560200D02*
X143213200Y-96042000D01*
X143213200Y-96042000D02*
X154814800Y-96042000D01*
X134556000Y-69060200D02*
X133667000Y-69060200D01*
X134056000Y-86560200D02*
X134945000Y-86560200D01*
X133806000Y-104560200D02*
X134695000Y-104560200D01*
X154814800Y-96931000D02*
X154814800Y-96042000D01*
X134556000Y-68399800D02*
X133667000Y-68399800D01*
X126944000Y-85899800D02*
X126055000Y-85899800D01*
X125586400Y-85707900D02*
X125863100Y-85707900D01*
X125863100Y-85707900D02*
X126055000Y-85899800D01*
X133667000Y-68399800D02*
X132980800Y-69086000D01*
X132980800Y-69086000D02*
X132980800Y-69569900D01*
X134556000Y-67764800D02*
X133667000Y-67764800D01*
X133667000Y-67764800D02*
X132383600Y-69048200D01*
X132383600Y-69048200D02*
X132383600Y-74545200D01*
X132383600Y-74545200D02*
X135230200Y-77391800D01*
X135230200Y-77391800D02*
X135230200Y-84979600D01*
X135230200Y-84979600D02*
X134945000Y-85264800D01*
X135445000Y-67764800D02*
X140036600Y-63173200D01*
X140036600Y-63173200D02*
X145200300Y-63173200D01*
X145200300Y-63173200D02*
X148815500Y-66788400D01*
X148815500Y-66788400D02*
X156801400Y-66788400D01*
X156801400Y-66788400D02*
X157692400Y-65897400D01*
X157692400Y-65897400D02*
X157692400Y-65770000D01*
X134695000Y-103264800D02*
X142268400Y-95691400D01*
X142268400Y-95691400D02*
X155587500Y-95691400D01*
X134556000Y-67764800D02*
X135445000Y-67764800D01*
X134056000Y-85264800D02*
X134945000Y-85264800D01*
X133806000Y-103264800D02*
X134695000Y-103264800D01*
X156110200Y-96931000D02*
X156110200Y-96042000D01*
X155587500Y-95691400D02*
X155938100Y-96042000D01*
X155938100Y-96042000D02*
X156110200Y-96042000D01*
X158810000Y-65770000D02*
X157692400Y-65770000D01*
X126694000Y-103899800D02*
X127583000Y-103899800D01*
X134056000Y-85899800D02*
X133167000Y-85899800D01*
X133167000Y-85899800D02*
X132695400Y-86371400D01*
X132695400Y-86371400D02*
X132695400Y-89142600D01*
X132695400Y-89142600D02*
X131127400Y-90710600D01*
X131127400Y-90710600D02*
X131127400Y-107356500D01*
X131127400Y-107356500D02*
X130941100Y-107542800D01*
X130941100Y-107542800D02*
X129578800Y-107542800D01*
X129578800Y-107542800D02*
X127583000Y-105547000D01*
X127583000Y-105547000D02*
X127583000Y-103899800D01*
X155475200Y-89819000D02*
X155475200Y-90708000D01*
X133806000Y-103899800D02*
X132917000Y-103899800D01*
X132917000Y-103899800D02*
X131747800Y-102730600D01*
X131747800Y-102730600D02*
X131747800Y-97975600D01*
X131747800Y-97975600D02*
X132469800Y-97253600D01*
X132469800Y-97253600D02*
X136544700Y-97253600D01*
X136544700Y-97253600D02*
X142767700Y-91030600D01*
X142767700Y-91030600D02*
X155152600Y-91030600D01*
X155152600Y-91030600D02*
X155475200Y-90708000D01*
X155475200Y-96931000D02*
X155475200Y-98471200D01*
X155475200Y-98471200D02*
X156155100Y-99151100D01*
X133167000Y-83956700D02*
X131252700Y-85871000D01*
X131252700Y-85871000D02*
X131252700Y-90189600D01*
X131252700Y-90189600D02*
X130756400Y-90685900D01*
X130756400Y-90685900D02*
X130756400Y-96449400D01*
X130756400Y-96449400D02*
X129253300Y-97952500D01*
X128250000Y-97952500D02*
X129253300Y-97952500D01*
X133167000Y-83956700D02*
X133167000Y-84604400D01*
X133167000Y-84604400D02*
X134056000Y-84604400D01*
X133167000Y-83309000D02*
X133167000Y-83956700D01*
X135445000Y-66139000D02*
X135115000Y-65809000D01*
X135445000Y-67104400D02*
X135445000Y-66139000D01*
X135445000Y-66139000D02*
X138690600Y-62893400D01*
X138690600Y-62893400D02*
X148060600Y-62893400D01*
X148060600Y-62893400D02*
X149667200Y-64500000D01*
X149667200Y-64500000D02*
X151458200Y-64500000D01*
X151458200Y-64500000D02*
X152612400Y-65654200D01*
X152612400Y-65654200D02*
X152612400Y-65770000D01*
X153730000Y-65770000D02*
X152612400Y-65770000D01*
X162577500Y-91125000D02*
X162577500Y-90121700D01*
X161750000Y-64800500D02*
X161750000Y-89294200D01*
X161750000Y-89294200D02*
X162577500Y-90121700D01*
X161750000Y-64298200D02*
X161750000Y-64800500D01*
X161750000Y-64298200D02*
X161750000Y-63795900D01*
X133806000Y-102604000D02*
X134700600Y-102604000D01*
X134700600Y-102604000D02*
X142256100Y-95048500D01*
X142256100Y-95048500D02*
X155901800Y-95048500D01*
X155901800Y-95048500D02*
X156771000Y-95917700D01*
X156771000Y-95917700D02*
X156771000Y-96042000D01*
X156771000Y-96042000D02*
X156771000Y-96486500D01*
X158066000Y-96042000D02*
X156771000Y-96042000D01*
X133806000Y-102604400D02*
X133806000Y-102604000D01*
X153730000Y-65770000D02*
X154847600Y-65770000D01*
X154847600Y-65770000D02*
X154847600Y-65655600D01*
X154847600Y-65655600D02*
X155749600Y-64753600D01*
X155749600Y-64753600D02*
X156591300Y-64753600D01*
X156591300Y-64753600D02*
X157793600Y-63551300D01*
X157793600Y-63551300D02*
X157793600Y-62297200D01*
X157793600Y-62297200D02*
X158794700Y-61296100D01*
X158794700Y-61296100D02*
X162427900Y-61296100D01*
X162427900Y-61296100D02*
X162502200Y-61370400D01*
X162502200Y-61370400D02*
X162502200Y-63043700D01*
X162502200Y-63043700D02*
X161750000Y-63795900D01*
X158066000Y-96042000D02*
X159118900Y-94989100D01*
X159118900Y-94989100D02*
X160555800Y-94989100D01*
X160555800Y-94989100D02*
X162577500Y-92967400D01*
X162577500Y-92967400D02*
X162577500Y-91125000D01*
X133806000Y-101309000D02*
X132917000Y-101309000D01*
X132917000Y-101309000D02*
X132917000Y-102604000D01*
X132917000Y-102604000D02*
X133806000Y-102604000D01*
X158066000Y-96931000D02*
X158066000Y-96042000D01*
X134556000Y-67104400D02*
X135445000Y-67104400D01*
X131787900Y-67104400D02*
X134556000Y-67104400D01*
X130198900Y-80340900D02*
X130679900Y-79859900D01*
X130679900Y-79859900D02*
X130679900Y-75262900D01*
X130679900Y-75262900D02*
X131787900Y-74154900D01*
X131787900Y-74154900D02*
X131787900Y-67104400D01*
X133167000Y-83309000D02*
X130198900Y-80340900D01*
X130198900Y-80340900D02*
X129614900Y-80340900D01*
X129614900Y-80340900D02*
X129503300Y-80452500D01*
X134056000Y-83309000D02*
X133167000Y-83309000D01*
X128500000Y-62856700D02*
X131787900Y-66144600D01*
X131787900Y-66144600D02*
X131787900Y-67104400D01*
X128500000Y-80452500D02*
X129503300Y-80452500D01*
X156771000Y-96486500D02*
X156770600Y-96486900D01*
X156770600Y-96486900D02*
X156770600Y-96931000D01*
X156771000Y-96486500D02*
X156771000Y-96931000D01*
X128500000Y-61952500D02*
X128500000Y-62856700D01*
X134556000Y-65809000D02*
X135115000Y-65809000D01*
X167230000Y-67770000D02*
X167230000Y-68887600D01*
X167480000Y-80770000D02*
X167480000Y-79652400D01*
X167480000Y-79652400D02*
X167595300Y-79652400D01*
X167595300Y-79652400D02*
X168500000Y-78747700D01*
X168500000Y-78747700D02*
X168500000Y-70041800D01*
X168500000Y-70041800D02*
X167345800Y-68887600D01*
X167345800Y-68887600D02*
X167230000Y-68887600D01*
X167230000Y-70310000D02*
X167230000Y-71427600D01*
X167480000Y-83310000D02*
X167480000Y-82192400D01*
X167480000Y-82192400D02*
X167365600Y-82192400D01*
X167365600Y-82192400D02*
X166463600Y-81290400D01*
X166463600Y-81290400D02*
X166463600Y-72194000D01*
X166463600Y-72194000D02*
X167230000Y-71427600D01*
X169770000Y-70310000D02*
X169770000Y-71427600D01*
X170020000Y-83310000D02*
X170020000Y-82192400D01*
X170020000Y-82192400D02*
X169904800Y-82192400D01*
X169904800Y-82192400D02*
X169000700Y-81288300D01*
X169000700Y-81288300D02*
X169000700Y-72196900D01*
X169000700Y-72196900D02*
X169770000Y-71427600D01*
X127444000Y-69060200D02*
X127847100Y-69060200D01*
X127847100Y-69060200D02*
X128263100Y-69476200D01*
X128263100Y-69476200D02*
X128263100Y-74553100D01*
X128263100Y-74553100D02*
X124989200Y-77827000D01*
X124989200Y-77827000D02*
X124989200Y-86022500D01*
X124989200Y-86022500D02*
X125526900Y-86560200D01*
X125526900Y-86560200D02*
X126055000Y-86560200D01*
X126757100Y-92844300D02*
X125024800Y-94576600D01*
X125024800Y-94576600D02*
X125024800Y-103780000D01*
X125024800Y-103780000D02*
X125805000Y-104560200D01*
X126757100Y-92844300D02*
X126937100Y-92844300D01*
X126937100Y-92844300D02*
X127833000Y-91948400D01*
X127833000Y-91948400D02*
X127833000Y-86560200D01*
X126694000Y-104560200D02*
X125805000Y-104560200D01*
X154814800Y-89819000D02*
X154814800Y-90708000D01*
X135757700Y-92127100D02*
X141275500Y-92127100D01*
X141275500Y-92127100D02*
X142694600Y-90708000D01*
X142694600Y-90708000D02*
X154814800Y-90708000D01*
X126944000Y-86560200D02*
X127833000Y-86560200D01*
X126499500Y-86560200D02*
X126944000Y-86560200D01*
X126499500Y-86560200D02*
X126055000Y-86560200D01*
G36*
X129994400Y-96133769D02*
X129755549Y-96372620D01*
X129508639Y-96372620D01*
X128364736Y-95898800D01*
X128313250Y-95898800D01*
X127839430Y-96372620D01*
X127500700Y-96372620D01*
X127500700Y-95722380D01*
X127875350Y-95722380D01*
X127875350Y-95704275D01*
X127995310Y-95824235D01*
X129994400Y-95824235D01*
X129994400Y-96133769D01*
X129994400Y-96133769D01*
G37*
X129994400Y-96133769D02*
X129755549Y-96372620D01*
X129508639Y-96372620D01*
X128364736Y-95898800D01*
X128313250Y-95898800D01*
X127839430Y-96372620D01*
X127500700Y-96372620D01*
X127500700Y-95722380D01*
X127875350Y-95722380D01*
X127875350Y-95704275D01*
X127995310Y-95824235D01*
X129994400Y-95824235D01*
X129994400Y-96133769D01*
G36*
X133099440Y-96491600D02*
X133023529Y-96491600D01*
X132904550Y-96372620D01*
X132222500Y-96372620D01*
X132222500Y-95895030D01*
X132395150Y-95722380D01*
X132799720Y-95722380D01*
X132799720Y-95824235D01*
X133099440Y-95824235D01*
X133099440Y-96491600D01*
X133099440Y-96491600D01*
G37*
X133099440Y-96491600D02*
X133023529Y-96491600D01*
X132904550Y-96372620D01*
X132222500Y-96372620D01*
X132222500Y-95895030D01*
X132395150Y-95722380D01*
X132799720Y-95722380D01*
X132799720Y-95824235D01*
X133099440Y-95824235D01*
X133099440Y-96491600D01*
G36*
X157082079Y-65338200D02*
X156988404Y-65478395D01*
X156977138Y-65535030D01*
X156485769Y-66026400D01*
X155558598Y-66026400D01*
X155559633Y-66021196D01*
X156065230Y-65515600D01*
X156591300Y-65515600D01*
X156591300Y-65515599D01*
X156882904Y-65457596D01*
X156882905Y-65457596D01*
X157061592Y-65338200D01*
X157061593Y-65338200D01*
X157082079Y-65338200D01*
X157082079Y-65338200D01*
G37*
X157082079Y-65338200D02*
X156988404Y-65478395D01*
X156977138Y-65535030D01*
X156485769Y-66026400D01*
X155558598Y-66026400D01*
X155559633Y-66021196D01*
X156065230Y-65515600D01*
X156591300Y-65515600D01*
X156591300Y-65515599D01*
X156882904Y-65457596D01*
X156882905Y-65457596D01*
X157061592Y-65338200D01*
X157061593Y-65338200D01*
X157082079Y-65338200D01*
M02*
