M48
;DRILL file {kicad (2014-jul-16 BZR unknown)-product} date Tue 14 Oct 2014 06:48:52 PM EDT
;FORMAT={2:4/ absolute / inch / suppress leading zeros}
FMAT,2
INCH,TZ
T1C0.025
T2C0.040
%
G90
G05
M72
T1
X49443Y-33743
X49904Y-36553
X49978Y-32521
X50099Y-23544
X50317Y-39797
X50616Y-25818
X50987Y-37829
X51072Y-30940
X51239Y-26454
X51653Y-24047
X51850Y-30482
X52355Y-27390
X52587Y-37788
X53448Y-36271
X61255Y-37674
X61478Y-39036
X61664Y-34882
X62012Y-34095
X62218Y-35825
T2
X45858Y-39248
X45858Y-40248
X45858Y-41248
X45858Y-42248
X45957Y-25272
X45957Y-26272
X45957Y-27272
X45957Y-28272
X45957Y-32161
X45957Y-33161
X45957Y-34161
X45957Y-35161
X46858Y-39248
X46858Y-40248
X46858Y-41248
X46858Y-42248
X46957Y-25272
X46957Y-26272
X46957Y-27272
X46957Y-28272
X46957Y-32161
X46957Y-33161
X46957Y-34161
X46957Y-35161
X55898Y-39248
X55898Y-40248
X55898Y-41248
X55898Y-42248
X55996Y-25272
X55996Y-26272
X55996Y-27272
X55996Y-28272
X55996Y-32161
X55996Y-33161
X55996Y-34161
X55996Y-35161
X56898Y-39248
X56898Y-40248
X56898Y-41248
X56898Y-42248
X56996Y-25272
X56996Y-26272
X56996Y-27272
X56996Y-28272
X56996Y-32161
X56996Y-33161
X56996Y-34161
X56996Y-35161
X59524Y-24894
X59524Y-25894
X59868Y-31341
X59868Y-32341
X59868Y-41380
X59868Y-42380
X60524Y-24894
X60524Y-25894
X60868Y-31341
X60868Y-32341
X60868Y-41380
X60868Y-42380
X61524Y-24894
X61524Y-25894
X61868Y-31341
X61868Y-32341
X61868Y-41380
X61868Y-42380
X62524Y-24894
X62524Y-25894
X62868Y-31341
X62868Y-32341
X62868Y-41380
X62868Y-42380
X65839Y-24681
X65839Y-25681
X65839Y-26681
X65839Y-27681
X65937Y-29799
X65937Y-30799
X65937Y-31799
X65937Y-32799
X66839Y-24681
X66839Y-25681
X66839Y-26681
X66839Y-27681
X66937Y-29799
X66937Y-30799
X66937Y-31799
X66937Y-32799
T0
M30
