%FSLAX46Y46*%
G04 Gerber Fmt 4.6, Leading zero omitted, Abs format (unit mm)*
G04 Created by KiCad (PCBNEW (2014-jul-16 BZR unknown)-product) date Tue 14 Oct 2014 06:58:31 PM EDT*
%MOMM*%
G01*
G04 APERTURE LIST*
%ADD10C,0.100000*%
%ADD11R,1.727200X1.727200*%
%ADD12O,1.727200X1.727200*%
G04 APERTURE END LIST*
D10*
D11*
X116730000Y-64190000D03*
D12*
X119270000Y-64190000D03*
X116730000Y-66730000D03*
X119270000Y-66730000D03*
X116730000Y-69270000D03*
X119270000Y-69270000D03*
X116730000Y-71810000D03*
X119270000Y-71810000D03*
D11*
X116730000Y-81690000D03*
D12*
X119270000Y-81690000D03*
X116730000Y-84230000D03*
X119270000Y-84230000D03*
X116730000Y-86770000D03*
X119270000Y-86770000D03*
X116730000Y-89310000D03*
X119270000Y-89310000D03*
D11*
X116480000Y-99690000D03*
D12*
X119020000Y-99690000D03*
X116480000Y-102230000D03*
X119020000Y-102230000D03*
X116480000Y-104770000D03*
X119020000Y-104770000D03*
X116480000Y-107310000D03*
X119020000Y-107310000D03*
D11*
X159685000Y-79605000D03*
D12*
X159685000Y-82145000D03*
X157145000Y-79605000D03*
X157145000Y-82145000D03*
X154605000Y-79605000D03*
X154605000Y-82145000D03*
X152065000Y-79605000D03*
X152065000Y-82145000D03*
D11*
X144770000Y-71810000D03*
D12*
X142230000Y-71810000D03*
X144770000Y-69270000D03*
X142230000Y-69270000D03*
X144770000Y-66730000D03*
X142230000Y-66730000D03*
X144770000Y-64190000D03*
X142230000Y-64190000D03*
D11*
X144770000Y-89310000D03*
D12*
X142230000Y-89310000D03*
X144770000Y-86770000D03*
X142230000Y-86770000D03*
X144770000Y-84230000D03*
X142230000Y-84230000D03*
X144770000Y-81690000D03*
X142230000Y-81690000D03*
D11*
X144520000Y-107310000D03*
D12*
X141980000Y-107310000D03*
X144520000Y-104770000D03*
X141980000Y-104770000D03*
X144520000Y-102230000D03*
X141980000Y-102230000D03*
X144520000Y-99690000D03*
X141980000Y-99690000D03*
D11*
X152065000Y-107645000D03*
D12*
X152065000Y-105105000D03*
X154605000Y-107645000D03*
X154605000Y-105105000D03*
X157145000Y-107645000D03*
X157145000Y-105105000D03*
X159685000Y-107645000D03*
X159685000Y-105105000D03*
D11*
X167230000Y-62690000D03*
D12*
X169770000Y-62690000D03*
X167230000Y-65230000D03*
X169770000Y-65230000D03*
X167230000Y-67770000D03*
X169770000Y-67770000D03*
X167230000Y-70310000D03*
X169770000Y-70310000D03*
D11*
X167480000Y-75690000D03*
D12*
X170020000Y-75690000D03*
X167480000Y-78230000D03*
X170020000Y-78230000D03*
X167480000Y-80770000D03*
X170020000Y-80770000D03*
X167480000Y-83310000D03*
X170020000Y-83310000D03*
D11*
X158810000Y-63230000D03*
D12*
X158810000Y-65770000D03*
X156270000Y-63230000D03*
X156270000Y-65770000D03*
X153730000Y-63230000D03*
X153730000Y-65770000D03*
X151190000Y-63230000D03*
X151190000Y-65770000D03*
M02*
